<svg width="542" height="542" viewBox="0 0 542 542" fill="none" xmlns="http://www.w3.org/2000/svg">
<g clip-path="url(#clip0)">
<path d="M434.523 127.471L413.536 118.377L345.653 275.039L366.641 284.133L434.523 127.471Z" fill="white"/>
<path d="M419.508 153.82L404.657 147.424C398.045 144.606 395.01 136.909 397.936 130.297L412.57 96.5845C415.389 89.9721 423.085 86.9369 429.698 89.8637L444.548 96.2593C451.161 99.0777 454.196 106.774 451.269 113.386L436.635 147.099C433.708 153.603 426.012 156.638 419.508 153.82Z" fill="#FE6E27"/>
<path d="M530.51 159.24L324.658 70.0264L336.257 43.2516C338.316 38.482 343.845 36.314 348.723 38.3736L537.23 120.107C542 122.167 544.168 127.695 542.108 132.573L530.51 159.24Z" fill="#FFBB4D"/>
<path d="M524.055 153.13L333.674 70.6371L326.476 87.2482L516.857 169.741L524.055 153.13Z" fill="#ED5D1D"/>
<path d="M531.702 131.489L344.17 50.2977C343.086 49.8641 342.544 48.5633 343.086 47.4793L343.736 45.9617C344.17 44.8777 345.471 44.3357 346.555 44.8777L534.087 126.069C535.171 126.503 535.713 127.804 535.171 128.888L534.52 130.405C534.087 131.381 532.786 131.923 531.702 131.489Z" fill="#F9B046"/>
<path d="M218.209 89.1049L234.794 145.473L261.894 237.504L265.363 249.32L229.916 259.726L172.356 276.637L168.887 264.821L141.787 172.79L125.31 116.422L201.732 93.9829L218.209 89.1049Z" fill="#8260C6"/>
<path d="M147.777 109.782L125.209 116.413L172.299 276.675L194.867 270.044L147.777 109.782Z" fill="#8467C9"/>
<path d="M226.556 89.972L239.889 135.392C241.082 139.619 238.914 144.064 234.794 145.581C234.578 145.69 234.361 145.69 234.252 145.798L214.849 151.543L142.438 172.79C142.221 172.898 142.004 172.898 141.787 172.898C137.56 173.765 133.224 171.272 132.031 167.044L118.698 121.733C114.579 107.533 122.709 92.5736 136.909 88.4544L193.277 71.8692C193.819 71.7608 194.361 71.544 195.012 71.4356C208.562 68.292 222.545 76.3136 226.556 89.972Z" fill="#8260C6"/>
<path d="M271.65 243.358L284.442 286.826C288.886 302.002 280.106 318.154 264.93 322.598L221.028 335.498L212.464 337.991C197.288 342.436 181.136 333.655 176.692 318.479L163.901 275.011C162.708 270.783 164.876 266.339 168.996 264.821C169.212 264.713 169.429 264.713 169.538 264.604L229.266 247.044L261.244 237.613C261.461 237.504 261.678 237.504 261.894 237.504C266.122 236.637 270.35 239.13 271.65 243.358Z" fill="#8260C6"/>
<path d="M181.209 55.4537L138.153 68.1047L150.071 108.664L193.126 96.0133L181.209 55.4537Z" fill="#8260C6"/>
<path d="M188.074 63.956L162.058 71.8692L137.234 79.3488L135.825 74.5792C135.717 74.1456 135.934 73.712 136.367 73.4952L136.909 73.3868L164.118 65.1484L185.256 58.7528L185.689 58.6444C186.123 58.536 186.556 58.7528 186.773 59.1864L188.074 63.956Z" fill="#ED5D1D"/>
<path d="M185.689 60.3788L163.576 67.0996L137.343 75.0128L136.909 73.3868L128.237 44.444C127.478 41.9508 128.888 39.3492 131.381 38.6988L157.072 30.894L170.838 26.7748C173.332 26.016 175.933 27.4252 176.584 29.9184L185.147 58.8612L185.689 60.3788Z" fill="#FE6E27"/>
<path d="M140.92 69.9181L140.27 70.1349C139.728 70.2433 139.294 70.0265 139.077 69.4845L131.598 44.0105C131.489 43.4685 131.706 43.0349 132.248 42.8181L132.898 42.6013C133.44 42.4929 133.874 42.7097 134.091 43.2517L141.57 68.7257C141.679 69.2677 141.462 69.8097 140.92 69.9181Z" fill="#ED5D1D"/>
<path d="M145.906 68.5088L145.256 68.7256C144.714 68.834 144.28 68.6172 144.064 68.0752L136.584 42.6012C136.476 42.0592 136.692 41.6256 137.234 41.4088L137.885 41.192C138.427 41.0836 138.86 41.3004 139.077 41.8424L146.557 67.3164C146.665 67.8584 146.34 68.292 145.906 68.5088Z" fill="#ED5D1D"/>
<path d="M150.784 66.9912L150.134 67.208C149.592 67.3164 149.158 67.0996 148.942 66.5576L141.57 41.192C141.462 40.65 141.679 40.2164 142.221 39.9996L142.871 39.7828C143.413 39.6744 143.847 39.8912 144.064 40.4332L151.543 65.9072C151.652 66.3408 151.326 66.8828 150.784 66.9912Z" fill="#ED5D1D"/>
<path d="M155.771 65.5821L155.12 65.7989C154.578 65.9073 154.145 65.6905 153.928 65.1485L146.448 39.6745C146.34 39.1325 146.557 38.6989 147.099 38.4821L147.749 38.2653C148.291 38.1569 148.725 38.3737 148.942 38.9157L156.421 64.3897C156.53 64.9317 156.313 65.4737 155.771 65.5821Z" fill="#ED5D1D"/>
<path d="M160.757 64.1728L160.107 64.3896C159.565 64.498 159.131 64.2812 158.914 63.7392L151.435 38.2652C151.326 37.7232 151.543 37.2896 152.085 37.0728L152.736 36.856C153.278 36.7476 153.711 36.9644 153.928 37.5064L161.408 62.9804C161.516 63.414 161.191 63.956 160.757 64.1728Z" fill="#ED5D1D"/>
<path d="M165.635 62.6552L164.985 62.872C164.443 62.9804 164.009 62.7636 163.792 62.2216L156.313 36.856C156.204 36.314 156.421 35.8804 156.963 35.6636L157.614 35.4468C158.156 35.3384 158.589 35.5552 158.806 36.0972L166.286 61.5712C166.394 62.0048 166.177 62.5468 165.635 62.6552Z" fill="#ED5D1D"/>
<path d="M170.622 61.2461L169.971 61.4629C169.429 61.5713 168.996 61.3545 168.779 60.8125L161.299 35.3385C161.191 34.7965 161.408 34.3629 161.95 34.1461L162.6 33.9293C163.142 33.8209 163.576 34.0377 163.792 34.5797L171.272 60.0537C171.38 60.5957 171.055 61.0293 170.622 61.2461Z" fill="#ED5D1D"/>
<path d="M175.608 59.7284L174.958 59.9452C174.416 60.0536 173.982 59.8368 173.765 59.2948L166.286 33.8208C166.177 33.2788 166.394 32.8452 166.936 32.6284L167.586 32.4116C168.128 32.3032 168.562 32.52 168.779 33.062L176.258 58.536C176.367 59.078 176.042 59.62 175.608 59.7284Z" fill="#ED5D1D"/>
<path d="M180.486 58.3192L179.836 58.536C179.294 58.6444 178.86 58.4276 178.643 57.8856L171.164 32.4116C171.055 31.8696 171.272 31.436 171.814 31.2192L172.464 31.0024C173.006 30.894 173.44 31.1108 173.657 31.6528L181.136 57.1268C181.245 57.6688 181.028 58.2108 180.486 58.3192Z" fill="#ED5D1D"/>
<path opacity="0.22" d="M188.074 63.956L162.058 71.8692C162.708 70.3516 163.25 68.7256 163.684 67.0996C163.792 66.4492 164.009 65.7988 164.118 65.1484C164.334 64.2812 164.443 63.5224 164.551 62.6552C164.768 61.0292 164.876 59.5116 164.876 58.1024C164.876 57.452 164.876 56.91 164.876 56.2596C164.551 47.696 161.191 38.8072 157.18 30.894L170.947 26.7748C173.44 26.016 176.042 27.4252 176.692 29.9184L185.256 58.8612L185.689 58.7528C186.123 58.6444 186.556 58.8612 186.773 59.2948L188.074 63.956Z" fill="#C64010"/>
<path opacity="0.61" d="M234.794 145.473L261.786 237.504C266.014 236.637 270.35 239.13 271.542 243.358L284.333 286.826C288.778 302.002 279.997 318.154 264.821 322.598L220.919 335.498C226.014 324.008 229.158 311.65 229.808 297.124C230.35 284.875 230.35 272.409 229.808 259.835C229.591 255.607 229.374 251.38 229.158 247.152C226.99 215.391 221.895 183.413 215.066 153.169C214.957 152.627 214.849 152.085 214.74 151.543C210.513 132.79 206.827 113.17 201.732 94.0912C199.673 86.3948 197.505 78.9152 194.903 71.4356C208.562 68.292 222.545 76.3136 226.556 89.972L239.889 135.392C241.082 139.511 238.805 143.955 234.794 145.473Z" fill="#7458BA"/>
<path d="M128.02 104.606C130.08 95.392 141.57 89.3216 149.592 95.934C159.24 103.956 164.66 122.275 167.153 134.091C168.237 139.294 168.887 144.714 167.586 149.809C164.551 161.299 151.977 165.635 143.847 156.963C137.126 149.917 133.874 139.511 131.164 130.405C128.996 123.576 126.178 112.844 128.02 104.606Z" fill="#8467C9"/>
<path d="M322.707 36.314L284.333 53.2244L275.336 29.0512C274.035 25.474 275.661 21.3548 279.238 19.8372L293.656 13.55L301.569 10.0812C305.146 8.56361 309.265 9.97281 311 13.4416L321.406 33.8208L322.707 36.314Z" fill="white"/>
<path d="M281.406 25.9076L288.236 42.6012C288.886 44.1188 290.62 44.7692 292.138 44.1188L313.384 34.7964C314.902 34.146 315.552 32.3032 314.794 30.894L309.807 20.8128C309.157 19.6204 307.856 18.97 306.447 19.2952L293.439 22.6556L291.921 20.596C291.054 19.512 289.645 19.1868 288.344 19.7288L282.816 22.222C281.406 22.764 280.756 24.39 281.406 25.9076Z" fill="#F2F2F2"/>
<path opacity="0.37" d="M321.406 33.8208C319.238 34.3628 316.853 34.7964 315.878 35.1216C312.951 35.8804 308.723 38.2652 305.688 37.8316C304.279 31.7612 302.978 24.7152 299.292 19.512C297.883 17.4524 295.824 15.2844 293.764 13.6584L301.677 10.1896C305.254 8.67201 309.374 10.0812 311.108 13.55L321.406 33.8208Z" fill="#F2F2F2"/>
<path d="M329.753 41.6256L283.466 61.8964L280.214 54.4168C278.046 49.4304 280.322 43.6852 285.2 41.5172L313.601 29.0512C318.588 26.8832 324.333 29.1596 326.501 34.0376L329.753 41.6256Z" fill="#FE6E27"/>
<path d="M331.596 43.6852L283.791 64.7148L282.816 62.4384C282.382 61.5712 282.816 60.4872 283.683 60.162L328.344 40.5416C329.211 40.108 330.295 40.5416 330.62 41.4088L331.596 43.6852Z" fill="#ED5D1D"/>
<path d="M355.335 91.8148L331.704 259.401C328.018 285.417 325.417 303.737 325.417 303.737C324.116 313.059 315.444 319.563 306.122 318.262L241.732 309.157C240.106 308.94 238.697 308.506 237.288 307.856C230.458 304.821 226.122 297.558 227.206 289.753L255.282 91.7064C256.691 81.5168 263.304 72.7364 272.734 68.6172L328.777 43.7936C332.463 42.1676 335.932 41.9508 339.184 42.818C345.688 44.444 351.108 49.9724 354.034 56.4764C358.912 67.6416 356.961 80.3244 355.335 91.8148Z" fill="#70BA73"/>
<path d="M272.518 129.321L267.206 128.562C263.52 128.02 260.81 124.552 261.352 120.758L264.171 101.137C264.713 97.4516 268.182 94.7416 271.976 95.2836L277.287 96.0424C280.973 96.5844 283.683 100.053 283.141 103.847L280.322 123.468C279.78 127.153 276.203 129.755 272.518 129.321Z" fill="#63AA63"/>
<path d="M302.111 133.44L296.799 132.682C293.114 132.14 290.404 128.671 290.946 124.877L293.764 105.256C294.306 101.571 297.775 98.8609 301.569 99.4029L306.88 100.162C310.566 100.704 313.276 104.172 312.734 107.966L309.916 127.587C309.374 131.381 305.905 133.982 302.111 133.44Z" fill="#63AA63"/>
<path d="M331.704 137.668L326.392 136.909C322.707 136.367 319.997 132.898 320.539 129.104L323.357 109.484C323.899 105.798 327.368 103.088 331.162 103.63L336.474 104.389C340.159 104.931 342.869 108.4 342.327 112.194L339.509 131.814C338.967 135.608 335.498 138.21 331.704 137.668Z" fill="#63AA63"/>
<path d="M247.663 143.99L234.01 240.477L332.321 254.388L345.974 157.901L247.663 143.99Z" fill="#63AA63"/>
<path opacity="0.32" d="M355.335 91.8148L331.704 259.401C328.018 285.417 325.417 303.737 325.417 303.737C324.116 313.059 315.444 319.563 306.122 318.262L241.732 309.157C240.106 308.94 238.697 308.506 237.288 307.856C270.892 279.997 294.631 243.358 311 201.732C330.62 151.76 348.072 96.476 339.184 42.818C345.688 44.444 351.108 49.9724 354.034 56.4764C358.912 67.6416 356.961 80.3244 355.335 91.8148Z" fill="#559355"/>
<path d="M80.8664 459.291H79.674C74.1456 459.399 69.5928 454.955 69.4844 449.427L64.6064 165.31C64.498 159.782 68.9424 155.229 74.4708 155.12H75.6632C81.1916 155.012 85.7444 159.456 85.8528 164.985L90.7308 449.101C90.7308 454.63 86.3948 459.183 80.8664 459.291Z" fill="#FFC673"/>
<path d="M153.061 509.914L8.13 512.407C8.3468 510.022 8.56361 507.637 8.9972 505.361C14.8508 467.312 43.902 438.261 79.3488 437.611C88.5628 437.502 97.4516 439.237 105.69 442.706C128.888 452.353 146.665 475.009 151.977 502.868C152.41 505.144 152.736 507.529 153.061 509.914Z" fill="#FE6E27"/>
<path d="M161.299 511.215C161.299 513.599 160.432 515.659 158.914 517.285C157.397 518.803 155.337 519.778 152.952 519.887L8.672 522.271C4.0108 522.38 0.1084 518.586 0 513.925C0 511.54 0.8672 509.48 2.3848 507.854C3.9024 506.336 5.962 505.361 8.3468 505.252L152.627 502.759C157.288 502.759 161.191 506.445 161.299 511.215Z" fill="#ED5D1D"/>
<path opacity="0.26" d="M161.299 511.215C161.299 513.599 160.432 515.659 158.914 517.285C157.397 518.803 155.337 519.778 152.952 519.886L94.0912 520.862C95.5004 517.61 96.6928 514.25 97.8852 510.889C98.7524 508.504 99.5112 506.12 100.27 503.735C101.896 498.64 103.305 493.545 104.498 488.776C108.292 473.491 108.508 457.773 105.582 442.706C128.779 452.353 146.557 475.009 151.868 502.868H152.519C157.288 502.759 161.191 506.445 161.299 511.215Z" fill="#D3460F"/>
<path d="M35.3384 466.987C43.2516 458.424 56.4764 446.933 69.1592 445.633C91.1644 443.356 86.2864 471.757 76.6388 481.513C69.5928 488.559 59.62 492.787 49.4304 494.738C41.3004 496.364 29.0512 496.472 26.4496 487.475C25.5824 484.548 26.1244 481.405 27.2084 478.478C28.4008 475.443 31.3276 471.323 35.3384 466.987Z" fill="#FF7D50"/>
<path d="M364.658 503.193H184.605C177.126 503.193 170.947 497.122 170.947 489.534V472.732H378.208V489.534C378.208 497.122 372.137 503.193 364.658 503.193Z" fill="#F7AC41"/>
<path d="M418.966 211.705L417.99 226.231L417.774 229.158L401.405 464.386C400.321 480.537 386.88 493.003 370.728 493.003H178.643C162.492 493.003 149.05 480.537 147.966 464.386L146.665 445.632L145.039 421.784L143.63 401.188L140.92 361.731L138.86 332.354L131.706 229.049L131.489 226.122L130.622 213.114L130.514 211.597H418.966V211.705Z" fill="#FFBB4D"/>
<path d="M418.966 211.705L417.99 226.231L417.774 229.158L401.405 464.386C400.321 480.537 386.88 493.003 370.728 493.003H236.962C369.861 438.912 376.473 297.883 366.609 211.705H418.966Z" fill="#F9B046"/>
<path d="M199.022 258.751C231.868 232.518 283.466 222.654 309.807 262.003C348.94 320.539 299.618 406.175 249.754 440.321C208.887 468.288 157.288 443.681 152.41 393.384C148.616 354.251 157.722 308.723 181.353 276.745C186.231 270.241 192.193 264.171 199.022 258.751Z" fill="#FFC673"/>
<path d="M418.966 211.705L417.665 229.158H131.598L130.405 211.705H418.966Z" fill="#F9AC3D"/>
<path d="M418.966 211.705L417.882 226.231H131.381L130.405 211.705H418.966Z" fill="#F7AC41"/>
<path d="M432.299 206.936V215.608C432.299 215.824 432.082 216.041 431.866 216.041H117.506C117.289 216.041 117.072 215.824 117.072 215.608V206.936C117.072 201.949 121.083 197.938 126.069 197.938H423.41C428.288 197.938 432.299 202.058 432.299 206.936Z" fill="#FFBB4D"/>
<path d="M291.813 197.938V226.231C291.813 227.315 291.596 228.29 291.162 229.049C290.404 230.458 289.211 231.651 287.694 232.193C286.935 232.518 286.176 232.626 285.417 232.626H261.136C258.534 232.626 256.366 231.109 255.282 229.049C254.848 228.182 254.632 227.206 254.632 226.231V197.938H291.813Z" fill="#F9AC3D"/>
<path d="M272.734 227.532C279.918 227.532 285.742 221.708 285.742 214.524C285.742 207.34 279.918 201.516 272.734 201.516C265.55 201.516 259.726 207.34 259.726 214.524C259.726 221.708 265.55 227.532 272.734 227.532Z" fill="white"/>
<path d="M281.081 211.705C280.756 210.838 280.322 210.079 279.78 209.321C276.854 205.527 271.434 204.768 267.531 207.695C267.423 207.803 265.58 209.212 262.436 211.705C250.621 221.028 220.377 245.635 190.892 274.144C168.67 295.607 151.218 315.227 138.86 332.355C122.275 355.335 115.012 373.872 116.422 389.048C117.289 397.611 121.516 409.535 136.909 417.34L145.039 421.785L143.63 401.189C135.5 396.744 134.091 391.216 133.657 387.422C133.224 382.435 134.308 374.305 140.812 361.731C149.375 345.254 167.153 321.189 202.816 286.718C239.672 251.055 277.721 221.787 278.046 221.461C281.19 219.185 282.274 215.174 281.081 211.705Z" fill="#D17A11"/>
<path d="M422.218 329.211C418.099 332.354 413.221 331.812 408.126 329.644C404.874 328.235 401.514 326.284 398.37 324.116C394.468 321.623 390.782 318.913 387.422 317.287C387.096 317.178 386.771 317.178 386.554 317.504C386.554 317.504 386.663 317.504 386.771 317.395C389.156 332.68 392.3 347.964 395.01 363.248C396.419 371.162 397.72 379.075 398.804 386.988C399.888 395.226 402.489 411.378 392.408 411.161C384.82 411.053 381.351 396.31 379.4 389.048C376.69 379.075 374.197 368.994 371.704 358.912C370.294 353.167 368.777 347.422 367.259 341.677C366.934 340.484 365.525 340.81 365.633 342.11C366.5 350.674 367.151 359.346 367.91 367.91C368.452 374.305 368.994 380.701 369.644 386.988C370.62 395.443 372.571 412.028 364.332 414.955C354.251 418.532 352.083 397.178 350.349 388.831C350.24 388.289 350.132 387.747 350.024 387.096C348.506 379.725 346.88 372.354 345.254 364.874C344.062 359.454 342.978 353.926 342.002 348.506C341.785 347.205 340.376 347.422 340.376 348.723C340.81 355.444 341.46 362.056 342.11 368.777C343.303 379.292 344.604 389.806 345.254 400.43C345.254 400.538 345.254 400.646 345.254 400.755C345.688 407.476 345.796 418.749 339.617 420.158C338.858 420.375 338.1 420.267 337.341 419.942C328.669 416.364 321.298 382.327 317.178 360.105C316.853 358.262 316.528 356.528 316.203 354.902C316.203 354.793 316.203 354.793 316.203 354.685C315.986 353.384 314.468 353.601 314.577 354.902C314.685 356.419 314.794 358.154 314.902 359.996C315.01 361.406 315.119 362.923 315.227 364.549C316.528 381.568 318.046 404.332 317.287 408.777C315.878 416.906 309.482 422.435 305.363 413.438C304.387 411.27 303.086 403.79 301.786 394.468C299.618 379.292 297.45 359.563 296.257 350.999C294.631 339.509 292.03 315.119 289.211 287.585C288.019 276.095 286.826 264.062 285.526 252.247C285.309 250.512 285.2 248.886 284.984 247.152C284.55 243.358 284.225 239.564 283.791 235.77C283.683 234.578 283.574 233.385 283.466 232.301C283.358 231.217 283.249 230.133 283.141 229.049C282.707 225.255 282.382 221.461 281.948 217.884C281.948 217.45 281.84 217.017 281.84 216.692C281.732 215.499 281.623 214.307 281.515 213.114C281.515 212.898 281.515 212.789 281.406 212.572C280.864 207.478 280.322 202.491 279.889 197.938H368.885L370.836 213.114L371.487 217.884L372.896 229.049L373.33 232.301L377.774 266.881C377.774 267.206 377.991 267.531 378.208 267.64C381.568 270.241 390.132 277.721 399.02 286.718C402.706 290.404 406.392 294.414 409.86 298.317C421.026 311.216 428.83 324.116 422.218 329.211Z" fill="#946CD3"/>
<path d="M399.779 197.938C399.779 203.033 399.779 208.128 399.779 213.114C399.779 214.74 399.779 216.366 399.779 217.884C399.779 221.678 399.779 225.364 399.779 229.049C399.779 230.133 399.779 231.217 399.779 232.301C399.671 253.656 399.562 273.385 399.346 286.718C399.237 291.054 399.129 294.631 399.02 297.558C398.804 303.086 398.587 313.384 398.37 324.116C397.936 340.159 397.394 357.286 396.202 360.755C395.877 361.839 395.443 362.598 395.01 363.357C391.541 368.994 385.904 364.549 383.953 357.503C382.544 352.192 381.785 320.105 381.351 303.628C381.351 302.328 379.834 302.219 379.725 303.628C378.424 319.13 376.148 344.17 371.704 359.129C370.62 362.815 369.319 365.958 368.018 368.126C366.5 370.511 364.766 371.812 362.923 371.595C359.454 371.27 357.612 367.693 356.636 363.465C355.769 359.888 355.552 355.877 355.335 352.842C354.685 335.606 355.769 318.154 355.118 300.918C355.01 299.618 353.601 299.618 353.492 300.918C352.517 314.685 350.674 328.452 349.265 342.002C348.723 347.639 348.398 358.804 345.362 365.2C344.604 366.826 343.628 368.235 342.327 368.994C341.135 369.752 339.617 370.078 337.883 369.644C329.319 367.693 329.753 350.891 329.753 342.436C329.861 327.368 329.211 312.3 329.319 297.341C329.319 296.04 327.91 295.932 327.693 297.124C325.092 313.168 323.032 329.536 320.43 345.688C319.78 349.482 319.021 355.335 317.287 360.213C316.745 361.839 316.094 363.248 315.444 364.549C314.685 365.85 313.818 367.042 312.842 367.801C311.975 368.56 310.891 368.994 309.807 369.21C299.726 370.62 300.702 354.251 301.027 345.904C301.894 322.273 304.821 298.75 306.122 275.228C306.23 275.228 306.23 275.228 306.338 275.228C306.122 274.902 305.688 274.902 305.471 275.119C300.81 278.263 295.282 283.683 289.645 287.694C283.683 291.813 277.612 294.414 272.084 291.162C263.737 286.176 273.927 268.398 285.959 252.355C286.718 251.271 287.585 250.187 288.344 249.212C293.222 242.924 298.208 236.962 302.219 232.518C303.303 231.326 304.279 230.242 305.146 229.266C306.989 227.315 308.398 225.797 309.374 224.822C309.59 224.605 309.699 224.28 309.699 223.954L309.807 217.992L309.916 213.223L310.349 198.047H399.779V197.938Z" fill="#9E80D8"/>
<path d="M450.954 270.245L463.093 270.103L463.011 263.058L450.871 263.2L450.954 270.245Z" fill="white"/>
<path d="M390.348 450.836C391.649 413.221 408.993 329.753 414.305 305.038C414.955 302.219 417.015 299.943 419.942 298.75L419.833 293.656L450.185 292.572L450.294 298.1C453.22 299.076 455.28 301.46 456.039 305.146C456.798 309.157 455.388 311.542 453.762 314.794C453.546 315.119 453.437 315.552 453.22 315.986C452.028 319.672 452.787 323.466 454.63 326.718C454.63 326.826 454.738 326.826 454.738 326.934C455.93 329.102 455.93 331.704 454.846 333.98C454.304 334.956 453.979 336.04 453.762 337.124C452.678 341.677 453.762 346.121 455.063 349.265C455.172 349.59 455.28 349.915 455.388 350.132C456.364 352.3 456.364 354.685 455.28 356.853C448.451 370.078 463.41 379.617 471.757 386.663C476.093 390.24 480.32 393.926 484.656 397.503C488.125 400.43 490.51 404.115 491.594 408.234C502.759 453.22 496.689 499.29 492.895 520.212C491.702 526.932 484.982 531.81 477.177 531.919L411.595 532.678C404.874 532.786 398.804 529.317 396.419 523.897C386.88 502.326 390.348 450.836 390.348 450.836Z" fill="#4CCFE1"/>
<path d="M420.917 294.848L449.101 294.523C450.836 294.523 452.136 293.114 452.028 291.379L450.944 272.193L418.641 272.518L417.99 291.704C417.882 293.439 419.291 294.848 420.917 294.848Z" fill="#FE6E27"/>
<path d="M446.283 292.572H447.15C447.692 292.572 448.234 292.138 448.234 291.488L448.126 279.455C448.126 278.913 447.692 278.371 447.042 278.371H446.174C445.632 278.371 445.09 278.805 445.09 279.455L445.199 291.488C445.199 292.03 445.741 292.572 446.283 292.572Z" fill="#ED5D1D"/>
<path d="M438.478 292.572H439.345C439.887 292.572 440.429 292.138 440.429 291.488L440.321 279.455C440.321 278.913 439.887 278.371 439.237 278.371H438.37C437.828 278.371 437.286 278.805 437.286 279.455L437.394 291.488C437.394 292.138 437.936 292.68 438.478 292.572Z" fill="#ED5D1D"/>
<path d="M430.673 292.68H431.54C432.082 292.68 432.624 292.246 432.624 291.596L432.516 279.564C432.516 279.022 432.082 278.48 431.432 278.48H430.565C430.023 278.48 429.481 278.913 429.481 279.564L429.589 291.596C429.589 292.246 430.131 292.68 430.673 292.68Z" fill="#ED5D1D"/>
<path d="M422.868 292.788H423.736C424.278 292.788 424.82 292.355 424.82 291.704L424.711 279.672C424.711 279.13 424.278 278.588 423.627 278.588H422.76C422.218 278.588 421.676 279.022 421.676 279.672L421.784 291.704C421.893 292.355 422.326 292.788 422.868 292.788Z" fill="#ED5D1D"/>
<path d="M454.738 253.981C462.434 278.046 478.694 296.149 481.188 298.859C481.404 299.076 481.73 299.184 481.946 299.184L488.559 299.076C489.426 299.076 489.968 298.1 489.426 297.341C469.914 268.182 468.722 248.778 468.722 248.778L458.749 252.464L454.738 253.981Z" fill="#ED5D1D"/>
<path d="M386.446 273.06L413.546 272.734C413.546 273.602 413.871 274.36 414.413 274.902C414.955 275.444 415.714 275.77 416.581 275.77L451.92 275.336C453.546 275.336 454.955 273.927 454.955 272.301L454.846 265.688C454.846 265.688 454.196 254.523 472.407 254.415H472.949L484.006 253.548L486.608 253.331C488.234 253.331 489.643 251.922 489.643 250.296L489.86 237.83C489.86 236.095 488.45 234.686 486.716 234.686L483.898 234.469L472.732 233.819L421.026 234.361C417.665 234.361 414.522 235.445 411.812 237.504C405.416 242.382 392.95 254.848 383.628 268.073C382.11 270.024 383.736 273.06 386.446 273.06Z" fill="white"/>
<path d="M472.732 233.602L472.949 254.306L484.006 253.331L486.608 253.114C488.234 253.114 489.643 251.705 489.643 250.079L489.86 237.613C489.86 235.878 488.45 234.469 486.716 234.469L483.898 234.252L472.732 233.602Z" fill="#FE6E27"/>
<path d="M483.898 234.252L484.114 253.331L486.716 253.114C488.342 253.114 489.751 251.705 489.751 250.079L489.968 237.613C489.968 235.878 488.559 234.469 486.824 234.469L483.898 234.252Z" fill="#ED5D1D"/>
<path d="M432.299 320.973C432.299 322.599 433.058 324.116 434.142 325.2C435.226 326.284 436.744 326.935 438.478 326.935L454.738 326.718C454.738 326.609 454.63 326.609 454.63 326.501C452.787 323.249 452.028 319.346 453.22 315.769C453.329 315.336 453.546 315.011 453.762 314.577L438.37 314.794C435.009 314.902 432.299 317.612 432.299 320.973Z" fill="#5DE3ED"/>
<path d="M432.516 343.194C432.516 344.82 433.275 346.338 434.359 347.422C435.443 348.506 436.96 349.156 438.695 349.156L454.846 348.94H454.955C453.654 345.796 452.57 341.352 453.654 336.799L438.478 337.016C435.226 337.124 432.516 339.942 432.516 343.194Z" fill="#5DE3ED"/>
<path d="M476.201 411.92C482.38 421.676 481.296 437.936 481.621 449.101C482.163 465.903 481.079 482.814 479.453 499.507C478.586 507.746 477.068 514.792 469.047 518.586C457.773 523.897 443.248 522.922 431.107 521.404C426.879 520.862 422.652 520.212 418.641 518.586C407.259 513.599 404.549 499.724 404.224 488.559C403.79 473.058 405.091 458.207 407.259 442.814C408.776 432.299 409.318 417.232 417.015 409.21C422.001 404.115 429.047 403.79 435.768 403.356C444.548 402.814 453.437 401.947 462.218 403.248C468.18 404.44 473.058 407.042 476.201 411.92Z" fill="#5DE3ED"/>
<path opacity="0.26" d="M424.82 425.253C415.714 433.492 412.354 454.63 412.137 463.735C411.812 477.61 415.606 498.64 428.397 506.553C439.454 513.274 453.437 509.588 459.074 497.773C461.459 492.895 462.218 487.366 462.434 481.946C463.193 464.386 457.773 433.058 440.321 423.844C433.817 420.484 428.83 421.676 424.82 425.253Z" fill="white"/>
<path opacity="0.26" d="M416.69 356.636C417.665 355.66 419.183 354.902 420.592 355.01C422.001 355.01 423.519 355.552 424.494 356.636C425.47 357.72 426.12 359.021 426.12 360.539V361.081C426.12 362.49 425.578 364.007 424.494 364.983C423.519 365.959 422.001 366.717 420.592 366.609C419.183 366.609 417.665 366.067 416.69 364.983C415.714 363.899 415.064 362.598 415.064 361.081V360.539C415.064 359.238 415.606 357.72 416.69 356.636Z" fill="white"/>
<path opacity="0.26" d="M428.614 366.826C429.481 365.958 430.565 365.417 431.866 365.417H432.408C433.6 365.417 434.792 365.85 435.66 366.717C436.418 367.476 437.069 368.777 437.069 369.969C437.069 371.162 436.635 372.354 435.768 373.221C434.901 374.088 433.817 374.63 432.516 374.63H431.974C430.782 374.63 429.589 374.197 428.722 373.33C427.963 372.571 427.313 371.27 427.313 370.078C427.313 368.885 427.746 367.693 428.614 366.826Z" fill="white"/>
<path opacity="0.26" d="M414.522 373.546C414.738 373.33 414.847 373.221 415.064 373.004C415.931 372.137 417.123 371.595 418.316 371.595C419.4 371.595 420.809 372.029 421.568 372.896C422.326 373.763 422.977 374.847 422.977 376.148C422.977 377.34 422.543 378.533 421.676 379.4L421.134 379.942C420.267 380.809 419.074 381.351 417.882 381.351C416.798 381.351 415.389 380.918 414.63 380.05C413.871 379.183 413.221 378.099 413.221 376.798C413.329 375.606 413.654 374.522 414.522 373.546Z" fill="white"/>
<path opacity="0.26" d="M407.909 393.6C413.763 393.492 413.871 402.598 408.018 402.706C402.164 402.706 402.056 393.6 407.909 393.6Z" fill="white"/>
<path opacity="0.26" d="M411.595 366.284H412.137C413.221 366.284 414.196 367.151 414.196 368.235C414.196 369.319 413.329 370.295 412.245 370.295H411.703C410.619 370.295 409.644 369.427 409.644 368.343C409.644 367.151 410.511 366.284 411.595 366.284Z" fill="white"/>
<path opacity="0.26" d="M418.966 390.891C421.568 390.891 421.568 394.901 418.966 394.901C416.364 395.01 416.364 390.999 418.966 390.891Z" fill="white"/>
<path d="M276.962 452.678H118.806V531.81H276.962V452.678Z" fill="#FED466"/>
<path d="M276.962 452.678H118.806V475.009H276.962V452.678Z" fill="#70BA73"/>
<path d="M132.79 484.765C132.573 483.681 131.598 482.814 130.73 482.597C129.755 482.272 128.562 482.597 127.804 483.356C127.045 484.114 126.72 485.198 127.045 486.282C127.262 487.258 128.129 488.125 129.104 488.342H129.213C130.297 488.559 131.272 488.342 132.031 487.583C132.898 486.824 133.007 485.849 132.79 484.765Z" fill="#F4BC4A"/>
<path d="M146.774 494.304C145.798 493.437 144.606 492.786 143.196 492.786C141.896 492.786 140.595 493.328 139.619 494.304C139.077 494.738 138.752 495.28 138.535 495.93C138.21 496.58 138.102 497.231 138.102 497.881C138.21 499.182 138.535 500.591 139.619 501.458C140.595 502.326 141.787 502.976 143.196 502.976C144.497 502.976 145.798 502.434 146.774 501.458C147.316 501.025 147.641 500.483 147.858 499.832C148.183 499.182 148.291 498.532 148.291 497.881C148.183 496.58 147.749 495.28 146.774 494.304Z" fill="#F4BC4A"/>
<path d="M151.977 484.006C150.784 484.006 149.7 484.982 149.809 486.174C149.809 487.367 150.784 488.342 151.977 488.342C153.169 488.342 154.253 487.367 154.145 486.174C154.145 485.09 153.169 484.006 151.977 484.006Z" fill="#F4BC4A"/>
<path d="M166.936 495.063C165.96 494.087 164.226 493.545 162.925 493.979C162.492 494.087 162.058 494.304 161.624 494.521C159.24 495.93 158.806 499.29 160.757 501.242C162.708 503.193 166.069 502.759 167.478 500.374C167.695 499.941 167.912 499.507 168.02 499.074C168.454 497.773 167.912 496.038 166.936 495.063Z" fill="#F4BC4A"/>
<path d="M177.234 481.946C176.475 481.296 175.608 480.862 174.632 480.862C173.657 480.862 172.681 481.296 172.031 481.946C171.38 482.597 170.947 483.681 170.947 484.548C170.947 485.524 171.272 486.499 172.031 487.15C172.79 487.8 173.657 488.234 174.632 488.234C175.608 488.234 176.584 487.8 177.234 487.15C177.884 486.499 178.318 485.415 178.318 484.548C178.21 483.572 177.884 482.597 177.234 481.946Z" fill="#F4BC4A"/>
<path d="M192.41 484.656C188.074 484.656 188.074 491.377 192.41 491.377C196.746 491.377 196.854 484.656 192.41 484.656Z" fill="#F4BC4A"/>
<path d="M184.822 513.924C180.378 513.924 180.378 520.754 184.822 520.754C189.266 520.862 189.266 513.924 184.822 513.924Z" fill="#F4BC4A"/>
<path d="M160.107 513.382C159.565 512.84 158.806 512.515 158.047 512.515C157.288 512.515 156.53 512.84 155.988 513.382C155.446 513.924 155.12 514.683 155.12 515.442C155.12 516.201 155.446 516.96 155.988 517.502C156.53 518.044 157.288 518.369 158.047 518.369C158.806 518.369 159.565 518.044 160.107 517.502C160.649 516.96 160.974 516.201 160.974 515.442C160.866 514.683 160.649 513.924 160.107 513.382Z" fill="#F4BC4A"/>
<path d="M134.091 520.103C129.863 520.103 129.863 526.716 134.091 526.716C138.318 526.716 138.318 520.103 134.091 520.103Z" fill="#F4BC4A"/>
<path d="M211.38 506.12C210.296 505.144 209.104 504.602 207.586 504.602C206.177 504.602 204.768 505.144 203.792 506.12C203.25 506.553 202.925 507.204 202.708 507.854C202.383 508.504 202.274 509.155 202.274 509.914C202.383 511.323 202.816 512.732 203.792 513.708C204.876 514.683 206.068 515.225 207.586 515.225C208.995 515.225 210.404 514.683 211.38 513.708C211.922 513.274 212.247 512.624 212.464 511.973C212.789 511.323 212.898 510.672 212.898 509.914C212.898 508.504 212.464 507.095 211.38 506.12Z" fill="#F4BC4A"/>
<path d="M224.496 488.992C224.496 488.559 224.388 488.125 224.171 487.8C223.954 487.15 223.629 486.716 223.196 486.283C222.87 486.066 222.545 485.74 222.22 485.524C221.678 485.198 221.028 484.982 220.377 484.982C219.944 484.873 219.51 484.873 219.076 484.982C218.643 484.982 218.209 485.09 217.884 485.307C217.234 485.524 216.8 485.849 216.258 486.283C216.041 486.608 215.716 486.933 215.499 487.258C215.282 487.692 215.174 488.017 214.957 488.45C214.74 489.101 214.74 489.751 214.849 490.402C214.849 490.835 214.957 491.269 215.174 491.594C215.282 492.028 215.499 492.353 215.824 492.678C216.15 493.22 216.583 493.654 217.234 493.979C217.667 494.196 217.992 494.304 218.426 494.521C218.86 494.629 219.293 494.629 219.727 494.738C220.16 494.629 220.594 494.629 221.028 494.521C221.678 494.412 222.22 494.087 222.654 493.654C223.196 493.328 223.629 492.895 223.954 492.244L224.388 491.052C224.605 490.293 224.605 489.643 224.496 488.992Z" fill="#F4BC4A"/>
<path d="M239.239 503.41C238.263 502.434 236.962 501.892 235.553 501.892C234.252 501.892 232.843 502.434 231.868 503.41C231.326 503.843 231 504.385 230.784 505.036C230.458 505.686 230.35 506.337 230.35 506.987C230.458 508.288 230.892 509.697 231.868 510.673C232.843 511.648 234.144 512.19 235.553 512.19C236.854 512.19 238.263 511.648 239.239 510.673C239.781 510.239 240.106 509.697 240.323 509.046C240.648 508.396 240.756 507.746 240.756 507.095C240.648 505.686 240.214 504.385 239.239 503.41Z" fill="#F4BC4A"/>
<path d="M229.808 515.551C228.832 514.683 227.64 514.033 226.231 514.033C224.93 514.033 223.629 514.575 222.654 515.551C222.112 515.984 221.786 516.526 221.57 517.177C221.244 517.827 221.136 518.477 221.136 519.128C221.244 520.429 221.57 521.838 222.654 522.705C223.629 523.572 224.822 524.223 226.231 524.223C227.532 524.223 228.832 523.681 229.808 522.705C230.35 522.271 230.675 521.729 230.892 521.079C231.217 520.429 231.326 519.778 231.326 519.128C231.217 517.827 230.784 516.526 229.808 515.551Z" fill="#F4BC4A"/>
<path d="M261.027 520.32C260.702 519.561 260.485 518.911 259.835 518.369C259.293 517.827 258.642 517.393 257.992 517.285C257.233 517.068 256.474 517.068 255.716 517.285C255.39 517.393 255.065 517.61 254.74 517.719C254.415 517.935 254.09 518.152 253.764 518.477C253.222 519.019 252.897 519.67 252.68 520.429C252.464 521.187 252.464 521.946 252.68 522.705C253.114 524.223 254.306 525.306 255.716 525.74C257.233 526.174 258.859 525.74 259.943 524.656C260.485 524.114 260.81 523.464 261.027 522.705C261.244 521.838 261.244 521.079 261.027 520.32Z" fill="#F4BC4A"/>
<path d="M266.989 497.881C266.664 496.906 266.23 496.038 265.472 495.388C264.388 494.304 262.978 493.654 261.352 493.654C260.594 493.654 259.835 493.762 259.076 494.196C258.317 494.412 257.775 494.846 257.233 495.388C256.691 495.93 256.258 496.581 256.041 497.231C255.716 497.881 255.499 498.64 255.499 499.507C255.607 500.049 255.607 500.483 255.716 501.025C256.041 502.001 256.474 502.868 257.233 503.518C258.317 504.602 259.726 505.253 261.352 505.253C262.111 505.253 262.87 505.144 263.629 504.711C264.388 504.494 264.93 504.06 265.472 503.518C266.014 502.976 266.447 502.326 266.664 501.675C266.989 501.025 267.206 500.266 267.206 499.399C267.098 498.857 267.098 498.423 266.989 497.881Z" fill="#F4BC4A"/>
<path d="M242.924 486.499C238.263 486.499 238.263 493.654 242.924 493.654C247.586 493.654 247.586 486.499 242.924 486.499Z" fill="#F4BC4A"/>
<path d="M267.531 480.104C266.881 479.562 266.122 479.128 265.255 479.128C264.388 479.128 263.52 479.453 262.978 480.104C262.436 480.646 262.003 481.621 262.003 482.38C262.003 483.247 262.328 484.114 262.978 484.656C263.629 485.198 264.388 485.632 265.255 485.632C266.122 485.632 266.989 485.307 267.531 484.656C268.073 484.114 268.507 483.139 268.507 482.38C268.507 481.621 268.182 480.754 267.531 480.104Z" fill="#F4BC4A"/>
<path d="M197.83 522.054C196.638 522.054 195.554 523.138 195.554 524.331C195.662 525.523 196.529 526.607 197.83 526.607C199.022 526.607 200.106 525.523 200.106 524.331C200.106 523.03 199.131 522.054 197.83 522.054Z" fill="#F4BC4A"/>
<path d="M131.164 506.987C130.405 506.336 129.538 505.903 128.454 505.903C127.478 505.903 126.503 506.336 125.744 506.987C125.094 507.637 124.552 508.721 124.66 509.697C124.66 510.672 124.985 511.756 125.744 512.407C126.503 513.057 127.37 513.491 128.454 513.491C129.43 513.491 130.405 513.057 131.164 512.407C131.814 511.756 132.356 510.672 132.248 509.697C132.248 508.721 131.923 507.637 131.164 506.987Z" fill="#F4BC4A"/>
<path opacity="0.11" d="M276.962 452.678V531.81H169.429C182.979 526.932 196.529 521.621 208.453 515.117C209.537 514.575 210.621 513.924 211.597 513.382C212.356 512.949 213.223 512.515 213.982 511.973C230.567 502.109 240.323 489.643 245.96 475.009C248.67 468.071 250.404 460.592 251.488 452.678H276.962Z" fill="#666666"/>
<path opacity="0.73" d="M211.705 435.985C218.889 435.985 224.713 430.161 224.713 422.977C224.713 415.793 218.889 409.969 211.705 409.969C204.521 409.969 198.697 415.793 198.697 422.977C198.697 430.161 204.521 435.985 211.705 435.985Z" fill="white"/>
<path opacity="0.73" d="M180.269 437.177C184.52 437.177 187.966 433.731 187.966 429.481C187.966 425.23 184.52 421.784 180.269 421.784C176.019 421.784 172.573 425.23 172.573 429.481C172.573 433.731 176.019 437.177 180.269 437.177Z" fill="white"/>
<path opacity="0.73" d="M237.288 397.936C241.538 397.936 244.984 394.491 244.984 390.24C244.984 385.989 241.538 382.544 237.288 382.544C233.037 382.544 229.591 385.989 229.591 390.24C229.591 394.491 233.037 397.936 237.288 397.936Z" fill="white"/>
<path opacity="0.73" d="M212.363 374.934C216.977 370.32 216.977 362.839 212.363 358.224C207.749 353.61 200.267 353.61 195.653 358.224C191.039 362.839 191.039 370.32 195.653 374.934C200.267 379.548 207.749 379.548 212.363 374.934Z" fill="white"/>
<path opacity="0.73" d="M164.876 415.822C175.712 415.822 184.497 407.038 184.497 396.202C184.497 385.366 175.712 376.582 164.876 376.582C154.04 376.582 145.256 385.366 145.256 396.202C145.256 407.038 154.04 415.822 164.876 415.822Z" fill="white"/>
<path d="M110.243 324.55C105.473 327.476 101.679 332.571 99.728 338.858C99.5112 339.509 98.644 339.509 98.4272 338.858C96.476 332.571 92.682 327.368 87.9124 324.55C87.4788 324.224 87.4788 323.574 87.9124 323.357C92.682 320.43 96.476 315.336 98.4272 309.048C98.644 308.398 99.5112 308.398 99.728 309.048C101.679 315.336 105.473 320.539 110.243 323.357C110.676 323.574 110.676 324.224 110.243 324.55Z" fill="white"/>
<path d="M93.0072 372.462C86.0696 376.69 80.5412 384.17 77.7228 393.384C77.3976 394.359 76.0968 394.359 75.7716 393.384C72.9532 384.17 67.4248 376.69 60.4872 372.462C59.8368 372.029 59.8368 371.162 60.4872 370.728C67.4248 366.5 72.9532 359.021 75.7716 349.807C76.0968 348.831 77.3976 348.831 77.7228 349.807C80.5412 359.021 86.0696 366.5 93.0072 370.728C93.6576 371.053 93.6576 372.029 93.0072 372.462Z" fill="white"/>
<path d="M464.819 122.058C457.882 126.286 452.353 133.766 449.535 142.98C449.21 143.955 447.909 143.955 447.584 142.98C444.765 133.766 439.237 126.286 432.299 122.058C431.649 121.625 431.649 120.758 432.299 120.324C439.237 116.096 444.765 108.617 447.584 99.4028C447.909 98.4272 449.21 98.4272 449.535 99.4028C452.353 108.617 457.882 116.096 464.819 120.324C465.47 120.649 465.47 121.625 464.819 122.058Z" fill="white"/>
<path d="M490.727 165.96C486.066 168.779 482.38 173.765 480.429 179.944C480.212 180.594 479.345 180.594 479.128 179.944C477.285 173.765 473.491 168.779 468.83 165.96C468.396 165.744 468.396 165.093 468.83 164.768C473.491 161.95 477.177 156.963 479.128 150.784C479.345 150.134 480.212 150.134 480.429 150.784C482.272 156.963 486.066 161.95 490.727 164.768C491.16 165.093 491.16 165.744 490.727 165.96Z" fill="white"/>
</g>
<defs>
<clipPath id="clip0">
<rect width="542" height="542" fill="white"/>
</clipPath>
</defs>
</svg>
