<svg width="498" height="448" viewBox="0 0 498 448" fill="none" xmlns="http://www.w3.org/2000/svg">
<path opacity="0.1" d="M96.9 414.7C188.5 458.4 337.1 458.4 428.7 414.7C520.3 371 520.3 300.2 428.7 256.6C337.1 212.9 188.5 212.9 96.9 256.6C5.30001 300.3 5.30001 371.1 96.9 414.7Z" fill="#8ACCFC"/>
<path d="M434 324.2C409.3 336 369.2 336 344.5 324.2C319.8 312.4 319.8 293.3 344.5 281.5C369.2 269.7 409.3 269.7 434 281.5C458.8 293.3 458.8 312.4 434 324.2Z" fill="#E0E0E0"/>
<path d="M293.5 423C276.6 431.1 249.2 431.1 232.2 423C215.3 414.9 215.3 401.9 232.2 393.8C249.1 385.7 276.5 385.7 293.5 393.8C310.4 401.9 310.4 414.9 293.5 423Z" fill="#BEBCD8"/>
<path d="M66 320L75.3 314.6C75.3 314.6 80.2 292.7 72.9 264.9C65.6 237.1 44.5 216.3 33.5 220.7C22.5 225.1 22.8 233.3 28.9 241.6C33.9 248.5 50.3 265.2 58.1 284.4C65.9 303.7 66 320 66 320Z" fill="#27DEBF"/>
<path d="M66 320L75.3 314.6C75.3 314.6 80.2 292.7 72.9 264.9C65.6 237.1 44.5 216.3 33.5 220.7C22.5 225.1 22.8 233.3 28.9 241.6C33.9 248.5 50.3 265.2 58.1 284.4C65.9 303.7 66 320 66 320Z" fill="#B4D69B"/>
<path d="M71 317.7C70.9 317.7 70.9 317.7 71 317.7C70.6 317.7 70.4 317.4 70.4 317C76.8 271.2 48.4 234.2 35.5 226.5C35.2 226.3 35.1 226 35.3 225.7C35.5 225.4 35.8 225.3 36.1 225.5C49.2 233.3 78 270.8 71.6 317.2C71.5 317.5 71.2 317.7 71 317.7Z" fill="white"/>
<path d="M66 320L52.1 328.1C52.1 328.1 48.7 326.2 42.8 325.4C36.9 324.7 32.9 318.9 33.5 314.7C33.9 311.8 34.8 308.5 34.4 305.6C34 303 31.5 300.6 29.1 299.7C27.1 298.9 25 298.9 22.9 298.8C19.5 298.6 16.1 298.3 13.2 296.5C10.3 294.7 8.3 291.2 9.2 288C9.7 286.3 10.9 284.9 12.1 283.6C13.3 282.3 14.6 281 15.2 279.3C16.4 276.1 14.3 274 11.7 272.5C2.6 267.2 -1.59999 263.1 1.70001 259.1C5.00001 255.1 14.1 253.4 23.3 258.2C32.6 263.1 40.3 257.8 46.4 258.9C56 260.5 56.6 267.3 55.4 273.2C54.2 279.1 66.1 281.6 69 288.6C71.2 293.8 73 310.6 66 320Z" fill="#B4D69B"/>
<path d="M61.4 323.3C61.1 323.3 60.8 323.1 60.8 322.7C59.7 290 17.8 261.5 7.90002 259.9C7.60002 259.8 7.40002 259.6 7.40002 259.2C7.50002 258.9 7.70003 258.7 8.10003 258.7C18.5 260.4 60.8 288.7 62 322.6C61.9 323 61.7 323.3 61.4 323.3Z" fill="white"/>
<path d="M241 382.4C240.5 376.7 236.1 366.9 229.6 359.9C223.1 352.9 212.6 349.6 206.1 352.4C200.1 355 201.4 363.1 209.3 367.8C217.2 372.6 229 378.4 233.1 387.4L240.9 398.2V382.4H241Z" fill="#27DEBF"/>
<path d="M241 382.4C240.5 376.7 236.1 366.9 229.6 359.9C223.1 352.9 212.6 349.6 206.1 352.4C200.1 355 201.4 363.1 209.3 367.8C217.2 372.6 229 378.4 233.1 387.4L240.9 398.2V382.4H241Z" fill="#B4D69B"/>
<path d="M241 392.8H241.1C241.5 392.7 241.8 392.3 241.8 391.9C238.9 370.7 217.4 355.9 208.8 354.3C208.4 354.2 208 354.5 207.9 354.9C207.8 355.3 208.1 355.7 208.5 355.8C216.5 357.3 237.5 371.9 240.2 392.1C240.2 392.5 240.6 392.8 241 392.8Z" fill="white"/>
<path d="M240.1 406C238.9 402.9 234.6 397.9 227.8 394C220.4 389.7 211.3 388.2 208.9 384.6C206.1 380.3 209.6 375.7 216.8 376C224.1 376.3 237.6 385.2 240.8 399.8L240.1 406Z" fill="#B4D69B"/>
<path d="M240.6 403C240.6 403 240.7 403 240.8 403C241.2 402.9 241.5 402.5 241.4 402.1C239.2 391.2 223.5 380 213.3 379.5C212.9 379.5 212.5 379.8 212.5 380.2C212.5 380.6 212.8 381 213.2 381C222.7 381.4 237.8 392.3 239.8 402.3C239.9 402.7 240.3 403 240.6 403Z" fill="white"/>
<path d="M56 328.5C54.7 327.8 54 325.9 54.3 324.4L94.9 144.8C95.2 143.3 96.6 141.4 98 140.6L339.4 1.09994C340.8 0.299942 342.9 0.299942 344.2 0.999942C345.5 1.69994 346.2 3.59994 345.9 5.09994L305.3 184.7C305 186.2 303.6 188.1 302.2 188.9L60.8 328.4C59.4 329.2 57.3 329.2 56 328.5Z" fill="#F0F0F0"/>
<path d="M99.5 147.4L59 327.1C58.7 328.6 59.5 329.3 60.8 328.5L302.2 189C303.6 188.2 305 186.3 305.3 184.8L345.9 5.20003C346.2 3.70003 345.4 3.00003 344.1 3.80003L102.6 143.2C101.3 144 99.9 145.9 99.5 147.4Z" fill="#E6E6E6"/>
<path d="M348.9 3.69989C347.6 2.99989 345.5 2.99989 344.1 3.79989L102.6 143.2C101.2 144 100.3 145.9 100.5 147.5L132.3 370C132.5 371.6 133.7 373.4 135 374.2C136.3 374.9 138.4 374.9 139.8 374.1L381.2 234.7C382.6 233.9 383.5 232 383.3 230.4L351.6 7.89989C351.4 6.29989 350.2 4.49989 348.9 3.69989Z" fill="#F0F0F0"/>
<path d="M105.2 150.2L137 372.6C137.2 374.2 138.5 374.8 139.9 374L381.3 234.6C382.7 233.8 383.6 231.9 383.4 230.3L351.6 7.90003C351.4 6.30003 350.1 5.70003 348.7 6.50003L107.3 145.9C105.9 146.7 105 148.6 105.2 150.2Z" fill="#FAFAFA"/>
<path d="M59.2 326.1L121 290.4L122.8 303.3L94.5 319.7C94.5 319.7 87 322.4 83.9 323.1C80.9 323.9 59.2 326.1 59.2 326.1Z" fill="#E0E0E0"/>
<path d="M122.8 303.4L132.1 368.4L94.5 319.7L122.8 303.4Z" fill="#E6E6E6"/>
<path d="M131 370.5L97.3 326.7C96.3 325.4 94.3 324.6 92.7 324.8L61.2 329.4C59.6 329.6 57.3 329.2 56 328.5C54.7 327.8 54.9 326.9 56.5 326.6L92.7 319.6C94.3 319.3 96.3 320.1 97.2 321.4L135.6 373.2C136.5 374.5 136.3 374.9 135 374.2C133.8 373.4 131.9 371.8 131 370.5Z" fill="#E0E0E0"/>
<path d="M346 4.29994C346 2.99994 345.3 1.59994 344.2 0.999942C342.9 0.299942 340.8 0.299942 339.4 1.09994L98 140.5C97.3 140.9 96.7 141.5 96.1 142.3C95.5 143.1 95.1 144 94.9 144.8L89.2 170.2L93.8 172.9L340.2 30.4999L345.9 5.09994C346 4.79994 346 4.49994 346 4.29994Z" fill="#27DEBF"/>
<path d="M345.9 5.20003C346.2 3.70003 345.4 3.00003 344.1 3.80003L102.6 143.2C101.2 144 99.8 145.9 99.5 147.4L93.8 172.8L340.2 30.5L345.9 5.20003Z" fill="#6840B5"/>
<path d="M100.7 145C100.1 145.8 99.7 146.7 99.5 147.4L93.8 172.8L89.2 170.1L94.9 144.7C95.1 143.9 95.5 143 96.1 142.2L100.7 145Z" fill="#6F4DC4"/>
<path d="M346 4.29994C345.9 3.39994 345.1 3.19994 344.1 3.79994L102.6 143.2C101.9 143.6 101.3 144.2 100.7 145L96.1 142.3C96.7 141.6 97.3 140.9 98 140.5L339.4 1.09994C340.8 0.299942 342.9 0.299942 344.2 0.999942C345.3 1.59994 346 2.99994 346 4.29994Z" fill="#9461E5"/>
<path d="M351.9 9.99989L351.6 7.89989C351.6 7.79989 351.6 7.69989 351.5 7.59989V7.49989C351.1 5.99989 350 4.39989 348.9 3.69989C347.6 2.99989 345.5 2.99989 344.1 3.79989L102.6 143.2C101.9 143.6 101.3 144.3 100.9 145.1C100.5 145.9 100.4 146.7 100.5 147.5L105.1 179.4L109.7 182.1L356.2 39.7999L351.9 9.99989Z" fill="#8A4DD9"/>
<path opacity="0.1" d="M109.8 182L105.2 179.3L100.6 147.4C100.5 146.6 100.7 145.8 101 145L105.7 147.7C105.3 148.5 105.2 149.3 105.3 150.1L109.8 182Z" fill="black"/>
<path opacity="0.4" d="M351.5 7.49989C351.1 6.19989 349.9 5.79989 348.7 6.49989L107.3 145.9C106.6 146.3 106 147 105.6 147.8L100.9 145.1C101.3 144.3 101.9 143.6 102.6 143.2L344.1 3.79989C345.5 2.99989 347.6 2.99989 348.9 3.69989C350.1 4.39989 351.2 5.99989 351.5 7.49989Z" fill="white"/>
<path d="M173.9 335.8L171 315.5C170.8 314.2 169.8 313.7 168.7 314.4L147.7 326.6C146.6 327.2 145.9 328.8 146 330L148.9 350.3C149.1 351.6 150.1 352.1 151.2 351.4L172.2 339.2C173.3 338.6 174.1 337 173.9 335.8Z" fill="#9666F2"/>
<path d="M206.4 317L203.5 296.7C203.3 295.4 202.3 294.9 201.2 295.6L180.2 307.8C179.1 308.4 178.4 310 178.5 311.2L181.4 331.5C181.6 332.8 182.6 333.3 183.7 332.6L204.7 320.4C205.9 319.8 206.6 318.3 206.4 317Z" fill="#EBEBEB"/>
<path d="M239 298.2L236.1 277.9C235.9 276.6 234.9 276.1 233.8 276.8L212.8 289C211.7 289.6 211 291.2 211.1 292.4L214 312.7C214.2 314 215.2 314.5 216.3 313.8L237.3 301.6C238.4 301 239.2 299.5 239 298.2Z" fill="#EBEBEB"/>
<path d="M271.5 279.5L268.6 259.2C268.4 257.9 267.4 257.4 266.3 258.1L245.3 270.3C244.2 270.9 243.5 272.5 243.6 273.7L246.5 294C246.7 295.3 247.7 295.8 248.8 295.1L269.8 282.9C271 282.2 271.7 280.7 271.5 279.5Z" fill="#EBEBEB"/>
<path d="M304.1 260.7L301.2 240.4C301 239.1 300 238.6 298.9 239.3L277.9 251.5C276.8 252.1 276.1 253.7 276.2 254.9L279.1 275.2C279.3 276.5 280.3 277 281.4 276.3L302.4 264.1C303.5 263.5 304.3 262 304.1 260.7Z" fill="#EBEBEB"/>
<path d="M336.6 241.9L333.7 221.6C333.5 220.3 332.5 219.8 331.4 220.5L310.4 232.7C309.3 233.3 308.6 234.9 308.7 236.1L311.6 256.4C311.8 257.7 312.8 258.2 313.9 257.5L334.9 245.3C336.1 244.7 336.8 243.2 336.6 241.9Z" fill="#EBEBEB"/>
<path d="M369.2 223.2L366.3 202.9C366.1 201.6 365.1 201.1 364 201.8L343 214C341.9 214.6 341.2 216.2 341.3 217.4L344.2 237.7C344.4 239 345.4 239.5 346.5 238.8L367.5 226.6C368.6 225.9 369.4 224.4 369.2 223.2Z" fill="#EBEBEB"/>
<path d="M168.2 296.1L165.3 275.8C165.1 274.5 164.1 274 163 274.7L142 286.9C140.9 287.5 140.2 289.1 140.3 290.3L143.2 310.6C143.4 311.9 144.4 312.4 145.5 311.7L166.5 299.5C167.7 298.9 168.4 297.4 168.2 296.1Z" fill="#9666F2"/>
<path d="M200.8 277.3L197.9 257C197.7 255.7 196.7 255.2 195.6 255.9L174.6 268.1C173.5 268.7 172.8 270.3 172.9 271.5L175.8 291.8C176 293.1 177 293.6 178.1 292.9L199.1 280.7C200.2 280.1 200.9 278.6 200.8 277.3Z" fill="#EBEBEB"/>
<path d="M233.3 258.6L230.4 238.3C230.2 237 229.2 236.5 228.1 237.2L207.1 249.4C206 250 205.3 251.6 205.4 252.8L208.3 273.1C208.5 274.4 209.5 274.9 210.6 274.2L231.6 262C232.8 261.4 233.5 259.8 233.3 258.6Z" fill="#EBEBEB"/>
<path d="M265.9 239.8L263 219.5C262.8 218.2 261.8 217.7 260.7 218.4L239.7 230.6C238.6 231.2 237.9 232.8 238 234L240.9 254.3C241.1 255.6 242.1 256.1 243.2 255.4L264.2 243.2C265.3 242.6 266 241.1 265.9 239.8Z" fill="#EBEBEB"/>
<path d="M298.4 221L295.5 200.7C295.3 199.4 294.3 198.9 293.2 199.6L272.2 211.8C271.1 212.4 270.4 214 270.5 215.2L273.4 235.5C273.6 236.8 274.6 237.3 275.7 236.6L296.7 224.4C297.9 223.8 298.6 222.3 298.4 221Z" fill="#EBEBEB"/>
<path d="M331 202.3L328.1 182C327.9 180.7 326.9 180.2 325.8 180.9L304.8 193.1C303.7 193.7 303 195.3 303.1 196.5L306 216.8C306.2 218.1 307.2 218.6 308.3 217.9L329.3 205.7C330.4 205.1 331.1 203.5 331 202.3Z" fill="#EBEBEB"/>
<path d="M363.5 183.5L360.6 163.2C360.4 161.9 359.4 161.4 358.3 162.1L337.3 174.3C336.2 174.9 335.5 176.5 335.6 177.7L338.5 198C338.7 199.3 339.7 199.8 340.8 199.1L361.8 186.9C363 186.3 363.7 184.8 363.5 183.5Z" fill="#EBEBEB"/>
<path d="M162.6 256.5L159.7 236.2C159.5 234.9 158.5 234.4 157.4 235.1L136.4 247.3C135.3 247.9 134.6 249.5 134.7 250.7L137.6 271C137.8 272.3 138.8 272.8 139.9 272.1L160.9 259.9C162 259.2 162.7 257.7 162.6 256.5Z" fill="#9666F2"/>
<path d="M195.1 237.7L192.2 217.4C192 216.1 191 215.6 189.9 216.3L168.9 228.5C167.8 229.1 167.1 230.7 167.2 231.9L170.1 252.2C170.3 253.5 171.3 254 172.4 253.3L193.4 241.1C194.5 240.5 195.3 238.9 195.1 237.7Z" fill="#EBEBEB"/>
<path d="M227.7 218.9L224.8 198.6C224.6 197.3 223.6 196.8 222.5 197.5L201.5 209.7C200.4 210.3 199.7 211.9 199.8 213.1L202.7 233.4C202.9 234.7 203.9 235.2 205 234.5L226 222.3C227.1 221.7 227.8 220.2 227.7 218.9Z" fill="#EBEBEB"/>
<path d="M260.2 200.1L257.3 179.8C257.1 178.5 256.1 178 255 178.7L234 190.9C232.9 191.5 232.2 193.1 232.3 194.3L235.2 214.6C235.4 215.9 236.4 216.4 237.5 215.7L258.5 203.5C259.6 202.9 260.4 201.4 260.2 200.1Z" fill="#EBEBEB"/>
<path d="M292.8 181.4L289.9 161.1C289.7 159.8 288.7 159.3 287.6 160L266.6 172.2C265.5 172.8 264.8 174.4 264.9 175.6L267.8 195.9C268 197.2 269 197.7 270.1 197L291.1 184.8C292.2 184.2 292.9 182.6 292.8 181.4Z" fill="#EBEBEB"/>
<path d="M325.3 162.6L322.4 142.3C322.2 141 321.2 140.5 320.1 141.2L299.1 153.4C298 154 297.3 155.6 297.4 156.8L300.3 177.1C300.5 178.4 301.5 178.9 302.6 178.2L323.6 166C324.7 165.4 325.5 163.9 325.3 162.6Z" fill="#EBEBEB"/>
<path d="M357.9 143.8L355 123.5C354.8 122.2 353.8 121.7 352.7 122.4L331.7 134.6C330.6 135.2 329.9 136.8 330 138L332.9 158.3C333.1 159.6 334.1 160.1 335.2 159.4L356.2 147.2C357.3 146.6 358 145.1 357.9 143.8Z" fill="#EBEBEB"/>
<path d="M156.9 216.8L154 196.5C153.8 195.2 152.8 194.7 151.7 195.4L130.7 207.6C129.6 208.2 128.9 209.8 129 211L131.9 231.3C132.1 232.6 133.1 233.1 134.2 232.4L155.2 220.2C156.3 219.6 157.1 218 156.9 216.8Z" fill="#9666F2"/>
<path d="M189.5 198L186.6 177.7C186.4 176.4 185.4 175.9 184.3 176.6L163.3 188.8C162.2 189.4 161.5 191 161.6 192.2L164.5 212.5C164.7 213.8 165.7 214.3 166.8 213.6L187.8 201.4C188.9 200.8 189.6 199.3 189.5 198Z" fill="#EBEBEB"/>
<path d="M222 179.3L219.1 159C218.9 157.7 217.9 157.2 216.8 157.9L195.8 170.1C194.7 170.7 194 172.3 194.1 173.5L197 193.8C197.2 195.1 198.2 195.6 199.3 194.9L220.3 182.7C221.4 182 222.2 180.5 222 179.3Z" fill="#EBEBEB"/>
<path d="M254.6 160.5L251.7 140.2C251.5 138.9 250.5 138.4 249.4 139.1L228.4 151.3C227.3 151.9 226.6 153.5 226.7 154.7L229.6 175C229.8 176.3 230.8 176.8 231.9 176.1L252.9 163.9C254 163.3 254.7 161.7 254.6 160.5Z" fill="#EBEBEB"/>
<path d="M287.1 141.7L284.2 121.4C284 120.1 283 119.6 281.9 120.3L260.9 132.5C259.8 133.1 259.1 134.7 259.2 135.9L262.1 156.2C262.3 157.5 263.3 158 264.4 157.3L285.4 145.1C286.5 144.5 287.3 143 287.1 141.7Z" fill="#EBEBEB"/>
<path d="M319.7 122.9L316.8 102.6C316.6 101.3 315.6 100.8 314.5 101.5L293.5 113.7C292.4 114.3 291.7 115.9 291.8 117.1L294.7 137.4C294.9 138.7 295.9 139.2 297 138.5L318 126.3C319.1 125.7 319.8 124.2 319.7 122.9Z" fill="#EBEBEB"/>
<path d="M352.2 104.2L349.3 83.8999C349.1 82.5999 348.1 82.0999 347 82.7999L326 94.9999C324.9 95.5999 324.2 97.1999 324.3 98.3999L327.2 118.7C327.4 120 328.4 120.5 329.5 119.8L350.5 107.6C351.6 107 352.4 105.4 352.2 104.2Z" fill="#EBEBEB"/>
<path d="M151.9 181L151.2 175.8C151 174.5 150 174 148.9 174.7L127.9 186.9C126.8 187.5 126.1 189.1 126.2 190.3L126.9 195.5C127.1 196.8 128.1 197.3 129.2 196.6L150.2 184.4C151.3 183.7 152.1 182.2 151.9 181Z" fill="#E6E6E6"/>
<path d="M184.4 162.2L183.7 157C183.5 155.7 182.5 155.2 181.4 155.9L160.4 168.1C159.3 168.7 158.6 170.3 158.7 171.5L159.4 176.7C159.6 178 160.6 178.5 161.7 177.8L182.7 165.6C183.9 165 184.6 163.5 184.4 162.2Z" fill="#E6E6E6"/>
<path d="M217 143.4L216.3 138.2C216.1 136.9 215.1 136.4 214 137.1L193 149.3C191.9 149.9 191.2 151.5 191.3 152.7L192 157.9C192.2 159.2 193.2 159.7 194.3 159L215.3 146.8C216.4 146.2 217.2 144.7 217 143.4Z" fill="#E6E6E6"/>
<path d="M249.5 124.7L248.8 119.5C248.6 118.2 247.6 117.7 246.5 118.4L225.5 130.6C224.4 131.2 223.7 132.8 223.8 134L224.5 139.2C224.7 140.5 225.7 141 226.8 140.3L247.8 128.1C249 127.4 249.7 125.9 249.5 124.7Z" fill="#E6E6E6"/>
<path d="M282.1 105.9L281.4 100.7C281.2 99.3999 280.2 98.8999 279.1 99.5999L258.1 111.8C257 112.4 256.3 114 256.4 115.2L257.1 120.4C257.3 121.7 258.3 122.2 259.4 121.5L280.4 109.3C281.5 108.7 282.3 107.1 282.1 105.9Z" fill="#E6E6E6"/>
<path d="M314.6 87.0999L313.9 81.8999C313.7 80.5999 312.7 80.0999 311.6 80.7999L290.6 92.9999C289.5 93.5999 288.8 95.1999 288.9 96.3999L289.6 101.6C289.8 102.9 290.8 103.4 291.9 102.7L312.9 90.4999C314.1 89.8999 314.8 88.3999 314.6 87.0999Z" fill="#E6E6E6"/>
<path d="M347.2 68.3999L346.5 63.1999C346.3 61.8999 345.3 61.3999 344.2 62.0999L323.2 74.2999C322.1 74.8999 321.4 76.4999 321.5 77.6999L322.2 82.8999C322.4 84.1999 323.4 84.6999 324.5 83.9999L345.5 71.7999C346.6 71.0999 347.4 69.5999 347.2 68.3999Z" fill="#E6E6E6"/>
<path opacity="0.2" d="M127.4 150.4C127 147.7 128.8 144.2 131.3 142.8C133.9 141.3 136.3 142.3 136.7 145.1C137.1 147.9 135.3 151.3 132.8 152.7C130.1 154.2 127.7 153.1 127.4 150.4Z" fill="black"/>
<path opacity="0.2" d="M159.9 131.6C159.5 128.9 161.3 125.4 163.8 124C166.4 122.5 168.8 123.5 169.2 126.3C169.6 129.1 167.8 132.5 165.3 133.9C162.7 135.4 160.3 134.3 159.9 131.6Z" fill="black"/>
<path opacity="0.2" d="M192.4 112.8C192 110.1 193.8 106.6 196.3 105.2C198.9 103.7 201.3 104.7 201.7 107.5C202.1 110.3 200.3 113.7 197.8 115.1C195.2 116.6 192.8 115.6 192.4 112.8Z" fill="black"/>
<path opacity="0.2" d="M257.5 75.2998C257.1 72.5998 258.9 69.0998 261.4 67.6998C264 66.1998 266.4 67.1998 266.8 69.9998C267.2 72.6998 265.4 76.1998 262.9 77.5998C260.3 78.9998 257.9 77.9998 257.5 75.2998Z" fill="black"/>
<path d="M124 119.5C120.5 117.5 117.2 117.2 114.6 118.7C112 120.2 110.6 123.2 110.6 127.2C110.6 129 110.9 130.9 111.4 132.8L113.4 131.6C113 130.1 112.8 128.6 112.8 127.2C112.8 124 113.8 121.7 115.6 120.7C116.3 120.3 117.1 120.1 118.1 120.1C119.5 120.1 121.1 120.6 122.7 121.5C128.8 125 133.7 133.6 133.7 140.6C133.7 141.1 133.7 141.6 133.6 142.1C133.3 144.5 132.4 146.3 130.9 147.1C129.9 147.7 128.7 147.8 127.4 147.6C127.2 148.4 127.1 149.1 127.1 149.9C127.5 150 128 150 128.4 150C129.7 150 130.9 149.7 132 149.1C134 148 135.3 145.9 135.7 143.2C135.8 142.4 135.9 141.5 135.9 140.6C136.2 132.8 130.7 123.4 124 119.5Z" fill="#F5F5F5"/>
<path d="M156.6 100.7C153.1 98.6999 149.8 98.3999 147.2 99.8999C144.6 101.4 143.2 104.4 143.2 108.4C143.2 110.2 143.5 112.1 144 114L146 112.8C145.6 111.3 145.4 109.8 145.4 108.4C145.4 105.2 146.4 102.9 148.2 101.9C148.9 101.5 149.7 101.3 150.7 101.3C152.1 101.3 153.7 101.8 155.3 102.7C161.4 106.2 166.3 114.8 166.3 121.8C166.3 122.3 166.3 122.8 166.2 123.3C165.9 125.7 165 127.5 163.5 128.3C162.5 128.9 161.3 129 160 128.8C159.8 129.6 159.7 130.3 159.7 131.1C160.1 131.2 160.6 131.2 161 131.2C162.3 131.2 163.5 130.9 164.6 130.3C166.6 129.2 167.9 127.1 168.3 124.4C168.4 123.6 168.5 122.7 168.5 121.8C168.7 114 163.3 104.6 156.6 100.7Z" fill="#F5F5F5"/>
<path d="M189.1 81.8999C185.6 79.8999 182.3 79.5999 179.7 81.0999C177.1 82.5999 175.7 85.5999 175.7 89.5999C175.7 91.3999 176 93.2999 176.5 95.1999L178.5 93.9999C178.1 92.4999 177.9 90.9999 177.9 89.5999C177.9 86.3999 178.9 84.0999 180.7 83.0999C181.4 82.6999 182.2 82.4999 183.2 82.4999C184.6 82.4999 186.2 82.9999 187.8 83.8999C193.9 87.3999 198.8 95.9999 198.8 103C198.8 103.5 198.8 104 198.7 104.5C198.4 106.9 197.5 108.7 196 109.5C195 110.1 193.8 110.2 192.5 110C192.3 110.8 192.2 111.5 192.2 112.3C192.6 112.4 193.1 112.4 193.5 112.4C194.8 112.4 196 112.1 197.1 111.5C199.1 110.4 200.4 108.3 200.8 105.6C200.9 104.8 201 103.9 201 103C201.3 95.2999 195.8 85.7999 189.1 81.8999Z" fill="#F5F5F5"/>
<path d="M254.2 44.3999C250.7 42.3999 247.4 42.0999 244.8 43.5999C242.2 45.0999 240.8 48.0999 240.8 52.0999C240.8 53.8999 241.1 55.7999 241.6 57.6999L243.6 56.4999C243.2 54.9999 243 53.4999 243 52.0999C243 48.8999 244 46.5999 245.8 45.5999C246.5 45.1999 247.3 44.9999 248.3 44.9999C249.7 44.9999 251.3 45.4999 252.9 46.3999C259 49.8999 263.9 58.4999 263.9 65.4999C263.9 65.9999 263.9 66.4999 263.8 66.9999C263.5 69.3999 262.6 71.1999 261.1 71.9999C260.1 72.5999 258.9 72.6999 257.6 72.4999C257.4 73.2999 257.3 73.9999 257.3 74.7999C257.7 74.8999 258.2 74.8999 258.6 74.8999C259.9 74.8999 261.1 74.5999 262.2 73.9999C264.2 72.8999 265.5 70.7999 265.9 68.0999C266 67.2999 266.1 66.3999 266.1 65.4999C266.4 57.6999 260.9 48.2999 254.2 44.3999Z" fill="#F5F5F5"/>
<path d="M353.1 304.5L345.4 317.9C344.4 319.6 344.9 321.9 346.7 322.9C348.4 323.9 350.7 323.4 351.7 321.6L359.4 308.2C360.1 306.9 359.3 305.1 357.6 304C355.8 303 353.8 303.2 353.1 304.5Z" fill="#455A64"/>
<path d="M414.3 281L427.7 288.7C429.4 289.7 431.7 289.2 432.7 287.4C433.7 285.7 433.2 283.4 431.4 282.4L418 274.7C416.7 274 414.9 274.8 413.8 276.5C412.8 278.2 413 280.2 414.3 281Z" fill="#455A64"/>
<path d="M429.1 220.7C429 220.7 429 220.7 429.1 220.7L396.5 201.9L396.4 201.8C389.3 197.7 379.4 198.3 368.6 204.6C346.8 217.2 329.1 247.8 329.1 273C329.1 285.6 333.5 294.4 340.6 298.5H340.7L373.2 317.3H373.3C380.4 321.4 390.3 320.8 401.2 314.5C423 301.9 440.7 271.3 440.7 246.1C440.6 233.7 436.2 224.9 429.1 220.7Z" fill="#CE476C"/>
<path opacity="0.1" d="M372.6 317.2L340.6 298.7H340.5C333.4 294.5 329 285.7 329 273.2C329 262 332.5 249.6 338.4 238.3L370.9 257.1C365.1 268.4 361.5 280.7 361.5 292C361.5 304.2 365.8 312.9 372.6 317.2Z" fill="black"/>
<path opacity="0.4" d="M401.1 314.7C422.9 302.1 440.6 271.5 440.6 246.3C440.6 221.1 422.9 210.9 401.1 223.5C379.3 236.1 361.6 266.7 361.6 291.9C361.6 317.1 379.2 327.3 401.1 314.7Z" fill="white"/>
<path d="M383.4 312.1C370.9 312.1 369.5 298 369.5 291.9C369.5 269.7 385.8 241.5 405 230.4C409.9 227.6 414.6 226.1 418.6 226.1C431.1 226.1 432.5 240.2 432.5 246.3C432.5 268.5 416.2 296.7 397 307.8C392.2 310.6 387.4 312.1 383.4 312.1Z" fill="#FAFAFA"/>
<path d="M392.3 294.9C392.2 294.9 392.2 294.9 392.1 294.9C391.8 294.8 391.6 294.5 391.7 294.2L400.5 269.2C400.6 268.9 400.9 268.7 401.2 268.8C401.5 268.9 401.7 269.2 401.6 269.5L392.8 294.5C392.8 294.7 392.5 294.9 392.3 294.9Z" fill="#CE476C"/>
<path d="M414.2 276.7C414 276.7 413.7 276.7 413.5 276.6L399.3 270.5V244.8C399.3 243.9 400.1 243.1 401 243.1C401.9 243.1 402.7 243.9 402.7 244.8V268.2L414.8 273.4C415.7 273.8 416.1 274.8 415.7 275.7C415.5 276.3 414.9 276.7 414.2 276.7Z" fill="#37474F"/>
<path d="M401.1 263.7C403.7 262.2 405.7 263.4 405.7 266.4C405.7 269.4 403.6 273 401.1 274.5C398.5 276 396.5 274.8 396.5 271.8C396.4 268.8 398.5 265.2 401.1 263.7Z" fill="#CE476C"/>
<path d="M363.3 245.3C357.7 255 347.1 259.4 339.2 254.8C329.5 249.2 326.2 236.8 331.8 227.1C337.4 217.4 349.9 214 359.5 219.7C367.4 224.3 368.9 235.6 363.3 245.3Z" fill="#455A64"/>
<path d="M339.1 254.8C347 259.4 357.6 255 363.2 245.3C364.5 243 365.4 240.7 366 238.3C365.7 238.7 356.3 250.6 344.7 247.3C332.9 243.9 330.7 234.8 331.7 227.1C326.1 236.8 329.4 249.2 339.1 254.8Z" fill="#37474F"/>
<path d="M335.9 225.1L329.9 221.6C328.2 220.6 325.9 221.1 324.9 222.9C323.9 224.6 324.4 226.9 326.2 227.9L332.3 231.4C333.6 232.1 335.4 231.3 336.5 229.6C337.4 227.9 337.2 225.9 335.9 225.1Z" fill="#CE476C"/>
<path d="M425.7 196.1L429.2 190.1C430.2 188.4 429.7 186.1 427.9 185.1C426.2 184.1 423.9 184.6 422.9 186.4L419.4 192.5C418.7 193.8 419.5 195.6 421.2 196.7C422.9 197.6 424.9 197.4 425.7 196.1Z" fill="#CE476C"/>
<path d="M396.6 198.6C402.2 188.9 414.6 185.6 424.3 191.2C434 196.8 437.3 209.2 431.7 218.9L396.6 198.6Z" fill="#455A64"/>
<path d="M427.3 193.3C428.5 195.7 431.6 205.8 427.3 208.3C423 210.8 403.4 202.5 403.4 202.5L431.7 218.9C436.7 210.3 434.6 199.5 427.3 193.3Z" fill="#37474F"/>
<path d="M298.9 251.3C278.6 224 272 221 268.2 220.1L274.9 238.4L288.7 256.3" fill="#FFA8A7"/>
<path d="M266.2 219.8C266.2 219.8 270.5 218.5 276.7 224.6C282.9 230.7 290.5 239.6 290.5 239.6C290.5 239.6 288.5 246.9 282.1 249.1L272.9 239.6L266.2 219.8Z" fill="#27DEBF"/>
<path d="M266.2 219.8C266.2 219.8 270.5 218.5 276.7 224.6C282.9 230.7 290.5 239.6 290.5 239.6C290.5 239.6 288.5 246.9 282.1 249.1L272.9 239.6L266.2 219.8Z" fill="#BF4067"/>
<path d="M267.4 205C273.806 205 279 199.806 279 193.4C279 186.993 273.806 181.8 267.4 181.8C260.993 181.8 255.8 186.993 255.8 193.4C255.8 199.806 260.993 205 267.4 205Z" fill="#263238"/>
<path d="M239.589 404.176H247.789V390.176H239.589V404.176Z" fill="#FFA8A7"/>
<path d="M266.3 394L274.5 394.3L274.9 379.5L266.7 379.2L266.3 394Z" fill="#FFA8A7"/>
<path d="M240.1 279C240.1 286.8 240.1 335.7 240.1 335.7C239.9 338 238.2 341.9 237.8 351.4C237.2 363.1 239 395.5 239 395.5C239 395.5 242.8 399.3 248.3 395.5C248.3 395.5 255.6 349.3 257 337.7C258.3 327.5 260.5 299.9 260.5 299.9L265.4 341.5C265.4 341.5 264.1 349.1 263.8 354.5C263.5 359.9 266.2 388.6 266.2 388.6C266.2 388.6 270.4 391.5 275.1 388.9C275.1 388.9 280.7 345.8 281.6 340.9C282.4 336 278.5 278.9 278.5 278.9H240.1V279Z" fill="#37474F"/>
<path d="M248 222.4C246.9 222.6 245.6 222.8 244.6 223.2C242.4 224.1 241.3 226.9 240.8 229.3C240.4 231.1 240.1 233.2 240.1 235.5V251.6V279C245.8 285.2 265.9 288.2 278.4 279C278.4 279 278.2 240.6 277.2 234.3C275.6 223.3 270.3 219.4 265 219.8L252.4 221.6L248 222.4Z" fill="#CE476C"/>
<path d="M247.3 201.7C247.3 201.7 249.2 210.6 249.9 212C250.7 213.5 252.2 213.9 252.2 213.9L252.1 207.7L247.3 201.7Z" fill="#263238"/>
<path d="M249.7 189C249.7 189 247.7 188.7 246.1 190.3C244.5 191.9 245.4 196.9 247.3 201.7L250.8 202.1L249.7 189Z" fill="#263238"/>
<path d="M252 202.1C251.3 202.5 250.3 201.2 249.4 200.2C248.5 199.3 245.7 198 244.2 201C242.7 204.1 245.5 208.1 247.7 208.8C251.6 210 252.2 207.5 252.2 207.5L252.5 221.5C252.5 221.5 255 227.7 261.9 228.7C268.8 229.6 267.4 224 265.1 221.2V216.9C265.1 216.9 268.6 217.4 270.3 217.2C273.2 216.8 275 214.5 275.8 211.4C277.2 206.4 277.7 202.4 276.5 192.6C275.2 181.9 262.7 181.8 256 186C249.4 190.3 252 202.1 252 202.1Z" fill="#FFA8A7"/>
<path d="M252 203.3C251.6 203.3 250.3 201 249.4 200.2C248.2 199.1 249.8 189 249.8 189C249.8 189 248.6 186.5 251 183.9C252.7 182 255.5 181.8 260.3 181.1C262.8 180.7 266.6 180 269.1 179.5C272.1 178.9 274.6 178.4 276.7 180.2C278.3 181.6 279.1 184.2 278.2 186.2C278 186.7 277.7 187.1 277.3 187.5C276.7 188.2 276.6 189.1 275.7 189.4C275.7 189.4 273.9 191 269.3 191.6C264.7 192.2 257.7 191.5 256.7 191.4C255.4 191.2 255 191.6 254.3 195.1C253.7 198 253.2 203.2 252 203.3Z" fill="#263238"/>
<path d="M249.7 189.8L245.4 187.5C246 186.3 247.5 185.8 248.7 186.4C249.9 187 250.3 188.5 249.7 189.8Z" fill="#263238"/>
<path d="M265.1 217C265.1 217 258.7 215.7 256.5 214.5C255 213.7 253.8 212.3 253.4 211.4C253.4 211.4 253.8 213.3 255.2 215C256.8 217.1 265.1 218.6 265.1 218.6V217Z" fill="#F28F8F"/>
<path d="M263.961 201.64C263.963 200.922 263.383 200.338 262.665 200.336C261.947 200.334 261.363 200.914 261.361 201.632C261.359 202.35 261.94 202.934 262.658 202.936C263.376 202.938 263.959 202.358 263.961 201.64Z" fill="#263238"/>
<path d="M262.6 196.8L259.9 198.3C259.5 197.5 259.8 196.5 260.5 196.1C261.3 195.7 262.2 196 262.6 196.8Z" fill="#263238"/>
<path d="M264.5 209.3L267.4 210.4C267.1 211.2 266.2 211.7 265.4 211.4C264.7 211.1 264.2 210.1 264.5 209.3Z" fill="#F28F8F"/>
<path d="M275.4 197.9L272.9 196C273.4 195.3 274.4 195.1 275.1 195.7C275.7 196.2 275.9 197.2 275.4 197.9Z" fill="#263238"/>
<path d="M274.663 201.314C274.665 200.596 274.085 200.012 273.367 200.01C272.649 200.008 272.065 200.588 272.063 201.306C272.061 202.024 272.642 202.608 273.36 202.61C274.078 202.612 274.661 202.032 274.663 201.314Z" fill="#263238"/>
<path d="M267.7 198.9L268.1 206.6L272.1 205.2L267.7 198.9Z" fill="#F28F8F"/>
<path d="M247.8 400.2V399C248.6 399.3 250.4 406.3 253.7 409.3C256.3 411.7 259.8 414.4 260.7 417C261.6 419.7 255.8 421.2 253.4 420.8C250.6 420.3 245.7 418.3 244.5 416.5C243.3 414.7 242.7 412 241.7 410.6C240.7 409.3 238.4 407.8 237.9 406.2C237.6 405.3 238 403.5 238.4 401.9C238.8 400.5 239.2 398.9 239.7 399C239.7 399.2 239.7 399.9 239.7 399.9C240.3 400.6 241.9 401.2 243.8 401.3C244.9 401.3 247.8 401.1 247.8 400.2Z" fill="#263238"/>
<path d="M274.6 391.8C275 391.8 275.4 392.4 276.3 393.4C277.4 394.6 279.3 396 281.1 396.9C284.2 398.4 290.1 400.8 292.8 402C294.5 402.8 294.4 404.8 292.7 406C291 407.2 286.7 408 281.7 406.9C278.9 406.3 275.4 403.7 273.1 403.9C270.8 404 266.6 404 264.9 402.9C263.2 401.7 263.9 399.3 264.4 397.2C264.9 394.9 265.7 391.4 266.4 391.5V392.2C267.4 393.7 272.4 394.3 274.6 393.2V391.8Z" fill="#263238"/>
<path d="M260.5 299.9C260.5 299.9 267 298.1 271.9 293.4C271.9 293.4 269.7 297.5 263.2 301.4L263.3 323.7L260.5 299.9Z" fill="#263238"/>
<path d="M245 299.6C243.6 298.4 242.8 297 240.8 295.5C239 294.2 238.3 293.6 237.2 291.8C236 289.9 235 283.5 234.6 277.4C234.1 270.2 236.1 261.1 237.4 257.3C240.2 249.6 245.8 239.3 247.7 235C249.6 230.7 248.6 228.5 246.9 226.3C244.9 223.7 241.3 223.7 237.8 229.6C234.4 235.5 229.4 246.5 226.9 255.5C225.7 259.8 224.4 267 224.9 276.2C225.3 282.6 226.7 287.6 228.5 293.8C229 295.5 228.9 296.9 229.5 300.2C229.7 301.5 229.9 303 230.6 304.2C231.4 305.7 232.3 307.2 233.5 308.4C235 310 236.9 311.2 239 311.8C240.2 312.1 241.4 312.2 242.6 312C243.8 311.8 244.9 311.2 245.6 310.2C245.7 310 245.9 309.8 245.9 309.6C246 309.2 245.7 308.8 245.4 308.4C243.9 306.4 242 304.5 240.8 302.4C239.7 300.6 239.2 299.2 239.6 299.3C240 299.4 240.6 300.5 242.1 301.4C243.6 302.3 245.5 302.3 246 301.5C246.5 300.6 246.4 300.7 245 299.6Z" fill="#FFA8A7"/>
<path d="M245.6 222.9C242.3 223.1 239.4 223.8 236.1 230.3C232.8 236.8 227.7 248.9 227.7 248.9C227.7 248.9 231.2 256.1 240.2 256.1C240.2 256.1 247.7 240.4 249 236.2C250.1 232.2 251 225.5 245.6 222.9Z" fill="#27DEBF"/>
<path d="M245.6 222.9C242.3 223.1 239.4 223.8 236.1 230.3C232.8 236.8 227.7 248.9 227.7 248.9C227.7 248.9 231.2 256.1 240.2 256.1C240.2 256.1 247.7 240.4 249 236.2C250.1 232.2 251 225.5 245.6 222.9Z" fill="#BF4067"/>
<path d="M288.7 256.2C287.9 258.4 280.8 265 275.6 267.1C274.7 267.5 272.7 267.7 271.7 267.3C270.5 266.9 269.1 266.4 267.8 266.5C266.3 266.6 264.7 266.9 263.2 267.1C262.9 267.1 262.5 267.2 262.3 267.3C261.4 267.8 261.9 268.6 262.6 268.9C263.8 269.3 265 269.7 266.3 269.9C266.3 270 266.3 270.1 266.3 270.2C263.2 271.5 259.7 271.8 256.4 272.2C255.8 272.3 255.2 272.4 254.7 272.8C254.3 273.2 254.2 273.9 254.3 274.4C254.4 275 254.8 275.5 255.1 275.9C256.6 277.8 258.6 279.6 261.1 280C263.5 280.3 266.1 279.7 268.4 279.1C269.5 278.8 270.6 278.4 271.8 278C274.4 277.1 278.2 275.4 281.2 273.8C289.1 269.6 295.6 264.6 299.2 261.1C302.5 257.9 301.7 254.8 298.9 251.1" fill="#FFA8A7"/>
<path d="M274.8 267.3C274.8 267.3 276 266.9 277.2 269C278.5 271.1 279.3 274.9 277.7 275.7C277.7 275.7 279.3 275.9 280.6 274.3C280.6 274.3 281.9 269.4 277.7 266.2C277.8 266.1 275.6 266.2 274.8 267.3Z" fill="#37474F"/>
<path d="M279.998 271.378C281.149 270.722 281.551 269.257 280.895 268.105C280.239 266.953 278.774 266.551 277.622 267.207C276.47 267.863 276.068 269.329 276.724 270.481C277.38 271.632 278.846 272.034 279.998 271.378Z" fill="#27DEBF"/>
<path d="M279.702 270.853C280.566 270.361 280.867 269.261 280.375 268.398C279.883 267.534 278.784 267.232 277.92 267.724C277.057 268.216 276.755 269.315 277.247 270.179C277.739 271.043 278.838 271.345 279.702 270.853Z" fill="#FAFAFA"/>
</svg>
