<svg width="472" height="489" viewBox="0 0 472 489" fill="none" xmlns="http://www.w3.org/2000/svg">
<path opacity="0.1" d="M332.724 15.2047C316.307 24.4804 30.0745 151.84 65.9212 167.407C101.768 182.933 162.491 134.74 162.491 159.623C162.491 184.506 -18.7512 248.791 36.2936 269.48C91.3384 290.168 129.232 196.121 152.332 220.238C175.431 244.355 59.6635 281.901 65.8053 313.237C71.9858 344.572 224.682 210.115 224.682 239.273C224.682 268.431 155.577 277.142 185.05 307.954C214.561 338.765 360.768 237.499 360.768 215.681C360.768 193.863 288.611 196.807 323.338 160.551C358.103 124.255 406.89 89.8942 368.185 80.4975C329.48 71.1008 391.284 27.6664 391.284 7.4212C391.284 -12.9047 332.724 15.2047 332.724 15.2047Z" fill="#63CEFF"/>
<path d="M375.215 39.1199H311.015V48.1133L339.484 60.5346L338.248 88.9263L341.107 89.0473L342.343 60.7766L375.254 51.0169V39.1199H375.215ZM372.357 48.7988L341.145 58.0745L313.835 46.1371V42.1042H372.318V48.7988H372.357Z" fill="#33405A"/>
<path d="M326.351 138.33C329.789 133.046 337.862 129.336 337.862 129.336C338.75 128.893 342.265 129.134 342.111 130.304C341.956 131.474 339.755 130.586 337.9 132.522C336.046 134.498 337.282 134.982 338.132 135.144C339.021 135.265 342.922 138.934 342.729 140.144C342.574 141.354 341.879 141.354 341.686 142.645C341.493 143.976 340.025 145.387 337.437 146.799C334.849 148.21 328.591 147.968 326.853 149.339C326.505 149.581 323.801 151.88 321.175 154.138C319.707 152.485 317.621 151.114 317.544 148.533C320.634 145.992 323.454 142.806 326.351 138.33Z" fill="#FD5E5A"/>
<path d="M337.266 81.7265L319.155 463.749L324.865 464.044L342.976 82.0216L337.266 81.7265Z" fill="#591914"/>
<path d="M371.236 42.9512H315.265C314.84 42.9512 314.492 42.5882 314.492 42.1446V38.5956C314.492 38.152 314.84 37.7891 315.265 37.7891H371.236C371.661 37.7891 372.009 38.152 372.009 38.5956V42.1446C372.009 42.5882 371.661 42.9512 371.236 42.9512Z" fill="#BF2604"/>
<path d="M369.228 35.1675H317.891V45.1288H369.228V35.1675Z" fill="#F8E000"/>
<path d="M323.57 35.1675C321.909 37.9099 320.093 41.3378 318.702 45.1288H320.363C321.831 41.2572 323.763 37.7889 325.424 35.1675H323.57Z" fill="#8C1C03"/>
<path d="M330.677 35.1675C329.016 37.9099 327.201 41.3378 325.81 45.1288H327.471C328.939 41.2572 330.87 37.7889 332.531 35.1675H330.677Z" fill="#8C1C03"/>
<path d="M337.746 35.1675C336.085 37.9099 334.269 41.3378 332.879 45.1288H334.54C336.008 41.2572 337.939 37.7889 339.6 35.1675H337.746Z" fill="#8C1C03"/>
<path d="M344.854 35.1675C343.193 37.9099 341.377 41.3378 339.986 45.1288H341.647C343.115 41.2572 345.047 37.7889 346.708 35.1675H344.854Z" fill="#8C1C03"/>
<path d="M351.922 35.1675C350.261 37.9099 348.446 41.3378 347.055 45.1288H348.716C350.184 41.2572 352.116 37.7889 353.777 35.1675H351.922Z" fill="#8C1C03"/>
<path d="M359.03 35.1675C357.369 37.9099 355.553 41.3378 354.163 45.1288H355.824C357.292 41.2572 359.223 37.7889 360.884 35.1675H359.03Z" fill="#8C1C03"/>
<path d="M366.099 35.1675C364.438 37.9099 362.622 41.3378 361.232 45.1288H362.893C364.361 41.2572 366.292 37.7889 367.953 35.1675H366.099Z" fill="#8C1C03"/>
<path d="M366.794 40.1685C369.575 39.7652 369.266 36.0146 369.266 35.1677C369.266 34.3207 368.648 35.1677 366.138 35.1677C363.665 35.1677 343.849 34.724 342.072 34.724C340.295 34.724 337.785 35.1677 336.587 34.4821C335.428 33.7561 317.891 35.208 317.891 35.208H317.814C318.316 35.208 319.591 35.329 321.522 36.0146C324.11 36.9018 327.201 37.2648 330.059 36.1759C332.956 35.087 335.042 36.9421 335.042 36.9421C335.042 36.9421 335.506 39.2006 335.737 39.8862C335.969 40.5718 336.973 39.7248 336.973 39.7248C336.973 39.7248 335.969 41.7413 337.785 42.1446C339.6 42.5479 337.669 37.5471 340.257 36.8211C342.845 36.0952 347.867 37.6681 347.867 37.6681C350.995 38.7973 354.086 40.0475 354.742 39.3619C355.36 38.7166 357.33 38.152 359.339 38.9586C361.348 39.7652 360.807 41.9026 361.232 41.459C361.657 41.0154 361.579 38.5956 362.661 39.7652C363.781 40.8944 363.781 43.6771 364.554 44.4837C365.326 45.2902 365.095 42.5075 365.481 43.6771C365.867 44.8466 363.472 55.8161 366.099 55.8161C368.803 55.8161 364.013 40.5718 366.794 40.1685Z" fill="#4F80FF"/>
<path d="M342.652 139.418C342.652 139.418 332.415 137.765 332.145 139.822C331.875 141.878 341.57 142.08 341.57 142.08C341.57 142.08 332.222 140.749 331.99 142.483C331.759 144.177 339.716 145.387 339.716 145.387C339.716 145.387 331.952 143.572 332.145 144.863C332.299 146.153 339.832 147.686 339.832 147.686C339.832 147.686 341.493 147.202 340.952 145.952C340.566 145.024 341.222 144.782 341.609 144.298C341.956 143.814 342.227 142.645 342.304 142.161C342.381 141.717 343.965 140.306 342.652 139.418Z" fill="#FC7575"/>
<path d="M239.322 488.628C367.516 488.628 471.437 482.452 471.437 474.835C471.437 467.218 367.516 461.042 239.322 461.042C111.128 461.042 7.20674 467.218 7.20674 474.835C7.20674 482.452 111.128 488.628 239.322 488.628Z" fill="#C2BEDB"/>
<path d="M243.841 452.937L241.601 471.851C241.601 471.851 246.545 471.851 255.739 471.851C264.932 471.851 279.302 470.48 279.302 470.48C279.302 470.48 257.709 463.019 257.709 454.751C257.709 446.484 257.709 446.484 257.709 446.484L243.841 452.937Z" fill="#0D3153"/>
<path d="M323.145 453.582C321.909 450.234 318.548 443.136 318.548 443.136L307.616 446.524L305.376 466.164C305.376 466.164 337.63 466.164 342.575 466.164C342.575 466.164 324.342 456.929 323.145 453.582Z" fill="#0D3153"/>
<path d="M87.6301 415.431C87.6301 415.431 85.7373 465.56 85.7373 465.681C85.7373 468.342 71.2132 470.52 53.2899 470.52C48.3069 470.52 43.5942 470.359 39.3838 470.036C28.4135 469.27 20.8424 467.576 20.8424 465.64C20.8424 465.56 18.4861 403.211 18.4861 403.09H88.0936L87.6301 415.431Z" fill="#A695C6"/>
<path d="M84.2308 412.285C70.5565 414.261 46.6459 414.866 29.4951 413.334C26.1344 413.051 23.0442 412.648 20.3402 412.204C10.3356 410.47 9.13814 408.413 14.237 402.929C14.1211 403.09 14.0825 403.251 14.0825 403.453C14.0825 405.469 21.3446 407.284 32.3149 408.292C38.3795 408.857 45.5643 409.18 53.2899 409.18C74.9215 409.18 92.4972 406.599 92.4972 403.453C92.4972 403.09 92.2654 402.727 91.8019 402.364H91.8792C100.802 409.301 89.4842 411.519 84.2308 412.285Z" fill="#C0E2ED"/>
<path d="M14.0825 403.453C14.0825 406.599 31.6196 409.18 53.2899 409.18C74.9215 409.18 92.4973 406.599 92.4973 403.453C92.4973 403.009 92.42 402.727 91.7633 402.324C90.6817 401.719 89.5229 401.275 88.2482 400.872C81.7587 399.017 68.5479 397.726 53.2899 397.726C31.6196 397.726 14.0825 400.307 14.0825 403.453Z" fill="#F9B406"/>
<path d="M88.0936 403.09C88.0936 404.098 85.3897 405.026 80.8702 405.752C74.4966 406.8 64.5306 407.445 53.2899 407.445C52.7877 407.445 52.2855 407.445 51.7834 407.445C41.2766 407.405 31.9672 406.76 25.864 405.792C21.2287 405.066 18.4861 404.138 18.4861 403.09C18.4861 400.751 33.242 398.855 51.7834 398.734C52.2855 398.734 52.7877 398.734 53.2899 398.734C72.4879 398.734 88.0936 400.67 88.0936 403.09Z" fill="#56448E"/>
<path d="M80.8316 405.752C78.8616 406.074 76.5053 406.357 73.8786 406.599C68.123 407.123 60.9768 407.446 53.2512 407.446C45.5643 407.446 38.4567 407.123 32.7012 406.599C30.1131 406.357 27.7954 406.074 25.8254 405.752C32.199 404.703 42.165 404.058 53.4058 404.058C64.5692 404.058 74.458 404.743 80.8316 405.752Z" fill="#FB8603"/>
<path d="M80.8702 423.738H29.3019V453.541H80.8702V423.738Z" fill="white"/>
<path d="M78.4753 429.021H56.4573V431.038H78.4753V429.021Z" fill="#C0B4FE"/>
<path d="M79.2092 432.933H57.1913V434.95H79.2092V432.933Z" fill="#C0B4FE"/>
<path d="M79.9818 437.652H57.9639V439.668H79.9818V437.652Z" fill="#C0B4FE"/>
<path d="M14.8551 405.752C14.8551 405.752 10.1811 407.405 12.4215 409.744C14.6619 412.083 10.5674 420.835 13.3486 423.738C16.1298 426.642 15.5504 411.196 17.1727 411.559C18.7951 411.922 16.0139 420.27 19.1428 420.27C22.2716 420.27 21.2673 411.115 23.0442 413.011C24.8211 414.866 23.7009 419.423 25.864 418.617C28.0272 417.81 27.8341 413.213 28.6839 413.293C29.5337 413.374 32.6625 410.672 29.3019 409.785C25.9413 408.857 25.2846 402.485 14.8551 405.752Z" fill="#F9B406"/>
<path d="M39.5769 411.882C39.5769 411.882 48.191 407.687 50.161 409.744C52.131 411.801 60.8223 414.1 58.9681 414.1C57.1526 414.1 48.0751 414.18 46.7617 414.18C45.487 414.14 37.9546 415.713 39.5769 411.882Z" fill="#F9B406"/>
<path d="M79.9818 407.445C79.9818 407.445 82.7244 407.002 82.7244 409.18C82.7244 411.357 85.467 410.188 85.467 412.971C85.467 415.753 83.9605 426.763 87.2825 425.271C90.6045 423.779 87.5529 411.801 88.8276 411.801C90.1023 411.801 88.364 415.189 90.9135 415.189C93.4629 415.189 93.1925 411.438 93.1925 409.704C93.1925 407.97 90.4886 403.251 86.5872 404.3C82.6857 405.429 79.9818 405.832 79.9818 407.445Z" fill="#F9B406"/>
<path d="M11.8035 465.963C11.8035 465.963 -4.53615 468.342 2.10786 470.52C8.75186 472.657 18.3702 465.963 11.8035 465.963Z" fill="#F9B406"/>
<path d="M49.2726 429.021H33.4737V447.291H49.2726V429.021Z" fill="#FAB300"/>
<path d="M168.324 418.979C168.324 418.979 166.701 461.889 166.701 461.97C166.701 464.269 154.263 466.124 138.928 466.124C134.679 466.124 130.623 465.963 127.031 465.721C117.644 465.035 111.155 463.624 111.155 461.97C111.155 461.889 109.146 408.534 109.146 408.413H168.749L168.324 418.979Z" fill="#A695C6"/>
<path d="M165.465 416.277C153.761 417.971 133.288 418.496 118.61 417.205C115.751 416.963 113.086 416.64 110.768 416.237C102.231 414.745 101.15 412.97 105.515 408.333C105.438 408.494 105.36 408.615 105.36 408.776C105.36 410.51 111.579 412.043 120.966 412.93C126.142 413.414 132.323 413.696 138.928 413.696C157.469 413.696 172.496 411.519 172.496 408.776C172.496 408.454 172.303 408.171 171.916 407.849H171.955C179.642 413.737 169.946 415.672 165.465 416.277Z" fill="#C0E2ED"/>
<path d="M105.399 408.736C105.399 411.438 120.425 413.616 138.967 413.616C157.508 413.616 172.534 411.438 172.534 408.736C172.534 408.373 172.457 408.131 171.916 407.768C170.989 407.244 169.985 406.881 168.903 406.518C163.341 404.945 152.023 403.856 138.967 403.856C120.425 403.856 105.399 406.034 105.399 408.736Z" fill="#4F80FF"/>
<path d="M168.749 408.413C168.749 409.26 166.431 410.067 162.53 410.672C157.083 411.559 148.546 412.124 138.928 412.124C138.503 412.124 138.04 412.124 137.615 412.124C128.614 412.083 120.657 411.519 115.442 410.712C111.502 410.067 109.146 409.3 109.146 408.413C109.146 406.397 121.777 404.784 137.653 404.703C138.078 404.703 138.503 404.703 138.967 404.703C155.422 404.703 168.749 406.356 168.749 408.413Z" fill="#56448E"/>
<path d="M162.53 410.712C160.83 410.994 158.821 411.236 156.581 411.438C151.637 411.881 145.533 412.164 138.928 412.164C132.361 412.164 126.258 411.881 121.352 411.438C119.15 411.236 117.142 410.994 115.442 410.712C120.889 409.825 129.426 409.26 139.044 409.26C148.585 409.26 157.083 409.825 162.53 410.712Z" fill="#2F499F"/>
<path d="M162.568 426.118H118.417V451.646H162.568V426.118Z" fill="white"/>
<path d="M160.521 430.635H141.671V432.369H160.521V430.635Z" fill="#C0B4FE"/>
<path d="M161.139 433.982H142.289V435.716H161.139V433.982Z" fill="#C0B4FE"/>
<path d="M161.796 438.015H142.945V439.749H161.796V438.015Z" fill="#C0B4FE"/>
<path d="M127.185 415.955C127.185 415.955 134.563 412.365 136.263 414.14C137.962 415.914 145.379 417.85 143.834 417.85C142.289 417.85 134.486 417.931 133.404 417.89C132.284 417.89 125.833 419.262 127.185 415.955Z" fill="#4F80FF"/>
<path d="M161.796 412.164C161.796 412.164 164.113 411.76 164.113 413.656C164.113 415.551 166.431 414.503 166.431 416.923C166.431 419.342 165.118 428.739 167.976 427.449C170.835 426.158 168.208 415.914 169.328 415.914C170.41 415.914 168.903 418.818 171.105 418.818C173.307 418.818 173.075 415.632 173.075 414.14C173.075 412.648 170.757 408.615 167.435 409.502C164.113 410.43 161.796 410.793 161.796 412.164Z" fill="#4F80FF"/>
<path d="M135.49 430.635H121.97V446.282H135.49V430.635Z" fill="#4F80FF"/>
<path d="M279.65 113.85C279.65 113.85 285.444 166.519 290.465 166.519C295.526 166.519 317.544 145.226 317.544 145.226L324.303 154.138C324.303 154.138 298.732 193.137 284.13 186.281C269.49 179.425 270.34 130.707 270.34 130.707L279.65 113.85Z" fill="#F27F3D"/>
<path d="M288.379 204.348L321.986 446.766L305.183 449.872L260.992 286.66L270.302 201.283L288.379 204.348Z" fill="#F27F3D"/>
<path d="M279.65 115.705C279.65 115.705 272.31 109.817 247.473 115.665C246.777 115.826 246.159 143.976 246.159 143.976C246.159 143.976 257.67 191.08 255.507 202.856C255.507 202.856 268.679 214.471 288.341 204.348C288.341 204.348 285.791 167.366 287.568 159.099C289.345 150.872 292.938 143.371 287.877 134.821C282.817 126.311 279.65 115.705 279.65 115.705Z" fill="#EE0085"/>
<path d="M279.65 113.85C279.65 113.85 272.31 108.768 247.473 114.616C246.777 114.777 246.159 143.975 246.159 143.975C246.159 143.975 257.67 191.08 255.507 202.856C255.507 202.856 268.641 248.508 281.89 246.452C285.328 245.927 288.998 209.188 288.341 204.348C288.341 204.348 285.791 167.366 287.568 159.099C289.345 150.872 292.938 143.371 287.877 134.821C282.817 126.311 279.65 113.85 279.65 113.85Z" fill="#F2A71B"/>
<path d="M246.352 214.31C245.966 213.906 242.412 208.462 241.678 209.268C240.944 210.075 244.807 215.035 244.807 215.035C244.807 215.035 240.326 210.277 239.438 211.204C238.549 212.132 245.425 218.544 246.159 218.544C246.854 218.584 246.352 214.31 246.352 214.31Z" fill="#FD5E5A"/>
<path d="M252.417 208.986C252.34 208.865 249.713 205.639 246.198 200.88C245.078 199.347 243.841 197.653 242.605 195.879C240.867 197.411 239.245 199.186 237.429 200.678C238.897 202.574 240.249 204.308 241.369 205.76C242.567 207.413 243.417 208.704 243.726 209.429C245.811 214.35 246.121 218.625 246.121 218.625C246.121 218.625 250.37 218.463 251.297 217.495C252.262 216.487 251.49 214.995 252.88 213.543C254.31 212.011 252.417 208.986 252.417 208.986Z" fill="#FC7575"/>
<path d="M228.661 164.705C231.056 153.614 245.078 147.283 247.473 141.798C249.945 136.152 247.936 114.495 247.936 114.495C237.506 113.769 213.557 160.148 214.137 167.165C214.561 172.045 226.498 192.209 235.382 203.542C237.197 202.049 240.867 197.412 242.605 195.879C235.421 185.555 227.154 171.803 228.661 164.705Z" fill="#F2B90C"/>
<path d="M247.975 114.495C248.361 119.254 248.168 125.061 248.284 129.941C248.361 138.531 247.859 141.233 246.043 143.411C241.833 148.492 230.553 154.743 228.699 164.745C231.326 154.824 242.219 149.299 246.623 143.935C248.284 141.919 248.593 139.781 248.824 137.079C249.249 130.707 248.902 120.867 247.975 114.495Z" fill="#D6F8F6"/>
<path d="M143.447 460.639L145.456 474.875C145.456 474.875 137.422 474.875 131.82 474.875C126.219 474.875 110.845 474.875 110.845 474.875C110.845 474.875 111.966 471.367 122.009 469.27C132.052 467.173 133.25 463.22 133.25 463.22L131.82 454.348L140.975 452.937L143.447 460.639Z" fill="#3A4163"/>
<path d="M154.495 149.178C154.495 149.178 152.177 127.521 146.731 127.521C135.336 127.521 116.292 187.571 115.713 196.403C114.708 211.285 124.52 212.172 134.138 213.382C143.563 214.551 145.302 192.975 145.302 192.975L154.495 149.178Z" fill="#F27F3D"/>
<path d="M179.178 459.228L180.53 466.931C180.53 466.931 177.054 478.707 171.839 484.191C166.586 489.676 155.306 490.039 155.306 485.361C155.306 480.683 167.088 466.245 167.088 460.639C167.049 455.034 179.178 459.228 179.178 459.228Z" fill="#3A4163"/>
<path d="M188.604 130.748L171.144 123.892L157.585 124.779L146.731 127.521L130.7 197.613L131.82 255.243H182.307L173.577 218.786L188.604 130.748Z" fill="#F2A71B"/>
<path d="M147.697 159.542C132.825 210.236 137.653 249.718 137.653 249.557V249.597C137.653 249.799 137.499 250 137.306 250C136.61 250.041 137.035 249.194 136.417 242.015L136.185 238.224C134.64 208.945 140.859 167.165 156.465 130.425C156.851 129.497 158.242 130.102 157.817 131.07C157.354 132.199 152.795 142.04 147.697 159.542Z" fill="#591900"/>
<path d="M167.049 201.283C163.225 204.066 160.714 208.139 152.448 210.559C157.276 214.511 162.839 218.625 168.131 221.811C169.367 214.834 170.294 209.067 170.448 202.049C170.255 202.17 167.242 201.243 167.049 201.283Z" fill="#FD5E5A"/>
<path d="M198.685 144.621C196.213 136.515 188.604 130.748 188.604 130.748C180.26 129.739 177.826 175.553 177.826 175.553L174.504 200.88C173.809 201.646 171.337 200.88 170.448 201.283C170.294 208.26 167.822 215.681 166.547 222.698C174.813 227.699 184.007 229.634 187.29 226.207C194.784 218.383 201.119 152.727 198.685 144.621Z" fill="#F2B90C"/>
<path d="M127.803 176.682C124.52 175.956 114.322 179.667 114.322 179.667C114.322 179.667 111.618 183.619 111.618 186.119C111.618 186.563 111.85 186.765 112.236 186.724C111.541 187.248 111.193 187.692 111.464 188.015C112.816 189.426 123.477 184.062 124.134 184.748C124.79 185.393 112.004 187.571 113.047 189.991C113.472 190.999 118.378 189.386 121.468 188.297C118.764 189.386 114.863 191.16 114.863 192.249C114.863 193.903 125.988 191.362 128.421 191.362C129.348 191.362 130.816 192.37 132.477 193.459C133.211 193.298 133.752 193.701 134.061 193.58C134.061 193.58 142.405 193.379 152.989 194.75C141.4 187.49 128.692 176.884 127.803 176.682ZM116.253 184.425C115.404 184.869 114.554 185.313 113.82 185.716C114.554 184.99 115.133 183.417 116.138 182.691C118.223 181.159 121.352 180.312 121.816 180.796C122.357 181.36 119.228 182.893 116.253 184.425Z" fill="#FC7575"/>
<path d="M176.397 186.361C175.818 189.184 175.934 197.573 174.659 199.67C174.659 199.67 173.268 198.662 172.805 199.146C168.285 201.686 161.873 208.623 149.358 211.406C137.074 214.108 120.348 215.479 120.348 206.768C120.348 198.057 128.73 193.298 134.061 193.298C134.061 193.298 142.404 193.338 152.989 194.75C152.989 194.75 152.989 194.75 153.027 194.75C163.573 196.121 175.277 185.474 176.397 186.361Z" fill="#FF8D8D"/>
<path d="M153.298 94.0883L154.032 119.133L154.186 124.053C154.225 125.666 153.993 131.957 155.306 132.885C158.281 135.022 166.354 134.498 171.182 132.24C175.586 130.183 166.238 93.2011 166.238 93.2011C166.238 93.2011 158.628 92.6365 153.298 94.0883Z" fill="#FC7575"/>
<path d="M166.238 93.1609C166.238 93.1609 166.547 94.3305 167.011 96.2663C166.895 99.0893 166.547 103.405 165.697 106.671C164.577 110.986 159.324 118.367 154.032 119.093L153.298 94.0482C158.628 92.6366 166.238 93.1609 166.238 93.1609Z" fill="#FD5E5A"/>
<path d="M164.307 57.1066C167.088 60.7766 169.405 65.979 165.89 68.8424C169.908 66.342 168.053 60.2523 165.659 56.0984L164.307 57.1066Z" fill="#001959"/>
<path d="M147.812 73.0367C147.812 73.0367 141.902 74.1256 141.632 82.0301C141.362 89.9346 146.074 111.551 152.139 113.245C158.203 114.939 164.847 107.034 166.083 102.638C167.397 98.0408 167.32 90.9832 167.32 90.9832C167.32 90.9832 166.161 62.5108 147.812 73.0367Z" fill="#FC7575"/>
<path d="M173.809 101.509C173.809 101.509 172.496 103.324 170.796 101.146C170.796 101.146 166.895 96.105 169.792 91.9511C172.727 87.7972 177.17 82.0704 175.972 74.8919C174.775 67.673 166.431 68.1972 166.431 68.1972C166.431 68.1972 164.5 57.1471 152.989 61.5026C152.989 61.5026 150.671 59.2038 143.834 59.8894C137.035 60.575 138.851 64.4063 134.872 63.9627C130.893 63.5191 130.198 60.3331 131.782 59.0022C131.782 59.0022 125.176 62.5915 124.597 68.3182C124.018 74.0449 134.409 73.7626 134.409 73.7626C134.409 73.7626 126.065 75.3758 132.67 78.7231C139.237 82.0704 142.327 81.8688 146.074 77.6342C149.821 73.44 151.868 72.3511 153.993 73.1577C156.117 73.9643 155.615 78.8441 158.783 79.1667C161.912 79.5297 164.384 88.0391 164.384 88.0391C164.384 88.0391 166.74 87.0712 166.933 93.1206C167.126 99.17 166.508 102.921 170.062 103.324C173.655 103.727 173.809 101.509 173.809 101.509Z" fill="#001959"/>
<path d="M165.736 80.9411C167.551 80.6184 172.071 81.788 168.672 88.039C165.272 94.29 161.757 88.1196 162.028 85.4579C162.298 82.7559 164.345 81.183 165.736 80.9411Z" fill="#FC7575"/>
<path d="M148.624 90.6201C149.242 94.2497 149.396 97.7584 150.285 101.146C151.096 101.106 151.907 101.106 152.718 101.146C151.366 101.711 150.246 101.993 149.744 102.114C149.705 101.953 148.083 97.3551 148.624 90.6201Z" fill="#001959"/>
<path d="M168.324 84.611C168.324 84.611 168.208 88.9262 166.199 89.0069C164.191 89.0876 163.534 85.9016 164.809 84.2481C166.083 82.5946 168.44 83.4012 168.324 84.611Z" fill="#FD5E5A"/>
<path d="M157.933 297.831L137.499 372.803L148.585 463.18H131.82L113.743 367.6L131.82 255.243L157.933 297.831Z" fill="#F27F3D"/>
<path d="M131.82 255.243L145.958 300.452C145.958 300.452 162.646 361.511 165.659 398.371C168.672 435.192 165.659 460.397 165.659 460.397L189.106 464.35C189.106 464.35 191.887 386.716 188.295 361.107C184.741 335.458 189.106 272.988 189.106 272.988L182.269 255.284H131.82V255.243Z" fill="#F2A71B"/>
<path d="M255.546 202.856C255.546 202.856 242.451 220.359 239.361 237.983C236.27 255.606 235.15 346.266 235.15 346.266L231.403 365.745L240.365 457.736L262.46 453.985C262.46 453.985 270.958 302.751 277.95 272.182C284.903 241.612 283.165 234.353 283.165 234.353L282.122 206.97L255.546 202.856Z" fill="#F2A71B"/>
<path d="M272.658 118.447C274.86 135.829 276.946 153.211 278.838 170.633C279.765 179.344 280.693 188.055 281.465 196.807C282.199 205.558 283.049 214.269 282.972 223.101C282.972 223.303 282.817 223.424 282.663 223.424C282.469 223.424 282.354 223.262 282.354 223.101V223.061C282.354 214.35 281.426 205.598 280.654 196.887C279.804 188.176 278.8 179.465 277.795 170.754C275.748 153.372 273.546 135.99 271.19 118.649C271.113 118.205 271.422 117.842 271.808 117.762C272.233 117.721 272.619 118.004 272.658 118.447Z" fill="#580000"/>
<path d="M240.713 126.594C240.713 126.594 236 138.168 237.468 138.41C238.936 138.652 237.391 143.008 237.816 146.839C238.24 150.71 240.017 138.894 241.601 137.644C243.185 136.434 243.764 136.474 244.537 131.232C245.271 125.989 246.661 116.229 244.769 118.971C242.876 121.674 240.713 126.594 240.713 126.594Z" fill="#4F80FF"/>
<path d="M264.894 296.379C264.894 296.379 266.787 289.765 262.731 289.765C258.713 289.765 256.55 311.543 258.366 313.479C260.258 315.414 264.894 296.379 264.894 296.379Z" fill="#4F80FF"/>
<path d="M254.116 238.668C254.116 238.668 250.176 252.219 253.112 258.833C256.048 265.447 253.305 249.073 257.4 244.758C261.533 240.443 259.911 225.4 259.911 220.359C259.911 215.318 257.902 222.254 254.966 225.319C252.031 228.384 249.056 223.827 249.056 230.239C249.056 236.652 254.116 238.668 254.116 238.668Z" fill="#55AFFF"/>
<path d="M253.769 134.861C253.769 134.861 250.949 138.652 252.726 138.652C254.503 138.612 255.623 134.861 253.769 134.861Z" fill="#4F80FF"/>
<path d="M254.657 129.86C254.001 129.86 253.46 129.296 253.46 128.61C253.46 127.924 254.001 127.36 254.657 127.36C255.314 127.36 255.855 127.924 255.855 128.61C255.855 129.296 255.314 129.86 254.657 129.86Z" fill="#4F80FF"/>
<path d="M256.241 124.98C256.009 124.98 255.816 124.779 255.816 124.537C255.816 124.295 256.009 124.093 256.241 124.093C256.473 124.093 256.666 124.295 256.666 124.537C256.666 124.819 256.473 124.98 256.241 124.98Z" fill="#4F80FF"/>
<path d="M186.402 138.773C186.402 138.773 189.994 136.071 190.496 138.773C190.998 141.475 193.587 149.138 193.587 154.3C193.587 159.462 189.994 159.744 189.994 157.163C189.994 154.582 187.136 150.832 187.136 160.148C187.136 169.464 184.548 175.836 183.775 176.602C183.041 177.368 180.801 173.577 180.801 170.512C180.801 167.407 179.062 164.705 179.68 160.833C180.299 156.962 185.745 139.66 185.745 139.66L186.402 138.773Z" fill="#55AFFF"/>
<path d="M190.342 164.705C190.342 164.705 188.024 169.302 190.342 168.254C192.659 167.205 191.887 163.091 190.342 164.705Z" fill="#99C8F2"/>
<path d="M191.385 174.182C191.076 174.545 189.376 180.151 191.385 178.053C193.355 175.997 192.775 172.73 191.385 174.182Z" fill="#99C8F2"/>
<path d="M176.204 132.925C176.204 132.925 167.822 134.901 172.341 137.563C176.861 140.185 180.221 141.072 180.221 139.62C180.221 138.128 176.204 132.925 176.204 132.925Z" fill="#99C8F2"/>
<path d="M266.864 85.6192C268.464 85.6192 269.761 84.7887 269.761 83.7641C269.761 82.7395 268.464 81.9089 266.864 81.9089C265.264 81.9089 263.967 82.7395 263.967 83.7641C263.967 84.7887 265.264 85.6192 266.864 85.6192Z" fill="#FD5E5A"/>
<path d="M277.911 85.6192C279.511 85.6192 280.808 84.7887 280.808 83.7641C280.808 82.7395 279.511 81.9089 277.911 81.9089C276.311 81.9089 275.014 82.7395 275.014 83.7641C275.014 84.7887 276.311 85.6192 277.911 85.6192Z" fill="#FD5E5A"/>
<path d="M257.439 90.1765C256.782 90.8621 253.46 92.314 253.46 95.5806C253.46 98.8473 257.863 102.033 255.816 103.041C253.769 104.05 252.533 102.477 252.533 107.034C252.533 111.591 255.855 113.971 255.855 113.971C255.855 113.971 260.915 114.656 263.349 112.156C265.744 109.655 262.615 107.599 263.967 104.897C265.319 102.195 267.714 100.864 266.864 98.202C266.477 97.0325 264.855 94.8144 262.885 93.2415C260.336 91.3864 257.439 90.1765 257.439 90.1765Z" fill="#000044"/>
<path d="M255.816 61.0993C257.632 59.2038 264.971 58.7602 264.971 58.7602H265.512C267.829 57.8326 279.997 76.747 278.452 86.8292C276.907 96.9115 275.825 95.863 268.911 97.1535C261.997 98.4037 256.82 93.0399 255.082 87.0712C253.344 81.1025 254.001 62.9947 255.816 61.0993Z" fill="#000044"/>
<path d="M275.632 93.3626C276.134 93.8868 274.126 108.768 276.096 112.882C276.096 112.882 275.748 120.423 272.194 120.867C269.104 121.23 263.542 117.439 262.924 114.495C262.112 110.543 262.924 90.7815 262.924 90.7815L275.632 93.3626Z" fill="#FC7575"/>
<path d="M275.4 99.4924C270.727 103.929 266.284 101.912 262.731 96.3467C262.808 93.564 262.924 90.9023 262.924 90.741L275.594 93.322C275.825 93.564 275.594 96.1854 275.4 99.4924Z" fill="#FD5E5A"/>
<path d="M274.126 59.8895C274.126 59.8895 280.074 61.059 280.77 66.3825C281.465 71.7059 282.469 76.1421 281.465 82.3124C280.461 88.5231 276.946 96.7906 271.151 98.1214C265.357 99.4523 259.293 89.4104 259.293 83.9659C259.293 78.5215 257.168 69.3668 261.147 63.7207C265.087 58.115 274.126 59.8895 274.126 59.8895Z" fill="#FC7575"/>
<path d="M274.126 59.8894C274.126 59.8894 280.074 61.059 280.77 66.3824C281.426 71.1816 282.276 75.2952 281.697 80.6186C280.77 79.933 279.418 79.2474 277.525 78.6022C271.036 76.3841 265.241 63.2771 265.01 62.7528L264.894 62.5108V62.2689C264.855 61.7446 264.932 61.2203 265.087 60.6557C269.259 58.9619 274.126 59.8894 274.126 59.8894Z" fill="#FD5E5A"/>
<path d="M260.838 80.8606C260.838 80.8606 258.559 78.1182 257.439 76.9487C256.318 75.7791 253.498 64.124 256.318 60.1314C259.138 56.1389 264.546 55.9372 268.872 55.4129C273.199 54.8887 280.075 58.357 280.461 65.0516C280.461 65.0516 269.336 60.6557 266.207 62.1882C263.078 63.7207 261.842 65.5759 261.185 69.2055C260.567 72.8351 260.838 80.8606 260.838 80.8606Z" fill="#000044"/>
<path d="M260.838 80.8604C260.838 80.8604 259.331 74.0045 256.82 75.658C254.31 77.3115 257.014 84.8933 259.37 84.8933C261.688 84.8933 260.838 80.8604 260.838 80.8604Z" fill="#FC7575"/>
<path d="M258.404 77.11C258.404 77.11 262.113 83.361 259.563 82.6351C257.014 81.9495 256.009 75.9404 258.404 77.11Z" fill="#FD5E5A"/>
<path d="M274.203 84.9338C274.049 83.24 273.933 81.5462 273.971 79.812C274.319 81.9898 274.435 83.5626 274.551 85.1354C273.701 85.3774 272.658 85.9017 271.345 85.3774C272.31 85.5791 273.276 85.2564 274.203 84.9338Z" fill="#172866"/>
<path d="M274.473 90.9832C274.705 90.9428 274.628 90.6202 274.435 90.6605C274.396 90.6605 271.074 91.1445 268.293 88.8457C268.1 88.7247 267.907 88.9667 268.1 89.128C269.954 90.6605 272.619 91.3058 274.473 90.9832Z" fill="#172866"/>
<path d="M271.963 92.1123C272.04 92.1123 272.117 92.0317 272.117 91.951C272.156 91.5074 269.684 91.83 268.756 90.2572C268.641 90.0555 268.37 90.2572 268.486 90.4185C269.375 91.9107 271.847 92.1123 271.963 92.1123Z" fill="#172866"/>
<path d="M274.705 56.6227C280.152 57.8729 281.774 66.6244 286.255 71.2622C290.697 75.9001 289.577 82.635 287.452 87.0712C285.328 91.5074 281.929 88.6037 281.929 88.6037C281.929 88.6037 283.706 89.6523 284.826 85.942C285.946 82.2317 283.976 79.3684 277.95 77.3116C271.924 75.2548 266.207 62.1882 266.207 62.1882C266.091 59.6474 269.259 55.3725 274.705 56.6227Z" fill="#00005A"/>
<path d="M281.929 88.6035C283.976 89.8537 286.912 84.5706 284.787 81.1426C283.242 78.4809 279.843 77.3517 277.139 76.1822C272.851 73.6011 268.718 66.5032 266.246 62.188C268.061 67.3501 271.885 74.5287 276.521 77.392L277.641 77.876C278.8 78.3599 282.276 79.3278 283.937 81.7073C285.289 83.5624 284.633 86.4661 283.744 87.7969C283.358 88.4422 282.663 88.8858 281.929 88.6035Z" fill="#003135"/>
<path d="M256.241 106.228C256.241 106.228 252.494 104.977 252.494 109.01C252.494 113.043 258.906 116.955 258.134 116.955C257.361 116.955 253.807 116.874 254.619 119.697C255.43 122.48 261.881 124.537 261.881 124.537C261.881 124.537 265.589 119.254 264.932 116.794C264.276 114.293 262.228 115.907 262.228 115.907C262.228 115.907 265.473 110.664 263.928 108.284C262.383 105.945 256.241 106.228 256.241 106.228Z" fill="#000044"/>
<path d="M271.19 136.716C271.19 136.716 267.366 130.264 261.881 124.537C261.881 124.537 258.404 131.877 260.992 140.427C263.58 149.017 261.997 154.582 261.997 154.582C261.997 154.582 267.636 151.88 267.636 146.274C267.636 146.274 269.143 150.468 268.525 154.098C268.486 154.179 273.701 142.806 271.19 136.716Z" fill="#000044"/>
</svg>
