<svg width="266" height="369" viewBox="0 0 266 369" fill="none" xmlns="http://www.w3.org/2000/svg">
<g clip-path="url(#clip0)">
<path d="M144.89 207.261L147.098 208.906L147.577 210.285L145.475 208.746L144.332 208.296L144.012 209.012L142.975 209.516L141.884 209.197L140.847 208.428L139.038 206.545L138.426 205.643L138.586 205.086H140.102L142.177 205.828L144.89 207.261ZM167.607 93.7225L167.447 96.4548L168.298 99.2137L168.272 100.063L168.085 100.673L167.474 101.601L166.968 102.662L166.33 104.944L170.08 111.178L171.73 111.92L178.566 111.204L179.311 114.043L179.71 115.343L179.922 118.154L179.497 121.444L179.869 122.585L180.188 122.717L181.226 122.585L182.981 122.664L183.593 122.956L183.912 123.433L184.152 124.203L184.125 124.68L183.513 125.741L183.434 126.935L183.247 127.28L181.917 127.943L181.944 128.421L182.662 129.323L182.955 129.986L183.62 130.649L184.657 131.206L183.859 133.302L183.247 134.469L182.742 135.185L182.183 135.742L182.13 136.193L182.582 136.724L183.008 136.989L183.646 137.042L184.338 137.36L184.657 138.846L184.577 139.615L183.62 140.305L184.87 141.419L185.535 142.295L185.641 142.772L185.349 143.356L184.95 143.488L184.311 144.178L185.109 145.425L183.859 146.3L181.917 147.176L181.066 149.324L180.614 149.749L180.162 150.492L179.417 151.022L178.433 151.367L177.316 151.473L176.81 151.765V152.402L176.917 153.118L176.757 153.622L176.358 153.675L175.932 153.516L175.161 152.906L173.246 155.532L171.942 155.983L171.597 156.195L171.836 157.415L171.756 157.707L172.794 159.193L172.368 160.095L173.485 160.758L173.06 162.084L171.942 163.358L171.011 163.941L170.346 164.578L169.841 166.063L170.08 167.257L169.788 168.796L168.617 171.422L166.436 174.446L165.638 175.109L165.106 175.401L164.441 175.215L162.739 174.101L161.622 174.632L161.169 174.685L159.414 174.605L158.642 174.818L157.898 175.401L157.339 176.224L157.312 176.728L157.632 178.08L157.552 179.009L156.381 182.086L155.477 183.466L155.371 184.023L155.557 184.421L156.381 185.004L156.967 185.694L157.1 186.145L157.046 186.596L156.621 187.445L156.115 187.949L157.632 189.514L158.137 190.23L158.004 190.548L157.126 190.655L156.435 190.999L156.195 191.53L156.621 192.246L156.036 192.883L154.759 193.705L154.253 194.475L152.87 194.448L152.711 194.713L153.216 195.297L154.253 196.119L153.854 197.419L152.844 196.836L152.205 196.756L151.115 197.419L149.652 197.897L148.827 198.454L148.561 198.242L147.683 195.774L147.923 193.997L148.854 192.538L150.29 191.875L149.838 191.769L149.519 191.875L149.066 191.265L148.109 191.371L146.007 192.246L146.327 193.122L146.034 193.652L145.342 193.917L144.438 193.997L143.48 193.917L142.736 193.652L141.273 192.724L141.725 193.679L142.549 194.315L143.48 194.687L144.438 194.846L146.566 194.926L147.045 195.43L147.178 201.027L146.992 201.717L146.539 202.088L146.087 202.99L145.715 204.104L145.608 205.086L143.693 204.263L132.441 202.061L130.26 201.266L128.292 199.966L128.239 200.682L128.771 201.372L136.219 205.881L137.123 206.624L137.655 207.394L138.027 208.163L138.533 208.773L140.342 209.171L141.938 209.967L142.842 210.285L146.593 210.71L147.071 211.107L148.747 213.681L149.013 214.715L149.199 216.917L148.534 215.935L148.002 215.378L148.295 216.599L148.534 220.286L148.322 221.772L146.779 224L146.406 224.371L145.715 224.186L145.582 223.682L145.848 223.071L146.406 222.62V222.196H146.007L145.369 223.071L144.731 223.682L143.933 224.106L142.842 224.371L140.687 224.292L139.969 224.583L139.703 225.618L139.756 226.016L139.145 226.944L138.16 227.528L136.644 226.812L135.873 226.069L134.569 225.061L132.707 224.637L131.856 224.981L131.218 225.406L130.712 226.414L131.271 226.52L132.149 226.387L132.628 226.706L132.654 227.793L132.149 228.801L131.723 229.199L131.085 230.234L130.526 230.632L129.675 230.738L129.01 230.473L128.185 229.889L127.068 228.536L126.749 227.502L126.616 225.936L126.43 225.432L126.084 224.955L125.605 224.743L124.967 224.637L122.147 225.167L121.615 226.122L121.19 227.289L120.099 227.873L119.141 228.854L118.663 229.597L117.545 230.658L117.226 231.056L116.428 232.781L114.992 234.77L113.635 236.176L112.837 236.601L111.853 236.813L109.805 237.158L107.437 235.911L107.012 235.513L105.841 234.187L104.618 233.576L104.299 233.311L104.059 232.887L103.74 231.746L103.474 231.162L102.729 230.128L100.867 228.43L99.9628 227.342L98.553 224.345L97.9944 223.496L97.5422 223.231L96.558 223.045L96.0792 222.62L95.6536 221.772L95.5472 221.188L95.6004 220.498L96.7442 221.453L97.3294 221.665L97.755 220.79L98.6328 219.517L99.0052 219.251L99.7234 219.013L99.9096 218.456L99.5904 217.872L98.7658 217.554L98.1008 217.713L97.1166 218.482L96.3984 218.403L95.5472 217.288L95.7334 216.015L95.6004 214.927L92.5414 214.105L93.0202 213.177L94.164 212.062L94.829 211.081L93.1 211.134L91.6636 209.436L90.8124 207.075L90.8656 205.086H91.2912L91.7168 205.643L92.4616 205.988L91.371 200.841L90.8656 199.568L89.7218 198.507L87.9662 197.552L86.2904 197.366L85.3594 198.719L84.987 197.923L85.0136 197.021L86.1574 196.172L86.6894 195.562L86.3436 195.27L85.7584 194.979L85.4126 194.315L85.1732 193.52L84.8008 192.909L84.0826 192.087L80.6778 186.994L80.066 186.702L79.3212 186.755L78.3636 187.047L76.7144 187.153L74.347 184.129L74.1874 183.572L77.1666 175.826L77.2198 174.552L77.1134 174.048L76.2888 171.581L78.1774 172.855L83.3112 175.056L84.6146 175.826L86.9288 177.921L88.3918 178.213L89.4026 177.895L91.1316 176.754L92.0626 176.383L95.2546 176.091L96.558 175.746V175.003L95.9728 172.085L95.8132 171.157L96.0526 169.777L96.7974 167.841L101.718 163.756L102.437 163.092L102.969 162.217L103.394 161.368L103.554 159.14L104.112 158.079L103.953 157.972L104.059 157.071L104.299 156.169L104.033 155.505L104.139 154.922L103.926 154.338L102.889 154.073L102.809 152.375L102.011 151.685L99.883 149.351L99.8298 148.82L99.8564 146.353L99.5106 143.939V143.303L100.043 138.793L100.096 136.432L100.575 134.469L100.654 133.222L100.601 132.055L100.442 131.286L100.734 130.596L101.373 129.827L101.798 128.235V127.439L101.506 126.219L101.585 125.529L102.224 122.664L102.197 121.338L101.905 120.171L101.532 119.507L101.053 118.924L100.016 117.942L98.3136 117.04L97.3294 116.377L96.7442 115.74L95.9728 114.202L95.4674 112.955L94.0842 106.111L94.0044 105.58L94.3236 100.275L94.8556 96.9323L95.627 93.5368L96.9038 90.8044L97.4358 89.9555L98.1274 89.1597L98.9786 87.9129L99.2978 86.3212L98.7924 82.8726L100.096 79.7424L100.601 78.8139L101.426 78.2834L102.383 78.0977L102.144 79.9281L102.33 82.0768L102.836 84.3317L103.501 85.5785L104.405 85.7376L106.453 84.9153L108.634 84.8357L121.376 90.2208L130.393 92.2369L134.862 94.1204L136.884 94.2L142.709 92.9532L147.417 93.3776L149.731 92.7675L150.529 92.794L151.194 93.0062L152.445 93.5633L154.573 93.9347L155.051 93.9082L155.397 93.7225L156.009 93.0593L156.302 92.9001L157.233 93.0062L157.977 93.4572L158.696 94.0143L159.52 94.4122L161.143 94.6244L167.607 93.7225Z" fill="#CE91FF" stroke="white" stroke-width="2" stroke-linecap="round" stroke-linejoin="round"/>
<path d="M64.771 307.217L64.0794 308.304L62.3504 307.376L59.4244 303.901V303.636L59.7702 303.264L60.1426 302.097L60.116 300.903L59.5574 298.861L59.3978 297.906L59.0254 296.818L59.0786 296.234L59.7702 296.208L60.0096 296.367L60.3554 297.03L60.5682 297.906L61.1268 302.044L61.7918 303.874L63.1218 304.644L64.4518 305.519L64.771 307.217ZM76.2888 171.581L77.1134 174.048L77.2198 174.552L77.1666 175.825L74.1874 183.571L74.347 184.128L76.7144 187.153L78.3636 187.046L79.3212 186.755L80.066 186.702L80.6778 186.993L84.0826 192.087L84.8008 192.909L85.1732 193.519L85.4126 194.315L85.7584 194.978L86.3436 195.27L86.6894 195.562L86.1574 196.172L85.0136 197.021L84.987 197.923L85.3594 198.719L86.2904 197.366L87.9662 197.551L89.7218 198.506L90.8656 199.567L91.371 200.841L92.4616 205.987L91.7168 205.642L91.2912 205.085H90.8656L90.8124 207.075L91.6636 209.436L93.1 211.134L94.829 211.08L94.164 212.062L93.0202 213.176L92.5414 214.105L95.6004 214.927L95.7334 216.015L95.5472 217.288L96.3984 218.402L97.1166 218.482L98.1008 217.712L98.7658 217.553L99.5904 217.872L99.9096 218.455L99.7234 219.012L99.0052 219.251L98.6328 219.516L97.755 220.79L97.3294 221.665L96.7442 221.453L95.6004 220.498L95.5472 221.188L95.6536 221.771L96.0792 222.62L96.558 223.044L97.5422 223.23L97.9944 223.495L98.553 224.344L99.9628 227.342L100.867 228.43L102.729 230.127L103.474 231.162L103.74 231.746L104.059 232.886L104.299 233.311L104.618 233.576L105.841 234.186L107.012 235.512L107.437 235.91L109.805 237.157L110.656 237.953L111.72 239.836L110.922 240.473L110.337 240.447L109.991 240.606L109.592 241.349L109.619 241.72L109.991 242.091L109.885 242.569L109.033 243.02L108.821 243.471V243.922L109.06 244.479L109.565 244.771L109.831 245.062L109.539 245.593L107.783 246.76L107.278 247.37V247.689L107.65 247.874L109.087 248.034L109.592 248.193L109.885 248.644L109.831 249.519L109.432 249.678L108.874 249.466L108.235 249.731L108.262 249.997L108.874 250.554L109.273 251.084L109.911 252.968L110.842 253.657L111.188 253.976L111.64 255.329L111.667 256.098L111.534 257.026L111.028 258.141L110.816 259.122L111.055 259.653L111.959 260.13L112.252 260.581L112.731 262.014L110.895 263.897L110.097 264.905L109.778 265.887L109.326 266.868L108.342 266.576L106.613 265.197L106.719 266.497L107.038 267.558L107.251 268.619L107.038 269.945L104.644 274.561L105.336 275.861L105.948 278.063L106.613 282.228L106.693 284.376L106.506 285.438L106.028 286.233L105.07 286.764L104.245 286.658L103.341 286.419H102.25V286.87L103.474 287.401L104.485 288.064L105.176 289.019L105.416 290.478L105.363 291.061L105.07 292.176V292.839L105.309 293.396L106.081 294.616L106.56 295.81L107.118 296.5L107.437 297.295L107.038 298.277L106.613 298.436L105.336 298.675L103.873 300.001L103.235 300.956L102.703 301.275L101.639 301.672L101.027 301.779L100.761 301.46L100.468 300.585L99.75 300.771L98.8722 301.354L98.154 301.672L97.1964 301.619L96.1324 301.381L95.1482 300.983L94.4566 300.426L93.9778 299.285L93.9512 298.595L94.563 297.534L94.4566 296.924L93.632 295.757L92.0094 299.152L92.6744 300.293L93.7916 301.832L95.0684 303.211L96.2122 303.795L96.7176 304.405L96.1058 305.625L94.8556 306.501L93.4458 306.129L92.7276 305.678H92.0892L90.6794 305.943L90.5198 306.288L91.1582 307.933L91.2646 308.464L90.174 309.578L88.9504 308.808L87.3278 306.315L87.4076 305.227L86.7692 302.681L86.9288 301.275L87.381 300.479L88.445 299.232L88.8972 298.277L89.0834 297.242L88.844 292.786L89.2696 289.178L89.5888 287.931L90.972 285.464L91.2646 284.111L91.0784 282.811L90.573 281.511L89.8548 280.344L89.0834 279.442L89.0568 278.567L90.8124 276.259L91.2646 275.224L91.3444 273.898L91.5306 272.625L91.903 271.404L92.4616 270.317L91.8232 270.794L91.2912 271.59L90.4932 273.288L89.8282 273.951L89.6154 274.508L90.1474 275.941L89.8016 276.471L88.6844 277.32L88.0194 278.408L88.0726 279.23L89.2696 281.352L89.7218 282.705L89.7484 284.111L89.6154 284.854L89.0302 286.048L88.8972 286.658L88.4184 290.584L88.1524 291.486L87.0618 292.069L86.6096 291.114L86.5298 288.356L86.6894 287.719L87.2746 286.419L87.3278 285.623L84.721 279.469L84.588 278.195L84.854 275.437L84.7742 274.19L84.2156 272.863H83.79L83.3112 276.949L83.79 284.774H84.2156L84.2688 283.899L84.5348 283.103L85.0136 282.838L85.2796 284.111L85.5722 284.88L85.918 285.411L86.2372 286.101L86.184 287.003L85.7052 288.568L85.4126 288.86L84.721 288.992L84.6412 289.629L85.0136 290.266L85.2264 290.955L85.918 292.467L86.3436 293.024L86.45 293.449L85.918 296.738L85.3062 297.455L84.5614 298.012L83.79 298.728L83.1516 299.816L83.0984 300.691L83.2846 301.699L83.4442 303.211L83.2314 304.617L82.6728 305.784L81.9014 306.766L79.8 308.57L79.1616 308.623L77.6986 306.978L77.3794 306.05L77.2996 304.458L77.4858 301.672L77.7784 300.558L78.5498 298.675L78.6828 297.216L78.4434 295.969L77.3794 293.9L77.1134 292.839H76.6878L76.342 293.767L76.5016 294.563L76.874 295.332L77.1134 296.208V297.189L76.9006 297.746L75.943 298.728L75.3578 299.471L74.9854 300.107L74.0544 302.389L73.7618 302.893L73.4692 302.919L73.15 302.097H72.7776L72.8042 303.662L73.3894 306.076L73.15 307.588L72.1924 309.71L72.352 310.4L73.549 310.984L72.884 311.753L71.8998 312.469L70.756 312.973L69.6388 313.106L68.5482 312.469L68.2024 311.329L68.4152 310.214L69.027 309.737L69.1334 309.047L67.3512 304.007L67.2448 302.76L67.0054 302.495L66.4734 302.84L65.9148 303.45L65.6754 304.007L65.3296 304.272L64.5848 304.06L63.308 303.397L62.7228 302.893L62.4834 302.495L61.047 297.455L60.9406 296.42L61.0736 295.147L61.6854 292.547L61.712 291.114L61.313 289.815L60.0362 288.064L59.7702 287.082L60.116 284.244L59.9298 283.103L60.9406 281.777L60.8342 280.291L60.515 279.071L60.0362 278.036L57.5358 274.747L56.9772 273.447L57.8018 272.863L56.8708 271.219L56.5516 270.476L55.86 267.16V266.576L56.0196 265.94L56.4984 265.117L56.6048 264.613L56.3654 263.181L55.3014 260.714L54.796 258.432L54.1044 257.875L52.3222 257.186L53.599 256.31L53.9448 254.878L53.7054 253.206L53.1468 251.615L52.4286 250.315L52.2158 248.935L52.003 248.14L51.3114 246.336L51.1784 245.222L51.5774 244.373L52.2158 243.577L52.8276 242.622L53.0936 241.8L53.3064 240.579L53.4128 239.385L53.2798 238.537L52.6148 237.926L51.0188 237.396L50.3538 236.574L49.1302 233.656L48.5184 232.674L47.4278 231.295L47.1884 230.605L47.2416 229.385L47.7736 227.607L47.9066 224.397L48.7046 222.832L51.8168 219.516L53.3596 218.216L53.865 217.633L54.1576 216.97V216.466L53.8384 216.174L52.269 216.227L51.2582 215.855L47.2416 214.449L46.284 214.264L45.5126 214.37L44.6348 215.06L44.1826 215.298L43.5708 215.272L39.7936 214.052L39.0222 213.362L38.4636 212.168L38.4104 210.815L38.9424 209.595L40.3256 207.367L43.1186 199.939L43.2516 198.612L42.4802 197.976L41.7354 198.559L41.0704 199.621L40.3522 199.886L39.501 198.215L38.8626 197.923L37.1868 196.756L36.2292 195.721L34.8726 193.28L34.0214 192.352L33.5692 192.246L32.4254 192.378L31.8402 192.14L31.2816 191.53L31.255 191.105L31.4412 190.628L31.5476 189.858L31.255 189.62L30.6698 189.487L30.1378 189.222L30.0314 188.532L31.255 182.828L31.1752 182.245L30.7496 181.29L30.7762 180.706L31.0422 180.043L31.8934 178.69L32.186 177.974V177.417L31.9998 176.276L32.186 175.666L33.117 174.95L34.2342 174.897L35.4312 175.003L36.5218 174.764L37.2932 174.154L39.4744 172.005L40.033 171.289L40.2192 170.175L40.0596 168.822L39.7138 167.628L39.3148 166.885L40.033 165.665L40.698 164.79L40.6714 164.18L39.2882 163.861L39.102 163.065L38.0114 162.137L37.7454 161.421L37.8252 160.837L38.171 159.537L38.2508 158.794L37.9848 157.521L37.9582 156.911L38.304 156.142L38.8626 155.585L40.1394 155.107L41.0438 154.683L41.3098 155.638L42.2142 157.017L42.5866 157.335L43.9698 158.078L44.821 158.688L45.2732 158.927L46.3904 159.113L47.4544 158.874L51.1518 157.123L51.9232 156.593L52.5084 155.823L53.6522 155.903L54.6896 156.433L55.1418 156.805L56.4718 158.582L58.5732 160.598L59.0786 162.163L60.249 163.649L60.4884 164.206V164.869L60.2224 166.249L60.382 166.806L60.9406 167.469L63.1484 169.379L64.372 170.175L65.6222 170.758L67.1916 171.05L71.953 170.546L73.4958 170.679L74.9322 170.997L76.2888 171.581Z" fill="#CE91FF" stroke="white" stroke-width="2" stroke-linecap="round" stroke-linejoin="round"/>
<path d="M147.843 295.12L147.284 296.526L146.805 296.208H146.406L145.928 297.455L144.97 298.781L143.853 299.683L142.842 299.604V299.153L143.986 298.808L144.438 298.728L143.667 297.72L143.241 297.428L143.613 297.03L143.507 295.969L143.667 295.333L144.145 294.59L148.002 291.937V293.21L148.428 293.927L148.747 294.908L147.843 295.12ZM133 300.426L132.468 300.771L132.202 300.612V297.747L132.441 296.261L133 294.908L134.25 292.547L135.234 291.433L136.564 291.115L136.352 292.468L134.915 294.908L133.532 299.736L133 300.426ZM133.771 292.839H133.426L133.771 291.513L134.516 289.709L135.394 288.303L136.165 288.144L135.793 289.682L134.17 291.539L133.771 292.839ZM138.719 296.818L137.788 297.269L137.017 296.871L136.564 295.969V294.908L136.884 294.033L137.256 293.37L137.575 292.6L137.708 291.3L137.575 289.337L137.788 288.754L138.533 288.144L141.113 290.902L141.831 292.547L141.273 294.51L140.049 295.253L138.719 296.818ZM149.146 280.981L148.002 284.775L147.896 283.766L147.577 283.05L146.912 285.172L146.566 287.533L146.061 289.656L144.837 291.115L143.746 291.433L143.161 291.141L142.895 290.478L142.842 289.629L143.135 289.072L145.183 287.295L144.837 286.87L142.363 288.329L142.044 288.966H141.698L141.805 287.507L142.15 286.154L142.815 285.172L143.826 284.775L144.544 284.324L146.087 282.599L146.805 282.626L147.284 281.91L147.976 281.246L148.641 280.875L149.146 280.981ZM168.724 278.249L168.857 278.806V282.148L168.431 283.607L167.287 283.899L166.702 282.944L166.782 281.22L167.181 279.363L167.66 277.983L168.006 278.434L168.325 278.036L168.724 278.249ZM170.666 279.045L170.001 279.628L170.027 276.312L170.373 275.092L171.171 275.437L171.224 276.577L171.065 277.904L170.666 279.045ZM170.799 273.712L168.644 277.081L167.74 276.71L167.926 275.861L168.511 274.8L168.857 273.951L169.07 271.139L169.415 269.627L170.001 268.619L170.426 269.097L170.745 270.025L170.985 271.166L171.038 272.439L170.799 273.712ZM150.29 264.401L151.115 265.913L151.753 267.638L151.886 269.097L151.248 267.823L151.115 267.372L150.689 268.46L151.061 270.927L150.689 272.015L150.396 271.458L150.29 269.468H150.689L150.317 268.354L149.891 265.94L149.519 264.826L149.173 264.587L148.455 264.56L148.322 263.738L148.455 263.367L148.827 263.234L149.519 263.552L150.29 264.401ZM151.46 264.428L151.115 264.826L151.46 261.191L151.886 261.404L152.125 262.067L152.232 262.73L152.258 263.95L151.46 264.428ZM161.462 281.697L158.43 286.419L157.419 287.295L156.993 286.419L155.69 287.799L155.131 288.117L153.642 290.69L151.7 291.566L151.115 291.486L150.636 290.133L151.327 288.356L152.391 286.472L153.083 284.775L149.864 289.443L148.96 289.629L148.588 288.409L148.827 286.658L149.465 284.854L150.29 283.501L149.652 282.148L150.21 279.867L152.604 274.641L152.897 273.633L153.083 272.439V268.805L153.429 267.744L152.977 265.913L152.844 264.693L153.083 263.95V263.552L152.445 262.412L151.753 258.645L151.115 257.159L150.184 256.337L146.938 254.029L146.007 253.764L145.741 251.482L145.874 249.307L147.151 244.214L147.55 243.524L148.162 243.073L149.146 242.675L150.157 242.436L151.274 242.304L151.859 244.161L152.498 246.362L153.216 248.087L154.2 250.103L155.025 251.588L155.929 252.676L156.834 254.135L157.259 257.159L157.977 259.069L159.334 260.449L161.861 262.757L163.031 264.216L161.888 270.105L161.941 280.106L161.462 281.697ZM148.747 236.733L149.918 237.98L150.982 238.457L152.046 239.73L152.87 241.004L151.966 241.19L149.997 240.792L147.869 240.659L146.194 242.224L145.316 242.542L144.438 243.444L144.332 244.983L144.624 245.965L143.826 247.026L143.268 246.336L142.523 245.646L142.443 245.063L142.23 244.426L141.645 244.028L140.102 243.55L140.581 242.834L140.661 242.277L140.475 240.553L140.528 239.412L140.687 238.325L141.113 237.476L141.884 237.157L143.853 237.502L144.784 237.37L145.183 236.521L145.662 236.441H147.923L148.747 236.733ZM150.982 230.658L152.258 231.64V232.011L150.769 232.064L150.955 232.462L151.514 232.992L151.966 233.576L152.258 234.186L150.45 233.974L149.944 233.762L149.519 233.284L148.827 232.037L148.322 231.64L147.736 231.454L147.311 231.799L146.805 232.011L146.167 232.091L144.624 232.117L144.012 232.011L143.108 230.605L144.252 228.615L146.167 227.05L147.577 226.918L148.8 227.952L150.982 230.658ZM141.352 228.324L140.874 228.615L140.395 226.069L140.102 225.167H142.31L143.241 224.795L143.613 225.406L143.534 225.857L142.656 226.732L141.352 228.324ZM139.756 226.016L140.022 227.369L140.82 229.332L141.884 231.189L143.028 232.701L143.161 233.019L143.081 233.735L143.241 234.186L143.853 234.345L144.704 235.088L144.943 235.539L144.651 236.123L143.773 236.547L142.922 236.441L142.097 236.229L141.273 236.308L140.182 237.688L139.65 239.757L138.958 241.481L137.336 241.853L138.267 242.675L138.027 243.497L137.256 243.816L136.564 243.1L135.314 243.922L136.165 244.559L137.788 245.116L138.905 245.673L139.437 244.532L140.421 244.718L141.432 245.567L142.044 246.495L142.23 247.132L142.443 249.068L143.135 251.084L143.374 253.233L143.214 253.684L142.656 254.427L142.15 254.719L140.82 254.904L140.288 255.249L139.969 256.178L139.304 259.626L139.464 259.892L140.209 259.255L140.475 258.857L140.528 258.22L140.368 256.974L140.475 256.31L141.06 255.461L141.911 254.957L142.922 254.798L144.012 255.01L146.061 256.284L147.098 258.061L147.79 260.13L148.747 262.279L147.577 261.828L147.603 263.234L148.002 264.348L149.146 266.55L149.439 267.797L149.492 269.097L149.146 271.643L147.311 276.392L145.954 278.541L144.837 278.806L143.294 279.655L142.709 280.185L142.443 280.742L142.31 281.591L141.964 282.546L140.315 285.438L139.756 286.127L139.118 286.419L138.347 286.234L137.362 285.809L136.538 285.252L136.165 284.775L136.511 283.236L137.894 280.291L138.134 278.806L137.469 277.055L137.336 276.233L137.708 274.296L137.522 273.527L136.564 273.288L136.804 274.561L136.245 277.32L136.352 278.196L136.83 278.62L137.495 279.018L137.708 279.628L137.628 280.106L137.362 280.53L136.618 281.406L136.458 282.281L135.953 282.095L135.74 282.228L135.58 282.865L135.394 284.775L134.915 286.101L133.878 287.693L133 288.754L132.734 289.841L131.643 292.096L131.404 293.237L131.138 295.598L130.606 297.906L130.154 299.099L129.569 299.922L126.403 302.628L125.605 303.185L124.515 303.397L123.344 303.211L121.19 302.309L120.179 302.097L119.248 301.593L119.008 300.585L119.381 299.789L120.365 300.001L119.939 299.126L120.285 298.516L120.844 297.959L121.163 297.216L120.897 296.341L120.578 296.102L119.567 298.622L119.008 299.153L118.476 299.338L117.758 300.161L117.226 300.426L116.747 300.32L116.003 299.683L115.311 299.604L115.71 297.959L115.87 294.616L116.481 293.21L117.013 292.759L118.343 291.857L118.849 291.115L119.115 290.16L119.434 288.648L119.966 287.772L122.333 285.623L123.344 284.111L123.85 283.873L125.126 284.35L126.323 283.501L127.228 282.122L127.653 280.451L127.467 278.806L126.456 281.485L125.738 282.891L124.914 283.501L123.371 283.713L122.44 284.27L119.008 287.958L118.609 288.595L118.157 289.921L117.412 291.062L117.226 291.513L116.934 291.804L116.109 291.937L115.524 291.857L113.688 291.115L114.034 290.239L114.087 289.311L114.54 288.568L115.072 288.09L115.577 287.852L115.949 287.427L116.109 286.472L115.896 284.615L116.162 283.926L116.375 282.997L116.907 282.387L117.545 282.095L118.077 281.724L118.423 280.981L116.934 281.512L116.215 282.573L115.311 285.623L114.806 286.313L113.263 287.825L112.917 288.356L113.05 291.141L112.917 291.937L112.066 292.68L111.028 292.308L110.151 291.247L109.778 290.054L109.672 289.443L109.166 288.037L109.007 287.295L108.874 282.732L108.342 280.185L108.209 278.62L108.076 278.036L107.331 276.843L107.038 276.233L106.826 275.437L106.746 274.774L107.038 273.288L108.182 270.45L112.917 263.552L113.236 262.783L113.449 262.04L113.795 261.351L112.917 261.828L112.731 262.014L112.252 260.581L111.959 260.13L111.055 259.653L110.816 259.122L111.028 258.141L111.534 257.027L111.667 256.098L111.64 255.329L111.188 253.976L110.842 253.658L109.911 252.968L109.273 251.084L108.874 250.554L108.262 249.997L108.235 249.731L108.874 249.466L109.432 249.678L109.831 249.519L109.885 248.644L109.592 248.193L109.087 248.034L107.65 247.875L107.278 247.689V247.37L107.783 246.76L109.539 245.593L109.831 245.063L109.565 244.771L109.06 244.479L108.821 243.922V243.471L109.033 243.02L109.885 242.569L109.991 242.091L109.619 241.72L109.592 241.349L109.991 240.606L110.337 240.447L110.922 240.473L111.72 239.837L110.656 237.953L109.805 237.157L111.853 236.812L112.837 236.6L113.635 236.176L114.992 234.77L116.428 232.78L117.226 231.056L117.545 230.658L118.663 229.597L119.141 228.854L120.099 227.873L121.19 227.289L121.615 226.122L122.147 225.167L124.967 224.636L125.605 224.742L126.084 224.955L126.43 225.432L126.616 225.936L126.749 227.501L127.068 228.536L128.185 229.889L129.01 230.472L129.675 230.738L130.526 230.632L131.085 230.234L131.723 229.199L132.149 228.801L132.654 227.793L132.628 226.705L132.149 226.387L131.271 226.52L130.712 226.414L131.218 225.406L131.856 224.981L132.707 224.636L134.569 225.061L135.873 226.069L136.644 226.812L138.16 227.528L139.145 226.944L139.756 226.016Z" fill="#CE91FF" stroke="white" stroke-width="2" stroke-linecap="round" stroke-linejoin="round"/>
<path d="M225.275 308.729L227.35 312.788L227.882 315.229L227.749 316.528L227.217 319.128L227.084 320.508L226.579 321.595L225.302 321.648L223.866 321.383L222.748 321.542V321.887L223.014 322.338L223.041 322.815L222.349 323.187L221.738 323.134L221.232 322.789L220.913 322.285L220.674 321.197L220.487 320.773L220.514 320.322L221.392 319.022L221.551 318.385L221.578 316.926L221.285 314.433L220.062 310.321L220.381 308.04L220.94 306.819L221.472 306.262L222.11 306.315L222.935 306.978L223.227 307.774L222.961 308.729L222.536 309.711L222.349 310.56L223.254 309.472L223.6 307.986L223.546 306.421L223.121 305.042L224.158 304.909L225.089 304.644V305.944L225.275 308.729ZM219.663 307.456L219.184 308.04L218.705 307.005L219.61 301.885L219.184 298.728L219.397 297.667L219.822 296.871L221.179 295.333L221.498 295.704L221.578 296.208L222.27 298.516L222.349 299.392L222.163 300.373L221.365 301.938L220.913 304.087L219.663 307.456ZM176.092 284.854L175.001 285.571L173.565 285.491L172.661 285.252L171.996 284.801L171.65 283.899L173.299 281.91L174.363 280.265L174.762 279.23L175.267 276.233L175.321 271.882L175.666 267.054L176.651 266.895L178.646 267.93L179.896 269.017L180.348 270.556L181.199 271.352L181.784 273.58L181.811 275.013L182.077 277.029L181.146 278.912L180.587 279.867L179.47 282.069L178.3 283.05L177.475 283.608L176.73 283.767L176.092 284.854ZM180.534 263.208L179.071 263.287L177.901 262.545L178.459 260.82L180.481 259.945L182.848 259.255L183.46 260.449L182.902 261.881L181.705 262.677L180.534 263.208ZM203.251 266.232L200.511 266.55L198.702 265.542L197 263.049L196.042 260.582L195.696 258.592L197.026 255.435L198.223 254.799L203.33 261.51L203.729 264.163L203.251 266.232ZM189.073 167.071L188.115 166.912L187.104 167.337L186.333 168.026L185.748 168.849L183.779 172.351L183.54 173.226L183.567 174.075L184.232 175.534L184.471 176.33L184.285 177.497L183.141 180.919L182.556 181.954L181.492 182.484L180.401 182.59L179.497 182.909L178.965 184.102L179.204 185.455L180.109 185.959L181.066 186.304L181.412 187.259L180.907 188.267L180.109 188.214L179.39 188.294L179.178 189.806L179.444 190.893L181.119 194.024L181.545 195.138L182.024 197.18L182.556 198.215L183.035 198.666L184.045 199.276L184.418 199.86L184.551 200.337L184.817 201.876L185.588 204.529L186.173 205.802L186.918 206.359L187.663 206.545L187.849 206.916L187.61 207.42L187.025 207.977L186.626 208.561L186.732 209.038L187.291 210.179L188.621 220.233L189.365 222.806L190.749 224.663L192.664 225.167L192.877 223.124L191.813 217.899L191.786 215.113L192.105 213.654L192.744 212.779L194.02 212.726L195.111 213.601L195.962 214.795L196.414 215.644L196.627 215.166L197 215.67V216.758L197.851 217.607H197.984L198.383 219.543L198.649 220.18L199.979 224.743L200.271 226.334L200.431 226.52L200.963 226.679L201.123 226.891L201.202 228.748L201.442 229.385L202.187 230.207L202.931 230.499L203.703 230.658L204.501 231.03L204.847 231.719V232.33L205.033 232.542L205.964 232.011L206.31 231.56L206.788 230.446L207.294 230.234L208.517 230.552L209.714 230.181L211.257 229.836L211.975 229.385L212.401 228.908L213.359 228.006L213.758 227.555L214.742 226.096L214.795 225.247L215.061 225.008L215.939 225.034L216.817 224.079L217.056 223.522L216.843 222.78L216.098 220.87L215.247 216.599L214.396 214.609L214.077 212.115L215.167 209.038L216.843 206.12L218.333 204.104L219.264 203.282L222.429 201.902L223.36 201.239L224.105 200.417L225.408 198.215L225.488 195.748L223.972 188.506L223.892 186.118L223.999 184.765L224.371 183.97L225.169 183.917L225.887 184.792L226.605 185.959L228.999 188.692L229.904 189.143L231.234 188.798L232.218 187.922L234.107 185.323L235.038 184.261L237.458 183.413L238.602 185.163L239.187 187.551L239.959 188.638L240.836 187.79L241.555 184.898L242.512 184.341L243.709 184.978L243.842 186.331L243.177 188.983L243.337 191.079L245.518 198.188L245.864 201.239L246.13 202.168L246.422 202.672L247.167 203.388L247.486 203.918L247.593 204.396L247.486 205.271L247.566 205.696L247.859 206.094L248.604 206.704L248.843 207.022L248.896 207.579L248.737 208.8V209.436L249.029 210.471L249.295 211.081L249.348 211.718L248.949 212.832L247.912 214.98L247.673 215.935L247.619 218.403L249.082 227.236L249.029 231.56L249.481 233.656L250.545 235.274L252.461 236.07L253.285 237.105L253.791 241.959L254.19 243.843L254.881 244.771L256.424 246.124L257.036 247.052L257.302 248.007L257.701 252.809L257.568 256.39L257.781 257.451L258.525 259.388L258.605 260.449L261.957 280.689L261.877 282.255L261.212 282.573L260.361 282.546L259.669 283.157L260.973 287.321L261.717 291.407L261.877 292.494L262.702 296.235L262.861 298.092L261.877 307.536L262.702 322.232L262.861 323.797L263.473 326.874L265.521 333.135L265.734 334.382L265.202 335.363L264.085 336.53L262.755 337.432L261.584 337.512L260.893 336.742L260.494 335.469L260.042 333.002L258.924 330.508L257.461 330.19L255.546 330.588L253.099 330.349L251.796 329.898L251.184 329.58L250.705 329.049L250.306 327.988L250.173 326.954L249.934 325.946L249.189 324.938L247.327 324.301L245.146 326.954L243.337 326.927L242.379 327.06L241.741 328.28L240.969 330.906L239.347 333.214L239.054 334.302L239.028 335.496L239.453 337.936L239.373 339.13L238.868 341.915L239.187 343.003L239.613 343.852L240.969 345.125L241.688 346.982L244.028 348.972L243.656 351.333L243.576 353.879L243.816 356.373L244.427 358.628L246.077 361.148L246.343 361.785L246.476 362.952L247.54 366.162L247.939 366.958L248.125 367.594L247.992 368.257L247.513 368.735L247.141 368.523L246.848 368.098L246.103 367.302L244.773 364.119L240.863 356.957L239.879 352.977L239.506 352.341L236.501 349.794L235.942 348.998L235.011 347.194L234.373 346.213L231.819 343.215L231.42 342.207L231.34 340.907L231.819 336.955L231.713 335.469L231.393 334.302L228.228 328.466L227.669 327.882L227.058 327.537L226.499 326.635L226.1 325.548L225.914 324.54H226.26L226.712 324.911L227.137 323.823L227.829 322.656L228.76 321.993L229.824 322.391L229.106 321.701L228.547 320.587L228.228 319.287V318.147L228.733 317.457L229.531 316.714L230.063 315.839L229.824 314.804L230.702 313.77L230.861 313.319L230.622 312.708L230.968 312.125L230.861 311.594L230.436 311.196L230.117 311.064L230.489 309.87L230.276 309.737L229.505 311.86L228.84 312.735L227.882 312.708L227.43 311.992L227.59 311.011L227.909 310.029L227.882 309.313H227.483L227.191 310.374L226.659 310.294L226.127 309.552L225.914 308.65L226.1 307.27L226.605 306.925L227.35 306.766L228.228 305.944L227.882 305.519L226.925 306.209L226.526 305.705L226.871 304.777L228.228 304.22V303.795L225.568 304.007L223.546 304.644L223.014 304.113L223.121 302.654L223.706 301.328L224.743 300.797L224.291 300.161L224.531 299.577L225.142 299.1L225.914 298.728V298.277L225.302 298.33L224.77 298.622L224.318 299.047L223.972 299.604L223.653 298.834L223.387 297.561L223.121 295.121L222.961 294.51L222.137 293.582L221.95 293.025V290.69L220.487 284.377L220.381 282.228L220.993 282.493L220.886 281.804L220.381 281.91L219.955 282.706V283.899H219.61L218.998 282.838L218.413 281.485L218.067 279.973L218.014 278.435L218.28 277.48L219.317 276.419L219.61 275.861L219.53 274.853L219.024 274.323L218.413 274.058L218.014 273.713L217.827 272.174L218.838 271.431L220.328 270.98L221.578 270.317L222.19 269.23L223.52 264.826H222.349L222.216 265.754L221.658 268.142L221.764 268.619L221.365 268.964L220.7 269.681L219.849 270.397L218.838 270.742L218.652 271.06L217.242 271.829L216.817 272.439L216.976 273.421L217.588 273.898L218.306 274.164L218.838 274.562L218.812 275.755L217.827 276.498L216.577 276.392L215.699 275.013L214.689 267.93L214.077 265.675L210.193 258.008L202.852 247.716L201.016 246.973L200.005 246.044L199.207 244.93L198.755 243.949L198.303 244.187L197.931 243.896L197.665 243.259L197.558 242.463L197.691 241.72L198.223 240.951L198.596 239.147L199.5 236.521L199.527 235.035H199.101L198.915 236.203L197.931 239.439L197.345 240.129L196.095 240.527L195.297 241.535L195.005 242.914L195.191 244.4L194.313 243.736L193.462 243.339L192.504 243.153L191.254 243.1V243.551L192.478 243.922L192.611 244.506L192.052 245.036L191.041 245.302L188.062 245.355L189.099 245.7L190.03 246.124L190.483 246.495L190.323 247.397L189.578 247.928L188.621 248.167H187.636L185.881 247.795L185.429 247.848L185.349 247.61V246.495L184.631 246.23L183.779 246.124L181.811 246.097V246.495L182.529 247.132L182.795 247.822L182.396 248.273L181.066 248.22V248.671L184.391 249.546L185.907 250.183L186.546 251.429L186.36 252.225L185.907 253.101L185.242 255.488L184.072 256.602L183.008 257.478L181.492 257.902L178.672 258.486L176.491 257.398L175.347 255.727L174.735 253.074L174.15 252.331L173.538 251.244L172.9 249.334L172.421 248.803L171.57 249.069L172.421 249.944L173.219 251.668L173.671 253.472L173.538 254.666L172.368 255.249L170.506 255.541L168.777 255.462L168.006 254.825L167.66 253.976L166.09 252.835L165.718 252.278L165.532 251.721L164.707 250.581L164.255 248.803L163.617 248.538L161.941 248.671L161.675 248.326L160.983 246.097L160.531 245.726L159.573 245.169L159.201 244.055L158.376 242.888L158.19 242.463L158.11 241.826L157.419 240.129L156.993 238.006L156.541 236.919L156.009 235.99L155.583 234.956L155.424 233.55L155.131 232.781L150.689 226.732L150.077 225.088L149.944 224.371V223.682L150.609 219.888L150.689 217.315L151.008 215.935L151.647 214.742L152.125 213.574L151.886 212.407H152.258L151.301 210.365L151.248 209.542L151.886 209.012L151.434 208.853L151.46 208.534L149.997 209.038L149.04 207.738L148.481 205.881L148.322 204.688L148.401 201.027L148.88 199.594L150.29 198.719L153.642 198.746L154.998 198.003L155.025 195.695L154.759 194.846L154.253 194.475L154.759 193.705L156.036 192.883L156.621 192.246L156.195 191.53L156.435 190.999L157.126 190.655L158.004 190.548L158.137 190.23L157.632 189.514L156.115 187.949L156.621 187.445L157.046 186.596L157.1 186.145L156.967 185.694L156.381 185.004L155.557 184.421L155.371 184.023L155.477 183.466L156.381 182.086L157.552 179.009L157.632 178.08L157.312 176.728L157.339 176.224L157.898 175.401L158.642 174.818L159.414 174.605L161.169 174.685L161.622 174.632L162.739 174.101L164.441 175.215L165.106 175.401L165.638 175.109L166.436 174.446L168.617 171.422L169.788 168.796L170.08 167.257L169.841 166.063L170.346 164.578L171.011 163.941L171.942 163.358L173.06 162.084L173.485 160.758L172.368 160.095L172.794 159.193L171.756 157.707L171.836 157.415L171.597 156.195L171.942 155.983L173.246 155.532L175.161 152.906L175.932 153.516L176.358 153.675L176.757 153.622L176.917 153.118L176.81 152.402V151.765L177.316 151.473L178.433 151.367L179.417 151.022L180.162 150.492L184.897 152.959L186.333 153.224L188.248 151.632L189.046 151.261L189.711 151.155L190.429 151.447V151.871L189.419 152.747L187.849 153.702L187.477 154.126L187.823 154.577L189.206 154.975L189.578 155.32L189.206 155.532L187.956 155.797L187.557 155.983L187.131 156.434L187.104 157.495L187.53 158.45L187.796 159.511L187.743 160.307L187.929 161.872L188.514 163.994L189.339 165.055L189.312 165.612L189.073 167.071Z" fill="#CE91FF" stroke="white" stroke-width="2" stroke-linecap="round" stroke-linejoin="round"/>
<path d="M189.073 167.072L189.312 165.613L189.339 165.056L188.514 163.994L187.929 161.872L187.743 160.307L187.796 159.511L187.53 158.45L187.104 157.495L187.131 156.434L187.557 155.983L187.956 155.797L189.206 155.532L189.578 155.32L189.206 154.975L187.823 154.577L187.477 154.126L187.849 153.702L189.419 152.747L190.429 151.871V151.447L189.711 151.155L189.046 151.261L188.248 151.632L186.333 153.224L184.897 152.959L180.162 150.492L180.614 149.749L181.066 149.325L181.917 147.176L183.859 146.3L185.109 145.425L184.311 144.178L184.95 143.489L185.349 143.356L185.641 142.772L185.535 142.295L184.87 141.419L183.62 140.305L184.577 139.615L184.657 138.846L184.338 137.361L183.646 137.042L183.008 136.989L182.582 136.724L182.13 136.193L182.183 135.742L182.742 135.185L183.247 134.469L183.859 133.302L184.657 131.206L183.62 130.649L182.955 129.986L182.662 129.323L181.944 128.421L181.917 127.943L183.247 127.28L183.434 126.935L183.513 125.741L184.125 124.68L184.152 124.203L183.912 123.434L183.593 122.956L182.981 122.664L181.226 122.585L180.188 122.717L179.869 122.585L179.497 121.444L179.922 118.155L179.71 115.343L179.311 114.043L178.566 111.204L171.73 111.921L170.08 111.178L166.33 104.944L166.968 102.662L167.474 101.601L168.085 100.673L168.272 100.063L168.298 99.2138L167.447 96.4549L167.607 93.7226L168.112 93.6695L169.921 93.0063L179.124 91.5208L182.316 91.6269L183.035 91.5208L184.285 90.8576L184.897 90.8311L187.663 92.2901L196.175 94.8898L198.409 95.1551L198.968 95.0755L200.138 94.6776L201.415 94.4388L202.399 93.643L202.878 93.4308L203.889 93.5104L204.288 93.9878L204.687 94.7041L205.618 95.4734L206.576 95.7121L208.039 95.7652L209.395 95.5795L209.98 94.9959L210.273 93.9613L210.938 93.9348L212.188 94.4654L212.587 94.147L212.933 93.3777L213.305 93.0329L214.183 92.9002L216.95 93.1655L223.094 92.3962L226.286 92.8737L228.893 92.0513L230.755 92.1309L232.59 92.5819L234.133 93.192L234.585 93.5634L235.144 94.4654L235.49 94.8102L235.942 94.9428L236.767 94.9959L237.485 95.4203L238.256 95.1816L238.735 95.2612L239.107 95.606L239.959 96.7202L240.757 97.4099L241.448 97.9139L242.22 98.2588L243.257 98.4976L246.236 98.922L246.742 99.2934L247.646 100.593L249.269 101.283L250.705 102.132L251.024 103.936L252.487 104.413V104.625L254.349 106.005L254.881 106.27L255.121 106.562L254.642 107.013L256.052 107.623L256.584 108.154L257.036 109.162L257.222 110.276L257.036 110.966L256.238 112.212L254.19 112.769L250.678 113.937L250.12 113.857L249.694 113.671L249.455 113.353L249.402 112.876L245.491 110.488L243.284 109.745L241.608 110.488L241.315 111.549L241.555 112.663L242.299 114.706L242.406 115.714L242.379 116.696L242.246 117.677L239.32 125.901L238.762 128.341L238.496 130.49L238.203 131.445L237.591 132.373L236.767 133.037L235.889 133.567L235.171 134.283L234.878 135.477L235.197 139.297L234.984 141.101L233.867 142.613L232.404 143.303L230.728 143.435L225.94 143.011L225.861 143.754L227.164 145.903L227.217 146.751L226.1 146.3L224.85 145.425L224.318 144.948L223.041 145.372L222.855 146.486L223.467 149.006L223.413 150.227L222.163 155.585L221.738 156.673L221.019 157.15L219.849 156.858L218.093 155.108L217.96 154.551L217.881 153.118L217.721 152.72L217.109 152.694L213.465 151.898L212.88 152.72L213.039 153.914L213.412 155.187L213.438 156.275L212.773 157.256L211.789 157.628L210.672 157.469L209.635 156.805L209.103 155.85L208.092 153.304L207.507 153.092L207.241 153.834L206.629 157.813L206.177 159.14L205.618 160.015L204.793 160.572L203.463 160.97L201.096 161.262L198.968 161.076L194.606 160.121L192.212 160.334L191.52 161.952L191.414 164.339L190.828 166.886L190.137 167.363L189.073 167.072Z" fill="#CE91FF" stroke="white" stroke-width="2" stroke-linecap="round" stroke-linejoin="round"/>
<path d="M95.627 93.5368L94.8556 96.9324L94.3236 100.275L94.0044 105.58L94.0842 106.111L95.4674 112.955L95.9728 114.202L96.7442 115.74L97.3294 116.377L98.3136 117.04L100.016 117.942L101.053 118.924L101.532 119.507L101.905 120.171L102.197 121.338L102.224 122.664L101.585 125.529L101.506 126.219L101.798 127.439V128.235L101.373 129.827L100.734 130.596L100.442 131.286L100.601 132.055L100.654 133.222L100.575 134.469L100.096 136.432L100.043 138.793L99.5106 143.303V143.939L99.8564 146.353L99.8298 148.82L99.883 149.351L102.011 151.685L102.809 152.375L102.889 154.073L103.926 154.338L104.139 154.922L104.033 155.505L104.299 156.169L104.059 157.071L103.953 157.973L104.112 158.079L103.554 159.14L103.394 161.368L102.969 162.217L102.437 163.092L101.718 163.756L96.7974 167.841L96.0526 169.777L95.8132 171.157L95.9728 172.085L96.558 175.003V175.746L95.2546 176.091L92.0626 176.383L91.1316 176.754L89.4026 177.895L88.3918 178.213L86.9288 177.921L84.6146 175.826L83.3112 175.056L78.1774 172.855L76.2888 171.581L74.9322 170.998L73.4958 170.679L71.953 170.547L67.1916 171.051L65.6222 170.759L64.372 170.175L63.1484 169.379L60.9406 167.469L60.382 166.806L60.2224 166.249L60.4884 164.87V164.207L60.249 163.649L59.0786 162.164L58.5732 160.599L56.4718 158.583L55.1418 156.805L54.6896 156.434L53.6522 155.903L52.5084 155.824L51.9232 156.593L51.1518 157.124L47.4544 158.874L46.3904 159.113L45.2732 158.928L44.821 158.689L43.9698 158.079L42.5866 157.336L42.2142 157.018L41.3098 155.638L41.0438 154.683L41.23 154.153L41.895 153.171L42.0812 152.587L41.9482 152.349L41.8152 151.314L41.7088 151.049L41.3896 148.582L40.0596 146.778L38.171 145.637L36.9474 145.345L36.3356 146.804L35.4578 148.131L34.2076 148.21L31.3614 147.229L27.6374 147.07L26.334 146.778L22.078 143.382L6.99579 135.477L5.31999 135.106L5.21359 134.681L4.68159 133.753L3.96339 132.851L3.88359 132.532V129.27L3.72399 128.872L2.87279 128.023L2.31419 126.723L1.35659 126.325L0.265991 126.007L0.585191 124.097L1.03739 122.956L1.80879 121.868L2.07479 119.109L2.71319 118.844L3.43139 118.712L3.83039 118.128L3.91019 117.253L4.09639 116.51L4.46879 116.059L5.21359 116.191L5.74559 115.051L6.54359 114.255L7.10219 113.433L6.94259 112.239L6.19779 110.064L5.93179 109.506L5.61259 109.188V108.896L8.45879 107.331L9.52279 106.96L10.64 107.066L11.571 107.729L12.3956 108.79L12.901 110.011L12.9542 111.178L13.6458 111.204L16.0664 111.867L17.024 111.947L17.556 111.549L18.5934 109.692L20.5884 107.066L21.3066 105.607L21.4662 103.936L22.7962 102.264L23.4878 100.381L23.9666 96.2426L23.807 92.6614L24.3656 91.6268L26.334 91.282L27.265 91.5207L29.0738 92.237L31.1486 92.8206L31.787 92.6614L32.2126 92.3961L32.9042 91.6003L33.4362 91.3881L35.4578 91.4677L37.1868 91.786L40.6448 93.0858L44.0762 93.4307L44.5284 93.0858L45.1136 91.7064L45.486 91.2554L45.9648 91.1759L46.7096 91.5207L50.6464 92.9002L52.1094 93.0063L51.2582 91.6534L52.3222 91.4146L52.4818 90.8045L52.3222 89.9556L52.3754 89.1067L52.8808 88.417L55.0354 86.8253L55.461 86.2152L55.594 85.5785L55.461 84.9684L55.0354 84.4644L60.7278 84.6501H66.9256L69.293 85.2337L69.4792 87.6477L70.9422 90.8841L72.7776 92.6879L76.608 90.4861L80.066 91.282L85.5456 93.0858H91.2114L95.627 93.5368Z" fill="#CE91FF" stroke="white" stroke-width="2" stroke-linecap="round" stroke-linejoin="round"/>
<path d="M102.383 78.0974L101.426 78.2831L100.601 78.8136L100.096 79.7421L98.7924 82.8723L99.2978 86.3209L98.9786 87.9126L98.1274 89.1594L97.4358 89.9552L96.9038 90.8041L95.627 93.5365L91.2114 93.0855H85.5456L80.066 91.2816L76.608 90.4858L72.7776 92.6876L70.9422 90.8837L69.4792 87.6473L69.293 85.2333L66.9256 84.6497H60.7278L55.0354 84.464L52.2424 84.5966L50.8858 84.411L49.5824 83.1376L48.3854 83.058L47.8002 82.8989L47.3746 82.554L46.018 80.8562L45.7786 80.1665L45.7254 79.5564L45.5658 79.0258L44.954 78.5749L44.9274 78.1769L45.9116 75.9221L45.8318 74.5692L45.2998 73.7468L44.5816 73.0836L43.89 72.2347L43.3846 71.8103L41.629 71.1206L41.6822 72.2347L41.097 72.5L40.033 72.3939L39.5808 72.4735L38.969 72.9775L37.9582 74.1182L37.2932 74.3039L36.0962 74.0121L34.2342 72.7918L33.117 72.2613L30.6698 72.1552L29.4728 71.9164L28.9142 71.3593L28.462 70.4309L26.9192 69.2371L26.334 67.9638L24.1528 66.8762L23.3548 66.0803L23.1154 62.1808L21.5992 60.4565L17.423 57.618L13.9384 53.5593L12.0764 52.6043L9.5228 53.347L8.5652 53.9041L7.4214 54.4081L6.3574 54.4612L5.6126 53.6919L5.2136 52.4716L4.9476 51.9145L4.0432 50.9065L4.123 49.7658L3.724 48.8108L3.2984 45.9723L4.0698 45.0173L5.1338 41.4096L6.251 39.2608L7.6874 38.1201L8.0864 36.8999L8.0066 36.2102L7.3416 35.6265L7.1288 35.3082L7.049 34.6981L7.315 34.0084L7.9534 31.9392L8.4322 31.1699L10.3208 29.9496L10.8262 29.4986L11.5976 28.6232L12.2094 28.3845L13.4064 28.1192L16.758 26.9785L17.7688 26.3419L18.221 25.3869L18.1412 23.0789L18.354 22.1505L19.2052 20.9037L20.083 20.1078L22.7962 18.4101L23.2218 17.853L23.4878 17.2694L23.807 17.0041L24.7912 17.5612L25.3232 17.5877L26.334 17.402L27.6108 17.6142L27.4778 15.9961L26.334 12.5209L25.5094 11.1415L23.9666 10.3987L20.6682 9.76205L19.3382 9.17844L18.9126 9.20497L18.7264 9.62941L18.5668 11.115L18.3008 11.4863L17.556 11.2741L17.1038 10.4252L17.0506 9.36413L17.3698 8.51525L18.1146 7.24192L19.285 3.13013L19.7106 2.22819L20.4022 1.03444L21.147 0.265137L21.679 0.609997L21.7588 1.80374L21.7056 3.15665L21.8652 4.42998L22.6366 5.27887L24.6582 5.91553L25.5892 6.33998L26.334 7.21539L27.0522 7.799L28.1428 8.96622L29.2866 9.76205L30.59 10.3191L31.0688 10.3722L32.2924 10.3457L32.984 10.664L33.6756 12.0169L34.1544 12.6005L35.378 13.2902L36.708 13.6086L36.4686 14.1391L36.3356 14.6962L36.4952 15.1206L37.4262 15.492L37.3464 16.6062L37.6922 17.0837L39.0222 17.7734L39.7936 18.3835L39.9266 19.1794L39.3946 20.3466L38.6498 20.9833L36.5484 22.0444L36.1228 22.5219L37.1336 23.2381L41.9748 21.4608L44.0496 22.2566L44.5018 23.2381L44.8742 24.3257L45.4328 25.2277L46.3904 25.6787L47.2948 25.3073L48.1726 23.2116L49.3164 22.4158L50.8858 22.7076L53.4128 25.2542L55.0354 25.8113L57.589 25.1746L58.7328 24.3523L58.4402 23.1585L57.8018 22.9728L57.1368 22.9463L56.7112 22.5219L56.924 21.169L56.392 21.5138L55.86 21.6465L55.4078 21.4873L55.0354 20.9833L54.5034 19.1528L53.0936 18.4101L51.4444 17.853L50.2474 16.5797L50.2208 15.492L50.673 14.2983L51.3912 13.2106L52.136 12.5209L53.067 12.07L53.599 12.2291L54.131 12.7597L55.0354 13.4494L55.7004 13.7677L56.5516 14.7758L57.0836 15.2002L57.722 15.4655L58.9722 15.7838L59.4776 16.2083L59.7436 16.9776L59.5574 17.5347L59.6372 17.9591L60.5948 18.3835L61.9514 18.7815L62.377 19.2324L62.4036 20.1078L61.8982 20.3731L61.0736 19.9752L60.4086 20.0548L60.4618 21.7791L60.8342 22.8137L61.978 24.7502L62.4036 25.7582L62.8824 29.6313L63.308 30.772L64.0262 31.5943L67.83 33.2656L68.6812 33.8227L69.2664 34.6185L69.6388 35.8388L70.1176 36.4224L72.1392 37.3508L73.5224 38.969L74.5598 39.6853L75.7302 40.2158L76.6612 40.3219L77.5922 39.7914L78.2838 39.1547H78.9488L79.8266 40.4546L80.6512 40.5607L80.9704 40.4546L84.0826 40.1893L84.9072 40.4546L85.7318 41.8605L86.2372 42.5503L86.8224 42.8686L87.5938 42.7094L87.9928 42.1258L88.1524 41.3035L88.0992 40.4546L88.578 38.7038L91.105 36.6081L91.5838 35.5204L91.1582 34.7246L90.4134 34.6981L89.6154 34.8572L89.0302 34.5654V33.8227L89.6686 33.2921L90.4932 32.8677L91.1848 32.4167L90.1208 32.284L89.1632 31.8331L88.7908 31.0373L89.4026 29.87L90.174 29.3395L90.573 29.2864L91.77 29.6578L91.7966 29.3395L91.4242 28.5967L91.2912 26.6602L91.6902 26.1296L92.9404 25.7052L93.9778 25.9174L94.297 26.8724L94.2172 29.5782L94.2704 29.9761L94.962 30.2945L95.3876 30.3475L96.5314 30.2414L97.0634 30.2945L97.7284 30.8516L98.0742 31.8066L98.3402 32.8411L98.7924 33.7165L99.5372 34.7777L99.617 35.5735L99.484 36.3693L99.5638 37.4835L99.883 38.0671L101.053 39.6057L101.825 40.9055L102.171 41.0117L102.543 40.8525L102.942 40.4281L103.235 40.375L104.059 41.4361L103.9 42.3115L103.075 42.9747L101.958 43.3726L103.048 44.0358L103.926 44.1154L104.405 44.4868L104.139 45.9989L101.665 50.3759L101.452 51.9411L102.516 57.671L103.82 60.8809L104.405 63.3745L103.873 67.8577L103.767 72.6327L102.463 77.4607L102.383 78.0974Z" fill="#CE91FF" stroke="white" stroke-width="2" stroke-linecap="round" stroke-linejoin="round"/>
</g>
<defs>
<clipPath id="clip0">
<rect width="266" height="369" fill="white"/>
</clipPath>
</defs>
</svg>
