<svg width="732" height="338" viewBox="0 0 732 338" fill="none" xmlns="http://www.w3.org/2000/svg">
<path d="M627.714 278.811H599.814V336.28H627.714V278.811Z" fill="#DCEAF9"/>
<path d="M216.522 117.683V92.5483H224.143V49.3832H265.052V92.5483H303.314V33.3595L345.53 17.3996V67.8598H355.159V0.67511L397.375 14.66V115.58H450.751V175.215H470.679V190.219H516.498V164.352H542.803V94.0774H575.294V223.828H607.785V336.726H575.294H547.459H542.803H516.498H501.64H477.821H470.679H450.751H432.002H397.375H386.757H365.649H355.159H345.53H323.433H308.384H303.314H265.052H224.844H224.143H216.522H183.904V117.683H216.522Z" fill="#D5E7F7"/>
<path d="M362.566 30.1724L391.039 30.1724V19.7554L362.566 19.7554V30.1724Z" fill="#C4D9ED"/>
<path d="M362.566 49.7555H391.039V39.3385H362.566V49.7555Z" fill="#C4D9ED"/>
<path d="M362.566 67.3546H391.039V56.9376H362.566V67.3546Z" fill="#C4D9ED"/>
<path d="M575.294 141.448H542.198V157.535H575.294V141.448Z" fill="#C4D9ED"/>
<path d="M575.294 190.793H542.516V206.88H575.294V190.793Z" fill="#C4D9ED"/>
<path d="M575.294 215.099H542.516V231.186H575.294V215.099Z" fill="#C4D9ED"/>
<path d="M543.057 256.596H575.835V240.509H543.057V256.596Z" fill="#C4D9ED"/>
<path d="M575.837 265.4H543.059V281.487H575.837V265.4Z" fill="#C4D9ED"/>
<path d="M543.057 306.872H575.835V290.784H543.057V306.872Z" fill="#C4D9ED"/>
<path d="M339.95 56.9331H310.01V67.3501H339.95V56.9331Z" fill="#C4D9ED"/>
<path d="M339.95 39.4759H310.01V49.8929H339.95V39.4759Z" fill="#C4D9ED"/>
<path d="M391.763 77.1936H310.01V87.6106H391.763V77.1936Z" fill="#C4D9ED"/>
<path d="M391.763 92.8668H310.01V103.284H391.763V92.8668Z" fill="#C4D9ED"/>
<path d="M391.763 108.413H310.01V118.447H391.763V108.413Z" fill="#C4D9ED"/>
<path d="M575.294 166.518H542.516V182.606H575.294V166.518Z" fill="#C4D9ED"/>
<path d="M442.556 125.36H435.414V135.427H442.556V125.36Z" fill="#C4D9ED"/>
<path d="M429.165 125.36H422.022V135.427H429.165V125.36Z" fill="#C4D9ED"/>
<path d="M416.092 125.36H408.949V135.427H416.092V125.36Z" fill="#C4D9ED"/>
<path d="M403.688 125.36H396.546V135.427H403.688V125.36Z" fill="#C4D9ED"/>
<path d="M391.062 125.36H383.919V135.427H391.062V125.36Z" fill="#C4D9ED"/>
<path d="M378.276 125.36H371.134V135.427H378.276V125.36Z" fill="#C4D9ED"/>
<path d="M364.884 125.36H357.742V135.427H364.884V125.36Z" fill="#C4D9ED"/>
<path d="M351.811 125.36H344.669V135.427H351.811V125.36Z" fill="#C4D9ED"/>
<path d="M339.408 125.36H332.266V135.427H339.408V125.36Z" fill="#C4D9ED"/>
<path d="M326.749 125.36H319.607V135.427H326.749V125.36Z" fill="#C4D9ED"/>
<path d="M313.581 125.36H306.438V135.427H313.581V125.36Z" fill="#C4D9ED"/>
<path d="M300.189 125.36H293.047V135.427H300.189V125.36Z" fill="#C4D9ED"/>
<path d="M287.116 125.36H279.974V135.427H287.116V125.36Z" fill="#C4D9ED"/>
<path d="M274.713 125.36H267.57V135.427H274.713V125.36Z" fill="#C4D9ED"/>
<path d="M262.086 125.36H254.944V135.427H262.086V125.36Z" fill="#C4D9ED"/>
<path d="M235.908 125.36H228.766V135.427H235.908V125.36Z" fill="#C4D9ED"/>
<path d="M222.836 125.36H215.693V135.427H222.836V125.36Z" fill="#C4D9ED"/>
<path d="M210.432 125.36H203.29V135.427H210.432V125.36Z" fill="#C4D9ED"/>
<path d="M197.774 125.36H190.632V135.427H197.774V125.36Z" fill="#C4D9ED"/>
<path d="M442.556 143.136H435.414V153.202H442.556V143.136Z" fill="#C4D9ED"/>
<path d="M429.165 143.136H422.022V153.202H429.165V143.136Z" fill="#C4D9ED"/>
<path d="M416.092 143.136H408.949V153.202H416.092V143.136Z" fill="#C4D9ED"/>
<path d="M403.688 143.136H396.546V153.202H403.688V143.136Z" fill="#C4D9ED"/>
<path d="M391.062 143.136H383.919V153.202H391.062V143.136Z" fill="#C4D9ED"/>
<path d="M378.276 143.136H371.134V153.202H378.276V143.136Z" fill="#C4D9ED"/>
<path d="M364.884 143.136H357.742V153.202H364.884V143.136Z" fill="#C4D9ED"/>
<path d="M351.811 143.136H344.669V153.202H351.811V143.136Z" fill="#C4D9ED"/>
<path d="M339.408 143.136H332.266V153.202H339.408V143.136Z" fill="#C4D9ED"/>
<path d="M326.749 143.136H319.607V153.202H326.749V143.136Z" fill="#C4D9ED"/>
<path d="M313.581 143.136H306.438V153.202H313.581V143.136Z" fill="#C4D9ED"/>
<path d="M300.189 143.136H293.047V153.202H300.189V143.136Z" fill="#C4D9ED"/>
<path d="M287.116 143.136H279.974V153.202H287.116V143.136Z" fill="#C4D9ED"/>
<path d="M274.713 143.136H267.57V153.202H274.713V143.136Z" fill="#C4D9ED"/>
<path d="M262.086 143.136H254.944V153.202H262.086V143.136Z" fill="#C4D9ED"/>
<path d="M249.3 143.136H242.158V153.202H249.3V143.136Z" fill="#C4D9ED"/>
<path d="M235.908 143.136H228.766V153.202H235.908V143.136Z" fill="#C4D9ED"/>
<path d="M222.836 143.136H215.693V153.202H222.836V143.136Z" fill="#C4D9ED"/>
<path d="M210.432 143.136H203.29V153.202H210.432V143.136Z" fill="#C4D9ED"/>
<path d="M197.774 143.136H190.632V153.202H197.774V143.136Z" fill="#C4D9ED"/>
<path d="M442.556 160.657H435.414V170.723H442.556V160.657Z" fill="#C4D9ED"/>
<path d="M429.165 160.657H422.022V170.723H429.165V160.657Z" fill="#C4D9ED"/>
<path d="M416.092 160.657H408.949V170.723H416.092V160.657Z" fill="#C4D9ED"/>
<path d="M403.688 160.657H396.546V170.723H403.688V160.657Z" fill="#C4D9ED"/>
<path d="M391.062 160.657H383.919V170.723H391.062V160.657Z" fill="#C4D9ED"/>
<path d="M378.276 160.657H371.134V170.723H378.276V160.657Z" fill="#C4D9ED"/>
<path d="M364.884 160.657H357.742V170.723H364.884V160.657Z" fill="#C4D9ED"/>
<path d="M351.811 160.657H344.669V170.723H351.811V160.657Z" fill="#C4D9ED"/>
<path d="M339.408 160.657H332.266V170.723H339.408V160.657Z" fill="#C4D9ED"/>
<path d="M326.749 160.657H319.607V170.723H326.749V160.657Z" fill="#C4D9ED"/>
<path d="M313.581 160.657H306.438V170.723H313.581V160.657Z" fill="#C4D9ED"/>
<path d="M300.189 160.657H293.047V170.723H300.189V160.657Z" fill="#C4D9ED"/>
<path d="M287.116 160.657H279.974V170.723H287.116V160.657Z" fill="#C4D9ED"/>
<path d="M274.713 160.657H267.57V170.723H274.713V160.657Z" fill="#C4D9ED"/>
<path d="M262.086 160.657H254.944V170.723H262.086V160.657Z" fill="#C4D9ED"/>
<path d="M249.3 160.657H242.158V170.723H249.3V160.657Z" fill="#C4D9ED"/>
<path d="M235.908 160.657H228.766V170.723H235.908V160.657Z" fill="#C4D9ED"/>
<path d="M222.836 160.657H215.693V170.723H222.836V160.657Z" fill="#C4D9ED"/>
<path d="M210.432 160.657H203.29V170.723H210.432V160.657Z" fill="#C4D9ED"/>
<path d="M197.774 160.657H190.632V170.723H197.774V160.657Z" fill="#C4D9ED"/>
<path d="M442.556 179.261H435.414V189.327H442.556V179.261Z" fill="#C4D9ED"/>
<path d="M429.165 179.261H422.022V189.327H429.165V179.261Z" fill="#C4D9ED"/>
<path d="M416.092 179.261H408.949V189.327H416.092V179.261Z" fill="#C4D9ED"/>
<path d="M403.688 179.261H396.546V189.327H403.688V179.261Z" fill="#C4D9ED"/>
<path d="M391.062 179.261H383.919V189.327H391.062V179.261Z" fill="#C4D9ED"/>
<path d="M378.276 179.261H371.134V189.327H378.276V179.261Z" fill="#C4D9ED"/>
<path d="M364.884 179.261H357.742V189.327H364.884V179.261Z" fill="#C4D9ED"/>
<path d="M351.811 179.261H344.669V189.327H351.811V179.261Z" fill="#C4D9ED"/>
<path d="M339.408 179.261H332.266V189.327H339.408V179.261Z" fill="#C4D9ED"/>
<path d="M326.749 179.261H319.607V189.327H326.749V179.261Z" fill="#C4D9ED"/>
<path d="M313.581 179.261H306.438V189.327H313.581V179.261Z" fill="#C4D9ED"/>
<path d="M300.189 179.261H293.047V189.327H300.189V179.261Z" fill="#C4D9ED"/>
<path d="M287.116 179.261H279.974V189.327H287.116V179.261Z" fill="#C4D9ED"/>
<path d="M274.713 179.261H267.57V189.327H274.713V179.261Z" fill="#C4D9ED"/>
<path d="M262.086 179.261H254.944V189.327H262.086V179.261Z" fill="#C4D9ED"/>
<path d="M249.3 179.261H242.158V189.327H249.3V179.261Z" fill="#C4D9ED"/>
<path d="M235.908 179.261H228.766V189.327H235.908V179.261Z" fill="#C4D9ED"/>
<path d="M222.836 179.261H215.693V189.327H222.836V179.261Z" fill="#C4D9ED"/>
<path d="M210.432 179.261H203.29V189.327H210.432V179.261Z" fill="#C4D9ED"/>
<path d="M197.774 179.261H190.632V189.327H197.774V179.261Z" fill="#C4D9ED"/>
<path d="M442.556 197.036H435.414V207.103H442.556V197.036Z" fill="#C4D9ED"/>
<path d="M429.165 197.036H422.022V207.103H429.165V197.036Z" fill="#C4D9ED"/>
<path d="M416.092 197.036H408.949V207.103H416.092V197.036Z" fill="#C4D9ED"/>
<path d="M403.688 197.036H396.546V207.103H403.688V197.036Z" fill="#C4D9ED"/>
<path d="M391.062 197.036H383.919V207.103H391.062V197.036Z" fill="#C4D9ED"/>
<path d="M378.276 197.036H371.134V207.103H378.276V197.036Z" fill="#C4D9ED"/>
<path d="M364.884 197.036H357.742V207.103H364.884V197.036Z" fill="#C4D9ED"/>
<path d="M351.811 197.036H344.669V207.103H351.811V197.036Z" fill="#C4D9ED"/>
<path d="M339.408 197.036H332.266V207.103H339.408V197.036Z" fill="#C4D9ED"/>
<path d="M326.749 197.036H319.607V207.103H326.749V197.036Z" fill="#C4D9ED"/>
<path d="M313.581 197.036H306.438V207.103H313.581V197.036Z" fill="#C4D9ED"/>
<path d="M300.189 197.036H293.047V207.103H300.189V197.036Z" fill="#C4D9ED"/>
<path d="M287.116 197.036H279.974V207.103H287.116V197.036Z" fill="#C4D9ED"/>
<path d="M274.713 197.036H267.57V207.103H274.713V197.036Z" fill="#C4D9ED"/>
<path d="M262.086 197.036H254.944V207.103H262.086V197.036Z" fill="#C4D9ED"/>
<path d="M249.3 197.036H242.158V207.103H249.3V197.036Z" fill="#C4D9ED"/>
<path d="M235.908 197.036H228.766V207.103H235.908V197.036Z" fill="#C4D9ED"/>
<path d="M210.432 197.036H203.29V207.103H210.432V197.036Z" fill="#C4D9ED"/>
<path d="M222.836 197.036H215.693V207.103H222.836V197.036Z" fill="#C4D9ED"/>
<path d="M197.774 197.036H190.632V207.103H197.774V197.036Z" fill="#C4D9ED"/>
<path d="M442.556 214.557H435.414V224.624H442.556V214.557Z" fill="#C4D9ED"/>
<path d="M429.165 214.557H422.022V224.624H429.165V214.557Z" fill="#C4D9ED"/>
<path d="M416.092 214.557H408.949V224.624H416.092V214.557Z" fill="#C4D9ED"/>
<path d="M403.688 214.557H396.546V224.624H403.688V214.557Z" fill="#C4D9ED"/>
<path d="M391.062 214.557H383.919V224.624H391.062V214.557Z" fill="#C4D9ED"/>
<path d="M378.276 214.557H371.134V224.624H378.276V214.557Z" fill="#C4D9ED"/>
<path d="M364.884 214.557H357.742V224.624H364.884V214.557Z" fill="#C4D9ED"/>
<path d="M351.811 214.557H344.669V224.624H351.811V214.557Z" fill="#C4D9ED"/>
<path d="M339.408 214.557H332.266V224.624H339.408V214.557Z" fill="#C4D9ED"/>
<path d="M326.749 214.557H319.607V224.624H326.749V214.557Z" fill="#C4D9ED"/>
<path d="M313.581 214.557H306.438V224.624H313.581V214.557Z" fill="#C4D9ED"/>
<path d="M300.189 214.557H293.047V224.624H300.189V214.557Z" fill="#C4D9ED"/>
<path d="M287.116 214.557H279.974V224.624H287.116V214.557Z" fill="#C4D9ED"/>
<path d="M274.713 214.557H267.57V224.624H274.713V214.557Z" fill="#C4D9ED"/>
<path d="M262.086 214.557H254.944V224.624H262.086V214.557Z" fill="#C4D9ED"/>
<path d="M249.3 214.557H242.158V224.624H249.3V214.557Z" fill="#C4D9ED"/>
<path d="M235.908 214.557H228.766V224.624H235.908V214.557Z" fill="#C4D9ED"/>
<path d="M210.432 214.557H203.29V224.624H210.432V214.557Z" fill="#C4D9ED"/>
<path d="M197.774 214.557H190.632V224.624H197.774V214.557Z" fill="#C4D9ED"/>
<path d="M130.655 194.615H114.745V302.225H130.655V194.615Z" fill="#C4D9ED"/>
<path d="M130.65 334.777H147.741V260.042H130.65V334.777Z" fill="#ADC9E0"/>
<path d="M504.86 164.32V143.359H503.999V164.32H492.202V190.187H516.498V164.32H504.86Z" fill="#C4D9ED"/>
<path d="M575.294 110.197V94.1092H568.471V87.1008H567.61V94.1092H542.676H542.198H537.479V87.1008H536.618V94.1092H530.591V164.384H542.676V134.121H575.294V118.033H542.676V110.197H575.294Z" fill="#C4D9ED"/>
<path d="M221.943 210.289V300.983H130.655V194.615L221.943 210.289Z" fill="#D5E7F7"/>
<path d="M108.083 336.278H221.945V259.759H108.083L108.083 336.278Z" fill="#D5E7F7"/>
<path d="M108.083 239.334H221.945V214.454H108.083V239.334Z" fill="#C4D9ED"/>
<path d="M214.163 280.5H208.328V288.75H214.163V280.5Z" fill="#C4D9ED"/>
<path d="M203.226 280.5H197.391V288.75H203.226V280.5Z" fill="#C4D9ED"/>
<path d="M192.545 280.5H186.71V288.75H192.545V280.5Z" fill="#C4D9ED"/>
<path d="M182.405 280.5H176.57V288.75H182.405V280.5Z" fill="#C4D9ED"/>
<path d="M172.074 280.5H166.239V288.75H172.074V280.5Z" fill="#C4D9ED"/>
<path d="M161.616 280.5H155.781V288.75H161.616V280.5Z" fill="#C4D9ED"/>
<path d="M150.679 280.5H144.844V288.75H150.679V280.5Z" fill="#C4D9ED"/>
<path d="M139.998 280.5H134.163V288.75H139.998V280.5Z" fill="#C4D9ED"/>
<path d="M129.858 280.5H124.023V288.75H129.858V280.5Z" fill="#C4D9ED"/>
<path d="M119.528 280.5H113.693V288.75H119.528V280.5Z" fill="#C4D9ED"/>
<path d="M214.163 295.058H208.328V303.309H214.163V295.058Z" fill="#C4D9ED"/>
<path d="M203.226 295.058H197.391V303.309H203.226V295.058Z" fill="#C4D9ED"/>
<path d="M192.545 295.058H186.71V303.309H192.545V295.058Z" fill="#C4D9ED"/>
<path d="M182.405 295.058H176.57V303.309H182.405V295.058Z" fill="#C4D9ED"/>
<path d="M172.074 295.058H166.239V303.309H172.074V295.058Z" fill="#C4D9ED"/>
<path d="M161.616 295.058H155.781V303.309H161.616V295.058Z" fill="#C4D9ED"/>
<path d="M150.679 295.058H144.844V303.309H150.679V295.058Z" fill="#C4D9ED"/>
<path d="M139.998 295.058H134.163V303.309H139.998V295.058Z" fill="#C4D9ED"/>
<path d="M129.858 295.058H124.023V303.309H129.858V295.058Z" fill="#C4D9ED"/>
<path d="M119.528 295.058H113.693V303.309H119.528V295.058Z" fill="#C4D9ED"/>
<path d="M214.163 251.224H208.328V259.475H214.163V251.224Z" fill="#C4D9ED"/>
<path d="M203.226 251.224H197.391V259.475H203.226V251.224Z" fill="#C4D9ED"/>
<path d="M192.545 251.224H186.71V259.475H192.545V251.224Z" fill="#C4D9ED"/>
<path d="M182.405 251.224H176.57V259.475H182.405V251.224Z" fill="#C4D9ED"/>
<path d="M172.074 251.224H166.239V259.475H172.074V251.224Z" fill="#C4D9ED"/>
<path d="M161.616 251.224H155.781V259.475H161.616V251.224Z" fill="#C4D9ED"/>
<path d="M150.679 251.224H144.844V259.475H150.679V251.224Z" fill="#C4D9ED"/>
<path d="M139.998 251.224H134.163V259.475H139.998V251.224Z" fill="#C4D9ED"/>
<path d="M214.163 265.75H208.328V274.001H214.163V265.75Z" fill="#C4D9ED"/>
<path d="M203.226 265.75H197.391V274.001H203.226V265.75Z" fill="#C4D9ED"/>
<path d="M192.545 265.75H186.71V274.001H192.545V265.75Z" fill="#C4D9ED"/>
<path d="M182.405 265.75H176.57V274.001H182.405V265.75Z" fill="#C4D9ED"/>
<path d="M172.074 265.75H166.239V274.001H172.074V265.75Z" fill="#C4D9ED"/>
<path d="M161.616 265.75H155.781V274.001H161.616V265.75Z" fill="#C4D9ED"/>
<path d="M150.679 265.75H144.844V274.001H150.679V265.75Z" fill="#C4D9ED"/>
<path d="M139.998 265.75H134.163V274.001H139.998V265.75Z" fill="#C4D9ED"/>
<path d="M129.858 265.75H124.023V274.001H129.858V265.75Z" fill="#C4D9ED"/>
<path d="M119.528 265.75H113.693V274.001H119.528V265.75Z" fill="#C4D9ED"/>
<path d="M214.163 309.361H208.328V317.612H214.163V309.361Z" fill="#C4D9ED"/>
<path d="M203.226 309.361H197.391V317.612H203.226V309.361Z" fill="#C4D9ED"/>
<path d="M192.545 309.361H186.71V317.612H192.545V309.361Z" fill="#C4D9ED"/>
<path d="M182.405 309.361H176.57V317.612H182.405V309.361Z" fill="#C4D9ED"/>
<path d="M172.074 309.361H166.239V317.612H172.074V309.361Z" fill="#C4D9ED"/>
<path d="M161.616 309.361H155.781V317.612H161.616V309.361Z" fill="#C4D9ED"/>
<path d="M150.679 309.361H144.844V317.612H150.679V309.361Z" fill="#C4D9ED"/>
<path d="M139.998 309.361H134.163V317.612H139.998V309.361Z" fill="#C4D9ED"/>
<path d="M129.858 309.361H124.023V317.612H129.858V309.361Z" fill="#C4D9ED"/>
<path d="M119.528 309.361H113.693V317.612H119.528V309.361Z" fill="#C4D9ED"/>
<path d="M214.163 322.104H208.328V330.354H214.163V322.104Z" fill="#C4D9ED"/>
<path d="M203.226 322.104H197.391V330.354H203.226V322.104Z" fill="#C4D9ED"/>
<path d="M192.545 322.104H186.71V330.354H192.545V322.104Z" fill="#C4D9ED"/>
<path d="M182.405 322.104H176.57V330.354H182.405V322.104Z" fill="#C4D9ED"/>
<path d="M172.074 322.104H166.239V330.354H172.074V322.104Z" fill="#C4D9ED"/>
<path d="M161.616 322.104H155.781V330.354H161.616V322.104Z" fill="#C4D9ED"/>
<path d="M150.679 322.104H144.844V330.354H150.679V322.104Z" fill="#C4D9ED"/>
<path d="M139.998 322.104H134.163V330.354H139.998V322.104Z" fill="#C4D9ED"/>
<path d="M129.858 322.104H124.023V330.354H129.858V322.104Z" fill="#C4D9ED"/>
<path d="M119.528 322.104H113.693V330.354H119.528V322.104Z" fill="#C4D9ED"/>
<path d="M138.467 177.541H136.777V199.107H138.467V177.541Z" fill="#D5E7F7"/>
<path d="M213.238 221.47H208.328V229.976H213.238V221.47Z" fill="#D5E7F7"/>
<path d="M164.454 221.47H159.543V229.976H164.454V221.47Z" fill="#D5E7F7"/>
<path d="M125.65 221.47H120.739V229.976H125.65V221.47Z" fill="#D5E7F7"/>
<path d="M521.695 240.488H357.805V336.248H521.695V240.488Z" fill="#C4D9ED"/>
<path d="M465.227 244.884H499.44V215.099L465.227 228.16V244.884Z" fill="#C4D9ED"/>
<path d="M296.682 336.28H218.435V251.224L296.682 278.301V336.28Z" fill="#C4D9ED"/>
<path d="M294.641 281.105H220.508V283.749H294.641V281.105Z" fill="#D5E7F7"/>
<path d="M294.641 289.547H220.508V292.191H294.641V289.547Z" fill="#D5E7F7"/>
<path d="M294.641 297.989H220.508V300.633H294.641V297.989Z" fill="#D5E7F7"/>
<path d="M294.641 306.462H220.508V309.106H294.641V306.462Z" fill="#D5E7F7"/>
<path d="M294.641 314.904H220.508V317.548H294.641V314.904Z" fill="#D5E7F7"/>
<path d="M294.641 323.346H220.508V325.99H294.641V323.346Z" fill="#D5E7F7"/>
<path d="M506.008 215.099H499.44V240.52H506.008V215.099Z" fill="#C4D9ED"/>
<path d="M229.946 52.9193H225.418V91.3696H229.946V52.9193Z" fill="#C4D9ED"/>
<path d="M238.969 52.9193H234.442V91.3696H238.969V52.9193Z" fill="#C4D9ED"/>
<path d="M247.865 52.9193H243.338V91.3696H247.865V52.9193Z" fill="#C4D9ED"/>
<path d="M257.08 52.9193H252.553V91.3696H257.08V52.9193Z" fill="#C4D9ED"/>
<path d="M105.466 273.555L93.318 272.408L85.5699 278.525L82.6364 289.929L86.2713 297.734L78.3 294.389L59.711 315.159L56.3311 332.839L62.5806 337.267H116.467L124.278 311.782L124.023 290.98L105.466 273.555Z" fill="#F1A34F"/>
<path opacity="0.5" d="M78.3 294.389C78.3 294.389 85.3467 303.627 86.8772 303.978C88.3758 304.328 92.9991 303.627 92.9035 302.926C92.7759 302.226 86.3032 297.734 86.3032 297.734L78.3 294.389Z" fill="#E88F46"/>
<path opacity="0.5" d="M59.711 315.159L69.5316 322.486C70.3606 323.091 70.7751 324.143 70.5519 325.162C70.1055 327.328 69.3084 330.832 68.6707 330.992C67.746 331.247 59.711 315.159 59.711 315.159Z" fill="#E88F46"/>
<path opacity="0.5" d="M122.429 313.694C122.429 313.694 108.368 320.989 107.858 322.199C107.347 323.41 112.194 333.285 114.107 331.916C115.988 330.482 122.429 313.694 122.429 313.694Z" fill="#E88F46"/>
<path d="M88.6946 274.829C88.6946 274.829 78.6189 272.185 77.6942 272.631C76.7696 273.109 72.1462 279.448 72.5926 280.595C73.0709 281.774 88.6946 274.829 88.6946 274.829Z" fill="#F1A34F"/>
<path d="M89.3961 268.585L88.6946 274.829L92.9672 271.007C92.9672 271.038 91.373 267.916 89.3961 268.585Z" fill="#E59545"/>
<path d="M90.0657 275.307C90.0657 275.212 89.9063 273.905 89.6831 273.969C89.4599 274.033 87.8975 274.989 87.8975 275.148C87.8975 275.307 87.6105 276.613 88.2163 276.55C88.8221 276.518 90.0657 275.307 90.0657 275.307Z" fill="#E59545"/>
<path opacity="0.5" d="M89.5236 275.976C89.5236 275.976 88.025 281.423 88.2482 281.869C88.4714 282.347 91.5961 285.851 92.0106 285.692C92.3933 285.533 89.5236 275.976 89.5236 275.976Z" fill="#E88F46"/>
<path opacity="0.5" d="M89.97 275.721C89.97 275.721 91.6918 281.169 92.1701 281.105C92.6484 281.041 95.0717 276.773 94.7209 276.422C94.3702 276.04 89.97 275.721 89.97 275.721Z" fill="#E88F46"/>
<path opacity="0.5" d="M90.2251 275.403L91.6918 274.638C91.7556 274.606 91.8513 274.606 91.915 274.638L92.5208 274.893C92.6484 274.957 92.6165 275.148 92.489 275.148L90.2251 275.403Z" fill="#E88F46"/>
<path opacity="0.5" d="M89.0135 276.199L88.1844 277.059C88.0569 277.187 88.0888 277.378 88.2163 277.505L88.5033 277.728C88.599 277.792 88.7265 277.76 88.7584 277.633L89.0135 276.199Z" fill="#E88F46"/>
<path d="M88.854 274.829C88.7265 274.797 82.3495 274.128 81.8393 274.383C81.3291 274.638 78.9378 276.868 79.8943 276.996C80.819 277.123 88.854 274.829 88.854 274.829Z" fill="#E59545"/>
<path opacity="0.5" d="M62.5807 337.267C62.5807 337.267 84.9959 333.891 87.3236 334.719C89.6512 335.515 97.6225 337.14 97.6225 337.14C97.6225 337.14 107.571 334.591 108.623 335.165C109.675 335.738 111.046 337.236 111.046 337.236L62.5807 337.267Z" fill="#E88F46"/>
<path d="M697.638 323.697H680.739C678.124 323.697 676.02 321.562 676.02 318.982V301.939H702.389V318.982C702.357 321.594 700.252 323.697 697.638 323.697ZM679.208 305.124V318.982C679.208 319.842 679.91 320.511 680.739 320.511H697.638C698.499 320.511 699.168 319.81 699.168 318.982V305.124H679.208Z" fill="#1C2948"/>
<path d="M253.35 116.44L546.598 114.943C550.679 114.911 554.027 118.224 554.027 122.302V260.494L171.086 282.061V260.494L207.531 162.313L253.35 116.44Z" fill="#A8D29F"/>
<path d="M685.043 260.558H190.919V301.334H685.043V260.558Z" fill="#1C2948"/>
<path d="M628.67 336.152C647.918 336.152 663.521 320.563 663.521 301.333C663.521 282.104 647.918 266.515 628.67 266.515C609.423 266.515 593.82 282.104 593.82 301.333C593.82 320.563 609.423 336.152 628.67 336.152Z" fill="#2D3A62"/>
<path d="M628.67 279.735C616.745 279.735 607.084 289.387 607.084 301.302C607.084 313.216 616.745 322.868 628.67 322.868C640.595 322.868 650.256 313.216 650.256 301.302C650.256 289.419 640.595 279.735 628.67 279.735ZM631.635 282.124C636.323 282.857 640.468 285.246 643.433 288.687L635.94 293.306C634.728 292.191 633.262 291.362 631.604 290.916V282.124H631.635ZM625.705 282.124V290.916C624.079 291.362 622.612 292.191 621.368 293.306L613.875 288.687C616.873 285.246 621.018 282.825 625.705 282.124ZM610.751 308.852C609.762 306.526 609.22 303.978 609.22 301.302C609.22 298.594 609.762 296.014 610.783 293.688L618.276 298.307C617.989 299.263 617.861 300.282 617.861 301.333C617.861 302.353 617.989 303.309 618.276 304.232L610.751 308.852ZM625.705 320.543C620.954 319.81 616.809 317.389 613.844 313.885L621.305 309.266C622.548 310.412 624.047 311.273 625.705 311.719V320.543ZM623.76 301.333C623.76 298.626 625.96 296.428 628.67 296.428C631.38 296.428 633.58 298.626 633.58 301.333C633.58 304.041 631.38 306.239 628.67 306.239C625.96 306.239 623.76 304.041 623.76 301.333ZM631.635 320.543V311.75C633.294 311.273 634.792 310.412 636.036 309.298L643.497 313.917C640.531 317.389 636.354 319.81 631.635 320.543ZM639.129 304.232C639.384 303.309 639.543 302.321 639.543 301.333C639.543 300.282 639.384 299.295 639.129 298.307L646.622 293.688C647.61 296.045 648.184 298.594 648.184 301.302C648.184 303.978 647.642 306.526 646.653 308.852L639.129 304.232Z" fill="#98BDF4"/>
<path d="M332.138 336.152C351.385 336.152 366.988 320.563 366.988 301.333C366.988 282.104 351.385 266.515 332.138 266.515C312.891 266.515 297.288 282.104 297.288 301.333C297.288 320.563 312.891 336.152 332.138 336.152Z" fill="#2D3A62"/>
<path d="M332.138 279.735C320.213 279.735 310.552 289.387 310.552 301.302C310.552 313.216 320.213 322.868 332.138 322.868C344.063 322.868 353.724 313.216 353.724 301.302C353.724 289.419 344.063 279.735 332.138 279.735ZM335.103 282.124C339.79 282.857 343.936 285.246 346.901 288.687L339.408 293.306C338.196 292.191 336.698 291.362 335.071 290.916V282.124H335.103ZM329.173 282.124V290.916C327.547 291.362 326.08 292.191 324.836 293.306L317.343 288.687C320.34 285.246 324.486 282.825 329.173 282.124ZM314.218 308.852C313.23 306.526 312.688 303.978 312.688 301.302C312.688 298.594 313.23 296.014 314.25 293.688L321.743 298.307C321.456 299.263 321.329 300.282 321.329 301.302C321.329 302.321 321.456 303.277 321.743 304.201L314.218 308.852ZM329.173 320.543C324.422 319.81 320.277 317.389 317.311 313.885L324.772 309.266C326.016 310.412 327.515 311.273 329.173 311.719V320.543ZM327.228 301.333C327.228 298.626 329.428 296.428 332.138 296.428C334.848 296.428 337.048 298.626 337.048 301.333C337.048 304.041 334.848 306.239 332.138 306.239C329.428 306.207 327.228 304.041 327.228 301.333ZM335.103 320.543V311.75C336.761 311.273 338.26 310.412 339.503 309.298L346.965 313.917C343.999 317.389 339.822 319.81 335.103 320.543ZM342.596 304.232C342.851 303.309 343.011 302.321 343.011 301.333C343.011 300.282 342.851 299.295 342.596 298.339L350.089 293.72C351.078 296.077 351.652 298.626 351.652 301.333C351.652 304.009 351.11 306.558 350.121 308.883L342.596 304.232Z" fill="#98BDF4"/>
<path d="M408.375 336.089C427.623 336.089 443.226 320.5 443.226 301.27C443.226 282.04 427.623 266.451 408.375 266.451C389.128 266.451 373.525 282.04 373.525 301.27C373.525 320.5 389.128 336.089 408.375 336.089Z" fill="#2D3A62"/>
<path d="M408.375 279.703C396.45 279.703 386.789 289.356 386.789 301.27C386.789 313.184 396.45 322.836 408.375 322.836C420.301 322.836 429.962 313.184 429.962 301.27C429.962 289.356 420.301 279.703 408.375 279.703ZM411.341 282.061C416.028 282.793 420.173 285.182 423.138 288.623L415.645 293.242C414.434 292.127 412.935 291.299 411.309 290.853V282.061H411.341ZM405.41 282.061V290.853C403.784 291.299 402.317 292.127 401.074 293.242L393.581 288.623C396.578 285.182 400.723 282.793 405.41 282.061ZM390.424 308.82C389.436 306.494 388.894 303.946 388.894 301.27C388.894 298.562 389.436 295.982 390.456 293.656L397.949 298.275C397.662 299.231 397.534 300.25 397.534 301.27C397.534 302.289 397.662 303.245 397.949 304.169L390.424 308.82ZM405.41 320.479C400.659 319.746 396.514 317.325 393.549 313.821L401.01 309.202C402.253 310.349 403.752 311.209 405.41 311.655V320.479ZM403.465 301.27C403.465 298.562 405.665 296.364 408.375 296.364C411.086 296.364 413.286 298.562 413.286 301.27C413.286 303.978 411.086 306.176 408.375 306.176C405.665 306.176 403.465 303.978 403.465 301.27ZM411.341 320.479V311.687C412.999 311.209 414.497 310.349 415.741 309.234L423.202 313.853C420.237 317.325 416.06 319.778 411.341 320.479ZM418.802 304.201C419.057 303.277 419.216 302.289 419.216 301.302C419.216 300.25 419.057 299.263 418.802 298.307L426.295 293.688C427.283 296.045 427.857 298.594 427.857 301.302C427.857 303.978 427.315 306.526 426.327 308.852L418.802 304.201Z" fill="#98BDF4"/>
<path d="M693.333 116.44H604.246C598.539 116.44 593.851 120.932 593.565 126.634L587.666 255.652H586.614C576.41 255.652 568.12 263.934 568.12 274.128V318.185C568.12 320.798 570.225 322.9 572.839 322.9H585.657C588.272 322.9 590.376 320.798 590.376 318.185V301.333C590.376 279.767 608.232 262.373 629.977 263.138C649.682 263.807 665.753 279.544 666.837 299.199C666.964 301.588 666.869 303.946 666.582 306.239H726.334V193.086L705.003 125.01C703.473 119.913 698.722 116.44 693.333 116.44Z" fill="#A8D29F"/>
<path d="M656.57 266.515C666.773 274.702 673.309 287.253 673.309 301.333C673.309 301.779 673.309 302.194 673.277 302.64H704.971V266.515H656.57Z" fill="#82B378"/>
<path d="M705.832 127.494H682.174C680.707 127.494 679.75 128.992 680.324 130.33L705.482 187.862C706.119 189.359 707.49 190.41 709.085 190.665L726.494 193.437L705.832 127.494Z" fill="#98BDF4"/>
<path d="M689.571 190.028H634.728C632.752 190.028 631.157 188.435 631.157 186.46V132.719C631.157 130.744 632.752 129.151 634.728 129.151H669.292C670.759 129.151 672.098 130.075 672.64 131.445L692.919 185.186C693.78 187.543 692.058 190.028 689.571 190.028Z" fill="#98BDF4"/>
<path d="M596.944 190.219H622.803C623.696 190.219 624.429 189.487 624.429 188.595V130.808C624.429 129.916 623.696 129.183 622.803 129.183H599.655C598.794 129.183 598.06 129.852 598.028 130.744L595.318 188.531C595.286 189.423 596.02 190.219 596.944 190.219Z" fill="#82B378"/>
<path d="M689.571 191.621H634.728C631.891 191.621 629.563 189.295 629.563 186.46V132.719C629.563 129.884 631.891 127.558 634.728 127.558H669.292C671.428 127.558 673.373 128.896 674.107 130.903L694.386 184.644C694.991 186.237 694.768 187.989 693.812 189.391C692.855 190.793 691.261 191.621 689.571 191.621ZM634.728 130.776C633.644 130.776 632.751 131.668 632.751 132.751V186.492C632.751 187.575 633.644 188.467 634.728 188.467H689.571C690.241 188.467 690.814 188.149 691.197 187.607C691.58 187.065 691.643 186.396 691.42 185.791L671.141 132.05C670.854 131.285 670.121 130.776 669.292 130.776H634.728Z" fill="#163560"/>
<path d="M726.494 194.998C726.398 194.998 726.334 194.998 726.239 194.966L708.829 192.194C706.693 191.844 704.876 190.442 704.015 188.467L678.857 130.935C678.379 129.82 678.475 128.546 679.144 127.526C679.814 126.507 680.93 125.902 682.174 125.902H705.832C706.534 125.902 707.14 126.348 707.363 127.017L728.024 192.927C728.184 193.469 728.056 194.042 727.705 194.456C727.387 194.807 726.972 194.998 726.494 194.998ZM682.174 129.087C681.982 129.087 681.887 129.183 681.823 129.278C681.759 129.374 681.727 129.501 681.791 129.693L706.948 187.225C707.395 188.212 708.287 188.913 709.34 189.072L724.198 191.43L704.653 129.087H682.174Z" fill="#163560"/>
<path d="M726.366 205.638H720.212V251.51H726.366V205.638Z" fill="#B64C41"/>
<path d="M727.992 314.681H711.731C709.977 314.681 708.543 313.248 708.543 311.496V268.713C708.543 266.961 709.977 265.527 711.731 265.527H727.992C729.746 265.527 731.181 266.961 731.181 268.713V311.496C731.181 313.248 729.746 314.681 727.992 314.681Z" fill="#A8D29F"/>
<path d="M708.543 311.496C708.543 313.248 709.977 314.681 711.731 314.681H727.992C729.746 314.681 731.181 313.248 731.181 311.496H708.543Z" fill="#82B378"/>
<path d="M696.203 263.17C695.501 263.17 694.928 262.596 694.928 261.896V192.672C694.928 191.971 695.501 191.398 696.203 191.398C696.904 191.398 697.478 191.971 697.478 192.672V261.896C697.478 262.596 696.904 263.17 696.203 263.17Z" fill="#82B378"/>
<path d="M631.157 233.353C630.456 233.353 629.882 232.779 629.882 232.078V194.679C629.882 193.978 630.456 193.405 631.157 193.405C631.859 193.405 632.433 193.978 632.433 194.679V232.046C632.433 232.779 631.859 233.353 631.157 233.353Z" fill="#82B378"/>
<path d="M648.12 238.768H631.157V245.362H648.12V238.768Z" fill="#2D3A62"/>
<path d="M682.078 116.44H606.095V113.669C606.095 111.917 607.53 110.483 609.284 110.483H668.112C671.524 110.483 674.872 111.503 677.71 113.446L682.078 116.44Z" fill="#A8D29F"/>
<path d="M677.71 113.446L606.064 113.669V116.44H682.078L677.71 113.446Z" fill="#82B378"/>
<path d="M262.437 291.331H156.227C153.9 291.331 152.019 289.451 152.019 287.126V282.092C152.019 281.073 152.369 280.117 153.039 279.353L296.49 111.471C297.032 110.834 297.798 110.483 298.627 110.483H309.149C310.966 110.483 312.305 112.203 311.859 113.956L268.431 286.648C267.73 289.388 265.275 291.331 262.437 291.331Z" fill="#A8D29F"/>
<path d="M146.821 325.735H254.051C256.698 325.735 258.834 323.601 258.834 320.957V302.225C258.834 299.581 256.698 297.447 254.051 297.447H146.821C144.175 297.447 142.039 299.581 142.039 302.225V320.957C142.039 323.569 144.175 325.735 146.821 325.735Z" fill="#A8D29F"/>
<path d="M142.039 320.957C142.039 323.601 144.175 325.735 146.821 325.735H254.051C256.698 325.735 258.834 323.601 258.834 320.957H142.039Z" fill="#82B378"/>
<path d="M238.045 278.524C235.271 276.677 231.54 277.41 229.691 280.181C228.32 282.252 228.384 284.832 229.627 286.807L219.36 302.13C217.064 301.716 214.641 302.64 213.238 304.71C211.389 307.482 212.122 311.209 214.896 313.057C217.67 314.904 221.401 314.172 223.25 311.4C224.621 309.329 224.557 306.749 223.314 304.774L233.581 289.451C235.877 289.865 238.3 288.941 239.703 286.871C241.552 284.131 240.819 280.404 238.045 278.524Z" fill="#A8D29F"/>
<path d="M233.549 277.633C235.048 277.346 236.706 277.601 238.077 278.525C240.851 280.372 241.584 284.131 239.735 286.871C238.81 288.241 237.407 289.133 235.908 289.419C235.175 289.579 234.41 289.579 233.645 289.419L223.378 304.742C224.653 306.717 224.717 309.298 223.314 311.368C222.389 312.738 220.986 313.63 219.488 313.917C217.989 314.203 216.331 313.949 214.96 313.025C212.186 311.177 211.453 307.418 213.302 304.678C214.227 303.309 215.63 302.417 217.128 302.13C217.861 301.971 218.627 301.971 219.392 302.13L229.659 286.807C228.384 284.832 228.32 282.252 229.723 280.181C230.616 278.811 232.018 277.919 233.549 277.633ZM233.39 276.9C231.604 277.25 230.074 278.27 229.053 279.767C227.65 281.869 227.523 284.577 228.734 286.775L219.009 301.302C218.34 301.238 217.638 301.27 216.969 301.397C215.183 301.748 213.653 302.767 212.664 304.264C210.592 307.354 211.421 311.591 214.514 313.662C216.012 314.681 217.83 315.032 219.615 314.681C221.401 314.331 222.931 313.311 223.952 311.814C225.355 309.712 225.482 307.004 224.27 304.806L233.995 290.279C234.665 290.343 235.366 290.311 236.036 290.184C237.822 289.833 239.352 288.814 240.341 287.317C242.413 284.227 241.584 279.99 238.491 277.919C236.961 276.9 235.175 276.549 233.39 276.9Z" fill="#82B378"/>
<path d="M237.075 285.121C237.948 283.82 237.599 282.059 236.297 281.188C234.995 280.316 233.232 280.664 232.36 281.965C231.488 283.266 231.836 285.027 233.138 285.899C234.44 286.77 236.203 286.422 237.075 285.121Z" fill="#82B378"/>
<path d="M220.643 309.619C221.516 308.318 221.167 306.557 219.865 305.685C218.563 304.814 216.8 305.162 215.928 306.463C215.056 307.764 215.404 309.525 216.706 310.396C218.008 311.268 219.771 310.92 220.643 309.619Z" fill="#82B378"/>
<path d="M223.346 304.774L233.613 289.451C232.816 289.292 232.05 289.005 231.349 288.527L221.624 303.022C222.325 303.532 222.899 304.105 223.346 304.774Z" fill="#82B378"/>
<path d="M201.504 278.524C198.73 276.677 195 277.41 193.15 280.181C191.779 282.252 191.843 284.832 193.087 286.807L182.82 302.13C180.524 301.716 178.101 302.64 176.698 304.71C174.848 307.482 175.582 311.209 178.356 313.057C181.13 314.904 184.86 314.172 186.71 311.4C188.081 309.329 188.017 306.749 186.773 304.774L197.04 289.451C199.336 289.865 201.759 288.941 203.162 286.871C205.012 284.131 204.247 280.404 201.504 278.524Z" fill="#A8D29F"/>
<path d="M196.977 277.633C198.475 277.346 200.133 277.601 201.504 278.525C204.278 280.372 205.012 284.131 203.162 286.871C202.238 288.241 200.835 289.133 199.336 289.419C198.603 289.579 197.838 289.579 197.072 289.419L186.805 304.742C188.081 306.717 188.144 309.298 186.742 311.368C185.817 312.738 184.414 313.63 182.915 313.917C181.417 314.203 179.759 313.949 178.388 313.025C175.614 311.177 174.88 307.418 176.73 304.678C177.654 303.309 179.057 302.417 180.556 302.13C181.289 301.971 182.054 301.971 182.82 302.13L193.087 286.807C191.811 284.832 191.748 282.252 193.15 280.181C194.043 278.811 195.446 277.919 196.977 277.633ZM196.817 276.9C195.032 277.25 193.501 278.27 192.481 279.767C191.078 281.869 190.95 284.577 192.162 286.775L182.437 301.302C181.767 301.238 181.066 301.27 180.396 301.397C178.611 301.748 177.08 302.767 176.092 304.264C174.019 307.354 174.848 311.591 177.941 313.662C179.44 314.681 181.257 315.032 183.043 314.681C184.828 314.331 186.359 313.311 187.379 311.814C188.782 309.712 188.91 307.004 187.698 304.806L197.423 290.279C198.093 290.343 198.794 290.311 199.464 290.184C201.249 289.833 202.78 288.814 203.768 287.317C205.841 284.227 205.012 279.99 201.919 277.919C200.42 276.9 198.603 276.549 196.817 276.9Z" fill="#82B378"/>
<path d="M200.507 285.135C201.379 283.834 201.031 282.073 199.729 281.202C198.426 280.33 196.664 280.678 195.791 281.979C194.919 283.28 195.267 285.041 196.569 285.913C197.872 286.784 199.634 286.436 200.507 285.135Z" fill="#82B378"/>
<path d="M184.075 309.618C184.947 308.317 184.599 306.556 183.297 305.685C181.995 304.813 180.232 305.161 179.359 306.462C178.487 307.763 178.836 309.524 180.138 310.396C181.44 311.267 183.202 310.919 184.075 309.618Z" fill="#82B378"/>
<path d="M186.773 304.774L197.04 289.451C196.243 289.292 195.478 289.005 194.777 288.527L185.052 303.022C185.753 303.532 186.327 304.105 186.773 304.774Z" fill="#82B378"/>
<path d="M298.308 119.753H306.821C307.586 119.753 308.128 120.486 307.937 121.187L273.565 248.293C272.768 251.288 270.058 253.358 266.933 253.358L190.759 253.517C188.559 253.517 187.347 250.937 188.75 249.249L297.415 120.167C297.638 119.881 297.957 119.753 298.308 119.753Z" fill="#82B378"/>
<path d="M274.968 260.558L311.253 116.154H313.995L278.284 260.558H274.968Z" fill="#82B378"/>
<path d="M487.578 113.669H484.804C483.465 113.669 482.349 114.752 482.349 116.122V260.558H490.002V116.122C490.002 114.752 488.917 113.669 487.578 113.669Z" fill="#82B378"/>
<path d="M423.808 113.669H421.034C419.695 113.669 418.579 114.752 418.579 116.122V260.558H426.231V116.122C426.231 114.752 425.147 113.669 423.808 113.669Z" fill="#82B378"/>
<path d="M356.849 113.669H354.075C352.736 113.669 351.62 114.752 351.62 116.122V260.558H359.272V116.122C359.272 114.752 358.188 113.669 356.849 113.669Z" fill="#82B378"/>
<path d="M484.39 113.669H481.616C480.276 113.669 479.161 114.752 479.161 116.122V260.558H486.813V116.122C486.813 114.752 485.729 113.669 484.39 113.669Z" fill="#A8D29F"/>
<path d="M420.619 113.669H417.845C416.506 113.669 415.39 114.752 415.39 116.122V260.558H423.043V116.122C423.043 114.752 421.959 113.669 420.619 113.669Z" fill="#A8D29F"/>
<path d="M353.66 113.669H350.886C349.547 113.669 348.431 114.752 348.431 116.122V260.558H356.084V116.122C356.084 114.752 355 113.669 353.66 113.669Z" fill="#A8D29F"/>
<path d="M447.18 248.962H294.992C289.89 248.962 285.745 253.103 285.745 258.2V313.662C285.745 318.377 289.316 322.295 293.876 322.836V301.333C293.876 280.213 310.998 263.106 332.138 263.106C345.753 263.106 357.742 270.242 364.501 280.946H375.948C382.708 270.21 394.697 263.074 408.344 263.074C429.483 263.074 446.606 280.181 446.606 301.302V322.932H447.18C452.281 322.932 456.426 318.791 456.426 313.694V258.232C456.426 253.071 452.281 248.962 447.18 248.962Z" fill="#A8D29F"/>
<path d="M446.638 311.496V322.9H447.212C452.313 322.9 456.458 318.759 456.458 313.662V311.496H446.638Z" fill="#82B378"/>
<path d="M285.745 311.496V313.662C285.745 318.377 289.316 322.295 293.876 322.836V311.496H285.745Z" fill="#82B378"/>
<path d="M456.426 258.2V260.558H462.803V258.2C462.803 253.103 458.658 248.962 453.557 248.962H447.18C452.281 248.962 456.426 253.071 456.426 258.2Z" fill="#82B378"/>
<path d="M260.428 153.616V116.122C260.428 114.784 259.344 113.669 257.973 113.669H255.199C253.86 113.669 252.744 114.752 252.744 116.122V162.568L260.428 153.616Z" fill="#82B378"/>
<path d="M257.24 157.344V116.122C257.24 114.784 256.156 113.669 254.785 113.669H252.011C250.671 113.669 249.555 114.752 249.555 116.122V166.295L257.24 157.344Z" fill="#A8D29F"/>
<path d="M644.963 110.483H626.151V100.098C626.151 96.785 628.829 94.1091 632.146 94.1091H639.001C642.317 94.1091 644.995 96.785 644.995 100.098V110.483H644.963Z" fill="#B64C41"/>
<path d="M631.157 104.59C631.157 101.277 633.835 98.6009 637.152 98.6009H644.007C644.294 98.6009 644.549 98.6327 644.804 98.6646C644.166 96.0524 641.807 94.1091 639.001 94.1091H632.146C628.83 94.1091 626.151 96.785 626.151 100.098V110.483H631.157V104.59Z" fill="#D6716B"/>
<path d="M169.619 266.515H163.976L167.929 261.959H173.573L169.619 266.515Z" fill="#F1A34F"/>
<path d="M173.573 261.959H167.929L171.851 257.436H177.463L173.573 261.959Z" fill="#B64C41"/>
<path d="M177.463 257.436H171.851L175.741 252.976L181.353 252.944L177.463 257.436Z" fill="#F1A34F"/>
<path d="M181.353 252.944L175.741 252.976L179.599 248.516H185.179L181.353 252.944Z" fill="#B64C41"/>
<path d="M185.179 248.516H179.599L183.425 244.12L189.005 244.088L185.179 248.516Z" fill="#F1A34F"/>
<path d="M189.005 244.088L183.425 244.12L187.22 239.756L192.8 239.724L189.005 244.088Z" fill="#B64C41"/>
<path d="M192.8 239.724L187.22 239.756L191.014 235.391L196.562 235.359L192.8 239.724Z" fill="#F1A34F"/>
<path d="M196.562 235.359L191.014 235.391L194.745 231.091L200.261 231.059L196.562 235.359Z" fill="#B64C41"/>
<path d="M200.261 231.059L194.745 231.091L198.475 226.822L203.96 226.758L200.261 231.059Z" fill="#F1A34F"/>
<path d="M203.96 226.758L198.475 226.822L202.142 222.585L207.658 222.521L203.96 226.758Z" fill="#B64C41"/>
<path d="M207.658 222.521L202.142 222.585L205.809 218.38L211.293 218.316L207.658 222.521Z" fill="#F1A34F"/>
<path d="M211.293 218.316L205.809 218.38L209.444 214.207L214.896 214.111L211.293 218.316Z" fill="#B64C41"/>
<path d="M214.896 214.111L209.444 214.207L213.047 210.034L218.499 209.97L214.896 214.111Z" fill="#F1A34F"/>
<path d="M218.499 209.97L213.047 210.034L216.618 205.924L222.07 205.861L218.499 209.97Z" fill="#B64C41"/>
<path d="M222.07 205.861L216.618 205.924L220.189 201.847L225.61 201.751L222.07 205.861Z" fill="#F1A34F"/>
<path d="M225.61 201.751L220.189 201.847L223.696 197.769L229.117 197.705L225.61 201.751Z" fill="#B64C41"/>
<path d="M545.067 228.701H486.813V224.879H545.067C546.119 224.879 546.98 225.739 546.98 226.79C546.98 227.841 546.119 228.701 545.067 228.701Z" fill="#82B378"/>
<path d="M481.297 228.701H423.043V224.879H481.297C482.349 224.879 483.21 225.739 483.21 226.79C483.21 227.841 482.349 228.701 481.297 228.701Z" fill="#82B378"/>
<path d="M414.338 228.701H356.084V224.879H414.338C415.39 224.879 416.251 225.739 416.251 226.79C416.251 227.841 415.39 228.701 414.338 228.701Z" fill="#82B378"/>
<path d="M350.568 228.701H284.342L285.299 224.879H350.568C351.62 224.879 352.481 225.739 352.481 226.79C352.481 227.841 351.62 228.701 350.568 228.701Z" fill="#82B378"/>
<path d="M545.067 196.845H486.813V193.022H545.067C546.119 193.022 546.98 193.883 546.98 194.934C546.98 195.985 546.119 196.845 545.067 196.845Z" fill="#82B378"/>
<path d="M481.297 196.845H423.043V193.022H481.297C482.349 193.022 483.21 193.883 483.21 194.934C483.21 195.985 482.349 196.845 481.297 196.845Z" fill="#82B378"/>
<path d="M414.338 196.845H356.084V193.022H414.338C415.39 193.022 416.251 193.883 416.251 194.934C416.251 195.985 415.39 196.845 414.338 196.845Z" fill="#82B378"/>
<path d="M350.568 196.845H291.676L292.632 193.022H350.568C351.62 193.022 352.481 193.883 352.481 194.934C352.481 195.985 351.62 196.845 350.568 196.845Z" fill="#82B378"/>
<path d="M545.067 164.989H486.813V161.166H545.067C546.119 161.166 546.98 162.026 546.98 163.078C546.98 164.129 546.119 164.989 545.067 164.989Z" fill="#82B378"/>
<path d="M481.297 164.989H423.043V161.166H481.297C482.349 161.166 483.21 162.026 483.21 163.078C483.21 164.129 482.349 164.989 481.297 164.989Z" fill="#82B378"/>
<path d="M414.338 164.989H356.084V161.166H414.338C415.39 161.166 416.251 162.026 416.251 163.078C416.251 164.129 415.39 164.989 414.338 164.989Z" fill="#82B378"/>
<path d="M350.568 164.989H299.328L300.285 161.166H350.568C351.62 161.166 352.481 162.026 352.481 163.078C352.481 164.129 351.62 164.989 350.568 164.989Z" fill="#82B378"/>
<path d="M545.067 133.133H486.813V129.31H545.067C546.119 129.31 546.98 130.17 546.98 131.222C546.98 132.273 546.119 133.133 545.067 133.133Z" fill="#82B378"/>
<path d="M481.297 133.133H423.043V129.31H481.297C482.349 129.31 483.21 130.17 483.21 131.222C483.21 132.273 482.349 133.133 481.297 133.133Z" fill="#82B378"/>
<path d="M414.338 133.133H356.084V129.31H414.338C415.39 129.31 416.251 130.17 416.251 131.222C416.251 132.273 415.39 133.133 414.338 133.133Z" fill="#82B378"/>
<path d="M350.568 133.133H307.778L308.734 129.31H350.568C351.62 129.31 352.481 130.17 352.481 131.222C352.481 132.273 351.62 133.133 350.568 133.133Z" fill="#82B378"/>
<path d="M706.948 216.023H704.302C703.058 216.023 702.07 215.035 702.07 213.793V207.836C702.07 206.593 703.058 205.606 704.302 205.606H706.948C708.192 205.606 709.18 206.593 709.18 207.836V213.793C709.18 215.035 708.16 216.023 706.948 216.023Z" fill="#F1A34F"/>
<path d="M553.931 311.496H475.494C471.891 311.496 468.957 308.565 468.957 304.965V281.774C468.957 278.174 471.891 275.243 475.494 275.243H553.931C557.534 275.243 560.468 278.174 560.468 281.774V304.965C560.468 308.565 557.566 311.496 553.931 311.496Z" fill="#A8D29F"/>
<path d="M468.957 304.933C468.957 308.565 471.891 311.496 475.494 311.496H553.931C557.534 311.496 560.468 308.565 560.468 304.965V304.933H468.957Z" fill="#82B378"/>
<path d="M492.52 304.933H488.471V275.18C488.471 274.638 488.886 274.224 489.428 274.224H491.564C492.106 274.224 492.52 274.638 492.52 275.18V304.933Z" fill="#82B378"/>
<path d="M543.537 304.933H539.487V275.18C539.487 274.638 539.902 274.224 540.444 274.224H542.58C543.122 274.224 543.537 274.638 543.537 275.18V304.933Z" fill="#82B378"/>
<path d="M491.245 304.933H487.196V275.18C487.196 274.638 487.61 274.224 488.152 274.224H490.289C490.831 274.224 491.245 274.638 491.245 275.18V304.933Z" fill="#A8D29F"/>
<path d="M542.261 304.933H538.212V275.18C538.212 274.638 538.626 274.224 539.168 274.224H541.305C541.847 274.224 542.261 274.638 542.261 275.18V304.933Z" fill="#A8D29F"/>
<path d="M480.213 287.954H478.108C475.749 287.954 473.868 289.993 473.868 292.509C473.868 295.026 475.781 297.065 478.108 297.065H480.213C482.572 297.065 484.453 295.026 484.453 292.509C484.453 289.993 482.572 287.954 480.213 287.954Z" fill="#82B378"/>
<path d="M477.662 296.619C479.388 296.619 480.787 294.793 480.787 292.541C480.787 290.289 479.388 288.464 477.662 288.464C475.936 288.464 474.537 290.289 474.537 292.541C474.537 294.793 475.936 296.619 477.662 296.619Z" fill="#A8D29F"/>
<path d="M585.721 322.9H572.839C570.225 322.9 568.12 320.798 568.12 318.185H590.44C590.44 320.798 588.335 322.9 585.721 322.9Z" fill="#82B378"/>
<path d="M152.879 316.178H150.392C147.045 316.178 144.334 320.638 144.334 326.181C144.334 331.724 147.045 336.184 150.392 336.184H152.879C156.227 336.184 158.938 331.724 158.938 326.181C158.938 320.638 156.227 316.178 152.879 316.178Z" fill="#233862"/>
<path d="M145.833 329.909H112.29C108.814 329.909 105.913 327.201 105.721 323.697L99.695 223.859H158.428L152.369 323.697C152.178 327.169 149.308 329.909 145.833 329.909Z" fill="#AA3E39"/>
<path d="M155.398 329.909H121.855C118.38 329.909 115.287 329.399 115.287 323.697L109.261 223.859H167.993L161.935 323.697C161.935 329.909 158.874 329.909 155.398 329.909Z" fill="#B84C42"/>
<path d="M155.972 216.373H100.747C98.6109 216.373 96.8891 218.093 96.8891 220.228V223.859H159.862V220.228C159.83 218.093 158.109 216.373 155.972 216.373Z" fill="#233862"/>
<path d="M167.451 216.373H112.226C110.09 216.373 108.368 218.093 108.368 220.228V223.859H171.341V220.228C171.309 218.093 169.587 216.373 167.451 216.373Z" fill="#2B478B"/>
<path d="M108.24 316.178H105.753C102.405 316.178 99.695 320.638 99.695 326.181C99.695 331.724 102.405 336.184 105.753 336.184H108.24C111.588 336.184 114.298 331.724 114.298 326.181C114.298 320.638 111.588 316.178 108.24 316.178Z" fill="#2B478B"/>
<path d="M105.753 333.476C108.201 333.476 110.185 330.196 110.185 326.149C110.185 322.103 108.201 318.822 105.753 318.822C103.305 318.822 101.321 322.103 101.321 326.149C101.321 330.196 103.305 333.476 105.753 333.476Z" fill="#233862"/>
<path d="M103.394 225.516C103.394 225.516 107.985 226.886 110.982 226.121C113.98 225.357 118.985 227.013 119.783 228.128C120.548 229.243 120.229 229.657 118.762 229.976C117.296 230.294 112.035 232.301 108.687 230.868C105.339 229.466 100.907 229.243 100.907 229.243L103.394 225.516Z" fill="#E49963"/>
<path d="M186.582 268.267L178.515 266.164L165.729 272.95L156.1 290.12L160.022 301.302L152.21 312.483L151.955 331.47L148.798 336.152H200.101L208.965 320.798L210.018 296.619L204.023 271.644L193.342 266.706L186.582 268.267Z" fill="#699FF0"/>
<path d="M186.04 266.674L184.127 260.526C183.967 260.048 183.521 259.729 183.043 259.761C181.321 259.857 177.559 260.08 177.559 260.43C177.527 260.876 186.04 266.674 186.04 266.674Z" fill="#4A75CB"/>
<path d="M187.092 266.929L187.379 262.692C187.411 262.15 187.953 261.768 188.495 261.896L190.217 262.373C191.492 262.724 191.684 264.476 190.504 265.081L187.092 266.929Z" fill="#4A75CB"/>
<path d="M184.478 267.024C184.605 266.77 184.765 266.515 184.86 266.324C185.02 266.037 185.339 265.846 185.689 265.846L188.145 265.814C188.463 265.814 188.718 265.941 188.91 266.196L189.292 266.706C189.452 266.897 189.516 267.184 189.484 267.439L189.42 267.821C189.356 268.299 188.91 268.649 188.431 268.617L185.275 268.458C184.541 268.394 184.127 267.662 184.478 267.024Z" fill="#4A75CB"/>
<path d="M165.729 272.95L170.831 286.329C171.118 287.094 172.202 287.126 172.521 286.393L174.593 281.838C174.944 281.073 174.721 280.149 174.083 279.639L165.729 272.95Z" fill="#4A75CB"/>
<path d="M160.436 301.843C160.436 301.843 166.686 309.457 165.474 310.667C164.262 311.878 153.007 312.515 153.007 312.515L160.436 301.843Z" fill="#4A75CB"/>
<path d="M208.966 320.798C208.966 320.798 185.753 328.507 187.029 331.278C188.304 334.05 200.133 336.152 200.133 336.152L208.966 320.798Z" fill="#4A75CB"/>
<path d="M181.385 294.93L206.16 297.766C206.957 297.861 207.116 298.976 206.351 299.263L192.162 304.519C191.237 304.87 190.185 304.647 189.452 303.978L180.811 296.141C180.301 295.695 180.683 294.867 181.385 294.93Z" fill="#4A75CB"/>
<path d="M184.031 269.446L178.196 270.943C177.208 271.198 176.761 272.313 177.303 273.173L178.005 274.256C178.419 274.893 179.312 274.957 179.791 274.383L184.031 269.446Z" fill="#4A75CB"/>
<path d="M187.092 269.286L192.927 268.267C193.31 268.203 193.692 268.299 194.011 268.522L196.339 270.21C196.785 270.529 196.467 271.198 195.956 271.102L187.092 269.286Z" fill="#4A75CB"/>
<path d="M20.7154 183.434L29.7708 217.966L22.7242 221.852L8.05697 190.188C6.62213 187.607 6.36706 184.422 7.70623 181.809C8.66279 179.93 10.1933 178.433 12.1064 178.018L12.2339 177.987C16.092 177.126 19.8864 179.579 20.7154 183.434Z" fill="#1FACEC"/>
<path d="M30.3447 159.797L9.17299 179.707L17.1762 192.736L40.3567 171.679C43.4496 169.131 47.2758 162.855 43.8322 158.968C43.8322 158.968 38.1247 152.661 30.3447 159.797Z" fill="#1FACEC"/>
<path d="M15.1036 227.268C13.8282 233.416 13.5093 269.191 16.6341 276.04C17.0167 281.264 31.5882 283.303 33.1506 276.995L34.8086 232.492C35.1275 229.689 15.1036 227.268 15.1036 227.268Z" fill="#1FACEC"/>
<path d="M2.15822 328.826C5.44239 327.742 12.9354 325.449 17.3037 329.24C20.8429 332.298 24.7967 332.68 26.2634 333.986C28.3997 335.866 27.475 338 27.475 338H0.819043V336.025C0.787157 329.367 1.58429 329.017 2.15822 328.826Z" fill="#2E2E2D"/>
<path d="M0.946564 332.043C1.90312 316.147 5.72934 296.714 15.0717 270.815C18.2283 263.425 19.2487 260.239 25.7214 263.265L25.9127 263.297C31.3013 264.38 34.2985 271.325 33.1187 276.932L17.495 329.208C11.6281 330.769 7.3236 333.604 0.946564 332.043Z" fill="#1FACEC"/>
<path d="M37.9653 328.826C41.2495 327.742 48.7425 325.449 53.1108 329.24C56.65 332.298 62.0705 332.68 63.5691 333.986C65.7054 335.866 64.7807 338 64.7807 338H36.658V336.025C36.5942 329.367 37.3914 329.017 37.9653 328.826Z" fill="#2E2E2D"/>
<path d="M97.8775 218.476C98.2921 220.132 98.5153 220.387 99.8225 221.088C102.086 222.33 102.852 222.649 105.307 223.859C103.936 224.688 103.298 225.93 101.736 226.153C100.11 226.408 98.4515 225.962 96.8572 225.516C95.0717 225.038 93.2542 224.528 91.6918 223.573C89.8744 222.458 88.4714 220.801 87.1322 219.145C86.8772 218.858 86.6221 218.539 86.5902 218.157C86.5583 217.743 86.7815 217.361 87.0047 217.01C88.3758 215.163 90.5758 214.111 92.7759 213.474C94.0194 213.092 95.3586 212.805 96.6659 213.092C99.6312 213.729 101.959 216.66 104.829 217.616C105.339 217.775 105.944 217.934 106.2 218.412C106.423 218.858 106.231 219.431 105.849 219.75C105.466 220.069 104.956 220.164 104.446 220.132C103.394 220.069 102.469 219.527 101.512 219.113C100.524 218.667 98.866 218.125 97.8775 218.476Z" fill="#FFC081"/>
<path d="M50.8469 162.982L37.9653 157.535L43.6727 145.206L55.4065 148.743L50.8469 162.982Z" fill="#FFC081"/>
<path d="M59.711 160.274C58.7863 161.039 57.6703 161.453 56.3949 161.039L53.6528 160.147C52.7919 159.797 51.8672 159.128 51.0063 158.268C48.7106 155.878 46.9888 151.864 48.328 147.723C48.2642 147.723 48.2323 147.691 48.1685 147.659H48.1366C46.1279 146.959 42.3017 148.042 42.6843 145.971C43.0988 143.709 41.6321 139.791 42.2379 136.828C46.3511 124.054 54.131 127.08 58.9138 128.482C62.7082 129.756 65.8967 132.687 66.7895 137.211C67.0445 138.549 67.1083 140.046 66.9489 141.67C66.8532 142.531 66.6938 143.391 66.4706 144.315C65.9286 145.079 65.3865 145.652 65.3865 145.652L65.4822 146.417L65.9286 149.826C66.0242 150.686 65.2909 151.418 64.3981 151.387H63.0589C62.8038 152.247 61.7197 157.153 61.7197 157.153C61.4328 158.236 60.6994 159.478 59.711 160.274Z" fill="#FFC081"/>
<path d="M42.1422 149.061C50.3048 153.457 48.2961 142.085 48.2961 142.085C48.2961 142.085 49.3483 145.78 49.7947 146.863C51.2295 147.245 51.2295 147.245 52.5368 147.532C56.2036 136.733 55.5021 131.19 66.8533 137.211C66.5344 131.954 62.2299 126.666 58.1486 126.571C51.4208 126.411 45.0119 126.73 42.5886 133.006C41.1538 136.637 40.1972 138.644 42.1422 149.061Z" fill="#0C0C0C"/>
<path d="M46.5424 142.499C45.9685 144.506 47.0207 147.341 48.328 147.723C49.6353 148.105 49.986 146.417 50.5599 144.41C50.9426 143.072 51.8353 141.256 50.4962 140.428C49.3802 139.695 47.4033 139.536 46.5424 142.499Z" fill="#FFC081"/>
<path d="M67.0764 139.823L56.8732 138.612L46.8612 137.434L46.5424 137.402L46.1279 137.37L41.3132 136.796L42.5568 131.922C43.6727 128.195 47.7859 125.265 51.7078 125.36L57.9573 125.488C63.4415 125.615 67.2359 130.489 67.2359 135.968C67.2359 136.128 67.2359 136.287 67.2359 136.446L67.1721 137.72L67.0764 139.823Z" fill="#1FACEC"/>
<path d="M77.4072 141.097C75.9086 142.658 73.9636 142.977 71.4447 142.626C69.8504 142.435 68.0011 141.957 65.8648 141.384C63.6328 140.778 57.2239 138.74 56.9051 138.644C60.2211 137.848 63.3777 137.402 67.1721 137.752C67.1721 137.752 69.404 138.389 71.7636 139.154C74.5057 139.95 77.4391 140.906 77.4072 141.097Z" fill="#1FACEC"/>
<path opacity="0.1" d="M65.4503 145.653L65.546 146.417C58.7544 144.346 52.5687 140.428 46.1279 137.37L46.5424 137.402L46.7975 137.497C46.8294 137.465 46.8294 137.434 46.8613 137.434L56.8732 138.612C57.192 138.708 63.601 140.747 65.8329 141.352C66.2155 141.447 66.5982 141.543 66.9489 141.639C66.8533 142.467 66.6938 143.359 66.4706 144.283C65.9605 145.079 65.4503 145.653 65.4503 145.653Z" fill="#020202"/>
<path opacity="0.1" d="M59.711 160.275C58.7863 161.039 57.6703 161.453 56.3949 161.039L53.6528 160.147C52.7919 159.797 51.8673 159.128 51.0064 158.268C50.56 156.898 50.5281 155.464 50.7194 154.031C50.9107 152.565 51.3571 151.132 51.8035 149.73C51.5484 151.036 51.7716 152.374 52.2818 153.585C52.76 154.795 53.5253 155.878 54.3862 156.898C55.2471 157.885 56.2036 158.809 57.3515 159.446C58.053 159.86 58.882 160.147 59.711 160.275Z" fill="#020202"/>
<path d="M15.7094 216.15C22.2459 219.814 28.9737 222.33 36.0841 222.171C38.316 222.139 40.5799 221.821 42.9075 221.215C45.1714 216.883 49.0932 203.917 51.2295 196.431C52.1542 193.246 52.76 191.048 52.76 190.984C55.9485 176.521 50.6556 162.95 50.6556 162.95L49.6353 162.377V161.326C49.6672 159.605 48.7744 158.013 47.3714 157.025L40.0378 152.279L38.4436 155.432C17.1762 159.159 16.8254 203.471 15.7094 216.15Z" fill="#1FACEC"/>
<path d="M20.556 239.118C20.5879 239.341 20.6197 239.564 20.6516 239.819C21.7676 246.955 30.9505 269.286 35.7652 274.734C37.6464 279.64 53.1107 275.881 52.76 269.382L51.5484 264.922C51.5165 264.858 51.5165 264.858 51.4846 264.795L42.9075 233.735L41.7915 229.689C41.6321 228.797 39.4958 229.434 36.6261 230.677C30.3447 233.384 20.556 239.118 20.556 239.118Z" fill="#1FACEC"/>
<path d="M36.4986 332.871C32.7999 317.357 34.4579 295.536 35.7652 274.765C35.255 269.031 36.6261 262.373 42.1104 261.832L42.3017 261.8C47.754 261.258 52.6006 265.495 53.1107 271.198L52.1223 328.475C46.8931 331.66 43.035 332.489 36.4986 332.871Z" fill="#1FACEC"/>
<path d="M20.6516 239.819C22.6604 241.348 25.1156 242.336 27.7939 242.495L42.9394 243.451V221.215L37.1044 220.132L15.7413 216.15L15.1355 227.268C14.7529 232.365 16.9848 237.016 20.6516 239.819Z" fill="#1FACEC"/>
<path opacity="0.15" d="M33.4057 226.249C34.4898 227.523 35.5739 229.052 36.6261 230.708C38.7624 234.021 40.835 238.067 42.9075 242.718C45.8091 249.121 48.615 256.607 51.4846 264.794L42.9075 233.735V221.215C45.1714 216.883 49.0932 203.917 51.2295 196.431V188.467L40.0697 174.546C42.78 187.575 42.3973 207.899 37.1044 220.1C36.8174 220.833 36.4667 221.502 36.116 222.139C35.2869 223.732 34.3942 225.102 33.4057 226.249Z" fill="#131312"/>
<path d="M59.6153 197.482L91.2773 214.048L89.428 221.852L56.1079 211.372C53.2383 210.671 50.6875 208.759 49.6671 205.988C48.9019 204.013 48.8381 201.879 49.8266 200.158L49.8903 200.031C51.8672 196.654 56.2355 195.507 59.6153 197.482Z" fill="#1FACEC"/>
<path d="M39.1132 179.388L49.8585 206.402L64.9402 203.758L53.876 174.45C52.6644 170.628 48.2004 164.766 43.322 166.55C43.322 166.582 35.3507 169.545 39.1132 179.388Z" fill="#1FACEC"/>
<path d="M322.509 182.956L288.678 179.739L286.829 187.639L317.885 196.718C320.723 197.706 323.943 197.451 326.335 195.667C328.057 194.392 329.3 192.609 329.396 190.602V190.442C329.587 186.524 326.494 183.147 322.509 182.956Z" fill="#1FACEC"/>
<path d="M345.817 171.647L327.355 194.647L313.517 187.607L332.967 162.473C335.295 159.128 341.353 154.795 345.562 157.949C345.562 157.949 352.417 163.205 345.817 171.647Z" fill="#1FACEC"/>
<path d="M309.659 220.897L308.415 214.494L308.67 212.296L309.499 205.064L306.885 194.902L308.511 182.192L305.96 170.341C298.658 160.434 294.003 155.974 291.644 154.063L280.58 154.158C277.327 157.822 275.701 159.988 273.501 162.887C272.162 164.671 270.6 166.71 268.336 169.481L264.541 181.363L266.582 195.062L263.075 208.154L264.127 215.641L262.309 221.343L309.659 220.897Z" fill="#474746"/>
<path d="M277.008 140.078L280.58 154.126L291.644 154.031L294.992 139.918L277.008 140.078Z" fill="#474746"/>
<path d="M279.687 138.549L290.655 138.453L288.678 154.063L281.951 154.126L279.687 138.549Z" fill="#474746"/>
<path d="M262.341 221.311L297.861 220.992L288.168 213.697L272.736 211.595L274.043 206.625L268.559 206.37L273.278 198.183L271.397 191.111L280.675 194.807L273.979 185.154L268.91 181.905L276.179 177.445L269.707 171.201L273.565 162.823C272.226 164.607 270.663 166.646 268.4 169.417L264.605 181.3L266.646 194.998L263.138 208.091L264.191 215.577L262.341 221.311Z" fill="#2E2E2D"/>
<path d="M299.456 164.894L301.911 170.787L298.722 176.457L302.804 173.654L305.418 181.459L303.792 189.678L299.519 196.336L302.198 198.725L307.586 208.664L308.702 212.264L309.531 205.032L306.917 194.87L308.543 182.16L305.992 170.309C298.69 160.402 295.183 156.898 292.824 154.986L292.026 152.533L295.024 139.887L289.731 154.572L296.076 164.925L299.456 164.894Z" fill="#2E2E2D"/>
<path d="M279.719 155.114L292.792 154.986L291.995 152.565L280.229 152.661L279.719 155.114Z" fill="#2E2E2D"/>
<path d="M277.008 140.078L280.58 154.126L283.354 153.871L280.197 140.046L277.008 140.078Z" fill="#2E2E2D"/>
<path d="M290.879 188.945C290.942 188.435 290.974 187.958 291.07 187.48C289.348 185.919 287.467 183.466 286.829 182C286.542 181.363 285.841 180.599 284.948 181.045C284.948 181.045 284.948 181.045 284.916 181.045C283.672 181.491 284.246 183.052 284.501 183.752C285.044 185.218 288.232 189.487 290.336 191.525C290.528 190.697 290.783 189.837 290.879 188.945Z" fill="#FFC081"/>
<path d="M283.959 186.46C284.119 185.728 283.672 185.027 282.971 184.899L274.33 183.147C273.629 182.988 272.927 183.434 272.768 184.135V184.167C272.608 184.867 273.055 185.568 273.756 185.696L282.397 187.448C283.099 187.607 283.8 187.161 283.959 186.46Z" fill="#FFC081"/>
<path d="M284.087 188.754C284.119 188.021 283.577 187.384 282.875 187.352L272.226 186.556C271.492 186.524 270.887 187.066 270.855 187.766V187.798C270.823 188.499 271.365 189.136 272.066 189.168L282.716 189.964C283.417 190.028 284.023 189.487 284.087 188.754Z" fill="#FFC081"/>
<path d="M283.864 191.079C283.832 190.347 283.226 189.773 282.493 189.805L272.608 190.156C271.875 190.187 271.333 190.793 271.365 191.525V191.557C271.397 192.29 272.003 192.831 272.736 192.8L282.62 192.449C283.354 192.385 283.896 191.78 283.864 191.079Z" fill="#FFC081"/>
<path d="M283.609 193.341C283.513 192.672 282.907 192.258 282.301 192.354L274.139 193.501C273.501 193.596 273.087 194.17 273.182 194.807V194.838C273.278 195.476 273.852 195.89 274.49 195.794L282.652 194.647C283.258 194.552 283.704 193.978 283.609 193.341Z" fill="#FFC081"/>
<path d="M282.238 184.74L284.852 185.313L287.913 185.982C289.986 186.428 292.409 187.83 291.963 189.901L291.931 191.685C291.484 193.755 289.412 195.794 286.765 195.762L282.684 195.285L280.867 194.902C280.229 194.775 279.846 194.17 279.974 193.532V193.501C280.101 192.863 280.707 192.481 281.345 192.609L280.93 192.513C280.229 192.354 279.783 191.685 279.942 190.952V190.92C280.101 190.219 280.771 189.773 281.504 189.933L281.122 189.837C280.42 189.678 279.974 189.009 280.133 188.276V188.244C280.293 187.543 280.962 187.097 281.696 187.257C280.994 187.097 280.548 186.428 280.707 185.696V185.664C280.867 185.027 281.536 184.581 282.238 184.74Z" fill="#FFC081"/>
<path d="M350.376 225.197C351.652 231.441 352.002 267.725 348.814 274.67C348.431 279.958 333.637 282.029 332.074 275.626L330.384 230.486C330.066 227.65 350.376 225.197 350.376 225.197Z" fill="#1FACEC"/>
<path d="M363.545 328.22C360.197 327.105 352.608 324.812 348.176 328.634C344.573 331.756 340.588 332.138 339.057 333.445C336.889 335.356 337.814 337.49 337.814 337.49H364.852V335.483C364.916 328.762 364.087 328.411 363.545 328.22Z" fill="#2E2E2D"/>
<path d="M364.757 331.501C363.8 315.35 359.91 295.663 350.408 269.382C347.22 261.896 346.167 258.646 339.599 261.736L339.408 261.768C333.955 262.851 330.894 269.891 332.074 275.626L347.921 328.666C353.916 330.195 358.284 333.062 364.757 331.501Z" fill="#1FACEC"/>
<path d="M327.196 328.22C323.848 327.105 316.259 324.812 311.827 328.634C308.224 331.756 302.74 332.138 301.209 333.445C299.041 335.356 299.966 337.49 299.966 337.49H328.503V335.483C328.567 328.762 327.77 328.411 327.196 328.22Z" fill="#2E2E2D"/>
<path d="M338.356 155.496L352.544 155.592L352.194 141.83L339.854 140.396L338.356 155.496Z" fill="#FFC081"/>
<path d="M331.181 149.443C331.723 150.526 332.616 151.355 333.955 151.482L336.889 151.737C337.845 151.737 338.961 151.514 340.109 151.036C343.202 149.73 346.454 146.672 346.837 142.276C346.901 142.276 346.933 142.276 346.996 142.276H347.028C349.197 142.435 352.321 144.952 352.768 142.913C353.278 140.651 356.211 137.561 356.849 134.567C358.156 120.996 349.675 120.709 344.669 120.072C340.588 119.753 336.474 121.187 333.828 125.042C333.031 126.188 332.393 127.558 331.883 129.151C331.628 129.979 331.436 130.839 331.277 131.795C331.468 132.719 331.723 133.483 331.723 133.483L331.309 134.152L329.523 137.115C329.109 137.88 329.491 138.867 330.32 139.186L331.564 139.695C331.468 140.587 330.512 145.621 330.512 145.621C330.416 146.831 330.576 148.297 331.181 149.443Z" fill="#FFC081"/>
<path d="M352.066 146.035C342.692 146.863 349.133 137.083 349.133 137.083C349.133 137.083 346.646 140.11 345.817 140.938C344.318 140.747 344.318 140.747 343.011 140.46C343.936 128.928 346.837 124.054 333.828 125.105C336.219 120.327 342.373 117.141 346.231 118.67C352.576 121.219 358.411 124.086 358.124 130.903C357.965 134.853 358.093 137.083 352.066 146.035Z" fill="#0C0C0C"/>
<path d="M350.599 138.166C350.313 140.269 348.208 142.499 346.837 142.308C345.466 142.117 345.817 140.428 346.072 138.326C346.231 136.924 346.136 134.885 347.73 134.63C349.101 134.407 350.982 135.044 350.599 138.166Z" fill="#FFC081"/>
<path d="M332.521 127.399L342.501 130.362L352.289 133.292L352.608 133.388L353.023 133.515L357.742 134.917L358.539 129.884C358.985 125.965 356.339 121.569 352.672 120.072L346.805 117.683C341.64 115.58 336.156 118.607 333.955 123.704C333.892 123.863 333.828 124.022 333.764 124.181L333.286 125.392L332.521 127.399Z" fill="#1FACEC"/>
<path d="M322.413 124.436C323.178 126.507 324.868 127.558 327.355 128.259C328.918 128.705 330.831 129.024 333.031 129.342C335.358 129.693 342.15 130.362 342.501 130.362C339.727 128.291 336.984 126.603 333.286 125.392C333.286 125.392 330.958 125.105 328.439 124.85C325.57 124.564 322.445 124.277 322.413 124.436Z" fill="#1FACEC"/>
<path opacity="0.1" d="M331.723 133.515L331.309 134.184C338.451 134.981 345.785 133.834 353.023 133.547L352.608 133.42H352.321C352.321 133.388 352.289 133.356 352.289 133.324L342.501 130.393C342.15 130.362 335.39 129.693 333.031 129.374C332.616 129.31 332.234 129.247 331.883 129.183C331.628 130.011 331.436 130.871 331.277 131.827C331.468 132.751 331.723 133.515 331.723 133.515Z" fill="#020202"/>
<path opacity="0.1" d="M331.181 149.443C331.724 150.527 332.616 151.355 333.955 151.482L336.889 151.737C337.845 151.737 338.961 151.514 340.109 151.036C341.098 149.953 341.703 148.615 342.086 147.213C342.501 145.78 342.66 144.251 342.819 142.785C342.532 144.092 341.767 145.27 340.843 146.194C339.886 147.118 338.738 147.851 337.558 148.424C336.379 148.997 335.103 149.475 333.796 149.635C332.903 149.698 332.01 149.635 331.181 149.443Z" fill="#020202"/>
<path d="M322.158 219.081C322.222 219.145 322.317 219.208 322.413 219.24C323.21 219.845 323.975 220.355 324.773 220.737C332.234 224.337 340.843 220.1 349.707 219.177C353.756 206.944 371.261 165.467 352.959 153.521L352.736 149.921L343.967 151.419C342.277 151.737 340.811 152.884 340.141 154.509L339.727 155.464L338.547 155.592C338.547 155.592 328.216 166.072 325.315 180.79C325.315 180.822 325.283 180.885 325.283 180.885C325.251 181.045 323.178 198.916 322.381 210.575C322.158 214.271 322.03 217.361 322.158 219.081Z" fill="#1FACEC"/>
<path d="M312.178 267.948C312.05 270.688 314.697 272.95 317.981 274.288C322.541 276.167 328.344 276.263 329.46 273.364C334.338 267.821 343.617 245.139 344.796 237.94C344.828 237.685 344.86 237.462 344.892 237.239C344.892 237.239 331.787 229.593 326.016 227.682C324.454 227.172 323.433 227.077 323.306 227.682L322.158 231.792L312.242 267.662C312.242 267.757 312.21 267.853 312.178 267.948Z" fill="#1FACEC"/>
<path d="M311.859 269.796L312.879 327.902C315.143 329.303 317.184 330.259 319.288 330.864C322.03 331.756 324.932 332.107 328.694 332.33C332.457 316.593 330.735 294.453 329.46 273.364C329.97 267.534 328.567 260.781 323.051 260.271H322.827C321.52 260.144 320.277 260.271 319.065 260.621C315.845 261.609 313.262 264.221 312.273 267.662C312.242 267.757 312.21 267.885 312.178 267.948C312.018 268.522 311.891 269.159 311.859 269.796Z" fill="#1FACEC"/>
<path d="M322.158 219.081V241.667L323.433 241.571L337.527 240.648C340.269 240.488 342.724 239.501 344.796 237.94C348.495 235.073 350.759 230.358 350.376 225.197L349.77 213.952L325.538 218.444L322.413 219.017L322.158 219.081Z" fill="#1FACEC"/>
<path opacity="0.15" d="M311.859 269.796L312.879 327.902C315.143 329.303 317.184 330.259 319.288 330.864C316.068 323.92 315.079 288.591 317.981 274.288C318.332 272.536 318.746 271.102 319.224 270.083C318.204 268.235 318.332 264.858 319.065 260.621C319.958 255.174 321.807 248.357 323.433 241.571C324.581 236.729 325.57 231.919 325.984 227.682C326.335 224.082 326.271 220.897 325.538 218.476V218.444C328.025 211.308 331.787 205.765 338.356 203.631C336.984 195.444 340.587 184.772 345.976 173.24L329.428 174.992C328.12 176.808 326.686 178.464 325.474 180.439C325.41 180.535 325.378 180.631 325.315 180.726C325.315 180.758 325.283 180.822 325.283 180.822C325.251 180.981 323.178 198.852 322.381 210.512V224.656L322.126 225.134V231.728L312.21 267.598C312.178 267.694 312.146 267.821 312.114 267.885C312.018 268.522 311.891 269.159 311.859 269.796Z" fill="#131312"/>
<path d="M325.028 186.333L291.07 187.48L290.241 195.571L322.19 200.604C325.123 201.21 328.28 200.541 330.448 198.47C332.01 197.005 332.999 195.061 332.839 193.054V192.895C332.489 188.945 328.981 185.982 325.028 186.333Z" fill="#1FACEC"/>
<path d="M346.678 172.125L331.309 197.291L316.674 192.067L332.744 164.671C334.625 161.071 340.077 155.974 344.669 158.554C344.669 158.554 352.13 162.919 346.678 172.125Z" fill="#1FACEC"/>
</svg>
