<svg width="500" height="452" viewBox="0 0 500 452" fill="none" xmlns="http://www.w3.org/2000/svg">
<path opacity="0.1" d="M484.7 329C478 321.2 469.8 314.8 461.1 309.4C451.5 303.4 439.2 300.2 430.7 292.7C421 284 421.4 268.7 424.8 257.1C428.3 245.4 435.4 234.9 443 225.5C457 208 474.3 192.6 483 171.5C490.7 152.6 488 132.3 474.4 116.9C460.3 100.9 439.4 94 418.5 93.6C392.4 93.2 368.7 103.4 343.3 107.4C329.6 109.5 316 108.4 303.9 101.4C293.5 95.5 285.1 86.8 277.1 78C261.8 61.2 246.6 44.5 228.5 30.7C195.6 5.59998 152.3 -9.00002 111.9 6.79998C94.2 13.7 77.2 27.3 70.7 45.8C62.5 69.2 77.7 92.9 89.6 112C102.8 133.2 118.2 157 113.1 183.2C108.9 204.9 90.3 215.7 71.3 223C54.8 229.3 37 234.1 23 245.3C6.89999 258.1 -2.00001 279.3 0.399993 299.8C2.89999 321.6 16.7 340.1 31.8 355.1C46.7 369.9 69.1 388 63.6 411.8C60.9 423.7 51.9 433.4 40.3 437.2C40 437.3 39.9 437.7 40.1 437.9C39.6 437.7 39.1 438.1 39 438.6C38.8 439.2 39 440 39.1 440.5C39.2 440.8 39.3 441.1 39.5 441.4H460.2C462.2 436.8 466.1 433.5 469.7 430C473.7 426.2 477.4 422.1 480.8 417.7C488 408.4 493.9 397.8 497.3 386.5C503.6 365.7 498.7 345.3 484.7 329Z" fill="#63CEFF"/>
<path d="M250 451.8C380.174 451.8 485.7 447.144 485.7 441.4C485.7 435.656 380.174 431 250 431C119.826 431 14.3 435.656 14.3 441.4C14.3 447.144 119.826 451.8 250 451.8Z" fill="#C2BEDB"/>
<path d="M403.3 132.9C399.7 135.6 396.1 137.8 391.9 139.5C389.3 140.5 386.4 141.1 383.9 142.3C381 143.7 379.5 145.6 378.7 148.1C378.6 140.8 378 133.5 377.1 126.2C379.7 128.3 384.6 126.6 387.2 125.1C391.2 122.8 393.8 118.8 393.6 114.1C393.6 113.7 393.1 113.4 392.8 113.7C390.5 115.2 388.1 116.4 385.4 117.2C383.7 117.7 381.9 118 380.3 118.9C378.5 119.9 377.3 121.2 376.9 123.1H376.8C376.1 118.3 375.2 113.5 374.2 108.7C380.1 110.9 385 104.6 383.7 99C383.6 98.6 382.9 98.4 382.7 98.7C380.5 101.6 374.8 102.1 373.6 105.7C373.1 103.7 372.6 101.7 372.1 99.6C372 99.2 371.4 99.4 371.5 99.8C372.4 103.8 373.2 107.9 373.8 111.9C372.9 111 371.7 110.4 370.3 110.2C368.2 109.9 366.7 110.7 364.7 111C362.7 111.3 361.2 109.9 359.3 110.4C358.7 110.6 358.4 111.2 358.5 111.8C359.1 115.1 361.5 118.2 364.7 119.4C368.3 120.7 371.7 118.8 374.6 116.8C375.4 122.6 376 128.4 376.4 134.2C374.1 130.5 369.8 129.6 365.5 128.7C363.5 128.3 362.1 127.6 360.5 126.5C360 126.1 359.6 125.7 359 125.7C356.2 125.7 357.1 129.8 357.5 131.5C357.9 133.4 358.6 135.3 359.6 137C360.9 139.2 363.1 140.7 365.6 141.2C369.5 142 374.3 140.8 376.6 137.3C376.9 143.6 376.9 149.9 376.7 156.1C376.6 156 376.5 155.9 376.4 155.7C375.6 154.3 374 154.1 372.4 154.3C370.8 154.5 369.6 154.6 368 154C367.1 153.7 366.3 153.3 365.4 153.5C365.2 153.6 365.1 153.7 365.1 153.9C364.9 156.8 367.6 159.8 370.2 160.7C372.7 161.5 374.8 160.8 376.5 159.3C376.3 162.1 376.1 164.9 375.8 167.8C374.6 166.3 372.9 165.6 370.8 165.4C368.3 165.2 365.9 165.6 363.4 164.8C360.9 164 358.5 162.8 356 161.9C355.5 161.7 354.9 162.1 355.1 162.6C356.2 166.5 358.1 173.1 362.2 174.9C364.5 175.9 367.4 175.4 369.6 174.4C371.9 173.3 373.4 170.8 375.7 169.9C374.8 177.9 373.3 185.9 371.3 193.8C371.3 194 371.2 194.1 371.2 194.2C370.8 192.5 369.7 190.9 368.1 190C366.5 189.1 364.6 188.7 363 188C361.4 187.2 359.9 186.3 358.2 185.7C357.8 185.6 357.5 185.9 357.4 186.2C356.3 189.9 355.5 196.1 359.8 198.2C362.4 199.5 367.6 199.7 370.3 197.6C368.9 202.6 367.2 207.5 365.3 212.4C364.4 209.8 362.5 207.8 360.1 206C357.5 204.2 354.5 203 352 201C347.8 197.6 346.1 193.1 344.5 188.1C344.3 187.6 343.6 187.5 343.3 188C338.7 195.9 336.4 207.3 342 215.5C346.4 222 357.6 219.5 364 215.7C360.9 223.2 357.2 230.5 353 237.5C350.7 241.4 348.3 245.1 345.7 248.7C346.5 244.1 342.3 241.7 338.5 239.7C334.3 237.4 331.5 234.7 329.4 230.3C327.7 226.8 326.9 222.4 324.6 219.2C324.4 219 324.2 218.8 323.9 218.8C319.6 219.4 316.9 227.3 315.6 230.9C313.8 235.9 314 241.1 316.5 245.8C321.3 254.7 332.5 257.4 341.6 254.3C335.8 262.3 329.6 270.2 323.9 278.4C323.1 279.5 324.9 280.9 325.9 279.8C336.5 267.7 346.3 254.6 354.4 240.7C354.8 250.1 365.2 256.8 374 255.2C383.2 253.6 393.1 242.9 395 234C395.1 233.4 394.6 232.9 394 233.1C390.1 234.3 386.1 235.7 382.1 236.4C376.3 237.5 373.3 235.4 367.9 234.6C363.9 234 360.1 234.5 356.8 236.3C362.4 226.2 367.1 215.7 370.6 204.8C377.5 207.9 385.5 207.7 391.8 203.4C397.8 199.3 404.1 189.7 403.3 182.3C403.2 181.8 402.7 181.4 402.2 181.7C394.8 186.1 386.9 187.1 379.2 190.4C376.8 191.4 374.9 192.8 373.4 194.7C373.5 194.3 373.6 193.9 373.7 193.6C375 188.1 376.1 182.5 376.9 177C386.2 187.3 399.7 177.4 402.1 166.2C402.2 165.6 401.6 165.1 401.1 165.4C397.8 167.6 394.5 169.1 390.5 168.6C388.8 168.4 387.3 168.1 385.6 168.4C382.2 168.9 379.4 170.7 377.4 173.3C378.3 165.8 378.8 158.3 378.8 150.8C378.9 150.9 379 151 379.1 151.1C384.3 153.9 390.6 152.4 395.5 149.3C400.5 146.2 402.8 139 404.5 133.7C404.6 133.1 403.9 132.5 403.3 132.9Z" fill="#A6D89A"/>
<path d="M407.4 187.4C404.3 190.5 400.1 194.8 399.8 199.4C399.5 203.9 400.8 208.9 404.6 211.5C404.7 211.6 404.8 211.6 404.9 211.6C399.6 214.4 394.6 217.5 389.7 220.9C390.8 218.5 391 215.9 390.1 213.4C389.6 212.1 388.9 211.2 388.1 210C386.3 207.4 386.1 204.5 386.5 201.4C386.6 200.9 385.9 200.7 385.6 201C378.7 206.8 376.8 219.9 387.4 222.6C383.8 225.2 380.3 228 377 230.9C376.8 231.1 376.5 231.3 376.3 231.5C377.1 229.8 377.3 227.9 377.1 225.9C376.6 219.3 374.4 213.4 374.7 206.6C374.7 206.1 374.3 205.9 373.9 206.1C368.5 208.3 364.1 216.3 363.4 221.9C362.7 227.9 365.5 233.6 370.2 237.2C363.9 243.7 358.3 250.9 353.3 258.5C353.3 255.5 352.2 252.7 350.4 250.1C347.9 246.6 345.3 245.3 343.9 240.9C342.9 237.8 342.5 234.5 341.8 231.4C341.7 230.9 341.1 230.8 340.8 231.1C335.2 235.7 331.5 246.6 333.8 253.6C336 260.3 344.5 265.1 351.2 261.9C344.5 272.8 338.9 284.4 334.4 296.2C334 297.2 335.6 298 336.1 297C339.7 290 342.9 282.8 346.4 275.8C347.6 283.3 353.6 290.2 361.6 290.2C365.8 290.2 369.5 288.5 372.3 285.4C374.3 283.2 378.8 278.4 377.7 275.2C377.6 275 377.4 274.9 377.2 274.9C374.1 274.5 370.8 275.6 367.7 275.7C363.9 275.8 360.9 274.9 357.8 272.8C355 270.9 351.8 268.9 348.9 271.1C350.5 268 352.2 264.9 354 261.9C357.4 256.4 361.1 251.2 365.2 246.2C365 252.1 367.3 260.8 373.5 261.5C381.2 262.4 388.3 256.6 392.2 250.4C392.4 250 392.1 249.6 391.7 249.6C387.6 250.3 383.9 250.8 379.9 249.1C377.6 248.1 375.7 246.4 373.4 245.3C371.3 244.2 369.2 243.6 367 244C369.7 240.9 372.5 237.9 375.5 235.1C375 237.8 377.1 241.3 379 242.6C382.1 244.8 386.1 242 388.3 239.9C388.5 239.7 388.6 239.3 388.3 239.1C387.3 238.1 386 237.5 384.9 236.6C383.8 235.7 382.8 234.5 381.6 233.8C380.4 233 378.9 232.9 377.5 233.2C377.6 233.1 377.7 233 377.8 232.9C382.5 228.6 387.6 224.6 392.8 221C393 222.9 391.8 224.9 391.9 226.9C392 228.8 392.7 231 394.3 232.2C397.1 234.3 402.4 233.2 405.5 232.6C406 232.5 406 232 405.7 231.7C404.1 230.4 402.4 229.1 400.9 227.7C399.5 226.2 398.8 224.5 397.8 222.8C396.9 221.4 395.8 220.4 394.3 220.1C396.2 218.9 398 217.7 399.9 216.5C399.5 218.2 399.8 220 401.2 221.4C402.8 222.9 405.9 223.7 407.8 222.5C407.9 222.4 408 222.3 408 222.1C407.8 221.4 407.2 220.9 406.7 220.4C405.7 219.5 405.4 218.7 404.9 217.5C404.4 216.3 403.7 215.3 402.4 215.2C402.3 215.2 402.2 215.1 402 215.1C406.3 212.6 410.7 210.3 415.2 208.2C413.6 211.1 414.5 214.9 416.5 217.3C417.8 218.8 419.6 219.8 421.6 219.9C423.1 220 424.7 219.7 426.2 219.3C427.5 219 430.7 218.1 429.7 216.1C429.5 215.7 429.1 215.6 428.6 215.3C427.2 214.6 426.2 213.9 425.2 212.6C423 209.9 420.8 207.3 417.3 207C421.5 205.1 425.8 203.4 430.1 201.8C429.8 204.5 429.7 207.6 431.9 209.6C433.9 211.4 437 211.9 439.5 211.1C440 211 440.3 210.5 440.2 210C439.9 208.4 438.4 207.9 437.8 206.4C437.3 204.9 437.2 203.6 436.3 202.2C435.7 201.3 434.8 200.7 433.8 200.4C436.9 199.4 440 198.4 443.1 197.5C443.4 197.4 443.3 196.9 443 197C441.4 197.4 439.8 197.8 438.2 198.2C440.3 196 438.5 191.9 439.7 189.3C439.9 189 439.5 188.6 439.1 188.7C434.7 189.9 432.1 195.6 435.8 198.9C432.1 199.9 428.4 201.1 424.8 202.4V202.3C425.9 201.3 426.4 200 426.4 198.4C426.4 197 426 195.6 425.7 194.2C425.3 192.1 425.2 189.9 425.4 187.7C425.4 187.4 425.1 187.2 424.8 187.3C421.5 188.9 419.6 192.1 419.5 195.8C419.4 198.1 420 202.2 422.5 203.2C417.1 205.2 411.8 207.5 406.7 210.2C408.2 208.7 408.9 207 408.8 204.5C408.7 202.3 408.1 200.1 407.8 197.9C407.4 194.3 407.6 191 408.2 187.5C408.4 187.4 407.7 187.1 407.4 187.4Z" fill="#A39EC0"/>
<path d="M81.8 237.2C83.5 242.5 85.8 249.7 90.8 252.8C95.6 255.8 102 257.3 107.2 254.6C107.3 254.5 107.4 254.4 107.5 254.3C107.5 261.8 108 269.4 108.9 276.8C106.9 274.2 104.1 272.4 100.7 271.9C98.9 271.6 97.5 271.9 95.8 272.1C91.8 272.6 88.5 271 85.2 268.9C84.7 268.5 84 269.1 84.2 269.7C86.6 280.9 100.1 290.8 109.4 280.5C110.2 286.1 111.2 291.6 112.6 297.1C112.7 297.5 112.8 297.9 112.9 298.2C111.5 296.3 109.5 295 107.1 293.9C99.4 290.6 91.5 289.5 84.1 285.2C83.6 284.9 83.1 285.3 83 285.8C82.3 293.2 88.6 302.9 94.5 306.9C100.8 311.2 108.9 311.5 115.7 308.3C119.2 319.2 123.9 329.7 129.5 339.8C126.1 338 122.3 337.5 118.4 338.1C113 338.9 110 340.9 104.2 339.9C100.2 339.2 96.2 337.7 92.3 336.6C91.7 336.4 91.2 337 91.3 337.5C93.2 346.4 103.1 357.1 112.3 358.7C121.1 360.2 131.6 353.5 131.9 344.2C140.1 358.2 149.9 371.3 160.4 383.3C161.3 384.3 163.1 383 162.4 381.9C156.7 373.7 150.6 365.9 144.7 357.8C153.8 360.9 165 358.3 169.8 349.3C172.3 344.6 172.5 339.4 170.7 334.4C169.4 330.9 166.7 322.9 162.4 322.3C162.1 322.3 161.9 322.5 161.7 322.7C159.4 325.9 158.6 330.3 156.9 333.8C154.8 338.2 152 340.9 147.8 343.2C144 345.3 139.9 347.6 140.6 352.2C138.1 348.5 135.6 344.8 133.3 341C129.1 334 125.5 326.7 122.3 319.2C128.7 323 139.9 325.5 144.3 319C149.9 310.8 147.6 299.5 143 291.5C142.7 291 142 291.1 141.8 291.6C140.2 296.6 138.5 301.1 134.3 304.5C131.8 306.5 128.8 307.7 126.2 309.5C123.7 311.2 121.8 313.3 121 315.9C119.1 311.1 117.4 306.1 116 301.1C118.7 303.2 123.8 303 126.5 301.7C130.8 299.5 130 293.4 128.9 289.7C128.8 289.4 128.4 289.1 128.1 289.2C126.4 289.8 124.9 290.8 123.3 291.5C121.6 292.3 119.7 292.6 118.2 293.5C116.6 294.4 115.5 296 115.1 297.7C115.1 297.6 115 297.4 115 297.3C113 289.4 111.5 281.5 110.6 273.4C112.9 274.3 114.4 276.9 116.7 277.9C118.8 278.9 121.8 279.4 124.1 278.4C128.1 276.6 130 270 131.2 266.1C131.4 265.5 130.8 265.2 130.3 265.4C127.9 266.4 125.4 267.6 122.9 268.3C120.4 269.1 118 268.7 115.5 268.9C113.4 269.1 111.6 269.7 110.5 271.3C110.2 268.5 110 265.7 109.8 262.8C111.5 264.3 113.6 265 116.1 264.2C118.7 263.3 121.4 260.3 121.2 257.4C121.2 257.2 121.1 257 120.9 257C120 256.8 119.1 257.2 118.3 257.5C116.7 258.1 115.6 258 113.9 257.8C112.3 257.6 110.7 257.8 109.9 259.2C109.8 259.3 109.7 259.4 109.6 259.6C109.3 253.3 109.4 247 109.7 240.8C112 244.4 116.8 245.5 120.7 244.7C123.2 244.2 125.3 242.7 126.7 240.5C127.7 238.8 128.4 236.9 128.8 235C129.2 233.4 130.1 229.2 127.3 229.2C126.7 229.2 126.3 229.6 125.8 230C124.2 231.1 122.8 231.8 120.8 232.2C116.5 233.1 112.2 234 109.9 237.7C110.3 231.9 110.9 226.1 111.7 220.3C114.6 222.3 118 224.2 121.6 222.9C124.8 221.7 127.2 218.6 127.8 215.3C127.9 214.7 127.7 214.1 127 213.9C125 213.3 123.6 214.7 121.6 214.5C119.6 214.2 118.1 213.5 116 213.7C114.6 213.9 113.4 214.5 112.5 215.4C113.2 211.3 114 207.3 114.8 203.3C114.9 202.9 114.3 202.7 114.2 203.1C113.7 205.1 113.2 207.1 112.7 209.2C111.5 205.6 105.8 205.2 103.6 202.2C103.3 201.8 102.6 202 102.6 202.5C101.3 208.1 106.2 214.4 112.1 212.2C111.1 217 110.2 221.8 109.5 226.6H109.4C109 224.7 107.7 223.4 106 222.4C104.4 221.5 102.6 221.2 100.9 220.7C98.2 219.9 95.8 218.7 93.5 217.2C93.2 217 92.7 217.3 92.7 217.6C92.5 222.3 95 226.3 99.1 228.6C101.7 230.1 106.6 231.8 109.2 229.7C108.3 237 107.7 244.3 107.6 251.6C106.8 249.1 105.3 247.2 102.4 245.8C99.9 244.6 97 244 94.4 243C90.2 241.4 86.6 239.1 83 236.4C82.3 236 81.6 236.6 81.8 237.2Z" fill="#EFAC3F"/>
<path d="M94.2 303.1C94.8 306.6 95 309.9 94.6 313.5C94.3 315.7 93.7 317.9 93.6 320.1C93.5 322.6 94.3 324.4 95.7 325.8C90.6 323.2 85.3 320.9 79.9 318.8C82.4 317.8 82.9 313.7 82.9 311.4C82.8 307.7 80.9 304.5 77.6 302.9C77.3 302.8 77 303 77 303.3C77.2 305.5 77.2 307.6 76.7 309.7C76.4 311.1 76 312.5 76 313.9C76 315.5 76.5 316.9 77.6 317.8V317.9C74 316.6 70.3 315.5 66.6 314.4C70.3 311.1 67.8 305.4 63.3 304.2C63 304.1 62.6 304.5 62.7 304.8C63.9 307.4 62.2 311.5 64.2 313.7C62.6 313.3 61 312.9 59.4 312.5C59.1 312.4 59 312.9 59.3 313C62.4 313.9 65.5 314.8 68.6 315.8C67.6 316.1 66.8 316.7 66.1 317.6C65.2 318.9 65.1 320.3 64.6 321.8C64 323.3 62.5 323.8 62.2 325.4C62.1 325.9 62.4 326.3 62.9 326.5C65.4 327.3 68.5 326.8 70.5 325C72.7 323 72.7 319.9 72.3 317.2C76.6 318.8 80.9 320.5 85.1 322.4C81.7 322.6 79.4 325.3 77.2 328C76.2 329.2 75.2 329.9 73.8 330.7C73.4 330.9 72.9 331 72.7 331.5C71.7 333.5 74.9 334.3 76.2 334.7C77.7 335.1 79.3 335.4 80.8 335.3C82.8 335.2 84.6 334.2 85.9 332.7C87.9 330.2 88.9 326.5 87.2 323.6C91.7 325.7 96.1 328 100.4 330.5C100.3 330.5 100.2 330.6 100 330.6C98.7 330.6 98 331.7 97.5 332.9C97 334.1 96.7 334.9 95.7 335.8C95.2 336.3 94.6 336.7 94.4 337.5C94.4 337.7 94.5 337.8 94.6 337.9C96.5 339.1 99.7 338.3 101.2 336.8C102.7 335.4 102.9 333.6 102.5 331.9C104.4 333.1 106.3 334.3 108.1 335.5C106.6 335.7 105.5 336.7 104.6 338.2C103.5 339.9 102.9 341.7 101.5 343.1C100.1 344.6 98.3 345.8 96.7 347.1C96.4 347.4 96.4 347.9 96.9 348C100 348.6 105.3 349.7 108.1 347.6C109.6 346.4 110.4 344.2 110.5 342.3C110.6 340.3 109.4 338.3 109.6 336.4C114.9 340 119.9 344 124.6 348.3C124.7 348.4 124.8 348.5 124.9 348.6C123.5 348.3 122.1 348.4 120.8 349.2C119.6 350 118.6 351.2 117.5 352C116.4 352.9 115.1 353.5 114.1 354.5C113.9 354.7 113.9 355.1 114.1 355.3C116.3 357.4 120.3 360.2 123.4 358C125.3 356.6 127.4 353.1 126.9 350.5C129.9 353.4 132.7 356.3 135.4 359.4C133.3 359 131.2 359.6 129 360.7C126.8 361.8 124.8 363.5 122.5 364.5C118.6 366.2 114.8 365.7 110.7 365C110.3 364.9 109.9 365.4 110.2 365.8C114 372 121.1 377.7 128.9 376.9C135.1 376.2 137.4 367.5 137.2 361.6C141.3 366.5 145 371.8 148.4 377.3C150.2 380.3 151.9 383.4 153.5 386.5C150.5 384.2 147.4 386.3 144.6 388.2C141.5 390.3 138.5 391.2 134.7 391.1C131.6 391 128.3 389.9 125.2 390.3C125 390.3 124.8 390.4 124.7 390.6C123.6 393.8 128.1 398.6 130.1 400.8C132.9 403.9 136.6 405.7 140.8 405.6C148.8 405.6 154.8 398.7 156 391.2C159.5 398.2 162.7 405.4 166.3 412.4C166.8 413.4 168.4 412.6 168 411.6C163.5 399.8 158 388.1 151.2 377.3C157.9 380.5 166.4 375.7 168.6 369C170.9 362 167.1 351.1 161.6 346.5C161.3 346.2 160.7 346.4 160.6 346.8C160 349.9 159.5 353.3 158.5 356.3C157.1 360.7 154.6 362.1 152 365.5C150.1 368.1 149.1 370.9 149.1 373.9C144.1 366.3 138.5 359.1 132.2 352.6C136.9 349 139.7 343.3 139 337.3C138.4 331.6 133.9 323.7 128.5 321.5C128.1 321.3 127.7 321.6 127.7 322C128 328.8 125.8 334.7 125.3 341.3C125.1 343.3 125.4 345.2 126.1 346.9C125.9 346.7 125.6 346.5 125.4 346.3C122.1 343.3 118.6 340.6 115 338C125.6 335.3 123.7 322.3 116.8 316.4C116.4 316.1 115.8 316.3 115.9 316.8C116.2 319.9 116.1 322.7 114.3 325.4C113.5 326.5 112.8 327.4 112.3 328.8C111.4 331.4 111.7 334 112.7 336.3C107.8 332.9 102.7 329.8 97.5 327C97.6 327 97.7 326.9 97.8 326.9C101.6 324.3 103 319.3 102.6 314.8C102.3 310.2 98.1 305.9 95 302.8C94.8 302.3 94.1 302.6 94.2 303.1Z" fill="#A6D89A"/>
<path d="M360.9 355.9C360.5 354.3 359.9 352.1 358.4 351C357 350 355.1 349.5 353.5 350.2C353.5 350.2 353.4 350.2 353.4 350.3C353.5 348 353.5 345.7 353.3 343.5C353.9 344.3 354.7 344.9 355.7 345.1C356.2 345.2 356.7 345.1 357.2 345.1C358.4 345 359.4 345.5 360.3 346.2C360.5 346.3 360.7 346.2 360.6 346C360 342.6 356.1 339.4 353.1 342.4C352.9 340.7 352.7 339 352.4 337.3C352.4 337.2 352.3 337.1 352.3 336.9C352.7 337.5 353.3 337.9 354 338.3C356.3 339.4 358.7 339.8 360.8 341.3C360.9 341.4 361.1 341.3 361.1 341.1C361.4 338.9 359.7 335.9 357.9 334.5C356 333.1 353.6 332.9 351.5 333.8C350.6 330.4 349.3 327.2 347.8 324.1C348.8 324.7 349.9 324.9 351.1 324.8C352.7 324.6 353.7 324.1 355.4 324.5C356.6 324.8 357.8 325.3 359 325.7C359.2 325.8 359.3 325.6 359.3 325.4C358.9 322.7 356 319.3 353.2 318.7C350.5 318.1 347.3 320 347 322.8C344.7 318.5 341.9 314.3 338.9 310.5C338.6 310.2 338.1 310.6 338.3 310.9C339.9 313.5 341.7 315.9 343.3 318.4C340.6 317.3 337.1 318 335.6 320.6C334.8 322 334.6 323.6 335.1 325.1C335.4 326.2 336.2 328.6 337.4 328.9C337.5 328.9 337.6 328.9 337.6 328.8C338.3 327.9 338.6 326.5 339.2 325.5C339.9 324.2 340.8 323.4 342.1 322.8C343.3 322.2 344.6 321.6 344.4 320.2C345.1 321.3 345.8 322.5 346.4 323.7C347.6 325.9 348.6 328.1 349.4 330.5C347.5 329.3 344.2 328.4 342.7 330.3C340.9 332.7 341.4 336.2 342.7 338.6C342.8 338.8 343 338.7 343.1 338.6C343.7 337.1 344.2 335.8 345.6 334.8C346.4 334.2 347.3 333.9 348.1 333.4C348.9 332.9 349.5 332.3 349.8 331.5C350.3 333 350.7 334.5 351.1 336C350.3 335.3 348.8 335.3 347.9 335.7C346.6 336.3 346.7 338.2 347 339.3C347 339.4 347.1 339.5 347.2 339.5C347.7 339.3 348.2 339.1 348.7 338.9C349.2 338.7 349.8 338.6 350.3 338.4C350.8 338.1 351.1 337.7 351.3 337.2V337.3C351.8 339.7 352.1 342.1 352.3 344.6C351.6 344.3 351.2 343.5 350.5 343.1C349.9 342.8 349 342.6 348.3 342.8C347.1 343.3 346.4 345.3 346 346.4C345.9 346.6 346.1 346.7 346.3 346.6C347 346.3 347.8 346 348.6 345.8C349.4 345.6 350.1 345.7 350.8 345.7C351.4 345.7 352 345.5 352.4 345.1C352.4 346 352.5 346.8 352.5 347.7C352 347.2 351.4 347 350.6 347.2C349.8 347.4 348.9 348.3 348.9 349.2C348.9 349.3 348.9 349.3 349 349.3C349.3 349.4 349.5 349.3 349.8 349.2C350.3 349.1 350.6 349.1 351.1 349.2C351.6 349.3 352.1 349.2 352.3 348.8L352.4 348.7C352.4 350.6 352.3 352.5 352.1 354.4C351.5 353.3 350 352.9 348.8 353.1C348 353.2 347.4 353.6 346.9 354.3C346.6 354.8 346.3 355.4 346.2 355.9C346.1 356.4 345.7 357.6 346.6 357.7C346.8 357.7 346.9 357.6 347.1 357.5C347.6 357.2 348 357 348.7 356.9C350 356.7 351.3 356.5 352.1 355.4C351.9 357.2 351.6 358.9 351.3 360.6C350.5 360 349.4 359.3 348.4 359.7C347.4 360 346.6 360.9 346.4 361.9C346.4 362.1 346.4 362.3 346.6 362.3C347.2 362.5 347.7 362.1 348.3 362.2C348.9 362.3 349.4 362.6 350 362.5C350.4 362.5 350.8 362.3 351.1 362C350.8 363.2 350.5 364.4 350.2 365.6C350.2 365.7 350.4 365.8 350.4 365.7C350.6 365.1 350.8 364.5 350.9 363.9C351.2 365 352.9 365.2 353.6 366.1C353.7 366.2 353.9 366.2 353.9 366C354.4 364.3 353 362.4 351.2 362.9C351.6 361.5 351.9 360 352.2 358.6C352.3 359.2 352.7 359.6 353.2 359.9C353.7 360.2 354.2 360.3 354.7 360.5C355.5 360.8 356.2 361.2 356.9 361.7C357 361.8 357.1 361.7 357.1 361.6C357.2 360.2 356.5 358.9 355.3 358.2C354.5 357.7 353.1 357.1 352.3 357.7C352.7 355.5 353 353.3 353.1 351.1C353.3 351.9 353.7 352.5 354.6 352.9C355.3 353.3 356.2 353.5 357 353.9C358.3 354.5 359.3 355.2 360.4 356.1C360.7 356.3 360.9 356.1 360.9 355.9Z" fill="#BAD7FF"/>
<path d="M456.3 226C430.3 235.7 400.9 232 375.8 244.7C366.1 249.6 357.3 256.7 350.6 265.3C342.8 275.4 339.2 286.6 337.3 299.1C337.3 299.2 337.3 299.3 337.3 299.4C336.5 301.6 336.1 303.7 335.8 306.1C335.7 307 336.7 307.5 337.4 307.3C353 303.9 368.9 303.3 384.8 301.9C397.9 300.7 412.3 299.6 422.4 290C428.5 284.1 433.7 277.3 437.7 269.8C442 261.7 444.1 252.8 448 244.6C450.8 238.6 455 233.3 457.2 226.9C457.5 226.5 456.9 225.8 456.3 226Z" fill="#EFAC3F"/>
<path d="M436.6 238.5C413.8 248.8 392.3 261.7 371.7 275.9C362.5 282.2 353.6 289 345.1 296.3C342.6 298.5 340.1 300.6 337.7 302.8C336.4 304 335.2 305.1 334 306.3C333 307.3 331.5 308.3 332.7 309.8C333.1 310.3 333.8 310.8 334.4 310.6C335 310.5 335.1 310 335.4 309.5C336.5 308.1 338 306.8 339.2 305.6C341.8 303.1 344.4 300.6 347.2 298.3C356.3 290.4 366 283.4 375.7 276.4C395.2 262.5 415.8 250.5 436.9 239.2C437.7 239.1 437.2 238.3 436.6 238.5Z" fill="#A39EC0"/>
<path d="M457.2 226.4C451.5 231.9 446.3 238 442 244.2C433.3 256.8 427.1 275.1 413.1 282.8C399 290.6 381.5 288.7 366.1 292C354.9 294.4 345 299.5 337 307.3C337.2 307.3 337.3 307.3 337.5 307.3C353.1 303.9 369 303.3 384.9 301.9C398 300.7 412.4 299.6 422.5 290C428.6 284.1 433.8 277.3 437.8 269.8C442.1 261.7 444.2 252.8 448.1 244.6C450.9 238.6 455.1 233.3 457.3 226.9C457.4 226.8 457.3 226.6 457.2 226.4Z" fill="#ED9A40"/>
<path d="M423.9 334.7C408.7 325.8 398.7 309.9 382.4 302.7C376.1 299.9 369.1 298.4 362.2 298.6C354.1 298.8 347.2 301.5 340.3 305.6C340.2 305.6 340.2 305.7 340.2 305.7C338.8 306.2 337.6 306.8 336.3 307.7C335.8 308 336 308.7 336.3 309C344.2 315.3 350.9 322.9 357.9 330.1C363.7 336.1 370.1 342.7 378.8 343.8C384.1 344.5 389.6 344.3 394.9 343.2C400.6 342.1 405.8 339.5 411.4 338.1C415.5 337.1 419.7 337 423.8 335.5C424.1 335.4 424.2 334.9 423.9 334.7Z" fill="#A6D89A"/>
<path d="M409.8 330C395.6 323 380.7 317.5 365.4 313.1C358.6 311.1 351.7 309.4 344.7 308.2C342.6 307.8 340.6 307.5 338.5 307.2C337.4 307 336.3 306.9 335.3 306.8C334.4 306.7 333.3 306.4 333 307.6C332.9 308 333 308.5 333.3 308.8C333.6 309 333.9 308.9 334.2 308.9C335.3 308.9 336.5 309.1 337.7 309.2C340 309.4 342.2 309.8 344.5 310.2C352 311.5 359.4 313.4 366.7 315.4C381.3 319.4 395.5 324.7 409.5 330.5C410 330.7 410.2 330.2 409.8 330Z" fill="#424060"/>
<path d="M424 335.2C419 334.6 413.9 334.5 409.2 334.9C399.5 335.7 388.1 340 378.6 336.2C369.1 332.4 363 323.1 355.3 316.8C349.7 312.3 343.2 309.4 336.1 308.6C336.2 308.7 336.2 308.8 336.3 308.8C344.2 315.1 350.9 322.7 357.9 329.9C363.7 335.9 370.1 342.5 378.8 343.6C384.1 344.3 389.6 344.1 394.9 343C400.6 341.9 405.8 339.3 411.4 337.9C415.5 336.9 419.7 336.8 423.8 335.3C423.9 335.5 424 335.4 424 335.2Z" fill="#91C184"/>
<path d="M64.8 363C67 367.7 70.6 371.4 73.2 375.7C76.8 381.7 79.1 388.3 83 394.1C86.6 399.5 91.1 404.3 96.3 408.3C104.7 414.8 115.7 414.5 125.8 414.4C138 414.2 150.2 413.4 162.3 414.7C162.9 414.8 163.5 414.3 163.4 413.7C163 411.9 162.5 410.3 161.7 408.7C161.7 408.6 161.7 408.6 161.7 408.5C159.3 399.1 155.7 390.9 148.9 383.8C143.1 377.8 135.9 373.1 128.1 370.1C108 362.4 85.9 367.5 65.3 362.2C65.1 362.1 64.7 362.6 64.8 363Z" fill="#BAD7FF"/>
<path d="M81.5 370.1C99.7 376.2 117.1 384.2 133.9 393.5C141.4 397.6 148.7 402.1 155.7 407C157.8 408.4 159.8 409.9 161.9 411.4C163 412.2 164 413 165 413.8C165.9 414.5 167.1 415.1 166.3 416.4C166.1 416.8 165.6 417.2 165 417.2C164.6 417.1 164.4 416.8 164.1 416.5C163.1 415.5 161.9 414.7 160.9 413.8C158.7 412.1 156.5 410.4 154.3 408.8C146.8 403.5 138.8 398.9 130.8 394.4C114.9 385.4 98.2 377.8 81.2 370.9C80.7 370.6 81 370 81.5 370.1Z" fill="#424060"/>
<path d="M64.9 362.5C69.7 366.3 74.1 370.5 77.8 374.9C85.4 383.8 91.6 397.2 102.9 402.1C114.3 406.9 127.5 404.1 139.4 405.4C148.1 406.3 156.1 409.5 162.8 414.8C162.7 414.8 162.5 414.9 162.4 414.8C150.2 413.4 138.1 414.3 125.9 414.5C115.8 414.6 104.7 414.9 96.4 408.4C91.3 404.4 86.8 399.6 83.1 394.2C79.2 388.4 76.9 381.8 73.3 375.8C70.7 371.5 67.1 367.8 64.9 363.1C64.8 362.8 64.8 362.7 64.9 362.5Z" fill="#A4C8F4"/>
<path d="M90.6 420.1C93.2 422 96.4 423 99.2 424.6C103 426.8 106.3 429.8 110.3 431.8C114 433.7 117.9 435 122 435.6C128.6 436.6 134.7 433.1 140.3 429.9C147 426.1 153.5 421.9 160.7 418.9C161 418.8 161.3 418.3 161 418C160.2 417.1 159.5 416.4 158.6 415.7C158.6 415.7 158.6 415.6 158.5 415.6C154.3 411.1 149.8 407.7 143.8 405.8C138.7 404.2 133.3 403.8 128.1 404.6C114.6 406.5 103.9 416.1 90.8 419.5C90.4 419.5 90.4 419.9 90.6 420.1Z" fill="#A6D89A"/>
<path d="M102 418.9C113.9 416.7 126.1 415.8 138.2 415.8C143.6 415.8 149.1 416 154.4 416.6C156 416.8 157.6 416.9 159.2 417.2C160 417.3 160.8 417.4 161.7 417.6C162.4 417.7 163.3 417.7 163.2 418.7C163.2 419 163 419.4 162.7 419.5C162.4 419.6 162.2 419.4 162 419.4C161.2 419.1 160.2 419 159.4 418.9C157.7 418.6 155.9 418.4 154.2 418.2C148.4 417.6 142.6 417.4 136.7 417.4C125.1 417.3 113.5 418.2 102 419.5C101.8 419.4 101.7 419 102 418.9Z" fill="#424060"/>
<path d="M90.5 419.8C94.3 420.4 98.1 421.4 101.5 422.7C108.5 425.3 116 430.9 123.7 430.1C131.5 429.3 137.9 423.7 145 420.7C150.1 418.5 155.5 417.8 160.9 418.7C160.8 418.8 160.8 418.8 160.7 418.8C153.5 421.8 147 426 140.3 429.8C134.7 433 128.7 436.5 122 435.5C117.9 434.9 114 433.6 110.3 431.7C106.3 429.7 103.1 426.7 99.2 424.5C96.4 422.9 93.3 421.9 90.6 420C90.5 420 90.5 419.9 90.5 419.8Z" fill="#A6D89A"/>
<path d="M320.6 441.6H177.6C166.4 441.6 157.3 432.5 157.3 421.3V104.6C157.3 93.3999 166.4 84.2999 177.6 84.2999H320.6C331.8 84.2999 340.9 93.3999 340.9 104.6V421.3C340.9 432.5 331.8 441.6 320.6 441.6Z" fill="#5E5C89"/>
<path d="M315.5 88.4H259.8V88.5C259.8 89.1 259.3 89.9 258.2 89.9H240.8C239.6 89.9 239.1 89.2 239.1 88.5V88.4H182.9C171.3 88.4 161.9 97.5 161.9 108.6V417.3C161.9 428.5 171.3 437.5 182.9 437.5H315.6C327.2 437.5 336.6 428.4 336.6 417.3V108.6C336.5 97.4 327.1 88.4 315.5 88.4Z" fill="#55517A"/>
<path d="M333.1 415.8V111.9C333.1 100.7 323.7 91.6 312.1 91.6H263C260.6 91.6 258.5 93.4 258.6 95.7C258.6 102.1 251.9 106.9 244.9 103.8C241.7 102.4 240 99.1 239.9 95.7C239.9 93.4 237.9 91.6 235.5 91.6H184.8C174 91.6 165.3 100 165.3 110.4V415.1C165.3 425.8 174.3 434.5 185.4 434.5H313.8C324.4 434.6 333.1 426.2 333.1 415.8Z" fill="#BAD7FF"/>
<path d="M309.1 201.2H285.1V235.6H309.1V201.2Z" fill="#9E4CDF"/>
<path d="M189.2 125.5V304.3" stroke="white" stroke-width="0.25" stroke-miterlimit="10"/>
<path d="M333.1 166.8H165.2" stroke="white" stroke-width="0.25" stroke-miterlimit="10"/>
<path d="M333.1 125.5H165.2" stroke="white" stroke-width="0.25" stroke-miterlimit="10"/>
<path d="M333.1 201.2H165.2" stroke="white" stroke-width="0.25" stroke-miterlimit="10"/>
<path d="M333.1 235.6H165.2" stroke="white" stroke-width="0.25" stroke-miterlimit="10"/>
<path d="M333.1 269.9H165.2" stroke="white" stroke-width="0.25" stroke-miterlimit="10"/>
<path d="M333.1 304.3H165.2" stroke="white" stroke-width="0.25" stroke-miterlimit="10"/>
<path d="M213.2 125.5V304.3" stroke="white" stroke-width="0.25" stroke-miterlimit="10"/>
<path d="M237.2 125.5V304.3" stroke="white" stroke-width="0.25" stroke-miterlimit="10"/>
<path d="M261.2 125.5V304.3" stroke="white" stroke-width="0.25" stroke-miterlimit="10"/>
<path d="M285.1 125.5V304.3" stroke="white" stroke-width="0.25" stroke-miterlimit="10"/>
<path d="M309.1 125.5V304.3" stroke="white" stroke-width="0.25" stroke-miterlimit="10"/>
<path d="M183.224 135.616H182.448V130.475L180.893 131.047V130.346L183.103 129.517H183.224V135.616Z" fill="#55517A"/>
<path d="M208.625 135.616H204.648V135.061L206.749 132.727C207.06 132.374 207.274 132.087 207.391 131.868C207.511 131.646 207.57 131.416 207.57 131.18C207.57 130.863 207.474 130.603 207.283 130.4C207.091 130.198 206.835 130.096 206.516 130.096C206.132 130.096 205.833 130.206 205.619 130.425C205.408 130.642 205.303 130.945 205.303 131.334H204.531C204.531 130.776 204.711 130.324 205.069 129.979C205.43 129.635 205.913 129.462 206.516 129.462C207.08 129.462 207.526 129.611 207.854 129.909C208.182 130.203 208.346 130.596 208.346 131.088C208.346 131.686 207.965 132.397 207.203 133.223L205.578 134.986H208.625V135.616Z" fill="#55517A"/>
<path d="M229.883 132.206H230.462C230.826 132.2 231.112 132.104 231.321 131.918C231.529 131.732 231.634 131.48 231.634 131.163C231.634 130.452 231.279 130.096 230.57 130.096C230.237 130.096 229.97 130.192 229.77 130.384C229.573 130.573 229.474 130.824 229.474 131.138H228.703C228.703 130.658 228.878 130.259 229.228 129.942C229.581 129.622 230.029 129.462 230.57 129.462C231.143 129.462 231.592 129.614 231.917 129.917C232.242 130.22 232.405 130.641 232.405 131.18C232.405 131.444 232.319 131.7 232.146 131.947C231.977 132.194 231.745 132.379 231.45 132.502C231.784 132.607 232.041 132.782 232.221 133.027C232.405 133.271 232.496 133.57 232.496 133.923C232.496 134.468 232.319 134.9 231.963 135.22C231.607 135.539 231.144 135.699 230.575 135.699C230.005 135.699 229.541 135.545 229.182 135.236C228.827 134.928 228.649 134.521 228.649 134.015H229.424C229.424 134.334 229.528 134.59 229.737 134.782C229.945 134.974 230.224 135.069 230.575 135.069C230.947 135.069 231.232 134.972 231.429 134.778C231.627 134.583 231.725 134.304 231.725 133.94C231.725 133.587 231.617 133.316 231.4 133.127C231.183 132.938 230.871 132.841 230.462 132.835H229.883V132.206Z" fill="#55517A"/>
<path d="M255.866 133.577H256.708V134.207H255.866V135.616H255.09V134.207H252.326V133.752L255.045 129.546H255.866V133.577ZM253.202 133.577H255.09V130.601L254.999 130.767L253.202 133.577Z" fill="#55517A"/>
<path d="M277.105 132.572L277.413 129.546H280.523V130.259H278.068L277.884 131.914C278.182 131.739 278.519 131.651 278.897 131.651C279.451 131.651 279.89 131.835 280.215 132.201C280.54 132.565 280.703 133.059 280.703 133.681C280.703 134.307 280.533 134.8 280.194 135.161C279.858 135.52 279.387 135.699 278.781 135.699C278.244 135.699 277.807 135.55 277.468 135.253C277.128 134.956 276.935 134.544 276.888 134.019H277.618C277.665 134.366 277.789 134.629 277.989 134.807C278.189 134.982 278.453 135.069 278.781 135.069C279.139 135.069 279.42 134.947 279.623 134.703C279.828 134.458 279.931 134.12 279.931 133.69C279.931 133.284 279.82 132.959 279.598 132.714C279.378 132.467 279.085 132.343 278.718 132.343C278.382 132.343 278.118 132.417 277.926 132.564L277.722 132.731L277.105 132.572Z" fill="#55517A"/>
<path d="M303.625 129.542V130.196H303.483C302.883 130.207 302.405 130.385 302.049 130.73C301.693 131.074 301.488 131.559 301.432 132.185C301.752 131.818 302.188 131.634 302.741 131.634C303.269 131.634 303.69 131.821 304.004 132.193C304.321 132.565 304.479 133.046 304.479 133.635C304.479 134.261 304.308 134.761 303.967 135.136C303.628 135.511 303.172 135.699 302.599 135.699C302.018 135.699 301.547 135.477 301.186 135.032C300.825 134.585 300.644 134.009 300.644 133.306V133.01C300.644 131.893 300.882 131.04 301.357 130.45C301.835 129.858 302.545 129.556 303.487 129.542H303.625ZM302.612 132.276C302.348 132.276 302.105 132.356 301.882 132.514C301.66 132.672 301.506 132.871 301.419 133.11V133.394C301.419 133.894 301.532 134.297 301.757 134.603C301.982 134.908 302.263 135.061 302.599 135.061C302.947 135.061 303.219 134.933 303.416 134.678C303.616 134.422 303.716 134.087 303.716 133.673C303.716 133.256 303.615 132.92 303.412 132.664C303.212 132.406 302.945 132.276 302.612 132.276Z" fill="#55517A"/>
<path d="M328.681 129.979L326.167 135.616H325.358L327.864 130.179H324.579V129.546H328.681V129.979Z" fill="#55517A"/>
<path d="M184.37 172.425C184.37 172.728 184.289 172.997 184.128 173.234C183.97 173.47 183.754 173.655 183.482 173.788C183.799 173.924 184.049 174.123 184.233 174.384C184.419 174.645 184.512 174.941 184.512 175.272C184.512 175.797 184.334 176.216 183.978 176.527C183.625 176.838 183.16 176.994 182.582 176.994C181.998 176.994 181.53 176.838 181.177 176.527C180.827 176.213 180.652 175.795 180.652 175.272C180.652 174.944 180.74 174.648 180.918 174.384C181.099 174.12 181.348 173.92 181.665 173.784C181.395 173.651 181.182 173.466 181.027 173.229C180.871 172.993 180.793 172.725 180.793 172.425C180.793 171.914 180.957 171.508 181.285 171.208C181.613 170.907 182.045 170.757 182.582 170.757C183.115 170.757 183.546 170.907 183.874 171.208C184.205 171.508 184.37 171.914 184.37 172.425ZM183.741 175.256C183.741 174.916 183.632 174.64 183.415 174.426C183.201 174.212 182.921 174.105 182.573 174.105C182.226 174.105 181.947 174.211 181.735 174.422C181.527 174.633 181.423 174.911 181.423 175.256C181.423 175.6 181.524 175.871 181.727 176.068C181.933 176.266 182.218 176.364 182.582 176.364C182.943 176.364 183.226 176.266 183.432 176.068C183.638 175.868 183.741 175.597 183.741 175.256ZM182.582 171.391C182.279 171.391 182.033 171.486 181.844 171.675C181.658 171.861 181.564 172.115 181.564 172.437C181.564 172.746 181.656 172.996 181.84 173.188C182.026 173.377 182.273 173.471 182.582 173.471C182.89 173.471 183.136 173.377 183.32 173.188C183.506 172.996 183.599 172.746 183.599 172.437C183.599 172.129 183.503 171.877 183.311 171.683C183.119 171.488 182.876 171.391 182.582 171.391Z" fill="#55517A"/>
<path d="M207.604 174.242C207.443 174.434 207.249 174.589 207.024 174.705C206.802 174.822 206.557 174.88 206.291 174.88C205.94 174.88 205.635 174.794 205.373 174.622C205.115 174.45 204.915 174.208 204.773 173.896C204.631 173.582 204.56 173.236 204.56 172.858C204.56 172.453 204.637 172.087 204.79 171.762C204.945 171.437 205.165 171.188 205.448 171.016C205.732 170.844 206.063 170.757 206.441 170.757C207.041 170.757 207.513 170.982 207.858 171.433C208.205 171.88 208.379 172.492 208.379 173.267V173.492C208.379 174.673 208.146 175.536 207.679 176.081C207.212 176.623 206.507 176.901 205.565 176.915H205.415V176.264H205.578C206.214 176.253 206.703 176.088 207.045 175.768C207.387 175.446 207.573 174.937 207.604 174.242ZM206.416 174.242C206.674 174.242 206.912 174.163 207.128 174.005C207.348 173.846 207.508 173.651 207.608 173.417V173.109C207.608 172.603 207.498 172.191 207.279 171.875C207.059 171.558 206.781 171.399 206.445 171.399C206.106 171.399 205.833 171.53 205.628 171.791C205.422 172.05 205.319 172.392 205.319 172.817C205.319 173.231 205.418 173.573 205.615 173.842C205.815 174.109 206.082 174.242 206.416 174.242Z" fill="#55517A"/>
<path d="M229.106 176.911H228.331V171.77L226.776 172.342V171.641L228.985 170.812H229.106V176.911ZM235.172 174.322C235.172 175.225 235.017 175.896 234.709 176.335C234.4 176.774 233.918 176.994 233.262 176.994C232.615 176.994 232.135 176.78 231.824 176.352C231.513 175.921 231.352 175.279 231.34 174.426V173.396C231.34 172.504 231.495 171.841 231.803 171.408C232.112 170.974 232.595 170.757 233.254 170.757C233.907 170.757 234.388 170.967 234.696 171.387C235.005 171.804 235.163 172.449 235.172 173.321V174.322ZM234.4 173.267C234.4 172.614 234.309 172.139 234.125 171.841C233.942 171.541 233.651 171.391 233.254 171.391C232.859 171.391 232.572 171.54 232.391 171.837C232.21 172.134 232.117 172.592 232.112 173.209V174.443C232.112 175.098 232.206 175.583 232.395 175.898C232.587 176.209 232.876 176.364 233.262 176.364C233.643 176.364 233.925 176.217 234.109 175.923C234.295 175.628 234.392 175.164 234.4 174.53V173.267Z" fill="#55517A"/>
<path d="M252.954 176.911H252.179V171.77L250.624 172.342V171.641L252.833 170.812H252.954V176.911ZM257.748 176.911H256.973V171.77L255.418 172.342V171.641L257.627 170.812H257.748V176.911Z" fill="#55517A"/>
<path d="M277.095 176.911H276.319V171.77L274.764 172.342V171.641L276.974 170.812H277.095V176.911ZM283.331 176.911H279.354V176.356L281.455 174.022C281.767 173.669 281.981 173.382 282.097 173.163C282.217 172.94 282.277 172.711 282.277 172.475C282.277 172.158 282.181 171.898 281.989 171.695C281.797 171.492 281.541 171.391 281.222 171.391C280.838 171.391 280.54 171.501 280.326 171.72C280.114 171.937 280.009 172.24 280.009 172.629H279.238C279.238 172.071 279.417 171.619 279.775 171.274C280.137 170.93 280.619 170.757 281.222 170.757C281.786 170.757 282.232 170.906 282.56 171.203C282.888 171.498 283.052 171.891 283.052 172.383C283.052 172.981 282.671 173.692 281.91 174.518L280.284 176.281H283.331V176.911Z" fill="#55517A"/>
<path d="M300.942 176.911H300.167V171.77L298.612 172.342V171.641L300.821 170.812H300.942V176.911ZM304.323 173.5H304.903C305.267 173.495 305.553 173.399 305.761 173.213C305.97 173.027 306.074 172.775 306.074 172.458C306.074 171.747 305.72 171.391 305.011 171.391C304.678 171.391 304.411 171.487 304.211 171.679C304.013 171.868 303.915 172.119 303.915 172.433H303.143C303.143 171.952 303.319 171.554 303.669 171.237C304.022 170.917 304.469 170.757 305.011 170.757C305.584 170.757 306.032 170.909 306.358 171.212C306.683 171.515 306.845 171.936 306.845 172.475C306.845 172.739 306.759 172.995 306.587 173.242C306.417 173.489 306.185 173.674 305.891 173.796C306.224 173.902 306.481 174.077 306.662 174.322C306.845 174.566 306.937 174.865 306.937 175.218C306.937 175.763 306.759 176.195 306.403 176.514C306.048 176.834 305.585 176.994 305.015 176.994C304.446 176.994 303.981 176.84 303.623 176.531C303.267 176.223 303.089 175.816 303.089 175.31H303.865C303.865 175.629 303.969 175.885 304.177 176.077C304.386 176.269 304.665 176.364 305.015 176.364C305.388 176.364 305.673 176.267 305.87 176.073C306.067 175.878 306.166 175.599 306.166 175.235C306.166 174.882 306.057 174.611 305.841 174.422C305.624 174.233 305.311 174.135 304.903 174.13H304.323V173.5Z" fill="#55517A"/>
<path d="M325.106 176.911H324.331V171.77L322.776 172.342V171.641L324.986 170.812H325.106V176.911ZM330.622 174.872H331.464V175.501H330.622V176.911H329.846V175.501H327.082V175.047L329.801 170.841H330.622V174.872ZM327.958 174.872H329.846V171.895L329.755 172.062L327.958 174.872Z" fill="#55517A"/>
<path d="M181.034 211.049H180.258V205.909L178.703 206.48V205.78L180.913 204.95H181.034V211.049ZM183.647 208.006L183.956 204.979H187.066V205.692H184.61L184.427 207.347C184.724 207.172 185.062 207.085 185.44 207.085C185.993 207.085 186.432 207.268 186.757 207.635C187.083 207.999 187.245 208.492 187.245 209.115C187.245 209.74 187.076 210.233 186.737 210.595C186.4 210.953 185.929 211.133 185.323 211.133C184.787 211.133 184.349 210.984 184.01 210.687C183.671 210.389 183.478 209.978 183.431 209.453H184.16C184.207 209.8 184.331 210.063 184.531 210.24C184.731 210.416 184.995 210.503 185.323 210.503C185.682 210.503 185.963 210.381 186.165 210.136C186.371 209.892 186.474 209.554 186.474 209.123C186.474 208.717 186.363 208.392 186.14 208.148C185.921 207.9 185.628 207.777 185.261 207.777C184.925 207.777 184.661 207.85 184.469 207.998L184.264 208.164L183.647 208.006Z" fill="#55517A"/>
<path d="M204.993 211.049H204.217V205.909L202.662 206.48V205.78L204.872 204.95H204.993V211.049ZM210.279 204.975V205.63H210.137C209.537 205.641 209.059 205.819 208.703 206.163C208.347 206.508 208.141 206.993 208.086 207.618C208.406 207.251 208.842 207.068 209.395 207.068C209.923 207.068 210.344 207.254 210.658 207.627C210.975 207.999 211.133 208.48 211.133 209.069C211.133 209.694 210.962 210.195 210.621 210.57C210.281 210.945 209.826 211.133 209.253 211.133C208.672 211.133 208.201 210.91 207.84 210.466C207.479 210.018 207.298 209.443 207.298 208.74V208.444C207.298 207.326 207.536 206.473 208.011 205.884C208.489 205.292 209.199 204.989 210.141 204.975H210.279ZM209.266 207.71C209.002 207.71 208.758 207.789 208.536 207.948C208.314 208.106 208.16 208.305 208.073 208.544V208.827C208.073 209.327 208.186 209.73 208.411 210.036C208.636 210.342 208.917 210.495 209.253 210.495C209.601 210.495 209.873 210.367 210.07 210.111C210.27 209.856 210.37 209.521 210.37 209.107C210.37 208.69 210.269 208.353 210.066 208.098C209.866 207.839 209.599 207.71 209.266 207.71Z" fill="#55517A"/>
<path d="M229.106 211.049H228.331V205.909L226.776 206.48V205.78L228.985 204.95H229.106V211.049ZM235.284 205.413L232.77 211.049H231.962L234.467 205.613H231.182V204.979H235.284V205.413Z" fill="#55517A"/>
<path d="M252.954 211.049H252.179V205.909L250.624 206.48V205.78L252.833 204.95H252.954V211.049ZM258.895 206.564C258.895 206.866 258.814 207.136 258.653 207.372C258.494 207.609 258.279 207.793 258.007 207.927C258.323 208.063 258.574 208.262 258.757 208.523C258.943 208.784 259.036 209.08 259.036 209.411C259.036 209.936 258.858 210.354 258.503 210.666C258.15 210.977 257.684 211.133 257.106 211.133C256.523 211.133 256.054 210.977 255.701 210.666C255.351 210.352 255.176 209.933 255.176 209.411C255.176 209.083 255.265 208.787 255.443 208.523C255.623 208.259 255.872 208.059 256.189 207.923C255.919 207.789 255.707 207.604 255.551 207.368C255.396 207.132 255.318 206.864 255.318 206.564C255.318 206.052 255.482 205.646 255.81 205.346C256.138 205.046 256.57 204.896 257.106 204.896C257.64 204.896 258.071 205.046 258.398 205.346C258.729 205.646 258.895 206.052 258.895 206.564ZM258.265 209.394C258.265 209.055 258.157 208.779 257.94 208.565C257.726 208.351 257.445 208.244 257.098 208.244C256.75 208.244 256.471 208.349 256.26 208.56C256.051 208.772 255.947 209.05 255.947 209.394C255.947 209.739 256.049 210.01 256.252 210.207C256.457 210.404 256.742 210.503 257.106 210.503C257.467 210.503 257.751 210.404 257.957 210.207C258.162 210.007 258.265 209.736 258.265 209.394ZM257.106 205.53C256.803 205.53 256.557 205.624 256.368 205.813C256.182 205.999 256.089 206.254 256.089 206.576C256.089 206.885 256.181 207.135 256.364 207.326C256.55 207.515 256.798 207.61 257.106 207.61C257.415 207.61 257.661 207.515 257.844 207.326C258.03 207.135 258.123 206.885 258.123 206.576C258.123 206.268 258.027 206.016 257.836 205.822C257.644 205.627 257.401 205.53 257.106 205.53Z" fill="#55517A"/>
<path d="M277.095 211.049H276.319V205.909L274.764 206.48V205.78L276.974 204.95H277.095V211.049ZM282.31 208.381C282.149 208.573 281.956 208.727 281.73 208.844C281.508 208.961 281.264 209.019 280.997 209.019C280.647 209.019 280.341 208.933 280.08 208.761C279.821 208.588 279.621 208.346 279.479 208.035C279.338 207.721 279.267 207.375 279.267 206.997C279.267 206.591 279.343 206.226 279.496 205.901C279.652 205.576 279.871 205.327 280.155 205.155C280.438 204.982 280.769 204.896 281.147 204.896C281.747 204.896 282.22 205.121 282.564 205.571C282.912 206.019 283.085 206.63 283.085 207.406V207.631C283.085 208.812 282.852 209.675 282.385 210.22C281.918 210.762 281.214 211.039 280.271 211.053H280.121V210.403H280.284C280.92 210.392 281.409 210.227 281.751 209.907C282.093 209.585 282.279 209.076 282.31 208.381ZM281.122 208.381C281.38 208.381 281.618 208.302 281.835 208.144C282.054 207.985 282.214 207.789 282.314 207.556V207.247C282.314 206.741 282.204 206.33 281.985 206.013C281.765 205.696 281.487 205.538 281.151 205.538C280.812 205.538 280.54 205.669 280.334 205.93C280.128 206.188 280.025 206.53 280.025 206.955C280.025 207.37 280.124 207.711 280.321 207.981C280.522 208.248 280.788 208.381 281.122 208.381Z" fill="#55517A"/>
<path d="M302.385 211.049H298.408V210.495L300.509 208.16C300.82 207.807 301.034 207.521 301.151 207.301C301.27 207.079 301.33 206.85 301.33 206.614C301.33 206.297 301.234 206.037 301.042 205.834C300.851 205.631 300.595 205.53 300.275 205.53C299.892 205.53 299.593 205.639 299.379 205.859C299.168 206.076 299.062 206.379 299.062 206.768H298.291C298.291 206.209 298.47 205.758 298.829 205.413C299.19 205.068 299.672 204.896 300.275 204.896C300.84 204.896 301.286 205.045 301.614 205.342C301.941 205.637 302.105 206.03 302.105 206.522C302.105 207.119 301.725 207.831 300.963 208.656L299.337 210.42H302.385V211.049ZM307.008 208.46C307.008 209.364 306.854 210.035 306.545 210.474C306.237 210.913 305.755 211.133 305.099 211.133C304.451 211.133 303.972 210.919 303.66 210.491C303.349 210.06 303.188 209.418 303.177 208.565V207.535C303.177 206.643 303.331 205.98 303.64 205.546C303.948 205.113 304.432 204.896 305.09 204.896C305.743 204.896 306.224 205.106 306.533 205.526C306.841 205.942 307 206.587 307.008 207.46V208.46ZM306.237 207.406C306.237 206.753 306.145 206.277 305.962 205.98C305.778 205.68 305.488 205.53 305.09 205.53C304.696 205.53 304.408 205.678 304.227 205.976C304.047 206.273 303.954 206.73 303.948 207.347V208.581C303.948 209.237 304.043 209.722 304.232 210.036C304.423 210.347 304.712 210.503 305.099 210.503C305.479 210.503 305.761 210.356 305.945 210.061C306.131 209.767 306.228 209.302 306.237 208.669V207.406Z" fill="#55517A"/>
<path d="M326.549 211.049H322.572V210.495L324.673 208.16C324.984 207.807 325.198 207.521 325.315 207.301C325.434 207.079 325.494 206.85 325.494 206.614C325.494 206.297 325.398 206.037 325.207 205.834C325.015 205.631 324.759 205.53 324.439 205.53C324.056 205.53 323.757 205.639 323.543 205.859C323.332 206.076 323.226 206.379 323.226 206.768H322.455C322.455 206.209 322.634 205.758 322.993 205.413C323.354 205.068 323.836 204.896 324.439 204.896C325.004 204.896 325.45 205.045 325.778 205.342C326.106 205.637 326.27 206.03 326.27 206.522C326.27 207.119 325.889 207.831 325.127 208.656L323.501 210.42H326.549V211.049ZM329.901 211.049H329.125V205.909L327.57 206.48V205.78L329.78 204.95H329.901V211.049Z" fill="#55517A"/>
<path d="M182.476 245.089H178.499V244.535L180.6 242.2C180.911 241.847 181.125 241.561 181.242 241.342C181.362 241.119 181.421 240.89 181.421 240.654C181.421 240.337 181.325 240.077 181.134 239.874C180.942 239.671 180.686 239.57 180.367 239.57C179.983 239.57 179.684 239.68 179.47 239.899C179.259 240.116 179.154 240.419 179.154 240.808H178.382C178.382 240.249 178.562 239.798 178.92 239.453C179.281 239.109 179.764 238.936 180.367 238.936C180.931 238.936 181.377 239.085 181.705 239.382C182.033 239.677 182.197 240.07 182.197 240.562C182.197 241.16 181.816 241.871 181.054 242.696L179.429 244.46H182.476V245.089ZM187.27 245.089H183.293V244.535L185.394 242.2C185.705 241.847 185.919 241.561 186.036 241.342C186.156 241.119 186.215 240.89 186.215 240.654C186.215 240.337 186.12 240.077 185.928 239.874C185.736 239.671 185.48 239.57 185.161 239.57C184.777 239.57 184.478 239.68 184.264 239.899C184.053 240.116 183.948 240.419 183.948 240.808H183.176C183.176 240.249 183.356 239.798 183.714 239.453C184.075 239.109 184.558 238.936 185.161 238.936C185.725 238.936 186.171 239.085 186.499 239.382C186.827 239.677 186.991 240.07 186.991 240.562C186.991 241.16 186.61 241.871 185.849 242.696L184.223 244.46H187.27V245.089Z" fill="#55517A"/>
<path d="M206.435 245.089H202.458V244.535L204.559 242.2C204.87 241.847 205.084 241.561 205.201 241.342C205.321 241.119 205.38 240.89 205.38 240.654C205.38 240.337 205.284 240.077 205.093 239.874C204.901 239.671 204.645 239.57 204.326 239.57C203.942 239.57 203.643 239.68 203.429 239.899C203.218 240.116 203.113 240.419 203.113 240.808H202.341C202.341 240.249 202.521 239.798 202.879 239.453C203.24 239.109 203.723 238.936 204.326 238.936C204.89 238.936 205.336 239.085 205.664 239.382C205.992 239.677 206.156 240.07 206.156 240.562C206.156 241.16 205.775 241.871 205.013 242.696L203.388 244.46H206.435V245.089ZM208.374 241.679H208.953C209.317 241.674 209.603 241.578 209.812 241.392C210.02 241.205 210.124 240.954 210.124 240.637C210.124 239.926 209.77 239.57 209.061 239.57C208.728 239.57 208.461 239.666 208.261 239.858C208.064 240.046 207.965 240.298 207.965 240.612H207.194C207.194 240.131 207.369 239.732 207.719 239.416C208.072 239.096 208.519 238.936 209.061 238.936C209.634 238.936 210.083 239.088 210.408 239.391C210.733 239.694 210.896 240.115 210.896 240.654C210.896 240.918 210.81 241.173 210.637 241.421C210.468 241.668 210.236 241.853 209.941 241.975C210.275 242.081 210.532 242.256 210.712 242.501C210.896 242.745 210.987 243.044 210.987 243.397C210.987 243.942 210.81 244.374 210.454 244.693C210.098 245.013 209.635 245.173 209.066 245.173C208.496 245.173 208.032 245.018 207.673 244.71C207.317 244.402 207.14 243.994 207.14 243.489H207.915C207.915 243.808 208.019 244.064 208.228 244.256C208.436 244.447 208.715 244.543 209.066 244.543C209.438 244.543 209.723 244.446 209.92 244.251C210.117 244.057 210.216 243.778 210.216 243.413C210.216 243.061 210.108 242.79 209.891 242.601C209.674 242.412 209.362 242.314 208.953 242.309H208.374V241.679Z" fill="#55517A"/>
<path d="M230.548 245.089H226.571V244.535L228.672 242.2C228.984 241.847 229.198 241.561 229.314 241.342C229.434 241.119 229.494 240.89 229.494 240.654C229.494 240.337 229.398 240.077 229.206 239.874C229.014 239.671 228.759 239.57 228.439 239.57C228.055 239.57 227.757 239.68 227.543 239.899C227.331 240.116 227.226 240.419 227.226 240.808H226.455C226.455 240.249 226.634 239.798 226.992 239.453C227.354 239.109 227.836 238.936 228.439 238.936C229.003 238.936 229.449 239.085 229.777 239.382C230.105 239.677 230.269 240.07 230.269 240.562C230.269 241.16 229.888 241.871 229.127 242.696L227.501 244.46H230.548V245.089ZM234.621 243.051H235.463V243.68H234.621V245.089H233.846V243.68H231.082V243.226L233.8 239.02H234.621V243.051ZM231.957 243.051H233.846V240.074L233.754 240.241L231.957 243.051Z" fill="#55517A"/>
<path d="M182.476 279.588H178.499V279.034L180.6 276.699C180.911 276.346 181.125 276.06 181.242 275.841C181.362 275.618 181.421 275.389 181.421 275.153C181.421 274.836 181.325 274.576 181.134 274.373C180.942 274.17 180.686 274.069 180.367 274.069C179.983 274.069 179.684 274.179 179.47 274.398C179.259 274.615 179.154 274.918 179.154 275.307H178.382C178.382 274.748 178.562 274.297 178.92 273.952C179.281 273.607 179.764 273.435 180.367 273.435C180.931 273.435 181.377 273.584 181.705 273.881C182.033 274.176 182.197 274.569 182.197 275.061C182.197 275.658 181.816 276.37 181.054 277.195L179.429 278.959H182.476V279.588ZM186.249 276.92C186.088 277.112 185.894 277.266 185.669 277.383C185.447 277.5 185.202 277.558 184.936 277.558C184.585 277.558 184.28 277.472 184.019 277.3C183.76 277.127 183.56 276.885 183.418 276.574C183.276 276.26 183.206 275.914 183.206 275.536C183.206 275.13 183.282 274.765 183.435 274.44C183.591 274.115 183.81 273.866 184.094 273.694C184.377 273.521 184.708 273.435 185.086 273.435C185.686 273.435 186.158 273.66 186.503 274.11C186.851 274.558 187.024 275.169 187.024 275.945V276.17C187.024 277.351 186.791 278.214 186.324 278.759C185.857 279.301 185.152 279.579 184.21 279.592H184.06V278.942H184.223C184.859 278.931 185.348 278.766 185.69 278.446C186.032 278.124 186.218 277.615 186.249 276.92ZM185.061 276.92C185.319 276.92 185.557 276.841 185.774 276.683C185.993 276.524 186.153 276.328 186.253 276.095V275.786C186.253 275.28 186.143 274.869 185.924 274.552C185.704 274.236 185.426 274.077 185.09 274.077C184.751 274.077 184.478 274.208 184.273 274.469C184.067 274.727 183.964 275.069 183.964 275.494C183.964 275.909 184.063 276.25 184.26 276.52C184.46 276.787 184.727 276.92 185.061 276.92Z" fill="#55517A"/>
<path d="M203.579 276.178H204.159C204.523 276.173 204.809 276.077 205.018 275.891C205.226 275.704 205.33 275.453 205.33 275.136C205.33 274.425 204.976 274.069 204.267 274.069C203.934 274.069 203.667 274.165 203.467 274.356C203.27 274.545 203.171 274.797 203.171 275.111H202.4C202.4 274.63 202.575 274.231 202.925 273.915C203.278 273.595 203.725 273.435 204.267 273.435C204.84 273.435 205.289 273.587 205.614 273.89C205.939 274.192 206.102 274.613 206.102 275.153C206.102 275.417 206.015 275.672 205.843 275.92C205.674 276.167 205.441 276.352 205.147 276.474C205.48 276.58 205.737 276.755 205.918 276.999C206.102 277.244 206.193 277.543 206.193 277.896C206.193 278.44 206.015 278.873 205.66 279.192C205.304 279.512 204.841 279.672 204.271 279.672C203.702 279.672 203.238 279.517 202.879 279.209C202.523 278.9 202.345 278.493 202.345 277.987H203.121C203.121 278.307 203.225 278.563 203.434 278.754C203.642 278.946 203.921 279.042 204.271 279.042C204.644 279.042 204.929 278.945 205.126 278.75C205.323 278.556 205.422 278.276 205.422 277.912C205.422 277.559 205.314 277.288 205.097 277.099C204.88 276.91 204.567 276.813 204.159 276.808H203.579V276.178ZM211.058 276.999C211.058 277.903 210.904 278.574 210.596 279.013C210.287 279.452 209.805 279.672 209.149 279.672C208.501 279.672 208.022 279.458 207.711 279.03C207.399 278.599 207.238 277.957 207.227 277.104V276.074C207.227 275.182 207.381 274.519 207.69 274.085C207.998 273.652 208.482 273.435 209.141 273.435C209.794 273.435 210.275 273.645 210.583 274.065C210.892 274.481 211.05 275.126 211.058 275.999V276.999ZM210.287 275.945C210.287 275.292 210.195 274.816 210.012 274.519C209.828 274.219 209.538 274.069 209.141 274.069C208.746 274.069 208.458 274.217 208.278 274.515C208.097 274.812 208.004 275.269 207.998 275.886V277.12C207.998 277.776 208.093 278.261 208.282 278.575C208.474 278.887 208.763 279.042 209.149 279.042C209.53 279.042 209.812 278.895 209.995 278.6C210.181 278.306 210.279 277.842 210.287 277.208V275.945Z" fill="#55517A"/>
<path d="M254.396 245.089H250.419V244.535L252.52 242.2C252.832 241.847 253.046 241.561 253.162 241.342C253.282 241.119 253.342 240.89 253.342 240.654C253.342 240.337 253.246 240.077 253.054 239.874C252.862 239.671 252.607 239.57 252.287 239.57C251.904 239.57 251.605 239.68 251.391 239.899C251.18 240.116 251.074 240.419 251.074 240.808H250.303C250.303 240.249 250.482 239.798 250.84 239.453C251.202 239.109 251.684 238.936 252.287 238.936C252.851 238.936 253.297 239.085 253.625 239.382C253.953 239.677 254.117 240.07 254.117 240.562C254.117 241.16 253.736 241.871 252.975 242.696L251.349 244.46H254.396V245.089ZM255.568 242.046L255.876 239.02H258.986V239.732H256.531L256.347 241.387C256.645 241.212 256.982 241.125 257.36 241.125C257.914 241.125 258.353 241.308 258.678 241.675C259.003 242.039 259.166 242.532 259.166 243.155C259.166 243.78 258.996 244.274 258.657 244.635C258.321 244.993 257.85 245.173 257.244 245.173C256.707 245.173 256.27 245.024 255.931 244.727C255.592 244.429 255.398 244.018 255.351 243.493H256.081C256.128 243.84 256.252 244.103 256.452 244.281C256.652 244.456 256.916 244.543 257.244 244.543C257.602 244.543 257.883 244.421 258.086 244.176C258.291 243.932 258.394 243.594 258.394 243.163C258.394 242.758 258.283 242.432 258.061 242.188C257.841 241.941 257.548 241.817 257.181 241.817C256.845 241.817 256.581 241.89 256.389 242.038L256.185 242.205L255.568 242.046Z" fill="#55517A"/>
<path d="M278.537 245.089H274.56V244.535L276.661 242.2C276.972 241.847 277.186 241.561 277.303 241.342C277.423 241.119 277.482 240.89 277.482 240.654C277.482 240.337 277.387 240.077 277.195 239.874C277.003 239.671 276.747 239.57 276.428 239.57C276.044 239.57 275.745 239.68 275.531 239.899C275.32 240.116 275.215 240.419 275.215 240.808H274.443C274.443 240.249 274.623 239.798 274.981 239.453C275.342 239.109 275.825 238.936 276.428 238.936C276.992 238.936 277.438 239.085 277.766 239.382C278.094 239.677 278.258 240.07 278.258 240.562C278.258 241.16 277.877 241.871 277.116 242.696L275.49 244.46H278.537V245.089ZM282.381 239.015V239.67H282.239C281.639 239.681 281.161 239.859 280.805 240.204C280.449 240.548 280.244 241.033 280.188 241.658C280.508 241.292 280.944 241.108 281.497 241.108C282.025 241.108 282.446 241.294 282.76 241.667C283.077 242.039 283.235 242.52 283.235 243.109C283.235 243.734 283.064 244.235 282.723 244.61C282.384 244.985 281.928 245.173 281.355 245.173C280.774 245.173 280.303 244.95 279.942 244.506C279.581 244.058 279.4 243.483 279.4 242.78V242.484C279.4 241.367 279.638 240.513 280.113 239.924C280.591 239.332 281.301 239.029 282.243 239.015H282.381ZM281.368 241.75C281.104 241.75 280.861 241.829 280.638 241.988C280.416 242.146 280.262 242.345 280.175 242.584V242.867C280.175 243.368 280.288 243.771 280.513 244.076C280.738 244.382 281.019 244.535 281.355 244.535C281.703 244.535 281.975 244.407 282.172 244.151C282.372 243.896 282.472 243.561 282.472 243.147C282.472 242.73 282.371 242.394 282.168 242.138C281.968 241.879 281.701 241.75 281.368 241.75Z" fill="#55517A"/>
<path d="M302.385 245.089H298.408V244.535L300.509 242.2C300.82 241.847 301.034 241.561 301.151 241.342C301.27 241.119 301.33 240.89 301.33 240.654C301.33 240.337 301.234 240.077 301.042 239.874C300.851 239.671 300.595 239.57 300.275 239.57C299.892 239.57 299.593 239.68 299.379 239.899C299.168 240.116 299.062 240.419 299.062 240.808H298.291C298.291 240.249 298.47 239.798 298.829 239.453C299.19 239.109 299.672 238.936 300.275 238.936C300.84 238.936 301.286 239.085 301.614 239.382C301.941 239.677 302.105 240.07 302.105 240.562C302.105 241.16 301.725 241.871 300.963 242.696L299.337 244.46H302.385V245.089ZM307.121 239.453L304.607 245.089H303.798L306.303 239.653H303.018V239.02H307.121V239.453Z" fill="#55517A"/>
<path d="M326.549 245.089H322.572V244.535L324.673 242.2C324.984 241.847 325.198 241.561 325.315 241.342C325.434 241.119 325.494 240.89 325.494 240.654C325.494 240.337 325.398 240.077 325.207 239.874C325.015 239.671 324.759 239.57 324.439 239.57C324.056 239.57 323.757 239.68 323.543 239.899C323.332 240.116 323.226 240.419 323.226 240.808H322.455C322.455 240.249 322.634 239.798 322.993 239.453C323.354 239.109 323.836 238.936 324.439 238.936C325.004 238.936 325.45 239.085 325.778 239.382C326.106 239.677 326.27 240.07 326.27 240.562C326.27 241.16 325.889 241.871 325.127 242.696L323.501 244.46H326.549V245.089ZM331.047 240.604C331.047 240.907 330.966 241.176 330.805 241.412C330.647 241.649 330.431 241.834 330.159 241.967C330.476 242.103 330.726 242.302 330.909 242.563C331.096 242.824 331.189 243.12 331.189 243.451C331.189 243.976 331.011 244.395 330.655 244.706C330.302 245.017 329.837 245.173 329.259 245.173C328.675 245.173 328.207 245.017 327.854 244.706C327.504 244.392 327.328 243.974 327.328 243.451C327.328 243.123 327.417 242.827 327.595 242.563C327.776 242.299 328.025 242.099 328.341 241.963C328.072 241.829 327.859 241.645 327.704 241.408C327.548 241.172 327.47 240.904 327.47 240.604C327.47 240.092 327.634 239.687 327.962 239.386C328.29 239.086 328.722 238.936 329.259 238.936C329.792 238.936 330.223 239.086 330.551 239.386C330.882 239.687 331.047 240.092 331.047 240.604ZM330.418 243.434C330.418 243.095 330.309 242.819 330.092 242.605C329.878 242.391 329.598 242.284 329.25 242.284C328.903 242.284 328.624 242.389 328.412 242.601C328.204 242.812 328.1 243.09 328.1 243.434C328.1 243.779 328.201 244.05 328.404 244.247C328.61 244.445 328.895 244.543 329.259 244.543C329.62 244.543 329.903 244.445 330.109 244.247C330.315 244.047 330.418 243.776 330.418 243.434ZM329.259 239.57C328.956 239.57 328.71 239.664 328.521 239.853C328.335 240.04 328.241 240.294 328.241 240.616C328.241 240.925 328.333 241.175 328.517 241.367C328.703 241.556 328.95 241.65 329.259 241.65C329.567 241.65 329.813 241.556 329.996 241.367C330.183 241.175 330.276 240.925 330.276 240.616C330.276 240.308 330.18 240.056 329.988 239.862C329.796 239.667 329.553 239.57 329.259 239.57Z" fill="#55517A"/>
<path d="M249.2 101.9C251.464 101.9 253.3 100.064 253.3 97.8C253.3 95.5356 251.464 93.7 249.2 93.7C246.936 93.7 245.1 95.5356 245.1 97.8C245.1 100.064 246.936 101.9 249.2 101.9Z" fill="#5E5C89"/>
<path d="M249.2 101C250.967 101 252.4 99.5673 252.4 97.8C252.4 96.0327 250.967 94.6 249.2 94.6C247.433 94.6 246 96.0327 246 97.8C246 99.5673 247.433 101 249.2 101Z" fill="#55517A"/>
<path d="M249.2 98.6C249.642 98.6 250 98.2418 250 97.8C250 97.3582 249.642 97 249.2 97C248.758 97 248.4 97.3582 248.4 97.8C248.4 98.2418 248.758 98.6 249.2 98.6Z" fill="#BAD7FF"/>
<path d="M258.4 87.2999H240.6C240.2 87.2999 239.9 87.5999 239.9 87.9999V88.8999C239.9 89.2999 240.2 89.5999 240.6 89.5999H258.4C258.8 89.5999 259.1 89.2999 259.1 88.8999V87.9999C259.1 87.6999 258.8 87.2999 258.4 87.2999Z" fill="#A39EC0"/>
<path d="M342.6 203.6C342.6 202.3 342 201.1 340.9 200.3V254.6C341.9 253.8 342.6 252.6 342.6 251.3V203.6Z" fill="#A39EC0"/>
<path d="M342.6 153.9C342.6 152.6 342 151.4 340.9 150.6V174.9C341.9 174.1 342.6 172.9 342.6 171.6V153.9Z" fill="#A39EC0"/>
<path d="M236.103 115.947C236.103 116.514 236.008 117.039 235.819 117.524C235.634 118.005 235.37 118.422 235.028 118.775C234.686 119.128 234.274 119.404 233.793 119.604C233.312 119.8 232.777 119.898 232.189 119.898C231.605 119.898 231.072 119.8 230.591 119.604C230.11 119.404 229.696 119.128 229.351 118.775C229.008 118.422 228.743 118.005 228.554 117.524C228.365 117.039 228.271 116.514 228.271 115.947C228.271 115.38 228.365 114.856 228.554 114.375C228.743 113.89 229.008 113.472 229.351 113.119C229.696 112.766 230.11 112.491 230.591 112.295C231.072 112.096 231.605 111.996 232.189 111.996C232.581 111.996 232.95 112.042 233.296 112.135C233.642 112.224 233.959 112.352 234.248 112.52C234.536 112.684 234.795 112.885 235.023 113.124C235.255 113.359 235.451 113.623 235.611 113.915C235.771 114.208 235.893 114.525 235.974 114.867C236.06 115.209 236.103 115.569 236.103 115.947ZM234.633 115.947C234.633 115.523 234.576 115.143 234.461 114.808C234.347 114.469 234.185 114.183 233.975 113.947C233.765 113.712 233.508 113.532 233.205 113.407C232.906 113.283 232.567 113.22 232.189 113.22C231.812 113.22 231.471 113.283 231.168 113.407C230.869 113.532 230.612 113.712 230.398 113.947C230.188 114.183 230.026 114.469 229.912 114.808C229.798 115.143 229.741 115.523 229.741 115.947C229.741 116.371 229.798 116.752 229.912 117.091C230.026 117.426 230.188 117.711 230.398 117.946C230.612 118.178 230.869 118.356 231.168 118.481C231.471 118.606 231.812 118.668 232.189 118.668C232.567 118.668 232.906 118.606 233.205 118.481C233.508 118.356 233.765 118.178 233.975 117.946C234.185 117.711 234.347 117.426 234.461 117.091C234.576 116.752 234.633 116.371 234.633 115.947ZM242.675 117.989C242.753 117.989 242.822 118.019 242.883 118.08L243.45 118.695C243.136 119.083 242.749 119.381 242.29 119.588C241.833 119.794 241.285 119.898 240.643 119.898C240.069 119.898 239.552 119.8 239.093 119.604C238.636 119.408 238.246 119.135 237.922 118.786C237.597 118.436 237.348 118.019 237.173 117.535C237.002 117.05 236.917 116.521 236.917 115.947C236.917 115.366 237.009 114.835 237.195 114.354C237.38 113.869 237.64 113.452 237.975 113.103C238.314 112.753 238.717 112.482 239.183 112.29C239.65 112.094 240.167 111.996 240.734 111.996C241.297 111.996 241.796 112.089 242.231 112.274C242.669 112.459 243.042 112.702 243.348 113.001L242.867 113.669C242.839 113.712 242.801 113.75 242.755 113.782C242.712 113.814 242.651 113.83 242.573 113.83C242.52 113.83 242.464 113.815 242.407 113.787C242.35 113.755 242.288 113.717 242.22 113.675C242.152 113.628 242.074 113.578 241.985 113.525C241.896 113.472 241.792 113.423 241.675 113.381C241.557 113.334 241.42 113.297 241.263 113.268C241.11 113.236 240.932 113.22 240.729 113.22C240.383 113.22 240.066 113.283 239.777 113.407C239.492 113.529 239.246 113.707 239.039 113.942C238.832 114.174 238.672 114.459 238.558 114.797C238.444 115.132 238.387 115.516 238.387 115.947C238.387 116.382 238.447 116.768 238.569 117.107C238.693 117.446 238.861 117.731 239.071 117.962C239.281 118.194 239.529 118.372 239.814 118.497C240.099 118.618 240.406 118.679 240.734 118.679C240.93 118.679 241.106 118.668 241.263 118.647C241.424 118.625 241.57 118.591 241.702 118.545C241.837 118.499 241.964 118.44 242.081 118.369C242.202 118.294 242.322 118.203 242.439 118.096C242.475 118.064 242.512 118.039 242.552 118.021C242.591 118 242.632 117.989 242.675 117.989ZM249.835 113.263H247.504V119.812H246.065V113.263H243.735V112.081H249.835V113.263ZM257.958 115.947C257.958 116.514 257.863 117.039 257.674 117.524C257.489 118.005 257.225 118.422 256.883 118.775C256.541 119.128 256.129 119.404 255.648 119.604C255.167 119.8 254.632 119.898 254.044 119.898C253.46 119.898 252.927 119.8 252.446 119.604C251.964 119.404 251.551 119.128 251.205 118.775C250.863 118.422 250.598 118.005 250.409 117.524C250.22 117.039 250.125 116.514 250.125 115.947C250.125 115.38 250.22 114.856 250.409 114.375C250.598 113.89 250.863 113.472 251.205 113.119C251.551 112.766 251.964 112.491 252.446 112.295C252.927 112.096 253.46 111.996 254.044 111.996C254.436 111.996 254.805 112.042 255.151 112.135C255.497 112.224 255.814 112.352 256.102 112.52C256.391 112.684 256.65 112.885 256.878 113.124C257.109 113.359 257.305 113.623 257.466 113.915C257.626 114.208 257.747 114.525 257.829 114.867C257.915 115.209 257.958 115.569 257.958 115.947ZM256.487 115.947C256.487 115.523 256.43 115.143 256.316 114.808C256.202 114.469 256.04 114.183 255.83 113.947C255.62 113.712 255.363 113.532 255.06 113.407C254.761 113.283 254.422 113.22 254.044 113.22C253.666 113.22 253.326 113.283 253.023 113.407C252.724 113.532 252.467 113.712 252.253 113.947C252.043 114.183 251.881 114.469 251.767 114.808C251.653 115.143 251.596 115.523 251.596 115.947C251.596 116.371 251.653 116.752 251.767 117.091C251.881 117.426 252.043 117.711 252.253 117.946C252.467 118.178 252.724 118.356 253.023 118.481C253.326 118.606 253.666 118.668 254.044 118.668C254.422 118.668 254.761 118.606 255.06 118.481C255.363 118.356 255.62 118.178 255.83 117.946C256.04 117.711 256.202 117.426 256.316 117.091C256.43 116.752 256.487 116.371 256.487 115.947ZM262.113 118.689C262.38 118.689 262.605 118.657 262.786 118.593C262.968 118.529 263.113 118.443 263.22 118.337C263.33 118.23 263.408 118.105 263.455 117.962C263.505 117.82 263.53 117.668 263.53 117.508C263.53 117.34 263.503 117.191 263.449 117.059C263.396 116.923 263.312 116.809 263.198 116.717C263.084 116.62 262.936 116.547 262.754 116.497C262.576 116.448 262.361 116.423 262.108 116.423H260.659V118.689H262.113ZM260.659 113.194V115.428H261.803C262.295 115.428 262.665 115.339 262.915 115.161C263.168 114.983 263.294 114.699 263.294 114.311C263.294 113.908 263.18 113.621 262.952 113.45C262.724 113.279 262.368 113.194 261.883 113.194H260.659ZM261.883 112.081C262.389 112.081 262.822 112.13 263.182 112.226C263.542 112.322 263.836 112.459 264.064 112.637C264.296 112.816 264.465 113.031 264.572 113.284C264.679 113.537 264.733 113.823 264.733 114.14C264.733 114.322 264.706 114.496 264.652 114.664C264.599 114.828 264.515 114.983 264.401 115.129C264.291 115.271 264.148 115.401 263.973 115.519C263.802 115.637 263.597 115.737 263.359 115.819C264.421 116.057 264.952 116.631 264.952 117.54C264.952 117.868 264.889 118.171 264.765 118.449C264.64 118.727 264.458 118.967 264.219 119.171C263.98 119.37 263.686 119.527 263.337 119.641C262.988 119.755 262.589 119.812 262.14 119.812H259.221V112.081H261.883ZM267.702 113.226V115.369H270.407V116.476H267.702V118.663H271.134V119.812H266.258V112.081H271.134V113.226H267.702ZM274.745 115.76C275.016 115.76 275.251 115.726 275.451 115.658C275.654 115.59 275.82 115.498 275.948 115.38C276.08 115.259 276.178 115.116 276.242 114.952C276.306 114.788 276.338 114.608 276.338 114.412C276.338 114.02 276.208 113.719 275.948 113.509C275.691 113.299 275.297 113.194 274.766 113.194H273.847V115.76H274.745ZM278.445 119.812H277.145C276.899 119.812 276.721 119.716 276.611 119.523L274.985 117.048C274.925 116.955 274.857 116.89 274.782 116.85C274.711 116.811 274.604 116.792 274.462 116.792H273.847V119.812H272.409V112.081H274.766C275.29 112.081 275.739 112.137 276.114 112.247C276.491 112.354 276.8 112.506 277.038 112.702C277.281 112.898 277.459 113.133 277.573 113.407C277.687 113.678 277.744 113.978 277.744 114.306C277.744 114.566 277.705 114.812 277.627 115.043C277.552 115.275 277.441 115.485 277.295 115.674C277.153 115.863 276.974 116.029 276.76 116.171C276.55 116.314 276.31 116.426 276.039 116.508C276.131 116.562 276.217 116.626 276.295 116.701C276.374 116.772 276.445 116.857 276.509 116.957L278.445 119.812Z" fill="white"/>
<path d="M282.6 115.8L280.6 117.8C280.4 118 280.3 118.2 280.3 118.5C280.3 119.4 281.4 119.9 282 119.2L285.4 115.8C285.8 115.4 285.8 114.8 285.4 114.4L282 111C281.4 110.4 280.3 110.8 280.3 111.7C280.3 112 280.4 112.2 280.6 112.4L282.6 114.4C283 114.8 283 115.4 282.6 115.8Z" fill="#EF456E"/>
<path d="M215.7 114.4L217.7 112.4C217.9 112.2 218 112 218 111.7C218 110.8 216.9 110.3 216.3 111L212.9 114.4C212.5 114.8 212.5 115.4 212.9 115.8L216.3 119.2C216.9 119.8 218 119.4 218 118.5C218 118.2 217.9 118 217.7 117.8L215.7 115.8C215.3 115.4 215.3 114.8 215.7 114.4Z" fill="#EF456E"/>
<path d="M244.9 312.8H177.2V362.8H244.9V312.8Z" fill="#9E4CDF"/>
<path d="M226.4 333.5H215.3V322.4H206.7V333.5H195.6V342.1H206.7V353.2H215.3V342.1H226.4V333.5Z" fill="white"/>
<path d="M323.3 312.8H255.6V362.8H323.3V312.8Z" fill="white"/>
<path d="M293 319H262.5V323.6H293V319Z" fill="#A39EC0"/>
<path d="M285.5 326.8H262.5V330.1H285.5V326.8Z" fill="#C2BEDB"/>
<path d="M308.6 332.9H262.5V336.2H308.6V332.9Z" fill="#C2BEDB"/>
<path d="M277 339.1H262.5V342.4H277V339.1Z" fill="#C2BEDB"/>
<path d="M301 339.1H280V342.4H301V339.1Z" fill="#C2BEDB"/>
<path d="M317.2 339.1H304.1V342.4H317.2V339.1Z" fill="#C2BEDB"/>
<path d="M293.5 345.2H262.5V348.5H293.5V345.2Z" fill="#C2BEDB"/>
<path d="M305.4 345.2H296.7V348.5H305.4V345.2Z" fill="#C2BEDB"/>
<path d="M285.5 351.3H262.5V354.6H285.5V351.3Z" fill="#C2BEDB"/>
<path d="M317.2 326.8H289V330.1H317.2V326.8Z" fill="#C2BEDB"/>
<path d="M306.4 319H295.7V323.6H306.4V319Z" fill="#A39EC0"/>
<path d="M244.9 373.6H177.2V423.6H244.9V373.6Z" fill="white"/>
<path d="M214.2 380.8H183.7V385.4H214.2V380.8Z" fill="#A39EC0"/>
<path d="M206.7 388.6H183.7V391.9H206.7V388.6Z" fill="#C2BEDB"/>
<path d="M229.8 394.7H183.7V398H229.8V394.7Z" fill="#C2BEDB"/>
<path d="M198.2 400.8H183.7V404.1H198.2V400.8Z" fill="#C2BEDB"/>
<path d="M222.2 400.8H201.2V404.1H222.2V400.8Z" fill="#C2BEDB"/>
<path d="M238.4 400.8H225.3V404.1H238.4V400.8Z" fill="#C2BEDB"/>
<path d="M214.7 407H183.7V410.3H214.7V407Z" fill="#C2BEDB"/>
<path d="M226.5 407H217.8V410.3H226.5V407Z" fill="#C2BEDB"/>
<path d="M206.7 413.1H183.7V416.4H206.7V413.1Z" fill="#C2BEDB"/>
<path d="M238.4 388.6H210.2V391.9H238.4V388.6Z" fill="#C2BEDB"/>
<path d="M227.6 380.8H216.9V385.4H227.6V380.8Z" fill="#A39EC0"/>
<path d="M323.3 373.6H255.6V423.6H323.3V373.6Z" fill="#EFAC3F"/>
<g opacity="0.2">
<path opacity="0.2" d="M312 91.6H263C260.6 91.6 258.5 93.4 258.6 95.7C258.6 102.1 251.9 106.9 244.9 103.8C241.7 102.4 240 99.1 239.9 95.7C239.9 93.4 237.9 91.6 235.5 91.6H191.8L165.3 118.1V278.3L333 110.6C332.3 100 323.2 91.6 312 91.6Z" fill="white"/>
<path opacity="0.2" d="M165.2 302V338.5L333.1 170.7V134.2L165.2 302Z" fill="white"/>
<path opacity="0.2" d="M165.2 415.2C165.2 425.9 174.2 434.6 185.3 434.6H253.1L333.1 354.6V194.4L165.2 362.3V415.2Z" fill="white"/>
<path opacity="0.2" d="M313.3 434.6L333.1 414.8V378.3L276.8 434.6H313.3Z" fill="white"/>
</g>
<path d="M146.5 308.6C146.2 308.2 145.9 307.9 145.5 307.6C144.5 306.7 144 305.2 143.7 303.9C143.3 302.3 143.1 300.6 142.5 299.1C142.4 298.9 142.3 298.6 142.1 298.4C142 298.3 141.8 298.2 141.6 298.2C140.8 297.9 140 297.6 139.1 297.6C138.4 297.6 137.7 297.7 137 297.8C135.8 298.1 134.2 298.7 133.8 300C133.7 300.1 133.7 300.3 133.7 300.4C133.6 302.6 134.4 304.7 134.7 306.9C135 308.8 134.5 310.6 134.5 312.5C134.4 314.4 134.7 316.3 135.1 318.1C135.3 319.1 135.8 320.6 136.9 320.9C137.3 321 137.7 320.8 137.9 320.6C138.8 322 139.9 322.7 141.1 321.6C141.5 322.1 141.9 322.6 142.6 322.6C143.2 322.6 143.8 322.3 144.1 321.8C144.7 322.4 145.4 322.6 146 322.2C147.1 321.5 146.8 320 146.6 319C146.1 317 144.4 314.8 144.5 312.6C145.9 313.2 148.9 313.6 148.6 311.4C148.4 310.1 147.1 309.3 146.5 308.6Z" fill="#F4CBA2"/>
<path d="M281.5 218.5C281.4 218.4 281.3 218.3 281.2 218.2C280.9 217.9 280.7 217.5 280.4 217.3C279.8 216.6 279 216.2 278 216.2C277 216.2 276.1 216.4 275.2 216.9C274.3 217.4 273.5 218.3 272.6 218.9C272 219.3 271.2 219.7 270.8 220.3C270.1 221.6 271.3 222.9 272.4 223.3C274.2 223.9 275.8 223.3 277.5 223.3C278.2 223.8 279.2 223.2 279.3 222.5C280.1 222.7 280.8 222.2 281.4 221.8C281.6 221.7 281.9 221.5 282.1 221.4C282.3 221.3 282.5 221.2 282.6 221C282.7 220.8 282.7 220.6 282.6 220.4C282.5 220.1 282.3 219.9 282.1 219.7C282.1 219.2 281.8 218.9 281.5 218.5Z" fill="#EDBB8E"/>
<path d="M277.8 219.1C278.3 218 279.8 218 280.8 217.9C282.2 217.7 283.5 217.5 284.9 217.3C285.8 217.1 287 217 287.5 216.2C287.6 216 287.7 215.7 287.6 215.5C287.3 214.5 285.9 214.5 285.1 214.6C283.8 214.8 282.5 214.9 281.2 215.1C277.9 215.5 274.6 216.2 271.4 216.9C271.1 217 270.8 217 270.5 217.1C268.9 217.5 267.2 217.8 265.6 218.1C263.8 218.4 262 218.7 260.3 219.3C259.1 219.7 257.3 220 256.7 221.2C256 222.5 256.8 226.3 258.6 226.1C258.7 226.2 258.8 226.2 258.9 226.2C261.9 226.8 265 225.8 267.9 225.2C268.6 225.1 269.5 224.8 270.3 225.1C270.6 225.2 270.8 225.4 271.1 225.5C271.6 225.8 272.4 226.1 273.1 226.1C273.7 226.1 274.2 225.8 274.7 225.6C275.7 225.2 276.7 225 277.8 224.9C278.4 224.8 279 224.8 279.5 224.7C280.3 224.5 281.1 224 281.7 223.4C282 223.1 282.2 222.8 282.2 222.4C282.2 222.1 282.2 221.6 281.7 221.6C280.8 221.7 279.7 221.9 278.8 221.7C277.7 221.5 277.4 220.2 277.7 219.2C277.7 219.2 277.7 219.2 277.8 219.1Z" fill="#F4CBA2"/>
<path d="M192.6 143.9C191.8 142.4 190.6 141.6 188.9 142.2C188.1 142.5 187.3 142.8 186.5 143.2C188.8 139.6 190.2 134.5 185.6 133.2C183.2 132.5 181.1 134.2 179.7 135.9C178.6 137.4 177.5 138.7 176.3 139.9C176 138.8 175.6 137.4 174.3 137.1C172.4 136.7 170.4 138.7 168.8 139.5C167.3 140.2 166 141.1 164.5 141.8C162.8 142.7 161 143.7 160.1 145.5C159.8 146 160.1 146 159.5 146C158 146.1 156.8 145.8 155.5 146.8C153.3 148.5 152.8 151.7 152.7 154.2C152.5 160.5 153.9 166.9 155.4 173C155.8 174.4 156.1 175.9 156.5 177.3C157.1 179.3 158.5 180.9 160 182.2C161.3 183.3 163.7 184.9 165.5 184.2C167.1 183.6 168.5 182.2 169.5 180.8C171.7 177.9 173 174.3 174.2 170.8C174.4 170.4 174.5 169.9 174.7 169.5C174.9 168.8 174.6 168.3 174.2 168.1C174.4 167.3 174.6 166.6 174.8 165.8C175.4 164.1 176.3 162.6 177.4 161.2C177.5 161.2 177.6 161.1 177.7 161C178.7 160 179.6 158.9 180.7 158C182.1 156.8 183.8 156.3 185.4 155.4C187.1 154.5 190.2 153.1 189.2 150.7C191.8 149.5 194.1 146.7 192.6 143.9Z" fill="#424060"/>
<path d="M184.2 434.7C184.2 434.8 184.7 440.3 184.7 440.3H198.4V433.6L184.2 434.7Z" fill="#F4CBA2"/>
<path d="M150.1 433.5L149.3 440.2H135.6L136.5 433.7L150.1 433.5Z" fill="#F4CBA2"/>
<path d="M186.3 298.7H159.3H148.4L135.7 435.3H150.2L172.3 351.5L177 370.2L183.7 435.3H199.1V298.7H186.3Z" fill="#55517A"/>
<path d="M163.2 303.2C162.6 303 161.9 303.4 161.7 304C159.1 313.1 149.7 316.5 146.7 317.4L146.5 319.9C148.3 319.5 160.8 316.2 164 304.7C164.2 304 163.8 303.4 163.2 303.2Z" fill="#424060"/>
<path d="M199.1 311.5C195.8 309.4 192.5 306.2 191.1 301.3C190.9 300.7 190.3 300.3 189.6 300.5C189 300.7 188.6 301.3 188.8 302C190.6 308.3 195.1 312.1 199.1 314.4V311.5Z" fill="#424060"/>
<path d="M176.5 330.5C176.1 330.5 175.9 330.2 175.9 329.8C175.9 329.7 177.4 317 177.4 302.3C177.4 302 177.7 301.7 178 301.7C178.3 301.7 178.6 302 178.6 302.3C178.6 317 177.1 329.8 177 329.9C177.1 330.3 176.8 330.5 176.5 330.5Z" fill="#424060"/>
<path d="M177.5 319.2C177.3 319.2 177 319 176.9 318.8C176.8 318.5 177 318.2 177.3 318.1C177.4 318.1 179.5 317.3 179.6 313.5C179.8 309.2 179.9 303.4 179.9 303.4H181.1C181.1 303.4 180.9 309.2 180.8 313.5C180.6 318.1 177.8 319.1 177.7 319.1C177.6 319.2 177.6 319.2 177.5 319.2Z" fill="#424060"/>
<path d="M183.7 435.3H198.9C194.7 435.3 192.6 430.7 191.2 427.5C183.4 409.6 186.6 390.1 183.5 371.3C181.8 361.1 179.4 351.1 178.2 340.8C178.1 340.3 177.6 340.1 177.3 340.6C175 344.1 173.4 347.7 172.4 351.6L177 370.3L183.7 435.3Z" fill="#424060"/>
<path d="M199.1 202.3L227.6 223L264.5 216.5C264.5 216.5 267.6 220.8 265.9 227.8C265.9 227.8 241.3 235.5 230.3 239.9C219.4 244.3 197 231.9 197 231.9L199.1 202.3Z" fill="#EF456E"/>
<path d="M266.3 224.8C255.5 226.5 245.2 231.2 234.8 234C227.9 235.8 220.1 235 214 230.9C213.8 230.7 213.5 230.6 213.3 230.4C211.4 229 209.6 227.4 207.7 226C205.7 224.6 203.5 223.5 201.5 222.1C201.3 221.9 201 221.8 200.8 221.6C199.9 221 198.8 220.2 197.7 220.3C197.5 220.9 197.6 221.8 197.6 222.4C197.4 225.6 197.2 228.7 197 231.9C197 231.9 219.3 244.3 230.3 239.9C241.2 235.5 265.9 227.8 265.9 227.8C266.2 226.8 266.3 225.8 266.3 224.8Z" fill="#DD3665"/>
<path d="M199.1 202.3C165 185.5 142.1 205.5 142.1 205.5C142.1 205.5 127.7 245.6 126.9 254.8L133.8 306.1C133.8 306.1 136 307.1 139.4 306.5C142.9 305.9 144.9 304.5 144.9 304.5L142.7 259.7L147.5 245.8L149.6 261.8L147 302.8C147 302.8 158.5 305.7 174.1 305.7C188.8 305.7 200.6 302.8 200.6 302.8C200.6 302.8 201 264.9 202.1 245.1C203.2 225.3 199.1 202.3 199.1 202.3Z" fill="#EF456E"/>
<path d="M179.3 196.1C179.1 196 178.9 195.8 178.8 195.6C178.5 195.2 178.2 194.8 177.8 194.4C177.4 194.1 177 193.8 176.5 193.6C175.8 193.4 175.2 193.5 174.5 193.4C173.7 193.4 172.9 193.3 172 193.3C171.1 193.3 170.2 193.3 169.3 193.3C168.2 193.3 167.1 193.4 166.1 194C165.2 194.6 164.4 195.3 163.6 196.1C165.1 202 177 199.5 178.6 198.4C180.4 197.4 179.6 196.3 179.3 196.1Z" fill="#DD3665"/>
<path d="M174.1 305.7C188.8 305.7 200.6 302.8 200.6 302.8C200.6 302.8 200.6 301.7 200.6 299.8C194.3 300.5 188.1 301.2 181.6 301.1C174 301.1 155.4 303.1 153.6 293.8C152.9 289.9 153.8 285.2 153.9 281.2C153.9 276.7 153.8 272.2 153.5 267.8C153.3 265 152.9 262.2 152.4 259.5C151.9 256.6 151.2 253.8 150.7 251C150.4 249.6 150.2 248.1 150 246.7C149.9 245.8 149.8 245 149.7 244.1C149.7 243.7 149.6 243.2 149.6 242.8C149.6 242.5 149.6 242 149.4 241.7L149.3 241.6C149.2 241.6 149.2 241.6 149.2 241.7C148.2 243 147.7 244.7 147.4 246.3L147.6 245.8L149.7 261.8L147.1 302.8C147 302.8 158.5 305.7 174.1 305.7Z" fill="#DD3665"/>
<path d="M213.8 442.5C213.5 442.1 213.1 441.7 212.7 441.4C211 440 209 439.1 207 438.5C204.9 437.8 202.7 437.2 200.5 436.8C200.1 436.7 199.8 436.7 199.4 436.6C199.1 436.6 198.8 436.4 198.5 436.5C198.3 436.5 198.1 436.7 197.9 436.8C197.4 437.1 196.9 437.4 196.4 437.7C195 438.5 193.5 439 191.9 439.2C190.7 439.4 189.5 439.4 188.3 439.3C187.3 439.2 186.1 439 185.3 438.3C185.1 438.1 183.6 436.7 183.5 437.6C183.2 440.8 183.6 444 183.8 447.2C183.9 448.7 184.9 448.8 186.2 448.8C193.5 449 200.8 449.1 208.1 449.2C209.5 449.2 210.8 449.3 212.2 449.2C213.3 449.1 214.7 448.5 215 447.1C215.6 445.2 214.8 443.7 213.8 442.5Z" fill="#BAD7FF"/>
<path d="M183.8 446.5C183.8 446.7 183.8 446.9 183.8 447C183.9 448.5 184.9 448.6 186.2 448.6C193.5 448.8 200.8 448.9 208.1 449C209.5 449 210.8 449.1 212.2 449C213.3 448.9 214.7 448.3 215 446.9L183.8 446.5Z" fill="white"/>
<path d="M120.3 447C120.7 448.4 121.9 449 123 449.1C124.3 449.2 125.6 449.1 126.9 449.1C133.9 449 140.9 448.9 147.8 448.7C149 448.7 150 448.6 150.1 447.1C150.3 443.9 150.6 440.7 150.4 437.5C150.3 436.5 149 438 148.7 438.2C147.9 438.9 146.8 439.1 145.8 439.2C144.7 439.3 143.5 439.3 142.4 439.1C140.9 438.9 139.5 438.4 138.1 437.6C137.6 437.3 137.1 437 136.6 436.7C136.4 436.6 136.2 436.4 136 436.4C135.7 436.4 135.4 436.5 135.2 436.5C134.8 436.6 134.5 436.6 134.1 436.7C132 437.1 129.9 437.7 127.9 438.4C126 439.1 124.1 439.9 122.5 441.3C122.1 441.6 121.8 442 121.5 442.4C120.6 443.7 119.9 445.2 120.3 447Z" fill="#BAD7FF"/>
<path d="M150.2 446.5C150.2 446.7 150.2 446.9 150.2 447C150.1 448.5 149.2 448.6 147.9 448.6C140.9 448.8 133.9 448.9 127 449C125.7 449 124.4 449.1 123.1 449C122 448.9 120.7 448.3 120.4 446.9L150.2 446.5Z" fill="white"/>
<path d="M188.4 176.9C187.8 172.1 187.8 166.6 186.6 161.9C186.1 159.9 185.1 155.6 183 154.2C180.5 152.5 172.8 154 170 154.1C167.6 154.2 163.9 153.7 161.7 155.1C158.9 157 158.4 162.2 157.7 165.6C155.9 163.8 152.5 165.1 152.3 168C152.2 170.1 153.2 172.4 154.8 173.7C155.2 174 155.7 174.3 156.2 174.5C156.6 174.7 157.5 174.6 157.7 174.8C157.7 174.8 157.7 176.8 157.8 177.9C158.4 182.4 159.8 186 162.9 189.3C163.2 189.6 164.8 190.8 164.8 190.8C165.1 191.9 165.1 193 165.1 194.1C165.1 195 164.8 196.1 165.3 196.9C165.7 197.5 167.7 197.6 168.4 197.6C170.9 197.8 173.4 197.6 175.8 197.3C176.4 197.2 177.3 197.2 177.7 196.6C178 196 177 191.2 177.2 191.1C181.1 190.4 184.7 188.7 186.7 185.7C188.9 183.3 188.8 180.1 188.4 176.9Z" fill="#F4CBA2"/>
<path d="M186.3 187C182.1 187.9 177.9 188.7 173.6 187.7C167.3 186.3 164.7 181.9 163.6 175.9C162.5 169.9 158.6 157.2 166.2 154.1C166.3 154.1 166.4 154.1 166.6 154.1C164.9 154.1 163.1 154.3 161.8 155.1C159 157 158.5 162.2 157.8 165.6C156 163.8 152.6 165.1 152.4 168C152.3 170.1 153.3 172.4 154.9 173.7C155.3 174 155.8 174.3 156.3 174.5C156.7 174.7 157.6 174.6 157.8 174.8C157.8 174.8 157.8 176.8 157.9 177.9C158.5 182.4 159.9 186 163 189.3C163.3 189.6 164.9 190.8 164.9 190.8C165.2 191.9 165.2 193 165.2 194.1C165.2 195 164.9 196.1 165.4 196.9C165.8 197.5 167.8 197.6 168.5 197.6C171 197.8 173.5 197.6 175.9 197.3C176.5 197.2 177.4 197.2 177.8 196.6C178.1 196 177.1 191.2 177.3 191.1C181.1 190.8 184.3 189.4 186.3 187Z" fill="#EDBB8E"/>
<path d="M177.7 174.3C172.2 174.8 168.9 178.5 166.7 183.4C162.7 181.8 161.8 176.2 160.8 172.4C159.9 168.9 158.6 165.2 158.3 161.6C158.2 161 157.3 160.9 157.4 161.6C157.5 162.6 157.6 163.7 157.7 164.8V164.9C158.2 174.4 155.5 188.2 166.9 191.4C172.2 192.9 178.3 192.7 183.4 190.4C187.2 188.6 188.8 184.3 188.8 180.2C188.6 180.2 182.7 173.9 177.7 174.3Z" fill="#424060"/>
<path d="M182.3 180.1C180.6 180 179 180 177.3 180.2C175.9 180.3 174.5 180.3 173.2 181C172.9 181.2 172.7 181.5 172.8 181.8C173.1 184.3 174.6 186.6 177.4 186.6C178.9 186.6 180.5 186.1 181.5 184.9C182.5 183.6 182.8 181.8 182.5 180.3V180.2C182.5 180.2 182.4 180.2 182.3 180.1C182.4 180.2 182.3 180.2 182.3 180.1Z" fill="#F4CBA2"/>
<path d="M101.8 108.7C81.2 108.7 64.5 125.4 64.5 146C64.5 166.6 81.2 183.3 101.8 183.3C122.4 183.3 139.1 166.6 139.1 146C139.1 125.4 122.4 108.7 101.8 108.7ZM101.8 180.8C82.6 180.8 67 165.2 67 146C67 126.8 82.6 111.2 101.8 111.2C121 111.2 136.6 126.8 136.6 146C136.7 165.2 121 180.8 101.8 180.8Z" fill="#EF456E"/>
<path d="M101.8 119.9C103.291 119.9 104.5 118.691 104.5 117.2C104.5 115.709 103.291 114.5 101.8 114.5C100.309 114.5 99.1 115.709 99.1 117.2C99.1 118.691 100.309 119.9 101.8 119.9Z" fill="#EF456E"/>
<path d="M101.8 177.5C103.291 177.5 104.5 176.291 104.5 174.8C104.5 173.309 103.291 172.1 101.8 172.1C100.309 172.1 99.1 173.309 99.1 174.8C99.1 176.291 100.309 177.5 101.8 177.5Z" fill="#EF456E"/>
<path d="M130.7 148.7C132.191 148.7 133.4 147.491 133.4 146C133.4 144.509 132.191 143.3 130.7 143.3C129.209 143.3 128 144.509 128 146C128 147.491 129.209 148.7 130.7 148.7Z" fill="#EF456E"/>
<path d="M73 148.7C74.4912 148.7 75.7 147.491 75.7 146C75.7 144.509 74.4912 143.3 73 143.3C71.5088 143.3 70.3 144.509 70.3 146C70.3 147.491 71.5088 148.7 73 148.7Z" fill="#EF456E"/>
<path d="M117.1 144.1H103.8V124C103.8 122.9 102.9 122.1 101.9 122.1C100.8 122.1 100 123 100 124V146C100 147.1 100.9 147.9 101.9 147.9H117.2C118.3 147.9 119.1 147 119.1 146C119 144.9 118.2 144.1 117.1 144.1Z" fill="#EF456E"/>
<path d="M368.6 75.8C370.8 72.6 371.9 68.7 371.6 64.5C370.9 55.9 363.9 49 355.3 48.4C345 47.7 336.5 55.8 336.5 65.9C336.5 69.6 337.6 73 339.5 75.8L352.6 96.3C353.3 97.3 354.8 97.3 355.5 96.3L368.6 75.8ZM354 53C361.1 53 366.9 58.8 366.9 65.9C366.9 73 361.1 78.8 354 78.8C346.9 78.8 341.1 73 341.1 65.9C341.1 58.8 346.9 53 354 53Z" fill="#EF456E"/>
</svg>
