<svg width="59" height="66" viewBox="0 0 59 66" fill="none" xmlns="http://www.w3.org/2000/svg">
<path d="M29.0765 9.65987L31.8469 12.3889C33.7602 11.4541 35.8495 10.8208 38.0612 10.557C33.8214 4.78226 29.0765 0.26652 29.0765 0.26652C29.0765 0.26652 24.3929 4.81242 20.176 10.5721C22.3571 10.8359 24.4158 11.4692 26.2985 12.3889L29.0765 9.65987Z" fill="#26A9E0"/>
<path d="M36.3699 24.7224C37.1429 24.255 37.9388 23.8328 38.7653 23.4559L32.7959 17.5756C34.4719 19.6488 35.7041 22.0763 36.3699 24.7224Z" fill="#1F8DCD"/>
<path d="M19.3801 23.4483C20.2066 23.8253 21.0102 24.2475 21.7755 24.7224C22.4413 22.0763 23.6735 19.6488 25.3418 17.5756L19.3801 23.4483Z" fill="#1F8DCD"/>
<path d="M32.8036 17.5756L29.6658 14.4847L29.1607 13.9871L29.0765 13.9042L28.9923 13.9871L28.4872 14.4847L25.3495 17.5756C23.6811 19.6488 22.4413 22.0763 21.7832 24.7224C24.7296 26.5242 27.2245 28.9592 29.0765 31.8466C30.9286 28.9592 33.4235 26.5242 36.3699 24.7224C35.7041 22.0763 34.4719 19.6488 32.8036 17.5756ZM28.602 26.4639H25.6939V23.7574H28.602V26.4639ZM28.602 22.8226H25.6939V21.1565C25.6939 20.3348 26.3673 19.6639 27.2092 19.6639H28.6097V22.8226H28.602ZM32.4592 26.4639H29.551V23.7574H32.4592V26.4639ZM32.4592 22.8226H29.551V19.6639H30.9515C31.7857 19.6639 32.4668 20.3273 32.4668 21.1565V22.8226H32.4592Z" fill="#106EB5"/>
<path d="M36.3699 24.7224C36.7296 26.1698 36.9286 27.6851 36.9286 29.2457C36.9286 33.1659 35.7117 36.8071 33.6301 39.8226C38.8495 38.2395 42.8826 34.0177 44.1378 28.733L38.773 23.4559C37.9388 23.8328 37.1429 24.255 36.3699 24.7224Z" fill="#1259A5"/>
<path d="M44.023 21.7747C43.0128 18.0581 40.6327 14.0776 38.0536 10.5645C35.8418 10.8208 33.7526 11.4616 31.8393 12.3965L41.8878 22.2949L44.5128 24.8807C44.4821 23.8705 44.3138 22.8302 44.023 21.7747Z" fill="#1F8DCD"/>
<path d="M36.3699 24.7224C33.4235 26.5242 30.9286 28.9592 29.0765 31.8466C30.6684 34.3268 31.7857 37.1388 32.2908 40.1543C32.7423 40.0639 33.1862 39.9508 33.6224 39.8226C35.7041 36.8071 36.9209 33.1659 36.9209 29.2457C36.9286 27.6852 36.7296 26.1699 36.3699 24.7224Z" fill="#1F8DCD"/>
<path d="M20.176 10.5721C17.5893 14.1078 15.1786 18.1033 14.1454 21.7747C13.8469 22.8452 13.6709 23.878 13.6327 24.8732L16.2577 22.2874L26.3061 12.3889C24.4158 11.4692 22.3571 10.8359 20.176 10.5721Z" fill="#1F8DCD"/>
<path d="M21.7832 24.7224C21.0102 24.255 20.2143 23.8328 19.3878 23.4483L14.023 28.733C15.2704 34.0177 19.3112 38.2395 24.5306 39.8226C22.449 36.8071 21.2321 33.1659 21.2321 29.2457C21.2245 27.6852 21.4158 26.1699 21.7832 24.7224Z" fill="#1259A5"/>
<path d="M21.7832 24.7224C21.4235 26.1699 21.2245 27.6852 21.2245 29.2457C21.2245 33.1659 22.4413 36.8071 24.523 39.8226C24.9592 39.9583 25.4031 40.0639 25.8546 40.1543C26.3597 37.1388 27.477 34.3268 29.0689 31.8466C27.2245 28.9592 24.7296 26.5242 21.7832 24.7224Z" fill="#1F8DCD"/>
<path d="M25.8622 40.1543C26.9031 40.373 27.9745 40.4936 29.0765 40.4936C30.1786 40.4936 31.25 40.373 32.2908 40.1543C31.7857 37.1388 30.6684 34.3268 29.0765 31.8466C27.4847 34.3268 26.3673 37.1388 25.8622 40.1543Z" fill="#26A9E0"/>
<path d="M6.6148 48.6129C6.6148 48.4621 6.64541 48.3264 6.69898 48.2133C6.75255 48.1002 6.82908 48.0022 6.92092 47.9268C7.01276 47.8514 7.11225 47.7911 7.2347 47.7534C7.34949 47.7157 7.47194 47.6931 7.59439 47.6931C7.71684 47.6931 7.83164 47.7157 7.94643 47.7534C8.06123 47.7911 8.16837 47.8514 8.26021 47.9268C8.35204 48.0022 8.42857 48.1002 8.48215 48.2133C8.53572 48.3264 8.56633 48.4621 8.56633 48.6129V56.9885C8.56633 57.1392 8.53572 57.2749 8.48215 57.388C8.42857 57.5011 8.35204 57.5991 8.26021 57.6745C8.16837 57.7499 8.06123 57.8102 7.94643 57.8479C7.83164 57.8856 7.70919 57.9082 7.58674 57.9082C7.46429 57.9082 7.34949 57.8931 7.2347 57.8479C7.1199 57.8102 7.01276 57.7499 6.92092 57.6745C6.82908 57.5991 6.75255 57.5011 6.69898 57.388C6.64541 57.2749 6.6148 57.1392 6.6148 56.9885V53.3698H1.99235V56.9885C1.99235 57.1392 1.96174 57.2749 1.90816 57.388C1.85459 57.5011 1.77806 57.5991 1.68623 57.6745C1.59439 57.7499 1.48725 57.8102 1.37245 57.8479C1.25765 57.8856 1.13521 57.9082 1.01276 57.9082C0.890307 57.9082 0.775511 57.8931 0.660715 57.8479C0.545919 57.8102 0.438777 57.7499 0.34694 57.6745C0.255103 57.5991 0.178572 57.5011 0.125001 57.388C0.0714295 57.2749 0.0408173 57.1392 0.0408173 56.9885V48.6129C0.0408173 48.4621 0.0714295 48.3264 0.125001 48.2133C0.178572 48.1002 0.255103 48.0022 0.34694 47.9268C0.438777 47.8514 0.545919 47.7911 0.660715 47.7534C0.775511 47.7157 0.89796 47.6931 1.02041 47.6931C1.14286 47.6931 1.25765 47.7157 1.37245 47.7534C1.48725 47.7911 1.59439 47.8514 1.68623 47.9268C1.77806 48.0022 1.85459 48.1002 1.90816 48.2133C1.96174 48.3264 1.99235 48.4621 1.99235 48.6129V51.8621H6.62245V48.6129H6.6148Z" fill="black"/>
<path d="M11.5204 52.8044C11.5204 52.0053 11.6276 51.2816 11.8495 50.6182C12.0638 49.9623 12.3852 49.3969 12.8061 48.9295C13.227 48.4621 13.7474 48.0927 14.375 47.8364C14.9949 47.58 15.7143 47.4519 16.5255 47.4519C17.3367 47.4519 18.0561 47.58 18.6837 47.8364C19.3036 48.0927 19.824 48.4621 20.2526 48.9295C20.6735 49.3969 20.9949 49.9623 21.2092 50.6182C21.4235 51.2741 21.5306 52.0053 21.5306 52.8044C21.5306 53.6035 21.4235 54.3273 21.2092 54.9831C20.9949 55.639 20.6735 56.2044 20.2526 56.6718C19.8316 57.1392 19.3112 57.5086 18.6837 57.765C18.0638 58.0213 17.3444 58.157 16.5255 58.157C15.7143 58.157 15.0026 58.0288 14.375 57.765C13.7551 57.5086 13.2347 57.1392 12.8061 56.6718C12.3852 56.2044 12.0638 55.639 11.8495 54.9831C11.6276 54.3348 11.5204 53.6035 11.5204 52.8044ZM13.5638 52.8044C13.5638 53.3774 13.6173 53.8976 13.7321 54.38C13.8469 54.8625 14.023 55.2772 14.2602 55.6239C14.4974 55.9707 14.8036 56.2497 15.1786 56.4457C15.5459 56.6417 15.9898 56.7397 16.5102 56.7397C17.023 56.7397 17.4668 56.6417 17.8418 56.4457C18.2092 56.2497 18.5153 55.9783 18.7602 55.6239C18.9974 55.2772 19.1811 54.8625 19.2959 54.38C19.4107 53.8976 19.4719 53.3698 19.4719 52.8044C19.4719 52.239 19.4184 51.7188 19.3036 51.2364C19.1888 50.7539 19.0128 50.3392 18.7755 49.9849C18.5383 49.6306 18.2245 49.3592 17.8571 49.1557C17.4821 48.9596 17.0383 48.8541 16.5255 48.8541C16.0128 48.8541 15.5689 48.9521 15.1939 49.1557C14.8189 49.3517 14.5128 49.6306 14.2755 49.9849C14.0383 50.3392 13.8622 50.7539 13.7474 51.2364C13.6173 51.7188 13.5638 52.239 13.5638 52.8044Z" fill="black"/>
<path d="M30.6837 55.6013L33.6148 49.0727C33.7219 48.8013 33.8367 48.5752 33.9439 48.4018C34.0587 48.2208 34.1735 48.0776 34.2959 47.9721C34.4184 47.8665 34.5561 47.7911 34.7015 47.7459C34.8469 47.7007 35.0153 47.6856 35.2066 47.6856C35.3903 47.6856 35.5663 47.7157 35.7347 47.7685C35.9031 47.8288 36.0485 47.9193 36.1786 48.0399C36.3087 48.1605 36.4082 48.3189 36.4847 48.5149C36.5612 48.7109 36.5995 48.9446 36.5995 49.2235V57.1016C36.5995 57.2373 36.5765 57.3579 36.5306 57.4634C36.4847 57.569 36.4235 57.6519 36.3469 57.7197C36.2704 57.7876 36.1786 57.8404 36.0867 57.8781C35.9872 57.9157 35.8878 57.9308 35.7883 57.9308C35.6888 57.9308 35.5893 57.9157 35.4974 57.8781C35.4056 57.8404 35.3138 57.7876 35.2372 57.7197C35.1607 57.6519 35.0995 57.569 35.0536 57.4634C35.0077 57.3579 34.9847 57.2448 34.9847 57.1016V49.5175L31.7781 56.7623C31.7321 56.898 31.6633 57.0111 31.5867 57.1091C31.5102 57.2071 31.4184 57.29 31.3189 57.3654C31.2194 57.4333 31.1122 57.486 30.9974 57.5237C30.8827 57.5614 30.7679 57.5765 30.6531 57.5765C30.4311 57.5765 30.2168 57.5087 30.0179 57.3805C29.8189 57.2523 29.6658 57.0412 29.5663 56.7623L26.3673 49.5628V57.1016C26.3673 57.2373 26.3444 57.3579 26.2985 57.4634C26.2526 57.569 26.1913 57.6519 26.1148 57.7197C26.0383 57.7876 25.9541 57.8404 25.8546 57.8781C25.7551 57.9157 25.6556 57.9308 25.5561 57.9308C25.4566 57.9308 25.3571 57.9157 25.2577 57.8781C25.1582 57.8404 25.074 57.7876 24.9974 57.7197C24.9209 57.6519 24.8597 57.569 24.8138 57.4634C24.7679 57.3579 24.7449 57.2448 24.7449 57.1016V49.216C24.7449 48.937 24.7832 48.7033 24.8597 48.5073C24.9362 48.3113 25.0357 48.153 25.1658 48.0324C25.2959 47.9118 25.4413 47.8213 25.6173 47.761C25.7857 47.7007 25.9617 47.6781 26.1531 47.6781C26.3444 47.6781 26.5128 47.7007 26.6582 47.7459C26.8112 47.7911 26.949 47.8665 27.0714 47.9721C27.2015 48.0776 27.3163 48.2208 27.4311 48.4018C27.5383 48.5827 27.6531 48.8089 27.7602 49.0803L30.6378 55.5938H30.6837V55.6013Z" fill="black"/>
<path d="M41.2449 57.9233C41.1225 57.9233 41 57.9007 40.8852 57.8479C40.7704 57.7951 40.6709 57.7348 40.5867 57.6519C40.5026 57.569 40.426 57.471 40.3801 57.3579C40.3265 57.2448 40.3036 57.1317 40.3036 57.0036V48.5978C40.3036 48.4772 40.3265 48.3641 40.3724 48.251C40.4184 48.1379 40.4872 48.0399 40.5638 47.957C40.648 47.8741 40.7475 47.8062 40.8546 47.7534C40.9694 47.7007 41.0842 47.6781 41.2143 47.6781H46.4796C46.6021 47.6781 46.7015 47.7007 46.7934 47.7384C46.8852 47.7761 46.9541 47.8288 47.0153 47.8967C47.0765 47.9645 47.1225 48.0399 47.1454 48.1228C47.176 48.2058 47.1913 48.2962 47.1913 48.3792C47.1913 48.4621 47.176 48.5526 47.1454 48.6355C47.1148 48.7184 47.0689 48.7938 47.0153 48.8616C46.9541 48.9295 46.8776 48.9823 46.7934 49.02C46.7015 49.0577 46.6021 49.0803 46.4796 49.0803H42.1862V51.9676H46.2041C46.3265 51.9676 46.4337 51.9903 46.5255 52.0279C46.6174 52.0656 46.6939 52.1184 46.7551 52.1863C46.8163 52.2541 46.8623 52.3295 46.8929 52.4124C46.9235 52.4954 46.9388 52.5858 46.9388 52.6763C46.9388 52.7592 46.9235 52.8497 46.8929 52.9326C46.8623 53.0155 46.8163 53.0909 46.7551 53.1588C46.6939 53.2266 46.6174 53.2794 46.5332 53.3171C46.4413 53.3548 46.3418 53.3774 46.2194 53.3774H42.2015V56.506H46.6556C46.7781 56.506 46.8776 56.5286 46.9694 56.5663C47.0612 56.604 47.1301 56.6568 47.1913 56.7246C47.2526 56.7925 47.2985 56.8679 47.3214 56.9508C47.3521 57.0337 47.3674 57.1242 47.3674 57.2071C47.3674 57.29 47.3521 57.3805 47.3214 57.4634C47.2908 57.5464 47.2449 57.6217 47.1913 57.6896C47.1301 57.7574 47.0536 57.8102 46.9694 57.8479C46.8776 57.8856 46.7781 57.9082 46.6556 57.9082H41.2449V57.9233Z" fill="black"/>
<path d="M52.074 50.2488C52.074 50.5353 52.1505 50.769 52.3112 50.9574C52.4719 51.1459 52.6786 51.3118 52.9388 51.4475C53.199 51.5832 53.4974 51.7038 53.8342 51.8018C54.1709 51.9073 54.5153 52.0053 54.875 52.1109C55.3342 52.2466 55.7628 52.3973 56.1531 52.5632C56.551 52.7215 56.8878 52.9175 57.1786 53.1512C57.4694 53.3849 57.699 53.6563 57.8597 53.973C58.0281 54.2896 58.1122 54.6741 58.1122 55.1189C58.1122 55.5938 58.0128 56.0235 57.8138 56.4005C57.6148 56.7774 57.3393 57.1016 56.9796 57.3654C56.6199 57.6293 56.1913 57.8328 55.6939 57.9685C55.1888 58.1042 54.6378 58.1796 54.0255 58.1796C53.5663 58.1796 53.1301 58.1419 52.7245 58.0665C52.3112 57.9911 51.9362 57.8856 51.5995 57.7499C51.2628 57.6142 50.9643 57.4559 50.7041 57.275C50.4515 57.094 50.2525 56.8905 50.1071 56.6719C50.0689 56.604 50.0459 56.5211 50.0459 56.4306C50.0459 56.3477 50.0689 56.2572 50.1071 56.1668C50.1454 56.0763 50.199 55.9934 50.2526 55.918C50.3138 55.8426 50.3827 55.7823 50.4515 55.737C50.5281 55.6918 50.5969 55.6692 50.6735 55.6692C50.7577 55.6692 50.8418 55.6918 50.926 55.7446C51.0102 55.7974 51.0944 55.8501 51.1786 55.9029C51.3316 56.0009 51.5077 56.0989 51.7066 56.1969C51.9056 56.2949 52.1275 56.3778 52.3648 56.4532C52.602 56.5286 52.8622 56.5889 53.1378 56.6417C53.4133 56.6869 53.7041 56.7095 54.0179 56.7095C54.324 56.7095 54.6148 56.6794 54.875 56.6266C55.1429 56.5663 55.3724 56.4834 55.5638 56.3628C55.7551 56.2497 55.9082 56.0989 56.023 55.9255C56.1378 55.7521 56.1913 55.541 56.1913 55.2998C56.1913 54.9832 56.1148 54.7268 55.9541 54.5308C55.7934 54.3348 55.5867 54.1614 55.3265 54.0182C55.0663 53.875 54.7679 53.7619 54.4388 53.6639C54.1097 53.5659 53.7653 53.4603 53.4209 53.3548C53.2908 53.3095 53.1378 53.2568 52.9617 53.1965C52.7857 53.1362 52.602 53.0683 52.426 52.9929C52.2423 52.9175 52.074 52.8421 51.9133 52.7668C51.7526 52.6914 51.6224 52.616 51.523 52.5406C50.6429 52.1109 50.199 51.3796 50.199 50.3468C50.199 49.8945 50.2985 49.4874 50.4974 49.1255C50.6964 48.7636 50.9719 48.4621 51.324 48.2133C51.676 47.9645 52.0893 47.7761 52.5638 47.6404C53.0383 47.5122 53.5587 47.4444 54.1173 47.4444C54.8597 47.4444 55.5255 47.5499 56.1071 47.761C56.6888 47.9721 57.1939 48.2887 57.6224 48.7109C57.6837 48.7787 57.7296 48.8466 57.7525 48.922C57.7755 48.9973 57.7908 49.0727 57.7908 49.1632C57.7908 49.2461 57.7755 49.3291 57.7525 49.412C57.7296 49.4949 57.6913 49.5778 57.6378 49.6457C57.5842 49.7135 57.5153 49.7738 57.4311 49.8191C57.3469 49.8643 57.2474 49.8869 57.125 49.8869C56.9872 49.8869 56.8418 49.8191 56.6658 49.6758C56.5357 49.5854 56.3827 49.4949 56.2066 49.4044C56.0306 49.314 55.8393 49.231 55.6327 49.1557C55.426 49.0878 55.2041 49.0275 54.9668 48.9823C54.7296 48.937 54.4847 48.9144 54.2245 48.9144C53.9719 48.9144 53.7117 48.937 53.4592 48.9898C53.2066 49.0426 52.977 49.118 52.7704 49.2235C52.5638 49.3291 52.3954 49.4648 52.273 49.6381C52.1352 49.8115 52.074 50.0151 52.074 50.2488Z" fill="black"/>
<path d="M3.17857 65.6506V60.6749H3.89031L5.50511 63.1929C5.88011 63.7734 6.17092 64.3011 6.40817 64.8062L6.42347 64.7987C6.36225 64.1353 6.34694 63.5322 6.34694 62.7557V60.6749H6.95919V65.6506H6.30102L4.69388 63.1251C4.34184 62.5747 4.0051 62.0018 3.75255 61.4665L3.72959 61.4741C3.76786 62.0998 3.78317 62.7029 3.78317 63.5246V65.6506H3.17857Z" fill="black"/>
<path d="M9.4847 64.0825L8.95663 65.6506H8.28316L9.99745 60.6749H10.7857L12.5077 65.6506H11.8112L11.2755 64.0825H9.4847ZM11.1454 63.5849L10.648 62.1526C10.5332 61.8284 10.4643 61.5344 10.3878 61.2479H10.3725C10.2959 61.5419 10.2117 61.8435 10.1199 62.145L9.62245 63.5849H11.1454Z" fill="black"/>
<path d="M14.199 61.2177H12.6607V60.6749H16.4031V61.2177H14.8571V65.643H14.199V61.2177Z" fill="black"/>
<path d="M18.1786 60.6749V63.6226C18.1786 64.7384 18.6837 65.2058 19.3571 65.2058C20.1071 65.2058 20.5893 64.7157 20.5893 63.6226V60.6749H21.2475V63.5774C21.2475 65.1078 20.4286 65.7335 19.3342 65.7335C18.301 65.7335 17.5204 65.153 17.5204 63.6075V60.6749H18.1786Z" fill="black"/>
<path d="M22.9388 60.7428C23.2679 60.6749 23.7424 60.6372 24.1939 60.6372C24.8903 60.6372 25.3418 60.7654 25.6556 61.0443C25.9082 61.263 26.0536 61.6022 26.0536 61.9867C26.0536 62.6426 25.6327 63.0798 25.1046 63.2532V63.2758C25.4949 63.4115 25.7245 63.7659 25.8469 64.2785C26.0153 64.9721 26.1301 65.4546 26.2372 65.643H25.5638C25.4796 65.4998 25.3725 65.0776 25.227 64.4519C25.074 63.7659 24.8061 63.5095 24.2168 63.4869H23.6046V65.643H22.9541V60.7428H22.9388ZM23.5893 63.0044H24.2551C24.9515 63.0044 25.3954 62.6275 25.3954 62.0621C25.3954 61.4213 24.9209 61.1423 24.2321 61.1348C23.9184 61.1348 23.6964 61.165 23.5893 61.1951V63.0044Z" fill="black"/>
<path d="M28.3801 64.0825L27.852 65.6506H27.1786L28.8929 60.6749H29.6888L31.4107 65.6506H30.7143L30.1786 64.0825H28.3801ZM30.0408 63.5849L29.5434 62.1526C29.4286 61.8284 29.3597 61.5344 29.2832 61.2479H29.2679C29.1913 61.5419 29.1071 61.8435 29.0153 62.145L28.5179 63.5849H30.0408Z" fill="black"/>
<path d="M32.7117 60.6749H33.3623V65.1078H35.5204V65.643H32.7117V60.6749Z" fill="black"/>
<path d="M38.8724 64.8665C39.1633 65.0475 39.5918 65.1907 40.0434 65.1907C40.7092 65.1907 41.0995 64.8439 41.0995 64.3388C41.0995 63.8714 40.8316 63.6075 40.1505 63.3512C39.324 63.0647 38.8189 62.6426 38.8189 61.9415C38.8189 61.165 39.4694 60.592 40.449 60.592C40.9694 60.592 41.3444 60.7126 41.5663 60.8333L41.3827 61.3534C41.2143 61.263 40.8776 61.1197 40.426 61.1197C39.7372 61.1197 39.477 61.5268 39.477 61.8661C39.477 62.3335 39.7832 62.5596 40.4796 62.8235C41.3367 63.1477 41.7653 63.5548 41.7653 64.286C41.7653 65.055 41.1913 65.7184 39.9975 65.7184C39.5077 65.7184 38.9796 65.5752 38.7117 65.4018L38.8724 64.8665Z" fill="black"/>
<path d="M44.176 61.2177H42.6378V60.6749H46.3801V61.2177H44.8342V65.643H44.176V61.2177Z" fill="black"/>
<path d="M47.7577 64.0825L47.2296 65.6506H46.5561L48.2704 60.6749H49.0587L50.7806 65.6506H50.0842L49.5408 64.0825H47.7577ZM49.4184 63.5849L48.9209 62.1526C48.8061 61.8284 48.7296 61.5344 48.6607 61.2479H48.6454C48.5689 61.5419 48.4847 61.8435 48.3929 62.145L47.8954 63.5849H49.4184Z" fill="black"/>
<path d="M52.625 65.6506V63.5397L51.0255 60.6749H51.7679L52.4796 62.047C52.6709 62.4239 52.824 62.7255 52.9847 63.0723H53C53.1454 62.7481 53.3138 62.4239 53.5128 62.047L54.2398 60.6749H54.9822L53.2832 63.5322V65.6506H52.625Z" fill="black"/>
</svg>
